<svg xmlns="http://www.w3.org/2000/svg" width="116" height="116" viewBox="0 0 116 116">
  <g id="img17_1" transform="translate(-5201 7040)">
    <circle id="Elipse_11570" data-name="Elipse 11570" cx="58" cy="58" r="58" transform="translate(5201 -7040)" fill="#59c4c8"/>
    <g id="Grupo_1122367" data-name="Grupo 1122367" transform="translate(4874.422 -11610)">
      <g id="Grupo_1099870" data-name="Grupo 1099870" transform="translate(339.578 4583)">
        <g id="Grupo_1073526" data-name="Grupo 1073526" transform="translate(0 0)">
          <g id="Grupo_1072785" data-name="Grupo 1072785" transform="translate(0 0)">
            <path id="Trazado_608385" data-name="Trazado 608385" d="M45.092,0A45.092,45.092,0,1,1,0,45.092,45.092,45.092,0,0,1,45.092,0Z" transform="translate(0 0)" fill="none"/>
          </g>
          <g id="Grupo_1073383" data-name="Grupo 1073383" transform="translate(0 0)">
            <path id="Trazado_608385-2" data-name="Trazado 608385" d="M45.092,0A45.092,45.092,0,1,1,0,45.092,45.092,45.092,0,0,1,45.092,0Z" transform="translate(0 0)" fill="#fff"/>
          </g>
        </g>
      </g>
      <g id="Grupo_1099871" data-name="Grupo 1099871" transform="translate(-62.559 -1443.469)">
        <rect id="Rectángulo_401104" data-name="Rectángulo 401104" width="59" height="59" transform="translate(418.137 6042.469)" fill="none"/>
        <g id="Icons" transform="translate(414.137 6038.469)">
          <g id="Grupo_1122234" data-name="Grupo 1122234" transform="translate(4 4)">
            <g id="Grupo_1122232" data-name="Grupo 1122232">
              <g id="Grupo_1122218" data-name="Grupo 1122218" transform="translate(14.75 14.75)">
                <path id="Trazado_912362" data-name="Trazado 912362" d="M34.857,43.286a8.4,8.4,0,0,1,2.872-6.321,8.4,8.4,0,0,1,1.342-13.61V20.107H34.74a8.423,8.423,0,0,1-3.77-.89L28.536,18,26.1,19.217a8.423,8.423,0,0,1-3.77.89H18V35.213a10.535,10.535,0,0,0,5.115,9.034L28.536,47.5l5.421-3.252a10.6,10.6,0,0,0,.9-.624Z" transform="translate(-18 -18)" fill="#3cc8b4"/>
              </g>
              <g id="Grupo_1122219" data-name="Grupo 1122219" transform="translate(33.714 33.714)">
                <path id="Trazado_912363" data-name="Trazado 912363" d="M48.643,46.536H36V42.321a6.321,6.321,0,0,1,12.643,0Z" transform="translate(-36 -36)" fill="#64c8f0"/>
              </g>
              <g id="Grupo_1122220" data-name="Grupo 1122220" transform="translate(33.714 33.714)">
                <path id="Trazado_912364" data-name="Trazado 912364" d="M44.429,36.368A6.307,6.307,0,0,0,36,42.321v4.214h4.214V42.321A6.317,6.317,0,0,1,44.429,36.368Z" transform="translate(-36 -36)" fill="#46aad2"/>
              </g>
              <g id="Grupo_1122221" data-name="Grupo 1122221" transform="translate(14.75 16.857)">
                <path id="Trazado_912365" data-name="Trazado 912365" d="M25.222,44.14a10.535,10.535,0,0,1-5.115-9.034V20H18V35.106a10.535,10.535,0,0,0,5.115,9.034l5.421,3.252,1.054-.632Z" transform="translate(-18 -20)" fill="#1eaa96"/>
              </g>
              <g id="Grupo_1122222" data-name="Grupo 1122222" transform="translate(0 44.25)">
                <path id="Trazado_912366" data-name="Trazado 912366" d="M4,46h6.321V60.75H4Z" transform="translate(-4 -46)" fill="#3cc8b4"/>
              </g>
              <g id="Grupo_1122223" data-name="Grupo 1122223" transform="translate(0 44.25)">
                <path id="Trazado_912367" data-name="Trazado 912367" d="M4,46H6.107V60.75H4Z" transform="translate(-4 -46)" fill="#1eaa96"/>
              </g>
              <g id="Grupo_1122224" data-name="Grupo 1122224" transform="translate(6.321 46.357)">
                <path id="Trazado_912368" data-name="Trazado 912368" d="M48.852,52.363l-15.282,1.91a6.287,6.287,0,0,1-.784.048H26.857a2.107,2.107,0,0,1-2.107-2.107l8.842-1.768a2.108,2.108,0,0,0,1.694-2.067V48H10v8.429l16.819,3.737a8.424,8.424,0,0,0,4.25-.155l18.215-5.465a1.05,1.05,0,0,0,.751-1.008v-.13a1.053,1.053,0,0,0-1.184-1.045Z" transform="translate(-10 -48)" fill="#f0c8a0"/>
              </g>
              <g id="Grupo_1122225" data-name="Grupo 1122225" transform="translate(52.679)">
                <path id="Trazado_912369" data-name="Trazado 912369" d="M54,4h6.321V18.75H54Z" transform="translate(-54 -4)" fill="#3cc8b4"/>
              </g>
              <g id="Grupo_1122226" data-name="Grupo 1122226" transform="translate(52.679)">
                <path id="Trazado_912370" data-name="Trazado 912370" d="M54,4h2.107V18.75H54Z" transform="translate(-54 -4)" fill="#1eaa96"/>
              </g>
              <g id="Grupo_1122227" data-name="Grupo 1122227" transform="translate(12.643 0.275)">
                <path id="Trazado_912371" data-name="Trazado 912371" d="M17.184,12.266l15.282-1.91a6.3,6.3,0,0,1,.784-.048h5.928a2.107,2.107,0,0,1,2.107,2.107l-8.842,1.768A2.108,2.108,0,0,0,30.75,16.25v.379H56.036V8.2L39.216,4.462a8.425,8.425,0,0,0-4.25.155L16.751,10.082A1.054,1.054,0,0,0,16,11.091v.13a1.053,1.053,0,0,0,1.184,1.045Z" transform="translate(-16 -4.261)" fill="#f0c8a0"/>
              </g>
              <g id="Grupo_1122228" data-name="Grupo 1122228" transform="translate(33.714 21.071)">
                <path id="Trazado_912372" data-name="Trazado 912372" d="M42.321,36.643a6.321,6.321,0,1,1,6.321-6.321A6.321,6.321,0,0,1,42.321,36.643Z" transform="translate(-36 -24)" fill="#f0c8a0"/>
              </g>
              <g id="Grupo_1122229" data-name="Grupo 1122229" transform="translate(33.714 21.071)">
                <path id="Trazado_912373" data-name="Trazado 912373" d="M36,30.321a6.321,6.321,0,1,1,12.643,0Z" transform="translate(-36 -24)" fill="#fab400"/>
              </g>
              <g id="Grupo_1122230" data-name="Grupo 1122230" transform="translate(33.714 21.071)">
                <path id="Trazado_912374" data-name="Trazado 912374" d="M40.214,30.321a6.317,6.317,0,0,1,4.214-5.954,6.321,6.321,0,1,0,0,11.907A6.317,6.317,0,0,1,40.214,30.321Z" transform="translate(-36 -24)" fill="#d2aa82"/>
              </g>
              <g id="Grupo_1122231" data-name="Grupo 1122231" transform="translate(33.714 21.071)">
                <path id="Trazado_912375" data-name="Trazado 912375" d="M44.429,24.368A6.307,6.307,0,0,0,36,30.321h4.214a6.317,6.317,0,0,1,4.214-5.954Z" transform="translate(-36 -24)" fill="#dc9600"/>
              </g>
            </g>
            <g id="Grupo_1122233" data-name="Grupo 1122233" transform="translate(21.071 25.286)">
              <path id="Trazado_912376" data-name="Trazado 912376" d="M32.429,31.161H29.268V28H27.161v3.161H24v2.107h3.161v3.161h2.107V33.268h3.161Z" transform="translate(-24 -28)" fill="#f0f0f0"/>
            </g>
          </g>
        </g>
      </g>
    </g>
  </g>
</svg>
