<svg xmlns="http://www.w3.org/2000/svg" width="116" height="116" viewBox="0 0 116 116">
  <g id="img18_1" transform="translate(-5620 7040)">
    <circle id="Elipse_11568" data-name="Elipse 11568" cx="58" cy="58" r="58" transform="translate(5620 -7040)" fill="#59c4c8"/>
    <g id="Grupo_1122368" data-name="Grupo 1122368" transform="translate(4874.422 -11610)">
      <g id="Grupo_1099868" data-name="Grupo 1099868" transform="translate(758.578 4583)">
        <g id="Grupo_1073526" data-name="Grupo 1073526" transform="translate(0 0)">
          <g id="Grupo_1072785" data-name="Grupo 1072785" transform="translate(0 0)">
            <path id="Trazado_608385" data-name="Trazado 608385" d="M45.092,0A45.092,45.092,0,1,1,0,45.092,45.092,45.092,0,0,1,45.092,0Z" transform="translate(0 0)" fill="none"/>
          </g>
          <g id="Grupo_1073383" data-name="Grupo 1073383" transform="translate(0 0)">
            <path id="Trazado_608385-2" data-name="Trazado 608385" d="M45.092,0A45.092,45.092,0,1,1,0,45.092,45.092,45.092,0,0,1,45.092,0Z" transform="translate(0 0)" fill="#fff"/>
          </g>
        </g>
      </g>
      <g id="Grupo_1099872" data-name="Grupo 1099872" transform="translate(356.441 -1443.469)">
        <rect id="Rectángulo_401104" data-name="Rectángulo 401104" width="59" height="59" transform="translate(418.137 6042.469)" fill="none"/>
        <g id="Layer_2" data-name="Layer 2" transform="translate(417.11 6041.317)">
          <path id="Trazado_912390" data-name="Trazado 912390" d="M36.216,39.4A17.423,17.423,0,0,0,24.429,24.626a12.4,12.4,0,1,0-11.117,0A17.423,17.423,0,0,0,1.525,39.4a6.22,6.22,0,0,0,6.189,6.839H30.027A6.22,6.22,0,0,0,36.216,39.4Z" transform="translate(0 0)" fill="#0db561"/>
          <circle id="Elipse_11567" data-name="Elipse 11567" cx="15.707" cy="15.707" r="15.707" transform="translate(28.144 28.737)" fill="#ffcb27"/>
          <path id="Trazado_912391" data-name="Trazado 912391" d="M21.323,14.526l-1.768,4.127a.869.869,0,0,1-.8.527H14.911a.869.869,0,0,0-.614,1.483l2.824,2.825a.868.868,0,0,1,.228.825l-1.249,5a.869.869,0,0,0,1.274.965l4.316-2.467a.868.868,0,0,1,.862,0l4.316,2.467a.869.869,0,0,0,1.274-.965l-1.249-5a.868.868,0,0,1,.228-.825l2.824-2.825a.869.869,0,0,0-.614-1.483H25.486a.869.869,0,0,1-.8-.527L22.92,14.526a.869.869,0,0,0-1.6,0Z" transform="translate(21.73 22.249)" fill="#fff"/>
        </g>
      </g>
    </g>
  </g>
</svg>
