<svg xmlns="http://www.w3.org/2000/svg" width="144.162" height="144.161" viewBox="0 0 144.162 144.161">
  <g id="img24" transform="translate(-307.664 -4469.839)">
    <rect id="Rectángulo_401345" data-name="Rectángulo 401345" width="126" height="126" transform="translate(316.664 4479)" fill="#fff"/>
    <path id="Sustracción_141" data-name="Sustracción 141" d="M19166.113,11844.16l-124.449-19.712,19.715-124.449,124.447,19.713-19.713,124.448v0h0v0Zm-97.256-133.861-16.9,106.667,106.672,16.9,16.9-106.672-106.672-16.891Z" transform="translate(-18734 -7230.16)" fill="#59c4c8"/>
    <g id="Grupo_1099758" data-name="Grupo 1099758" transform="translate(337.469 4500.701)">
      <rect id="Rectángulo_401104" data-name="Rectángulo 401104" width="84.031" height="84.031" transform="translate(0 0)" fill="none"/>
      <g id="Grupo_1122251" data-name="Grupo 1122251" transform="translate(-26.837 -24)">
        <path id="Trazado_912402" data-name="Trazado 912402" d="M113.134,80.5H32s0-11.591,2.9-18.835,2.9-11.591,4.346-15.937S47.937,24,72.567,24s31.874,17.386,33.323,21.732,1.449,8.693,4.346,15.937S113.134,80.5,113.134,80.5Z" transform="translate(-3.713)" fill="#828c52"/>
        <path id="Trazado_912403" data-name="Trazado 912403" d="M48,256.63a85.963,85.963,0,0,0,75.338,0l-5.8-17.386L85.669,232,53.8,239.244Z" transform="translate(-16.816 -170.331)" fill="#60663c"/>
        <path id="Trazado_912404" data-name="Trazado 912404" d="M400,272h8.693v39.118H400Z" transform="translate(-305.068 -203.087)" fill="#967c3f"/>
        <path id="Trazado_912405" data-name="Trazado 912405" d="M400,456h8.693v5.8H400Z" transform="translate(-305.068 -353.764)" fill="#60663c"/>
        <path id="Trazado_912406" data-name="Trazado 912406" d="M0,0H8.693V39.118H0Z" transform="translate(42.775 108.031) rotate(180)" fill="#967c3f"/>
        <path id="Trazado_912407" data-name="Trazado 912407" d="M0,0H8.693V5.8H0Z" transform="translate(42.775 108.031) rotate(180)" fill="#60663c"/>
        <g id="Grupo_1122250" data-name="Grupo 1122250" transform="translate(27.465 31.243)">
          <path id="Trazado_912408" data-name="Trazado 912408" d="M109.392,240.658l-2.87,2.87L99.7,229.884a2.9,2.9,0,0,0-1.306-1.3A69.693,69.693,0,0,0,68.853,221.8a69.693,69.693,0,0,0-29.541,6.788,2.9,2.9,0,0,0-1.306,1.3l-6.822,13.644-2.87-2.87a2.9,2.9,0,0,1-.543-3.345l5.562-11.124a5.749,5.749,0,0,1,2.288-2.429C47.27,217.116,64.694,216,68.853,216s21.583,1.116,33.232,7.76a5.749,5.749,0,0,1,2.287,2.429l5.562,11.124a2.9,2.9,0,0,1-.542,3.345Z" transform="translate(-27.465 -188.472)" fill="#737d49"/>
          <path id="Trazado_912409" data-name="Trazado 912409" d="M105.449,88.626A1.449,1.449,0,0,1,104,87.177a23.212,23.212,0,0,1,8.47-17.939,29.887,29.887,0,0,1,8.421-5.155,1.449,1.449,0,1,1,.992,2.723,27.471,27.471,0,0,0-7.592,4.688A20.12,20.12,0,0,0,106.9,87.177,1.449,1.449,0,0,1,105.449,88.626Z" transform="translate(-90.139 -63.995)" fill="#737d49"/>
        </g>
      </g>
    </g>
  </g>
</svg>
