<svg xmlns="http://www.w3.org/2000/svg" width="144.162" height="144.161" viewBox="0 0 144.162 144.161">
  <g id="img26" transform="translate(-307.664 -4469.839)">
    <rect id="Rectángulo_401345" data-name="Rectángulo 401345" width="126" height="126" transform="translate(316.664 4479)" fill="#fff"/>
    <path id="Sustracción_141" data-name="Sustracción 141" d="M19166.113,11844.16l-124.449-19.712,19.715-124.449,124.447,19.713-19.713,124.448v0h0v0Zm-97.256-133.861-16.9,106.667,106.672,16.9,16.9-106.672-106.672-16.891Z" transform="translate(-18734 -7230.16)" fill="#59c4c8"/>
    <g id="Grupo_1099758" data-name="Grupo 1099758" transform="translate(337.469 4500.701)">
      <rect id="Rectángulo_401104" data-name="Rectángulo 401104" width="84.031" height="84.031" transform="translate(0 0)" fill="none"/>
      <g id="Grupo_1122252" data-name="Grupo 1122252" transform="translate(-9.879 -7.297)">
        <path id="Trazado_912410" data-name="Trazado 912410" d="M86.454,35a29.833,29.833,0,0,1-4.241,17.725A35.481,35.481,0,0,0,76.9,71.1V88.051a3.274,3.274,0,0,1-3.274,3.277H49.863a3.274,3.274,0,0,1-3.274-3.274V77.938A2.441,2.441,0,0,0,44.148,75.5H35.93a9.246,9.246,0,0,1-9.246-9.245v-7.36a1.669,1.669,0,0,0-1.495-1.66l-6.166-.644a1.977,1.977,0,0,1-1.4-3.119L24.6,43.743a11.1,11.1,0,0,0,2.083-6.482v-.033A29.927,29.927,0,0,1,86.454,35Z" transform="translate(0)" fill="#ffd0c8"/>
        <path id="Trazado_912411" data-name="Trazado 912411" d="M72.84,53.1c-9.554,7.457-9.757,7.448-19.359.053C27.544,33.168,50.014,9.509,63.148,26.107,74.781,9.487,98.432,33.125,72.84,53.1Z" transform="translate(-6.291 -3.417)" fill="#ff6893"/>
        <path id="Trazado_912412" data-name="Trazado 912412" d="M76.093,41.987H69.914V35.809H64.728v6.178h-6.18v5.186h6.18v6.18h5.186v-6.18h6.179Z" transform="translate(-10.696 -7.385)" fill="#f8fffb"/>
      </g>
    </g>
  </g>
</svg>
