<svg xmlns="http://www.w3.org/2000/svg" width="139" height="138.999" viewBox="0 0 139 138.999">
  <g id="img31" transform="translate(-173 -7366)">
    <g id="Grupo_1099775" data-name="Grupo 1099775" transform="translate(-407 1749.16)">
      <g id="Grupo_1099770" data-name="Grupo 1099770" transform="translate(580 5616.839)">
        <rect id="Rectángulo_401345" data-name="Rectángulo 401345" width="120.838" height="120.838" transform="translate(9 9.161)" fill="#fff"/>
        <path id="Sustracción_141" data-name="Sustracción 141" d="M119.994,139,0,119.993,19.01,0,139,19.008,119.994,139v0h0v0ZM26.221,9.932,9.926,112.779l102.854,16.29L129.07,26.218,26.219,9.932Z" fill="#9ac1df"/>
      </g>
    </g>
    <g id="Grupo_1099776" data-name="Grupo 1099776" transform="translate(201.414 7393.395)">
      <g id="Grupo_1099618" data-name="Grupo 1099618" transform="translate(0 0)">
        <rect id="Rectángulo_401104" data-name="Rectángulo 401104" width="81.642" height="82.626" fill="none"/>
      </g>
      <path id="Trazado_912413" data-name="Trazado 912413" d="M51.957,67.358a1.317,1.317,0,0,0-.8-1.21L37.38,60.242a1.318,1.318,0,0,0-1.037,0L22.563,66.148a1.317,1.317,0,0,0-.8,1.21V78.5c0,8.583,6.115,15.644,14.87,17.17a1.315,1.315,0,0,0,.452,0c8.755-1.526,14.87-8.586,14.87-17.17V67.358ZM49.324,78.5A14.8,14.8,0,0,1,36.861,93.034,14.8,14.8,0,0,1,24.4,78.5V68.227l12.463-5.341,12.463,5.341ZM36.861,70.708a1.317,1.317,0,0,1,1.317,1.317V72.2a4.123,4.123,0,0,1,2.637,2.373,1.317,1.317,0,0,1-2.428,1.02,1.646,1.646,0,0,0-1.939-.89c-.23.052-.978.275-.945.955.008.164.032.665,1.581.919,2.469.405,3.833,1.533,4.054,3.352a3.079,3.079,0,0,1-.726,2.45,4.235,4.235,0,0,1-2.233,1.269V83.8a1.317,1.317,0,0,1-2.634,0v-.172A4.022,4.022,0,0,1,32.6,80.734a1.317,1.317,0,0,1,2.555-.637,1.684,1.684,0,0,0,1.8,1.071,2.172,2.172,0,0,0,1.468-.509.467.467,0,0,0,.1-.41c-.028-.234-.095-.78-1.866-1.071-3.176-.522-3.735-2.349-3.785-3.391a3.54,3.54,0,0,1,2.673-3.566v-.2a1.317,1.317,0,0,1,1.317-1.317Zm-10.622,7.2A10.622,10.622,0,1,0,36.861,67.291,10.634,10.634,0,0,0,26.24,77.913Zm18.61,0a7.988,7.988,0,1,1-7.988-7.988A8,8,0,0,1,44.849,77.913Zm19.224,18.1a1.317,1.317,0,0,0-1.255-.918H61.341l.008-48.71a13.5,13.5,0,0,0-.248-2.566c4.438.228,5.593-2.368,5.862-3.31a4.787,4.787,0,0,0-2.9-5.757L41.982,28.159a8.556,8.556,0,0,0-6.876.836l-12.289,7.1-1.56-.418.379-1.465a2.913,2.913,0,0,0-2.088-3.545l-3.375-.873a2.913,2.913,0,0,0-3.545,2.087L8.09,49.409a2.914,2.914,0,0,0,2.088,3.545l3.375.873A2.908,2.908,0,0,0,17.1,51.739l.3-1.142,8.628,2.323a14.326,14.326,0,0,0,3.7.577,7.273,7.273,0,0,0,4.061-1.154c.15-.1.306-.2.467-.309v.08a3.649,3.649,0,0,0,7.3,0V47.252c.633-.354,1.279-.691,1.934-1a1.309,1.309,0,0,0,.155-.086,4.454,4.454,0,0,0,1.542-5.938q-.127-.221-.27-.42a5.945,5.945,0,0,1,.876.171l6.049,1.646a6.215,6.215,0,0,1,2.219,4.761l.008,48.71H52.581a1.317,1.317,0,0,0-1.255.918L49.68,101.2a1.317,1.317,0,0,0,1.255,1.715H64.464a1.317,1.317,0,0,0,1.255-1.715ZM14.213,51.277,10.838,50.4a.28.28,0,0,1-.2-.335l4.537-17.532a.28.28,0,0,1,.269-.206.262.262,0,0,1,.066.008l3.375.873a.279.279,0,0,1,.2.336l-.7,2.717h0L14.548,51.08A.279.279,0,0,1,14.213,51.277Zm24.7.838a1.016,1.016,0,0,1-2.031,0v-1.9c.643-.444,1.322-.905,2.031-1.366Zm1.8-14.171-1.24.558-.048.023c-1.545.772-2.942,1.609-4.42,2.5-.669.4-1.362.816-2.069,1.225a1.317,1.317,0,1,0,1.317,2.281c.726-.419,1.428-.84,2.106-1.247,1.416-.849,2.756-1.651,4.19-2.371a1.689,1.689,0,0,1,2.347.637,1.794,1.794,0,0,1-.63,2.368,56.474,56.474,0,0,0-7.924,4.859c-.763.531-1.421.99-2,1.363-1.364.885-3,.955-5.64.244l-8.653-2.33L20.6,38.221l2.065.553a1.318,1.318,0,0,0,1-.132l12.762-7.368a5.9,5.9,0,0,1,4.806-.593l22.083,6.593a2.174,2.174,0,0,1,1.119,2.511c-.414,1.452-2.668,1.81-5.882.936L46.473,37.437a8.288,8.288,0,0,0-5.76.506Zm15.971,8.441a8.824,8.824,0,0,0-.791-3.655l1.964.534c.147.04.288.074.431.11a10.827,10.827,0,0,1,.427,3.011L58.707,95.1H56.692Zm-3.95,53.9.81-2.552h8.31l.81,2.552ZM14.186,48.455a1.083,1.083,0,1,1-1.2-.95A1.083,1.083,0,0,1,14.186,48.455ZM86.241,69.384a13.313,13.313,0,1,0-19.829,0,4.219,4.219,0,0,0-3.4,4.133v2.126a4.2,4.2,0,0,0,1.157,2.9,4.2,4.2,0,0,0-1.157,2.9V83.56a4.2,4.2,0,0,0,1.157,2.9,4.2,4.2,0,0,0-1.157,2.9v2.126a4.217,4.217,0,0,0,4.213,4.212h18.2a4.217,4.217,0,0,0,4.213-4.212V89.351a4.2,4.2,0,0,0-1.157-2.9,4.2,4.2,0,0,0,1.157-2.9V81.434a4.2,4.2,0,0,0-1.157-2.9,4.2,4.2,0,0,0,1.157-2.9V73.516a4.219,4.219,0,0,0-3.4-4.133ZM76.326,49.832A10.679,10.679,0,1,1,65.647,60.512,10.691,10.691,0,0,1,76.326,49.832ZM65.647,73.517a1.581,1.581,0,0,1,1.579-1.579H69.5a13.279,13.279,0,0,0,13.645,0h2.278a1.581,1.581,0,0,1,1.579,1.579v2.126a1.581,1.581,0,0,1-1.579,1.579h-18.2a1.581,1.581,0,0,1-1.579-1.579Zm21.358,7.917V83.56a1.581,1.581,0,0,1-1.579,1.579h-18.2a1.581,1.581,0,0,1-1.579-1.579V81.434a1.581,1.581,0,0,1,1.579-1.579h18.2a1.581,1.581,0,0,1,1.579,1.579Zm0,10.043a1.581,1.581,0,0,1-1.579,1.579h-18.2a1.581,1.581,0,0,1-1.579-1.579V89.351a1.581,1.581,0,0,1,1.579-1.579h18.2a1.581,1.581,0,0,1,1.579,1.579ZM78.623,64.3a.982.982,0,0,0,.224-.824c-.073-.6-.448-1.337-2.722-1.711-3.638-.6-4.488-2.512-4.561-4.014a4.235,4.235,0,0,1,3.447-4.289V52.92a1.317,1.317,0,0,1,2.634,0v.532a4.839,4.839,0,0,1,3.429,2.9,1.317,1.317,0,1,1-2.428,1.02,2.474,2.474,0,0,0-2.936-1.372c-.263.06-1.573.418-1.515,1.62.016.319.057,1.165,2.357,1.543,3,.492,4.648,1.835,4.91,3.992a3.6,3.6,0,0,1-.846,2.864A5.2,5.2,0,0,1,77.643,67.6v.5a1.317,1.317,0,0,1-2.634,0v-.521A4.853,4.853,0,0,1,71.2,64.057a1.317,1.317,0,0,1,2.555-.637,2.531,2.531,0,0,0,2.7,1.67,3.14,3.14,0,0,0,2.172-.787Z" transform="translate(-7.997 -24.037)" fill="#445866"/>
    </g>
  </g>
</svg>
