<svg xmlns="http://www.w3.org/2000/svg" width="139" height="138.999" viewBox="0 0 139 138.999">
  <g id="img7" transform="translate(-173 -7366)">
    <g id="Grupo_1099775" data-name="Grupo 1099775" transform="translate(-407 1749.16)">
      <g id="Grupo_1099770" data-name="Grupo 1099770" transform="translate(580 5616.839)">
        <rect id="Rectángulo_401345" data-name="Rectángulo 401345" width="120.838" height="120.838" transform="translate(9 9.161)" fill="#fff"/>
        <path id="Sustracción_141" data-name="Sustracción 141" d="M119.994,139,0,119.993,19.01,0,139,19.008,119.994,139v0h0v0ZM26.221,9.932,9.926,112.779l102.854,16.29L129.07,26.218,26.219,9.932Z" fill="#59c4c8"/>
      </g>
    </g>
    <g id="Grupo_1099776" data-name="Grupo 1099776" transform="translate(201.414 7393.395)">
      <g id="Grupo_1099618" data-name="Grupo 1099618" transform="translate(0 0)">
        <rect id="Rectángulo_401104" data-name="Rectángulo 401104" width="81.642" height="82.626" fill="none"/>
      </g>
      <g id="Grupo_1122208" data-name="Grupo 1122208" transform="translate(-29.022 0)">
        <g id="Grupo_1122207" data-name="Grupo 1122207" transform="translate(34.02 0)">
          <path id="Trazado_912289" data-name="Trazado 912289" d="M133.773,135.574a1.21,1.21,0,0,0-1.693.257l-2.4,3.255-.819-1.125a1.211,1.211,0,1,0-1.957,1.425l1.413,1.941a1.689,1.689,0,0,0,1.356.692h0a1.688,1.688,0,0,0,1.355-.685l2.994-4.067a1.211,1.211,0,0,0-.258-1.693Z" transform="translate(-111.724 -113.498)" fill="#445866"/>
          <path id="Trazado_912290" data-name="Trazado 912290" d="M133.772,258.6a1.21,1.21,0,0,0-1.693.257l-2.4,3.255-.819-1.125a1.211,1.211,0,1,0-1.958,1.425l1.413,1.941a1.688,1.688,0,0,0,1.356.692h0a1.689,1.689,0,0,0,1.355-.685l2.994-4.067A1.211,1.211,0,0,0,133.772,258.6Z" transform="translate(-111.723 -216.671)" fill="#445866"/>
          <path id="Trazado_912291" data-name="Trazado 912291" d="M133.772,376.385a1.21,1.21,0,0,0-1.693.257l-2.4,3.255-.819-1.125a1.211,1.211,0,1,0-1.958,1.425l1.413,1.941a1.688,1.688,0,0,0,1.356.692h0a1.689,1.689,0,0,0,1.355-.685l2.994-4.067A1.211,1.211,0,0,0,133.772,376.385Z" transform="translate(-111.723 -315.447)" fill="#445866"/>
          <path id="Trazado_912292" data-name="Trazado 912292" d="M221.736,135.288H236.7a1.211,1.211,0,0,0,0-2.421H221.736a1.211,1.211,0,0,0,0,2.421Z" transform="translate(-190.427 -111.425)" fill="#445866"/>
          <path id="Trazado_912293" data-name="Trazado 912293" d="M221.736,166.629h7.481a1.211,1.211,0,1,0,0-2.421h-7.481a1.211,1.211,0,1,0,0,2.421Z" transform="translate(-190.427 -137.708)" fill="#445866"/>
          <path id="Trazado_912294" data-name="Trazado 912294" d="M221.736,255.693h10.039a1.211,1.211,0,1,0,0-2.421H221.736a1.211,1.211,0,1,0,0,2.421Z" transform="translate(-190.427 -212.399)" fill="#445866"/>
          <path id="Trazado_912295" data-name="Trazado 912295" d="M229.217,287.035a1.211,1.211,0,0,0,0-2.421h-7.481a1.211,1.211,0,0,0,0,2.421Z" transform="translate(-190.427 -238.683)" fill="#445866"/>
          <path id="Trazado_912296" data-name="Trazado 912296" d="M114.605,108.047h-9.327a3.085,3.085,0,0,0-3.082,3.082v9.327a3.085,3.085,0,0,0,3.082,3.082h9.327a3.085,3.085,0,0,0,3.082-3.082v-9.327a3.085,3.085,0,0,0-3.082-3.082Zm.661,12.408a.661.661,0,0,1-.66.66h-9.327a.661.661,0,0,1-.66-.66v-9.327a.661.661,0,0,1,.66-.66h9.327a.661.661,0,0,1,.66.66Z" transform="translate(-91.195 -90.611)" fill="#445866"/>
          <path id="Trazado_912297" data-name="Trazado 912297" d="M114.605,228.453h-9.327a3.085,3.085,0,0,0-3.082,3.082v9.327a3.085,3.085,0,0,0,3.082,3.082h9.327a3.085,3.085,0,0,0,3.082-3.082v-9.327A3.085,3.085,0,0,0,114.605,228.453Zm.661,12.408a.661.661,0,0,1-.66.66h-9.327a.661.661,0,0,1-.66-.66v-9.327a.661.661,0,0,1,.66-.66h9.327a.661.661,0,0,1,.66.66Z" transform="translate(-91.195 -191.586)" fill="#445866"/>
          <path id="Trazado_912298" data-name="Trazado 912298" d="M114.605,348.857h-9.327a3.085,3.085,0,0,0-3.082,3.082v9.327a3.085,3.085,0,0,0,3.082,3.082h9.327a3.085,3.085,0,0,0,3.082-3.082v-9.327A3.085,3.085,0,0,0,114.605,348.857Zm.661,12.408a.661.661,0,0,1-.66.66h-9.327a.661.661,0,0,1-.66-.66v-9.327a.661.661,0,0,1,.66-.66h9.327a.661.661,0,0,1,.66.66Z" transform="translate(-91.195 -292.559)" fill="#445866"/>
          <path id="Trazado_912299" data-name="Trazado 912299" d="M103.612,20.708l-1.921-1.217a4.42,4.42,0,0,0-6.1,1.371l-1.762,2.784-2.447,3.866-2.767,4.372V13.711a2.272,2.272,0,0,0-2.27-2.27H77.671V9.02H89.285a1.754,1.754,0,0,1,1.752,1.752V21.257a1.211,1.211,0,1,0,2.421,0V10.772A4.178,4.178,0,0,0,89.285,6.6H77.421a3.3,3.3,0,0,0-3.049-2.042H71.244V3.338A3.342,3.342,0,0,0,67.906,0H59.573a3.342,3.342,0,0,0-3.338,3.338V4.557H53.107A3.3,3.3,0,0,0,50.058,6.6H38.193a4.178,4.178,0,0,0-4.173,4.173v67.68a4.178,4.178,0,0,0,4.173,4.173H89.285a4.178,4.178,0,0,0,4.173-4.173V51.307a1.211,1.211,0,0,0-2.421,0V78.452A1.754,1.754,0,0,1,89.285,80.2H38.193a1.754,1.754,0,0,1-1.752-1.752V10.772A1.754,1.754,0,0,1,38.193,9.02H49.807v2.421H41.132a2.272,2.272,0,0,0-2.27,2.27v61.8a2.272,2.272,0,0,0,2.27,2.27H86.346a2.272,2.272,0,0,0,2.27-2.27V52.667l12.157-19.21h0l2.446-3.865,1.763-2.786a4.425,4.425,0,0,0-1.37-6.1Zm-4.724.567a1.983,1.983,0,0,1,1.507.261l1.921,1.217a2,2,0,0,1,.62,2.757l-1.115,1.763-5.3-3.355,1.115-1.761a1.985,1.985,0,0,1,1.251-.881ZM75.959,68.14a8.15,8.15,0,0,1-.767,1.022,8.511,8.511,0,0,0-1.287-1.378L96.464,32.162l1.616,1.023Zm-8.267,7.22a.162.162,0,0,0-.023-.009h0l1.71-7.1a6.1,6.1,0,0,1,4,2.531c-6.41,5.165-5.592,4.5-5.683,4.58Zm27.536-49.4,5.3,3.355-1.152,1.82-5.3-3.355Zm-43-18.08c0-.015,0-.03,0-.045s0-.01,0-.015a.879.879,0,0,1,.877-.846h3.468A2.083,2.083,0,0,0,58.656,4.9V3.338a.918.918,0,0,1,.917-.917h8.333a.918.918,0,0,1,.917.917V4.9A2.083,2.083,0,0,0,70.9,6.978h3.468a.879.879,0,0,1,.877.846c0,.005,0,.01,0,.015s0,.03,0,.044v3.558H52.228ZM41.284,13.863H86.195V35.71L73.524,55.732a1.211,1.211,0,1,0,2.046,1.295l17.211-27.2,1.637,1.037L71.859,66.49a8.5,8.5,0,0,0-1.8-.574,8.187,8.187,0,0,1,.6-1.131l1.882-2.974A1.211,1.211,0,1,0,70.5,60.516L68.614,63.49a10.562,10.562,0,0,0-1.347,3.182h0l-1.951,8.093a2.513,2.513,0,0,0-.07.6H41.284Zm44.911,61.5H71.549L75.7,72.014A10.558,10.558,0,0,0,78,69.435l8.19-12.942Z" transform="translate(-34.02 0)" fill="#445866"/>
        </g>
      </g>
    </g>
  </g>
</svg>
