<svg xmlns="http://www.w3.org/2000/svg" xmlns:xlink="http://www.w3.org/1999/xlink" width="73" height="73" viewBox="0 0 73 73">
  <defs>
    <linearGradient id="linear-gradient" x1="0.5" x2="0.5" y2="1" gradientUnits="objectBoundingBox">
      <stop offset="0" stop-color="#ddf1ff"/>
      <stop offset="1" stop-color="#fff"/>
    </linearGradient>
    <clipPath id="clip-path">
      <rect id="Rectángulo_410576" data-name="Rectángulo 410576" width="36.654" height="43.586" fill="#445866"/>
    </clipPath>
  </defs>
  <g id="img2" transform="translate(-264.528 -6025.861)">
    <g id="Grupo_1099808" data-name="Grupo 1099808" transform="translate(264.663 6025.995)">
      <g id="Grupo_1099775" data-name="Grupo 1099775" transform="translate(0 0)">
        <g id="Grupo_1099770" data-name="Grupo 1099770">
          <rect id="Rectángulo_401345" data-name="Rectángulo 401345" width="61.989" height="61.989" transform="translate(5.324 5.419)" fill="url(#linear-gradient)"/>
          <path id="Sustracción_141" data-name="Sustracción 141" d="M63.019,73,0,63.018,9.984,0,73,9.982,63.019,73h0ZM13.771,5.215,5.213,59.229l54.017,8.555,8.556-54.016L13.77,5.215Z" transform="translate(-0.135 -0.134)" fill="#59c4c8"/>
        </g>
      </g>
      <g id="Grupo_1099776" data-name="Grupo 1099776" transform="translate(14.784 14.782)">
        <g id="Grupo_1099618" data-name="Grupo 1099618" transform="translate(0 0)">
          <rect id="Rectángulo_401104" data-name="Rectángulo 401104" width="42.655" height="43.169" transform="translate(0)" fill="none"/>
        </g>
        <g id="Grupo_1122007" data-name="Grupo 1122007" transform="translate(3 -0.209)">
          <g id="Grupo_1122006" data-name="Grupo 1122006" clip-path="url(#clip-path)">
            <path id="Trazado_911875" data-name="Trazado 911875" d="M112.153,121.548a7.024,7.024,0,1,0-7.024-7.024,7.032,7.032,0,0,0,7.024,7.024m1.577-1.5a5.718,5.718,0,0,1-3.154,0v-.571a5.2,5.2,0,0,0,3.154,0Zm1.277-10.51a5.742,5.742,0,0,1,0,9.97v-.642a5.193,5.193,0,0,0,0-8.686Zm-4.431-.54a5.717,5.717,0,0,1,3.154,0v.571a5.188,5.188,0,0,0-3.154,0Zm1.577,1.6a3.922,3.922,0,1,1-3.922,3.922,3.927,3.927,0,0,1,3.922-3.922m-2.854-1.063v.642a5.194,5.194,0,0,0,0,8.686v.642a5.742,5.742,0,0,1,0-9.97" transform="translate(-96.18 -98.349)" fill="#445866"/>
            <path id="Trazado_911876" data-name="Trazado 911876" d="M166.684,155.5h.794a.239.239,0,1,1,0,.478h-1.462a.638.638,0,1,0,0,1.277h.427v.239a.638.638,0,0,0,1.277,0v-.26a1.515,1.515,0,0,0-.242-3.011h-.794a.239.239,0,0,1,0-.478h1.254a.638.638,0,1,0,0-1.277h-.218v-.239a.638.638,0,1,0-1.277,0v.26a1.515,1.515,0,0,0,.241,3.011" transform="translate(-151.108 -138.682)" fill="#445866"/>
            <path id="Trazado_911877" data-name="Trazado 911877" d="M265.559,200.524a7.024,7.024,0,1,0,7.024-7.024,7.032,7.032,0,0,0-7.024,7.024m4.17,4.985a5.741,5.741,0,0,1,0-9.97v.642a5.194,5.194,0,0,0,0,8.686Zm4.431.54a5.718,5.718,0,0,1-3.154,0v-.571a5.185,5.185,0,0,0,3.154,0Zm3.247-7.467a5.191,5.191,0,0,0-1.971-2.409v-.634a5.742,5.742,0,0,1,0,9.97v-.642a5.193,5.193,0,0,0,2.045-2.6.638.638,0,1,0-1.2-.429,3.922,3.922,0,1,1-.056-2.782.639.639,0,0,0,1.184-.477m-3.247-3.015a5.236,5.236,0,0,0-1.577-.242,5.173,5.173,0,0,0-1.577.245V195a5.717,5.717,0,0,1,3.154,0Z" transform="translate(-242.953 -177.028)" fill="#445866"/>
            <path id="Trazado_911878" data-name="Trazado 911878" d="M327.907,240.218h-.794a.239.239,0,1,1,0-.478h1.253a.638.638,0,1,0,0-1.277h-.218v-.239a.638.638,0,1,0-1.277,0v.26a1.515,1.515,0,0,0,.241,3.011h.794a.239.239,0,0,1,0,.478h-1.463a.638.638,0,0,0,0,1.277h.427v.239a.638.638,0,1,0,1.277,0v-.26a1.515,1.515,0,0,0-.241-3.011" transform="translate(-297.88 -217.361)" fill="#445866"/>
            <path id="Trazado_911879" data-name="Trazado 911879" d="M285.233,87.065a3.882,3.882,0,1,0-3.882-3.882,3.886,3.886,0,0,0,3.882,3.882m0-6.487a2.605,2.605,0,1,1-2.605,2.605,2.608,2.608,0,0,1,2.605-2.605" transform="translate(-257.4 -72.55)" fill="#445866"/>
            <path id="Trazado_911880" data-name="Trazado 911880" d="M305.393,105.348a2.006,2.006,0,1,0-2.006-2.006,2.009,2.009,0,0,0,2.006,2.006m0-2.735a.729.729,0,1,1-.729.729.73.73,0,0,1,.729-.729" transform="translate(-277.56 -92.709)" fill="#445866"/>
            <path id="Trazado_911881" data-name="Trazado 911881" d="M193.44,7.764a3.882,3.882,0,1,0-3.882-3.882,3.886,3.886,0,0,0,3.882,3.882m0-6.487a2.6,2.6,0,1,1-2.605,2.605,2.608,2.608,0,0,1,2.605-2.605" transform="translate(-173.421 0)" fill="#445866"/>
            <path id="Trazado_911882" data-name="Trazado 911882" d="M213.6,26.047a2.006,2.006,0,1,0-2.006-2.006,2.008,2.008,0,0,0,2.006,2.006m0-2.735a.729.729,0,1,1-.729.729.73.73,0,0,1,.729-.729" transform="translate(-193.582 -20.159)" fill="#445866"/>
            <path id="Trazado_911883" data-name="Trazado 911883" d="M34.259,292.8h-.3v-.046a1.914,1.914,0,0,0-1.912-1.912h-.2a.657.657,0,0,0,.009-.1,1.914,1.914,0,0,0-1.912-1.912h-4.1a1.9,1.9,0,0,0-.267-2.347l-5.42-5.417a4.1,4.1,0,0,0-2.6-1.079H13.614V279.3a1.078,1.078,0,0,0-1.077-1.077H7.443a1.078,1.078,0,0,0-1.06.895H1.077A1.078,1.078,0,0,0,0,280.195v12.731A1.079,1.079,0,0,0,1.077,294H6.383a1.078,1.078,0,0,0,1.06.895h5.094a1.078,1.078,0,0,0,1.077-1.077v-.109l3.531,3.357a4.285,4.285,0,0,0,2.642,1.056H34.259a1.918,1.918,0,0,0,1.915-1.915v-1.49a1.918,1.918,0,0,0-1.915-1.915m-27.893-.078H1.277V280.395H6.366Zm23.584-2.614a.636.636,0,0,1,.635.635.646.646,0,0,0,.008.1H23.8a1.893,1.893,0,0,0,.428-.321l.414-.414Zm4.948,6.1a.639.639,0,0,1-.638.638H19.787a3.048,3.048,0,0,1-1.762-.7l-4.411-4.193v-6.6a.638.638,0,1,0-1.277,0v8.266H7.643V279.5h4.694v2.79a.638.638,0,1,0,1.277,0v-1.021h3.944a2.908,2.908,0,0,1,1.7.7l5.42,5.417a.619.619,0,0,1,.181.44.608.608,0,0,1-.181.44l-1.352,1.352a.619.619,0,0,1-.441.181.61.61,0,0,1-.441-.181l-3.6-3.6a1.5,1.5,0,0,0-1.053-.436H16.3a1.492,1.492,0,0,0-1.49,1.49v.211a1.5,1.5,0,0,0,.475,1.091l5.008,4.66a4.348,4.348,0,0,0,2.647,1.041H28.2a.638.638,0,1,0,0-1.277H22.937a3.13,3.13,0,0,1-1.756-.68H32.05a.636.636,0,0,1,.635.635v.046H31.266a.638.638,0,1,0,0,1.277h2.993a.639.639,0,0,1,.638.639Zm-13.767-6.1.414.414a1.893,1.893,0,0,0,.428.321H20.76a3.185,3.185,0,0,1-1.447-.46l-.295-.274Zm-2.47-1.277a3.159,3.159,0,0,1-1.682-.621l-.826-.768a.214.214,0,0,1-.068-.156v-.211a.213.213,0,0,1,.213-.213h1.5a.215.215,0,0,1,.15.063l1.908,1.907Z" transform="translate(0 -254.539)" fill="#445866"/>
            <path id="Trazado_911884" data-name="Trazado 911884" d="M109.345,414.867h0a.638.638,0,0,0-.638.638V416.6a.639.639,0,0,0,.638.638h0a.639.639,0,0,0,.638-.639V415.5a.638.638,0,0,0-.638-.638" transform="translate(-99.453 -379.55)" fill="#445866"/>
          </g>
        </g>
      </g>
    </g>
  </g>
</svg>
