<svg xmlns="http://www.w3.org/2000/svg" width="125" height="125" viewBox="0 0 125 125">
  <g id="img9" transform="translate(-307.663 -4469.838)">
    <rect id="Rectángulo_401345" data-name="Rectángulo 401345" width="109.252" height="109.252" transform="translate(315.468 4477.783)" fill="#fff"/>
    <path id="Sustracción_141" data-name="Sustracción 141" d="M107.908,125,0,107.908,17.095,0,125,17.093,107.908,125v0h0v0ZM23.579,8.931,8.927,101.42l92.493,14.65,14.65-92.493L23.578,8.931Z" transform="translate(307.663 4469.838)" fill="#9ac1df"/>
    <g id="Grupo_1099758" data-name="Grupo 1099758" transform="translate(336.396 4499.488)">
      <rect id="Rectángulo_401104" data-name="Rectángulo 401104" width="67.084" height="67.084" transform="translate(0 0)" fill="none"/>
      <g id="Grupo_1122166" data-name="Grupo 1122166" transform="translate(0 0.199)">
        <path id="Trazado_912100" data-name="Trazado 912100" d="M244.153,48.622V29.077a2.11,2.11,0,0,1,2.11-2.11H274.11a2.11,2.11,0,0,1,2.11,2.11V48.622a2.11,2.11,0,0,1-2.11,2.11H246.263A2.11,2.11,0,0,1,244.153,48.622Z" transform="translate(-212.164 -23.631)" fill="#46738c"/>
        <path id="Trazado_912101" data-name="Trazado 912101" d="M249.636,95.592a1.048,1.048,0,0,1-.649-1.871l8.59-6.773a1.048,1.048,0,1,1,1.3,1.646l-8.59,6.773A1.045,1.045,0,0,1,249.636,95.592Z" transform="translate(-216.017 -75.558)" fill="#ff8c46"/>
        <circle id="Elipse_11557" data-name="Elipse 11557" cx="4.565" cy="4.565" r="4.565" transform="translate(12.244)" fill="#ffb69e"/>
        <path id="Trazado_912102" data-name="Trazado 912102" d="M134.821,250.815a2.657,2.657,0,0,1-2.656-2.656V226.925a2.656,2.656,0,1,1,5.313,0v21.233A2.656,2.656,0,0,1,134.821,250.815Z" transform="translate(-114.849 -195.082)" fill="#343e6b"/>
        <path id="Trazado_912103" data-name="Trazado 912103" d="M85.877,250.815a2.657,2.657,0,0,1-2.656-2.656V226.925a2.656,2.656,0,1,1,5.313,0v21.233A2.656,2.656,0,0,1,85.877,250.815Z" transform="translate(-72.317 -195.082)" fill="#414b82"/>
        <path id="Trazado_912104" data-name="Trazado 912104" d="M71.962,89.522a2.2,2.2,0,0,0-3.033-.709l-4.461,2.77V87.464a5.241,5.241,0,0,0-5.233-5.186H47.327a5.292,5.292,0,0,0-5.32,5.212v16.275a2.214,2.214,0,1,0,4.427,0V87.509a.891.891,0,0,1,.893-.8h.08v16.833H59.133V86.683h.1a.845.845,0,0,1,.848.8v8.055a2.2,2.2,0,0,0,3.364,1.86l7.805-4.846A2.2,2.2,0,0,0,71.962,89.522Z" transform="translate(-36.503 -71.695)" fill="#252d5c"/>
        <path id="Trazado_912105" data-name="Trazado 912105" d="M146.656,89.522a2.2,2.2,0,0,0-3.033-.709l-4.461,2.77V87.464a5.241,5.241,0,0,0-5.233-5.186h-5.967v21.26h5.864V86.683h.1a.845.845,0,0,1,.848.8v8.055a2.2,2.2,0,0,0,3.364,1.86l7.805-4.846A2.2,2.2,0,0,0,146.656,89.522Z" transform="translate(-111.197 -71.695)" fill="#1b224a"/>
        <path id="Trazado_912106" data-name="Trazado 912106" d="M250.519,130.662a2.2,2.2,0,0,0-3.033-.709l2.323,3.742A2.2,2.2,0,0,0,250.519,130.662Z" transform="translate(-215.06 -112.835)" fill="#ffb69e"/>
        <g id="Grupo_1122160" data-name="Grupo 1122160" transform="translate(5.503 17.104)">
          <rect id="Rectángulo_410612" data-name="Rectángulo 410612" width="4.405" height="0.939" transform="translate(28.443 4.246) rotate(-121.506)" fill="#fff"/>
          <path id="Trazado_912107" data-name="Trazado 912107" d="M42,237.56V238.7a2.214,2.214,0,1,0,4.427,0V237.56Z" transform="translate(-42.001 -223.736)" fill="#fff"/>
        </g>
        <path id="Trazado_912108" data-name="Trazado 912108" d="M42,245.84v.057a2.214,2.214,0,1,0,4.427,0v-.057Z" transform="translate(-36.498 -213.827)" fill="#ffb69e"/>
        <path id="Trazado_912109" data-name="Trazado 912109" d="M102.183,82.278l3.378,8.864,3.379-8.864Z" transform="translate(-88.795 -71.695)" fill="#fff"/>
        <path id="Trazado_912110" data-name="Trazado 912110" d="M118.964,85.3l-.75-1.365.647-1.176a.322.322,0,0,0-.282-.477h-2.168a.322.322,0,0,0-.282.477l.649,1.18L116.03,85.3a.912.912,0,0,0-.1.618l.462,2.343,1.1,2.885,1.1-2.886.464-2.343A.912.912,0,0,0,118.964,85.3Z" transform="translate(-100.729 -71.697)" fill="#ff3c3c"/>
        <rect id="Rectángulo_410613" data-name="Rectángulo 410613" width="2.924" height="0.902" transform="translate(18.401 17.394)" fill="#252d5c"/>
        <g id="Grupo_1122161" data-name="Grupo 1122161" transform="translate(45.326 38.337)">
          <circle id="Elipse_11558" data-name="Elipse 11558" cx="4.454" cy="4.454" r="4.454" transform="translate(6.444)" fill="#80391b"/>
          <path id="Trazado_912111" data-name="Trazado 912111" d="M362.589,372.929H351.052a5.118,5.118,0,0,0-5.11,5.06v4.983h4.3V378.01a.811.811,0,0,1,.813-.784h.042v5.745h11.382v-5.745h.112a.811.811,0,0,1,.812.784v4.962h4.3v-4.983A5.118,5.118,0,0,0,362.589,372.929Z" transform="translate(-345.942 -362.602)" fill="#80391b"/>
        </g>
        <path id="Trazado_912112" data-name="Trazado 912112" d="M362.59,372.929h-3.523a3.457,3.457,0,0,1-4.423,0h-3.59a5.118,5.118,0,0,0-5.11,5.06v3.128h4.3V378.01a.811.811,0,0,1,.812-.784h.042v5.745h11.382v-5.745h.112a.811.811,0,0,1,.813.784v3.106h4.3v-3.128A5.118,5.118,0,0,0,362.59,372.929Z" transform="translate(-300.617 -324.264)" fill="#55c7a6"/>
        <g id="Grupo_1122162" data-name="Grupo 1122162" transform="translate(22.665 38.337)">
          <circle id="Elipse_11559" data-name="Elipse 11559" cx="4.454" cy="4.454" r="4.454" transform="translate(6.444)" fill="#ffb69e"/>
          <path id="Trazado_912113" data-name="Trazado 912113" d="M189.632,372.929H178.1a5.118,5.118,0,0,0-5.11,5.06v4.983h4.3V378.01a.811.811,0,0,1,.812-.784h.042v5.745H189.52v-5.745h.112a.811.811,0,0,1,.812.784v4.962h4.3v-4.983A5.118,5.118,0,0,0,189.632,372.929Z" transform="translate(-172.985 -362.602)" fill="#ffb69e"/>
        </g>
        <path id="Trazado_912114" data-name="Trazado 912114" d="M189.633,372.929h-3.7a3.457,3.457,0,0,1-4.423,0H178.1a5.118,5.118,0,0,0-5.11,5.06v3.128h4.3V378.01a.811.811,0,0,1,.812-.784h.042v5.745h11.382v-5.745h.112a.811.811,0,0,1,.812.784v3.106h4.3v-3.128A5.118,5.118,0,0,0,189.633,372.929Z" transform="translate(-150.321 -324.264)" fill="#252d5c"/>
        <g id="Grupo_1122163" data-name="Grupo 1122163" transform="translate(0 38.266)">
          <circle id="Elipse_11560" data-name="Elipse 11560" cx="4.454" cy="4.454" r="4.454" transform="translate(6.442)" fill="#ffb69e"/>
          <path id="Trazado_912115" data-name="Trazado 912115" d="M16.647,372.387H5.11A5.118,5.118,0,0,0,0,377.447v4.984H4.3v-4.962a.811.811,0,0,1,.812-.784h.042v5.745H16.535v-5.746h.112a.811.811,0,0,1,.812.784v4.962h4.3v-4.984A5.118,5.118,0,0,0,16.647,372.387Z" transform="translate(0 -362.06)" fill="#ffb69e"/>
        </g>
        <path id="Trazado_912116" data-name="Trazado 912116" d="M16.647,372.387h-3.7a3.457,3.457,0,0,1-4.423,0H5.11A5.118,5.118,0,0,0,0,377.447v3.128H4.3v-3.106a.811.811,0,0,1,.812-.784h.042v5.745H16.535v-5.746h.112a.811.811,0,0,1,.812.784v3.106h4.3v-3.128A5.118,5.118,0,0,0,16.647,372.387Z" transform="translate(0 -323.793)" fill="#78beff"/>
        <g id="Grupo_1122164" data-name="Grupo 1122164" transform="translate(35.258 46.319)">
          <circle id="Elipse_11561" data-name="Elipse 11561" cx="4.454" cy="4.454" r="4.454" transform="translate(6.443)" fill="#ffb69e"/>
          <path id="Trazado_912117" data-name="Trazado 912117" d="M285.746,433.843H274.209a5.118,5.118,0,0,0-5.11,5.06v4.983h4.3v-4.962a.811.811,0,0,1,.812-.784h.042v5.745h11.382v-5.745h.112a.811.811,0,0,1,.813.784v4.962h4.3V438.9A5.118,5.118,0,0,0,285.746,433.843Z" transform="translate(-269.099 -423.516)" fill="#ffb69e"/>
        </g>
        <path id="Trazado_912118" data-name="Trazado 912118" d="M285.747,433.843h-3.523a3.457,3.457,0,0,1-4.423,0h-3.59a5.118,5.118,0,0,0-5.11,5.06v3.128h4.3v-3.106a.811.811,0,0,1,.813-.784h.042v5.745h11.382v-5.745h.112a.811.811,0,0,1,.812.784v3.106h4.3V438.9A5.118,5.118,0,0,0,285.747,433.843Z" transform="translate(-233.842 -377.197)" fill="#78beff"/>
        <g id="Grupo_1122165" data-name="Grupo 1122165" transform="translate(12.597 46.319)">
          <circle id="Elipse_11562" data-name="Elipse 11562" cx="4.454" cy="4.454" r="4.454" transform="translate(6.443)" fill="#ba6746"/>
          <path id="Trazado_912119" data-name="Trazado 912119" d="M112.789,433.843H101.252a5.118,5.118,0,0,0-5.11,5.06v4.983h4.3v-4.962a.811.811,0,0,1,.812-.784h.042v5.745h11.382v-5.745h.112a.811.811,0,0,1,.812.784v4.962h4.3V438.9A5.118,5.118,0,0,0,112.789,433.843Z" transform="translate(-96.142 -423.516)" fill="#ba6746"/>
        </g>
        <path id="Trazado_912120" data-name="Trazado 912120" d="M112.789,433.843h-3.7a3.457,3.457,0,0,1-4.423,0h-3.415a5.118,5.118,0,0,0-5.11,5.06v3.128h4.3v-3.106a.811.811,0,0,1,.812-.784h.042v5.745h11.382v-5.745h.112a.811.811,0,0,1,.812.784v3.106h4.3V438.9A5.118,5.118,0,0,0,112.789,433.843Z" transform="translate(-83.545 -377.197)" fill="#ff3c3c"/>
      </g>
    </g>
  </g>
</svg>
