<svg xmlns="http://www.w3.org/2000/svg" xmlns:xlink="http://www.w3.org/1999/xlink" width="73" height="73" viewBox="0 0 73 73">
  <defs>
    <linearGradient id="linear-gradient" x1="0.5" x2="0.5" y2="1" gradientUnits="objectBoundingBox">
      <stop offset="0" stop-color="#ddf1ff"/>
      <stop offset="1" stop-color="#fff"/>
    </linearGradient>
  </defs>
  <g id="img31" transform="translate(-264.528 -6025.861)">
    <g id="Grupo_1099808" data-name="Grupo 1099808" transform="translate(264.663 6025.995)">
      <g id="Grupo_1099775" data-name="Grupo 1099775" transform="translate(0 0)">
        <g id="Grupo_1099770" data-name="Grupo 1099770">
          <rect id="Rectángulo_401345" data-name="Rectángulo 401345" width="61.989" height="61.989" transform="translate(5.324 5.419)" fill="url(#linear-gradient)"/>
          <path id="Sustracción_141" data-name="Sustracción 141" d="M63.019,73,0,63.018,9.984,0,73,9.982,63.019,73h0ZM13.771,5.215,5.213,59.229l54.017,8.555,8.556-54.016L13.77,5.215Z" transform="translate(-0.135 -0.134)" fill="#59c4c8"/>
        </g>
      </g>
      <g id="Grupo_1099776" data-name="Grupo 1099776" transform="translate(14.784 14.782)">
        <g id="Grupo_1099618" data-name="Grupo 1099618" transform="translate(0 0)">
          <rect id="Rectángulo_401104" data-name="Rectángulo 401104" width="42.655" height="43.169" transform="translate(0)" fill="none"/>
        </g>
        <path id="Trazado_912250" data-name="Trazado 912250" d="M19.563,18.609a1.941,1.941,0,0,1-.456,1.545,2.82,2.82,0,0,1-1.628.857V21.3a.695.695,0,0,1-1.39,0V21a2.628,2.628,0,0,1-2.08-1.91.695.695,0,1,1,1.348-.336,1.4,1.4,0,0,0,1.5.929,1.738,1.738,0,0,0,1.2-.438.557.557,0,0,0,.128-.468c-.041-.336-.249-.748-1.506-.954-1.97-.324-2.43-1.358-2.47-2.168a2.291,2.291,0,0,1,1.881-2.321v-.316a.695.695,0,0,1,1.39,0v.309A2.62,2.62,0,0,1,19.353,14.9a.695.695,0,0,1-1.281.538,1.373,1.373,0,0,0-1.629-.763c-.147.033-.878.234-.845.909.009.179.032.655,1.307.864,1.624.266,2.519.993,2.66,2.158ZM47.522,36.88a3.011,3.011,0,0,1-.815,3.971L33.567,48.943a5.5,5.5,0,0,1-2.911.837,5.922,5.922,0,0,1-1.535-.207l-9.253-2.479-1.164.672.59,1.043a1.764,1.764,0,0,1-.665,2.4L16.6,52.358a1.762,1.762,0,0,1-2.4-.665L8.223,41.139a1.763,1.763,0,0,1,.665-2.4l2.032-1.15a1.764,1.764,0,0,1,2.4.665l.482.851,5.341-3.093a6.02,6.02,0,0,1,4.967-.955c.461.15,1,.346,1.577.553a36.233,36.233,0,0,0,5.777,1.712.7.7,0,0,1,.091.023,2.8,2.8,0,0,1,1.9,3.347,2.959,2.959,0,0,1-.273.68,3.974,3.974,0,0,0,.982-.414l7.241-4.218c4.148-2.416,5.728-.5,6.113.138ZM18.084,49.493,12.11,38.939a.37.37,0,0,0-.224-.174.386.386,0,0,0-.1-.014.361.361,0,0,0-.179.047l-2.032,1.15a.376.376,0,0,0-.14.506l5.973,10.554a.376.376,0,0,0,.506.14L17.943,50a.374.374,0,0,0,.14-.506Zm28.246-11.9c-.587-.98-2.165-.849-4.221.349l-7.241,4.218a5.366,5.366,0,0,1-3.687.648l-.9-.146-.028-.005c-1.126-.23-2.171-.529-3.277-.845-.5-.144-1.024-.292-1.554-.434a.695.695,0,0,1,.36-1.342c.541.145,1.067.3,1.576.44,1.07.306,2.081.594,3.144.813a1.329,1.329,0,0,0,1.616-.955,1.387,1.387,0,0,0-.95-1.652,37.589,37.589,0,0,1-5.952-1.764c-.587-.212-1.094-.4-1.533-.538a4.741,4.741,0,0,0-3.842.836l-5.353,3.1,3.532,6.241,1.4-.81a.694.694,0,0,1,.527-.069L29.48,48.23a4.135,4.135,0,0,0,3.358-.471l13.141-8.092a1.636,1.636,0,0,0,.351-2.074ZM11.346,40.179a.725.725,0,1,0,.823.613A.725.725,0,0,0,11.346,40.179ZM51.077,27.113a7.237,7.237,0,0,1-12.3,5.172,12.244,12.244,0,0,1-6.721,2.008q-.443,0-.888-.032A12.23,12.23,0,0,1,19.926,23.687a7.242,7.242,0,1,1,3.2-10.018c.087-.093.175-.185.266-.275a12.257,12.257,0,0,1,17.314,0A12.117,12.117,0,0,1,44.1,19.878a7.249,7.249,0,0,1,6.974,7.235ZM19.818,22.165a12.224,12.224,0,0,1,2.341-7.325,5.853,5.853,0,1,0-2.341,7.325Zm18.053,9.05a7.218,7.218,0,0,1-1.143-5.493h-1v3.219a.7.7,0,0,1-.695.695H29.077a.7.7,0,0,1-.695-.695V25.722H25.163a.7.7,0,0,1-.695-.695V19.075a.7.7,0,0,1,.695-.695h3.219V15.161a.7.7,0,0,1,.695-.695H35.03a.7.7,0,0,1,.695.695V18.38h3.219a.7.7,0,0,1,.695.695v2.142A7.2,7.2,0,0,1,42.7,19.96a10.853,10.853,0,0,0-18.324-5.584A10.854,10.854,0,0,0,37.871,31.216Zm.378-8.707V19.77H35.03a.7.7,0,0,1-.695-.695V15.856H29.772v3.219a.7.7,0,0,1-.695.695H25.858v4.563h3.219a.7.7,0,0,1,.695.695v3.219h4.563V25.027a.7.7,0,0,1,.695-.695h2.119a7.252,7.252,0,0,1,1.1-1.824Zm11.438,4.6a5.852,5.852,0,1,0-5.852,5.852,5.859,5.859,0,0,0,5.852-5.852ZM43.953,26.4c-1.275-.209-1.3-.685-1.307-.864-.033-.675.7-.875.845-.909a1.373,1.373,0,0,1,1.63.763.695.695,0,1,0,1.281-.538A2.62,2.62,0,0,0,44.53,23.28V22.97a.695.695,0,0,0-1.39,0v.316a2.291,2.291,0,0,0-1.881,2.321c.039.811.5,1.845,2.469,2.168,1.257.206,1.465.618,1.506.954a.557.557,0,0,1-.128.468,1.738,1.738,0,0,1-1.2.438,1.4,1.4,0,0,1-1.5-.929.695.695,0,1,0-1.348.336,2.628,2.628,0,0,0,2.08,1.91v.3a.695.695,0,1,0,1.39,0v-.292a2.82,2.82,0,0,0,1.628-.857,1.941,1.941,0,0,0,.456-1.544C46.472,27.4,45.577,26.671,43.953,26.4Z" transform="translate(-7.995 -9.827)" fill="#445866"/>
      </g>
    </g>
  </g>
</svg>
