<svg xmlns="http://www.w3.org/2000/svg" width="129.998" height="130" viewBox="0 0 129.998 130">
  <g id="img33" transform="translate(-810 -3680.17)">
    <rect id="Rectángulo_401362" data-name="Rectángulo 401362" width="106.336" height="106.337" transform="translate(821.664 3692.168)" fill="#fff"/>
    <g id="Grupo_1099788" data-name="Grupo 1099788" transform="translate(838.819 3708.303)">
      <rect id="Rectángulo_401104" data-name="Rectángulo 401104" width="73.372" height="73.372" transform="translate(0 0)" fill="none"/>
      <g id="Grupo_1099356" data-name="Grupo 1099356" transform="translate(2.09 1.968)">
        <path id="Trazado_608993" data-name="Trazado 608993" d="M34.738,0,0,23.406v.023l34.649,23.41L69.363,23.2Z" transform="translate(0 0)" fill="#2a9ed1"/>
        <path id="Trazado_608994" data-name="Trazado 608994" d="M8.758,5.2V56.522L11.2,59.113,14.146,56l2.941,3.115L20.03,56l2.941,3.115L25.912,56l2.942,3.115L31.8,56l1.243,1.317V5.2Z" transform="translate(1.671 0.993)" fill="#fff3b8"/>
        <path id="Trazado_608995" data-name="Trazado 608995" d="M29.149,5.2V57.315l1.7,1.8L33.788,56l2.942,3.115L39.672,56l2.941,3.115L45.555,56,48.5,59.113,51.44,56l2.16,2.289V5.2Z" transform="translate(5.562 0.993)" fill="#f6e381"/>
        <path id="Trazado_608996" data-name="Trazado 608996" d="M37.3,13.582h2.678V8.9H29.1v4.677h8.2Z" transform="translate(5.552 1.699)" fill="#1e2d4f"/>
        <rect id="Rectángulo_377588" data-name="Rectángulo 377588" width="11.71" height="4.677" transform="translate(22.94 10.604)" fill="#2d4375"/>
        <rect id="Rectángulo_377589" data-name="Rectángulo 377589" width="21.9" height="4.677" transform="translate(12.75 18.511)" fill="#2d4375"/>
        <path id="Trazado_608997" data-name="Trazado 608997" d="M45.074,20.222h5.094V15.545H29.1v4.677H45.074Z" transform="translate(5.552 2.966)" fill="#1e2d4f"/>
        <path id="Trazado_608998" data-name="Trazado 608998" d="M39.979,27.2h10.19V22.519H29.1V27.2Z" transform="translate(5.552 4.296)" fill="#1e2d4f"/>
        <rect id="Rectángulo_377590" data-name="Rectángulo 377590" width="21.9" height="4.677" transform="translate(12.75 26.815)" fill="#2d4375"/>
        <rect id="Rectángulo_377591" data-name="Rectángulo 377591" width="21.9" height="4.677" transform="translate(12.75 35.041)" fill="#2d4375"/>
        <path id="Trazado_608999" data-name="Trazado 608999" d="M39.979,34.1h10.19V29.427H29.1V34.1Z" transform="translate(5.552 5.614)" fill="#1e2d4f"/>
        <path id="Trazado_609000" data-name="Trazado 609000" d="M29.1,43.122,63.827,66.587V19.494l-.015-.01Z" transform="translate(5.552 3.717)" fill="#2a9ed1"/>
        <path id="Trazado_609001" data-name="Trazado 609001" d="M0,19.776v46.9L34.649,43.085,0,19.675Z" transform="translate(0 3.754)" fill="#62c3ed"/>
        <path id="Trazado_609002" data-name="Trazado 609002" d="M0,62.839v.107H34.649v-23.7Z" transform="translate(0 7.487)" fill="#2a9ed1"/>
        <path id="Trazado_609003" data-name="Trazado 609003" d="M29.1,62.946H63.827v-.237L29.1,39.245Z" transform="translate(5.552 7.487)" fill="#62c3ed"/>
      </g>
    </g>
    <g id="Grupo_1099787" data-name="Grupo 1099787" transform="translate(810 3680.17)">
      <rect id="Rectángulo_401345" data-name="Rectángulo 401345" width="114.924" height="114.925" transform="translate(7.471 7.604)" fill="#fff"/>
      <path id="Sustracción_141" data-name="Sustracción 141" d="M112.224,130h0L0,112.223,17.775,0,130,17.774,112.224,130ZM24.521,9.286,9.285,105.477l96.191,15.235,15.235-96.191Z" transform="translate(0 0)" fill="#9ac1df"/>
      <g id="Grupo_1099758" data-name="Grupo 1099758" transform="translate(32.633 33.674)">
        <rect id="Rectángulo_401104-2" data-name="Rectángulo 401104" width="64.22" height="64.22" transform="translate(0 0)" fill="none"/>
        <g id="Grupo_1122195" data-name="Grupo 1122195" transform="translate(-42.049 -11.856)">
          <path id="Trazado_912251" data-name="Trazado 912251" d="M136.708,104.069v16.689a1.757,1.757,0,0,1-1.757,1.757H103.571a1.757,1.757,0,0,1-1.757-1.757V104.069a1.757,1.757,0,0,1,1.757-1.757h31.381A1.757,1.757,0,0,1,136.708,104.069Z" transform="translate(-46.4 -78.558)" fill="#3d997a"/>
          <path id="Trazado_912252" data-name="Trazado 912252" d="M192.915,130.143a7.416,7.416,0,1,1-7.416-7.416A7.425,7.425,0,0,1,192.915,130.143Z" transform="translate(-112.637 -96.288)" fill="#94e671"/>
          <path id="Trazado_912253" data-name="Trazado 912253" d="M108.532,276.857S78.557,260.87,93.211,246.216a10.833,10.833,0,0,1,15.32,0,10.833,10.833,0,0,1,15.321,0c14.654,14.654-15.321,30.641-15.321,30.641Z" transform="translate(-35.425 -200.78)" fill="#ff5959"/>
          <path id="Trazado_912254" data-name="Trazado 912254" d="M394.077,22.1l-1.8,1.416a1.1,1.1,0,0,1-1.54-.184l-6.475-8.288a1.1,1.1,0,0,1,.184-1.54l1.8-1.416a1.1,1.1,0,0,1,1.54.184l6.475,8.288A1.1,1.1,0,0,1,394.077,22.1Z" transform="translate(-291.498 0)" fill="#80eaff"/>
          <path id="Trazado_912255" data-name="Trazado 912255" d="M225.016,36.071l-3.3,2.326a8.052,8.052,0,0,1-4.989,1.376c-3.7-.214-10.185-.889-14.675-2.635a.34.34,0,0,1-.06-.466h-8.5c5.5-5.191,9.587-11.3,17.847-9.674,6.8,1.334,5.971,2.179,7.447.968l6.231,8.106Z" transform="translate(-126.02 -12.918)" fill="#ffd9b3" fill-rule="evenodd"/>
          <path id="Trazado_912256" data-name="Trazado 912256" d="M97.167,295.121a1.052,1.052,0,0,1-1.052,1.052H79.864a1.052,1.052,0,0,1-1-.727l-.482-1.482-2.271,12.4a1.052,1.052,0,0,1-1.035.863h-.007a1.052,1.052,0,0,1-1.03-.877l-2.448-14.461-1.954,9.338a1.052,1.052,0,0,1-2.007.174l-2.086-5.233h-16.1a1.052,1.052,0,0,1,0-2.1H66.257a1.052,1.052,0,0,1,.977.662l1.058,2.654,2.378-11.366a1.052,1.052,0,0,1,1.03-.837h.021a1.052,1.052,0,0,1,1.017.876l2.379,14.057,1.944-10.62a1.052,1.052,0,0,1,2.036-.136l1.532,4.71H96.115a1.052,1.052,0,0,1,1.052,1.052Z" transform="translate(0 -237.377)" fill="#365e7d"/>
          <path id="Trazado_912257" data-name="Trazado 912257" d="M217.324,147.056a3.122,3.122,0,0,1-.633.253v.655a.789.789,0,1,1-1.578,0v-.618a3.057,3.057,0,0,1-.5-.16,2.368,2.368,0,0,1-1.4-1.5.789.789,0,0,1,1.518-.434.811.811,0,0,0,.5.477,1.6,1.6,0,0,0,1.347-.067.842.842,0,0,0,.45-.868c-.085-.472-.643-.823-1.492-.94a2.468,2.468,0,0,1-2.094-1.576,2.234,2.234,0,0,1,.507-2.265,2.657,2.657,0,0,1,1.164-.684v-.655a.789.789,0,1,1,1.578,0v.634a2.875,2.875,0,0,1,1.5.98.789.789,0,1,1-1.225.995,1.293,1.293,0,0,0-.969-.492,1.22,1.22,0,0,0-.919.323.643.643,0,0,0-.147.651.915.915,0,0,0,.816.526,2.992,2.992,0,0,1,2.831,2.223,2.4,2.4,0,0,1-1.257,2.539Z" transform="translate(-143.125 -109.455)" fill="#3d997a"/>
          <path id="Trazado_912258" data-name="Trazado 912258" d="M270.747,75.3a.658.658,0,0,1-.6.706,26.21,26.21,0,0,1-4.507-.145c-3.308-.307-5.726-.531-7.527,2.787-.119-.044-.237-.088-.353-.133a.34.34,0,0,1-.06-.466,5.274,5.274,0,0,1,2.178-3.027c1.746-.888,3.789-.665,5.884-.47a24.8,24.8,0,0,0,4.284.143.658.658,0,0,1,.706.6Z" transform="translate(-181.721 -54.299)" fill="#fb9"/>
        </g>
      </g>
    </g>
  </g>
</svg>
