<svg xmlns="http://www.w3.org/2000/svg" xmlns:xlink="http://www.w3.org/1999/xlink" width="85" height="85" viewBox="0 0 85 85">
  <defs>
    <clipPath id="clip-path">
      <rect id="Rectángulo_410576" data-name="Rectángulo 410576" width="55.576" height="66.086" fill="#fff"/>
    </clipPath>
  </defs>
  <g id="img10_1" transform="translate(4766 9666)">
    <rect id="Rectángulo_410607" data-name="Rectángulo 410607" width="85" height="85" transform="translate(-4766 -9666)" fill="#2a5f61"/>
    <g id="Grupo_1122023" data-name="Grupo 1122023" transform="translate(-4754.445 -9655.314)">
      <g id="Grupo_1099618" data-name="Grupo 1099618" transform="translate(-0.001 0.043)">
        <rect id="Rectángulo_401104" data-name="Rectángulo 401104" width="61" height="62" transform="translate(0.447 0.272)" fill="none"/>
      </g>
      <g id="Grupo_1122007" data-name="Grupo 1122007" transform="translate(3.158 -1.729)">
        <g id="Grupo_1122006" data-name="Grupo 1122006" clip-path="url(#clip-path)">
          <path id="Trazado_911875" data-name="Trazado 911875" d="M115.778,128.8a10.65,10.65,0,1,0-10.649-10.65,10.662,10.662,0,0,0,10.649,10.65m2.391-2.272a8.669,8.669,0,0,1-4.782,0v-.866a7.877,7.877,0,0,0,4.782,0Zm1.936-15.936a8.706,8.706,0,0,1,0,15.117v-.974a7.874,7.874,0,0,0,0-13.17Zm-6.718-.819a8.669,8.669,0,0,1,4.782,0v.866a7.867,7.867,0,0,0-4.782,0Zm2.391,2.43a5.947,5.947,0,1,1-5.947,5.947,5.954,5.954,0,0,1,5.947-5.947m-4.327-1.611v.974a7.875,7.875,0,0,0,0,13.17v.974a8.706,8.706,0,0,1,0-15.117" transform="translate(-91.56 -93.625)" fill="#fff"/>
          <path id="Trazado_911876" data-name="Trazado 911876" d="M167.466,157.513h1.2a.363.363,0,1,1,0,.725h-2.217a.968.968,0,0,0,0,1.936h.648v.363a.968.968,0,1,0,1.936,0v-.394a2.3,2.3,0,0,0-.367-4.565h-1.2a.362.362,0,0,1,0-.724h1.9a.968.968,0,0,0,0-1.936h-.33v-.363a.968.968,0,1,0-1.936,0v.394a2.3,2.3,0,0,0,.366,4.565" transform="translate(-143.849 -132.02)" fill="#fff"/>
          <path id="Trazado_911877" data-name="Trazado 911877" d="M265.559,204.149a10.65,10.65,0,1,0,10.65-10.649,10.662,10.662,0,0,0-10.65,10.649m6.323,7.558a8.705,8.705,0,0,1,0-15.117v.973a7.875,7.875,0,0,0,0,13.171Zm6.718.819a8.669,8.669,0,0,1-4.782,0v-.866a7.862,7.862,0,0,0,4.782,0Zm4.924-11.322a7.872,7.872,0,0,0-2.988-3.653v-.961a8.706,8.706,0,0,1,0,15.117v-.973a7.874,7.874,0,0,0,3.1-3.938.968.968,0,1,0-1.824-.65,5.947,5.947,0,1,1-.085-4.218.968.968,0,0,0,1.8-.724m-4.924-4.572a7.938,7.938,0,0,0-2.391-.368,7.843,7.843,0,0,0-2.39.372v-.866a8.668,8.668,0,0,1,4.782,0Z" transform="translate(-231.282 -168.524)" fill="#fff"/>
          <path id="Trazado_911878" data-name="Trazado 911878" d="M329.1,241.577h-1.2a.362.362,0,1,1,0-.724h1.9a.968.968,0,0,0,0-1.936h-.33v-.363a.968.968,0,0,0-1.936,0v.394a2.3,2.3,0,0,0,.366,4.565h1.2a.363.363,0,0,1,0,.725h-2.218a.968.968,0,0,0,0,1.936h.648v.363a.968.968,0,1,0,1.936,0v-.394a2.3,2.3,0,0,0-.366-4.565" transform="translate(-283.571 -206.92)" fill="#fff"/>
          <path id="Trazado_911879" data-name="Trazado 911879" d="M287.237,91.072a5.886,5.886,0,1,0-5.886-5.885,5.892,5.892,0,0,0,5.886,5.885m0-9.835a3.95,3.95,0,1,1-3.95,3.95,3.954,3.954,0,0,1,3.95-3.95" transform="translate(-245.036 -69.065)" fill="#fff"/>
          <path id="Trazado_911880" data-name="Trazado 911880" d="M306.429,107.42a3.042,3.042,0,1,0-3.042-3.042,3.046,3.046,0,0,0,3.042,3.042m0-4.148a1.105,1.105,0,1,1-1.106,1.106,1.107,1.107,0,0,1,1.106-1.106" transform="translate(-264.228 -88.256)" fill="#fff"/>
          <path id="Trazado_911881" data-name="Trazado 911881" d="M195.444,11.771a5.886,5.886,0,1,0-5.886-5.885,5.892,5.892,0,0,0,5.886,5.885m0-9.835a3.95,3.95,0,1,1-3.95,3.95,3.954,3.954,0,0,1,3.95-3.95" transform="translate(-165.091 0)" fill="#fff"/>
          <path id="Trazado_911882" data-name="Trazado 911882" d="M214.636,28.118a3.042,3.042,0,1,0-3.042-3.041,3.045,3.045,0,0,0,3.042,3.041m0-4.147a1.105,1.105,0,1,1-1.106,1.106,1.107,1.107,0,0,1,1.106-1.106" transform="translate(-184.283 -19.191)" fill="#fff"/>
          <path id="Trazado_911883" data-name="Trazado 911883" d="M51.945,300.33h-.452v-.069a2.9,2.9,0,0,0-2.9-2.9h-.3a1,1,0,0,0,.013-.151,2.9,2.9,0,0,0-2.9-2.9H39.2a2.881,2.881,0,0,0-.405-3.559l-8.218-8.214a6.221,6.221,0,0,0-3.949-1.636H20.643v-1.049a1.635,1.635,0,0,0-1.633-1.633H11.286a1.634,1.634,0,0,0-1.608,1.357H1.634A1.635,1.635,0,0,0,0,281.213v19.3a1.635,1.635,0,0,0,1.634,1.633H9.678a1.634,1.634,0,0,0,1.608,1.357H19.01a1.635,1.635,0,0,0,1.633-1.633v-.164L26,306.8A6.5,6.5,0,0,0,30,308.4H51.945a2.908,2.908,0,0,0,2.9-2.9v-2.259a2.907,2.907,0,0,0-2.9-2.9m-42.292-.118H1.936v-18.7H9.653Zm35.758-3.963a.964.964,0,0,1,.962.963.979.979,0,0,0,.013.151h-10.3a2.871,2.871,0,0,0,.649-.486l.627-.627Zm7.5,9.244a.969.969,0,0,1-.968.968H30a4.621,4.621,0,0,1-2.672-1.067l-6.688-6.358v-10a.968.968,0,0,0-1.936,0v12.533H11.589v-21.41h7.118v4.23a.968.968,0,0,0,1.936,0v-1.548h5.981a4.41,4.41,0,0,1,2.581,1.068l8.218,8.214a.938.938,0,0,1,.274.668.921.921,0,0,1-.274.667l-2.051,2.05a.938.938,0,0,1-.669.274.925.925,0,0,1-.668-.274l-5.458-5.455a2.272,2.272,0,0,0-1.6-.661H24.71a2.262,2.262,0,0,0-2.259,2.259v.319a2.267,2.267,0,0,0,.72,1.654l7.594,7.065a6.592,6.592,0,0,0,4.013,1.578h7.982a.968.968,0,1,0,0-1.936H34.778a4.746,4.746,0,0,1-2.662-1.032H48.595a.964.964,0,0,1,.962.963v.069h-2.15a.968.968,0,1,0,0,1.936h4.538a.969.969,0,0,1,.968.968Zm-20.873-9.244.628.627a2.871,2.871,0,0,0,.649.486H31.478a4.829,4.829,0,0,1-2.194-.7l-.447-.416Zm-3.746-1.936a4.791,4.791,0,0,1-2.551-.942l-1.252-1.165a.325.325,0,0,1-.1-.236v-.319a.323.323,0,0,1,.323-.323h2.271a.325.325,0,0,1,.228.095l2.893,2.891Z" transform="translate(0 -242.312)" fill="#fff"/>
          <path id="Trazado_911884" data-name="Trazado 911884" d="M109.675,414.867h0a.968.968,0,0,0-.968.968v1.658a.968.968,0,0,0,.968.968h0a.969.969,0,0,0,.968-.969l0-1.658a.968.968,0,0,0-.968-.967" transform="translate(-94.676 -361.319)" fill="#fff"/>
        </g>
      </g>
    </g>
  </g>
</svg>
