<svg xmlns="http://www.w3.org/2000/svg" width="144.162" height="144.161" viewBox="0 0 144.162 144.161">
  <g id="img13" transform="translate(-307.664 -4469.839)">
    <rect id="Rectángulo_401345" data-name="Rectángulo 401345" width="126" height="126" transform="translate(316.664 4479)" fill="#fff"/>
    <path id="Sustracción_141" data-name="Sustracción 141" d="M19166.113,11844.16l-124.449-19.712,19.715-124.449,124.447,19.713-19.713,124.448v0h0v0Zm-97.256-133.861-16.9,106.667,106.672,16.9,16.9-106.672-106.672-16.891Z" transform="translate(-18734 -7230.16)" fill="#59c4c8"/>
    <g id="Grupo_1099758" data-name="Grupo 1099758" transform="translate(337.469 4500.701)">
      <rect id="Rectángulo_401104" data-name="Rectángulo 401104" width="84.031" height="84.031" transform="translate(0 0)" fill="none"/>
      <g id="Grupo_1122029" data-name="Grupo 1122029" transform="translate(-6.284 1.08)">
        <path id="Trazado_911978" data-name="Trazado 911978" d="M17.208,50.952s8.209,19.213,37.758,19.213,37.9-19.216,37.9-19.216a39.186,39.186,0,0,0-75.654,0Z" transform="translate(-7.092 -18.479)" fill="#ffdd40"/>
        <path id="Trazado_911979" data-name="Trazado 911979" d="M240.469,33.15c-.243.114-5.206,2.517-1.261,7.473q.1.122.188.256a4.665,4.665,0,0,0,2.326-.156c1.47-.489,3.776-.979,5.656-.133,2.212,1,1.959,3.973,1.837,5.658a2.736,2.736,0,0,0,.414,1.67,10.17,10.17,0,0,1,.453,1.39c.146.382.569.776.634,1.177a2.345,2.345,0,0,1,1.24-.285c.051-1.762.213-4.14.213-4.14C253.909,37.535,247.018,33.3,240.469,33.15Z" transform="translate(-192.318 -27.849)" fill="#d1714b"/>
        <path id="Trazado_911980" data-name="Trazado 911980" d="M188.771,33.261c-6.607.9-7.234,4.646-7.237,6.02a.756.756,0,0,1-.419.681c-3.437,1.672-1.584,10.207-1.584,10.207a2.8,2.8,0,0,1,.976.293,5.91,5.91,0,0,1,.326-1.206,12.767,12.767,0,0,1,.761-1.361,2.71,2.71,0,0,0,.415-1.656c-.124-1.681-.383-4.674,1.836-5.672,1.88-.846,4.185-.356,5.656.133a4.662,4.662,0,0,0,1.305.232c-.076-.116-.154-.228-.236-.331-3.784-4.754.63-7.16,1.21-7.448a15.44,15.44,0,0,0-3.007.108Z" transform="translate(-143.039 -27.827)" fill="#bc6242"/>
        <path id="Trazado_911981" data-name="Trazado 911981" d="M248.784,234.068a13.841,13.841,0,0,1-1.4,1.251,7.419,7.419,0,0,1-4.55,1.556c-.236,0-.471-.012-.7-.035a10.417,10.417,0,0,1-1.332,5.049c-.009.014-.021.027-.031.041h4.512a1.2,1.2,0,0,1,.248-.391l4.23-4.423a1.026,1.026,0,0,1,.229-.178A6.882,6.882,0,0,1,248.784,234.068Z" transform="translate(-194.904 -196.639)" fill="#ffaa7b"/>
        <path id="Trazado_911982" data-name="Trazado 911982" d="M214.663,242.06a10.387,10.387,0,0,0,1.331-5.026,7.415,7.415,0,0,1-4.165-1.544,13.85,13.85,0,0,1-1.367-1.218,6.875,6.875,0,0,1-1.187,2.825,1.025,1.025,0,0,1,.251.191l4.23,4.423a1.2,1.2,0,0,1,.248.391h.626C214.642,242.087,214.653,242.074,214.663,242.06Z" transform="translate(-168.447 -196.81)" fill="#fc9460"/>
        <path id="Trazado_911983" data-name="Trazado 911983" d="M231.66,288.8h-4.817a6.97,6.97,0,0,1-2.286,3.19c1.149,2.1,2.308,3.918,3.251,5.3a11.942,11.942,0,0,1,1.312,2.523,11.949,11.949,0,0,1,1.312-2.523,63.245,63.245,0,0,0,3.329-5.441,7.068,7.068,0,0,1-2.1-3.047Z" transform="translate(-181.284 -242.617)" fill="#49b1f7"/>
        <path id="Trazado_911984" data-name="Trazado 911984" d="M240.495,283.465a1.207,1.207,0,0,1,.066-.971h-4.786a1.207,1.207,0,0,1,.066.971,7.977,7.977,0,0,1-.671,1.407L236.6,286.8h3.068l1.467-1.976a7.979,7.979,0,0,1-.639-1.355Z" transform="translate(-190.201 -237.322)" fill="#4f71b6"/>
        <path id="Trazado_911985" data-name="Trazado 911985" d="M84.5,18.649c-2.922-2.11-5.259-3.114-7.627-3.011a5.683,5.683,0,0,0-1.411,3.719,3.827,3.827,0,0,0,1.411,2.654,1.659,1.659,0,0,0-.135.252A8.507,8.507,0,0,1,82.155,23.8a4.274,4.274,0,0,1,1.462,2.1l.4,1.55.848,1.9a1.517,1.517,0,0,1,1.225-.183h0l.384-5.962A5.148,5.148,0,0,0,84.5,18.649Z" transform="translate(-56.028 -13.132)" fill="#3c58a0"/>
        <path id="Trazado_911986" data-name="Trazado 911986" d="M32.666,23.793a8.417,8.417,0,0,1,4.756-1.547,1.451,1.451,0,0,1,.191-.277c-3.392-2.743-.01-6.34,0-6.347-2.251,0-4.5,1.007-7.291,3.019a5.147,5.147,0,0,0-1.969,4.56l.384,5.962h0a1.516,1.516,0,0,1,1.224.183l.848-1.9.4-1.55A4.277,4.277,0,0,1,32.666,23.793Z" transform="translate(-16.432 -13.124)" fill="#2a428c"/>
        <path id="Trazado_911987" data-name="Trazado 911987" d="M88.1,58.963a4.275,4.275,0,0,0-1.463-2.1,8.495,8.495,0,0,0-5.307-1.543l.03.027a1.308,1.308,0,0,0-.045,1.472c-.138.072-.318.173-.521.3a10.568,10.568,0,0,1,5.843,1.157A3.448,3.448,0,0,1,88.1,59.891l.565,1.27Z" transform="translate(-60.512 -46.469)" fill="#6289cc"/>
        <path id="Trazado_911988" data-name="Trazado 911988" d="M44.811,58.275a10.159,10.159,0,0,1,4.579-1.186c.224-.123.368-.189.368-.189a1.129,1.129,0,0,1,0-1.588,8.447,8.447,0,0,0-4.947,1.55,4.275,4.275,0,0,0-1.463,2.1l-.566,2.2.565-1.27A3.449,3.449,0,0,1,44.811,58.275Z" transform="translate(-28.577 -46.467)" fill="#4f71b6"/>
        <path id="Trazado_911989" data-name="Trazado 911989" d="M132.812,98.378a1.355,1.355,0,0,0-1.442.041,4.525,4.525,0,0,1,.014,1.334l-.38,2.77q0,.335-.02.658c.927.28,1.388-.553,1.466-1.124a4.265,4.265,0,0,1,.164-.725C132.859,100.561,133.749,99.237,132.812,98.378Z" transform="translate(-102.674 -82.483)" fill="#e58b6c"/>
        <path id="Trazado_911990" data-name="Trazado 911990" d="M28.119,98.378a1.355,1.355,0,0,1,1.442.041,4.53,4.53,0,0,0-.014,1.334l.38,2.77q0,.335.02.658a1.175,1.175,0,0,1-1.466-1.124,4.265,4.265,0,0,0-.164-.725C28.071,100.561,27.181,99.237,28.119,98.378Z" transform="translate(-15.905 -82.483)" fill="#d1714b"/>
        <path id="Trazado_911991" data-name="Trazado 911991" d="M76.5,70.739l-.9-2.022-.295-.662a3.447,3.447,0,0,0-1.462-1.615,10.466,10.466,0,0,0-5.5-1.179c-.891.5-2.779,1.758-2.779,3.52,0,.1,0,.211,0,.342a35.7,35.7,0,0,0,.267,4.855,8.683,8.683,0,0,1,7.606.676l.067.046a17.045,17.045,0,0,0,2.554,1.432,10.765,10.765,0,0,0,.076-1.277l.38-2.77A4.525,4.525,0,0,0,76.5,70.739Z" transform="translate(-47.716 -54.816)" fill="#f2a08b"/>
        <path id="Trazado_911992" data-name="Trazado 911992" d="M41.729,74.648a6.824,6.824,0,0,1,1.517-.756,36.7,36.7,0,0,1-.238-5.117c0-2.128,3.089-3.533,3.089-3.533h0a10.292,10.292,0,0,0-4.947,1.193,3.447,3.447,0,0,0-1.462,1.615l-.294.661h0l-.914,2.051a4.528,4.528,0,0,0-.012,1.316l.38,2.771a10.733,10.733,0,0,0,.086,1.355,17.16,17.16,0,0,0,2.729-1.51Z" transform="translate(-24.916 -54.809)" fill="#e58b6c"/>
        <path id="Trazado_911993" data-name="Trazado 911993" d="M78.468,171.546a4.659,4.659,0,0,1-1.117-2.353,10.076,10.076,0,0,1-1.006.9,5.4,5.4,0,0,1-3.249,1.13,12.662,12.662,0,0,1-2.38,6.925c-.059-.006-.134-.012-.219-.014a21.009,21.009,0,0,0,2.537,2.826,22.29,22.29,0,0,0,5.79-9.063l0,0c-.112-.1-.232-.218-.358-.345Z" transform="translate(-51.861 -142.138)" fill="#e58b6c"/>
        <path id="Trazado_911994" data-name="Trazado 911994" d="M55.951,171.222a5.4,5.4,0,0,1-3.309-1.131,10.073,10.073,0,0,1-1.006-.9,4.657,4.657,0,0,1-1.117,2.353c-.127.127-.246.241-.359.345l0,0a20.508,20.508,0,0,0,3.444,6.49c.079.008.126.017.126.017a12.764,12.764,0,0,0,2.522-7.189C56.153,171.219,56.052,171.222,55.951,171.222Z" transform="translate(-34.775 -142.138)" fill="#d1714b"/>
        <path id="Trazado_911995" data-name="Trazado 911995" d="M38.664,200.94a4.132,4.132,0,0,0-2.846-2.911,47.573,47.573,0,0,1-6.36-2.448,24.464,24.464,0,0,1-6.1,9.386l0,0-1.66,1.7a.532.532,0,0,1-.715.037,26.426,26.426,0,0,1-4.5-4.526c-.006.054-.013.107-.016.163a8.941,8.941,0,0,0-6.056,2.15,7.369,7.369,0,0,0-1.641,2.238c0,.091,0,.181,0,.272a39.062,39.062,0,0,0,12.249,28.451,107.25,107.25,0,0,1,3.212-19.891,5.681,5.681,0,0,1,3.913-4,63.777,63.777,0,0,0,8.141-3.09l3.67-1.662c-.435-2.439-.91-4.443-1.286-5.866Z" transform="translate(0 -164.306)" fill="#3c58a0"/>
        <path id="Trazado_911996" data-name="Trazado 911996" d="M16.7,202.591c0-.047,0-.091,0-.136a23.107,23.107,0,0,1-3.808-6.875c-.712.33-1.682.761-2.778,1.2A39.22,39.22,0,0,0,8.767,207c0,.106,0,.211,0,.317C10.872,202.125,16.7,202.591,16.7,202.591Z" transform="translate(-0.001 -164.306)" fill="#2a428c"/>
        <g id="Grupo_1122026" data-name="Grupo 1122026" transform="translate(21.084 29.486)">
          <path id="Trazado_911997" data-name="Trazado 911997" d="M94.175,185.483c-.994-.45-1.625-.771-1.625-.771a2.418,2.418,0,0,1-.424-.253.348.348,0,0,0-.534.182,21.233,21.233,0,0,1-5.793,9.05c.414.394.854.784,1.325,1.166l.989.8a24.1,24.1,0,0,0,6.248-9.751A.347.347,0,0,0,94.175,185.483Z" transform="translate(-85.799 -184.395)" fill="#4f71b6"/>
        </g>
        <path id="Trazado_911998" data-name="Trazado 911998" d="M72.663,125.382a5.366,5.366,0,0,0,.834-.529,10.183,10.183,0,0,0,3.879-6.992,17.064,17.064,0,0,1-2.575-1.442l-.067-.046a8.684,8.684,0,0,0-7.627-.667C67.74,120.832,69.6,124.075,72.663,125.382Z" transform="translate(-49.012 -96.717)" fill="#e9efff"/>
        <path id="Trazado_911999" data-name="Trazado 911999" d="M45.345,127.474a5.408,5.408,0,0,0,6.052.379c-3.85-1.538-5.166-5.97-5.61-9.606a6.808,6.808,0,0,0-1.5.748l-.067.046a17.173,17.173,0,0,1-2.749,1.52,10.185,10.185,0,0,0,3.87,6.914Z" transform="translate(-27.479 -99.339)" fill="#d3dcfb"/>
        <path id="Trazado_912000" data-name="Trazado 912000" d="M416.945,41.071a1.617,1.617,0,0,0-.371,1.055,1.12,1.12,0,0,0,.463.8c.589.462,4.274,7.154,6.61,11.545a4.6,4.6,0,0,0,2.672,2.383,4.974,4.974,0,0,0,4.1-.907c.008-.1.012-.195.012-.293a3.693,3.693,0,0,0-1.218-2.738,2.855,2.855,0,0,1-.806-3.028c1.229-3.664-1.524-4.993-3.295-9.583-1.539-3.991-5.895-3.739-7.3-3.544a3.243,3.243,0,0,1-.5.029,3.331,3.331,0,0,1-.359-.015v4.294Z" transform="translate(-342.594 -30.809)" fill="#6e5d76"/>
        <path id="Trazado_912001" data-name="Trazado 912001" d="M358.773,54.368S352.94,43.4,352.1,42.74s0-1.583,0-1.583V36.791a3.141,3.141,0,0,1-.382-.027c-1.409-.195-5.764-.447-7.3,3.544-1.77,4.59-4.523,5.919-3.295,9.583a2.855,2.855,0,0,1-.806,3.028,3.683,3.683,0,0,0-.67,4.67,3.7,3.7,0,0,1,.546,2.354,4.546,4.546,0,0,0,.964,3.4h11.066l11.059-.068a4.4,4.4,0,0,0,.971-3.336,3.7,3.7,0,0,1,.546-2.354,3.664,3.664,0,0,0,.548-1.932C360.719,58.747,358.773,54.368,358.773,54.368Z" transform="translate(-277.505 -30.809)" fill="#56415e"/>
        <path id="Trazado_912002" data-name="Trazado 912002" d="M410.316,180.636l-.028.059.006.065c0,.024.007.079.015.162.569.056,1.142.088,1.719.088a17.572,17.572,0,0,0,5.952-1.041l1.361-7.225c-.353-.21-.7-.426-1.048-.652a4.474,4.474,0,0,1-1.947-2.881l0-.018a10.067,10.067,0,0,1-1.006.9,5.4,5.4,0,0,1-3.309,1.131c-.076,0-.151,0-.227,0,0,1.931-.142,6.588-1.485,9.42Z" transform="translate(-337.316 -142.137)" fill="#ffaa7b"/>
        <path id="Trazado_912003" data-name="Trazado 912003" d="M381.248,180.74c1.368-2.886,1.513-7.568,1.509-9.518h-.014a5.4,5.4,0,0,1-3.309-1.131,10.053,10.053,0,0,1-1.006-.9l0,.018a4.474,4.474,0,0,1-1.947,2.881h0c-.344.225-.694.442-1.047.652l1.361,7.225a17.6,17.6,0,0,0,4.478.978C381.254,180.813,381.248,180.74,381.248,180.74Z" transform="translate(-308.031 -142.138)" fill="#fc9460"/>
        <path id="Trazado_912004" data-name="Trazado 912004" d="M410.3,235.7c.035.4.884,9.912,3.577,12.009a1.856,1.856,0,0,0,1.153.427h.018a9.836,9.836,0,0,0,.29,1.687l2.708-15.234a16.11,16.11,0,0,1-7.75,1.065Z" transform="translate(-337.324 -197.073)" fill="#49b1f7"/>
        <path id="Trazado_912005" data-name="Trazado 912005" d="M389.574,264.363h.719l2.694-15.156a8.6,8.6,0,0,1-.173-1.337c-3.631.591-4.734-12.2-4.734-12.2a16.192,16.192,0,0,1-4.518-1.091l1.728,11.262a5.662,5.662,0,0,1,1.25,2.322,106.585,106.585,0,0,1,2.9,16.2h.132Z" transform="translate(-314.863 -197.072)" fill="#1e9ef4"/>
        <path id="Trazado_912006" data-name="Trazado 912006" d="M442.767,216.461a5.6,5.6,0,0,0,4.084,1.184,39.32,39.32,0,0,0,1.554-25.051,27.833,27.833,0,0,1-3.957-1.991l-4.021,21.16A7.581,7.581,0,0,0,442.767,216.461Z" transform="translate(-362.635 -160.124)" fill="#73c3f9"/>
        <path id="Trazado_912007" data-name="Trazado 912007" d="M424.132,317.678,420.84,335q.137,1.465.237,3a39.259,39.259,0,0,0,9.416-13.845c-6.182.486-6.362-6.476-6.362-6.476Z" transform="translate(-346.181 -266.879)" fill="#49b1f7"/>
        <path id="Trazado_912008" data-name="Trazado 912008" d="M305.58,201.566l2.465,1.7a2.449,2.449,0,0,1,.763.852,63.808,63.808,0,0,0,8.166,3.1,5.686,5.686,0,0,1,3.069,2.2L316.5,190.6a27.749,27.749,0,0,1-4.287,2.124c-1.026.4-2.146.8-3.261,1.122a4.122,4.122,0,0,0-2.839,2.908c-.318,1.2-.707,2.824-1.082,4.771a.545.545,0,0,1,.549.04Z" transform="translate(-248.891 -160.122)" fill="#49b1f7"/>
        <path id="Trazado_912009" data-name="Trazado 912009" d="M412.986,1.542a1.987,1.987,0,0,0,.826,1.533,1.327,1.327,0,0,0-.241.41h6.984A7.58,7.58,0,0,0,414.174,0c-.132,0-.262.006-.392.013a2.242,2.242,0,0,0-.8,1.529Z" transform="translate(-339.583)" fill="#d3dcfb"/>
        <path id="Trazado_912010" data-name="Trazado 912010" d="M386.888,0a7.58,7.58,0,0,0-6.382,3.485h6.037a1.261,1.261,0,0,1,.345-.43A1.743,1.743,0,0,1,386.888,0Z" transform="translate(-312.297)" fill="#bec8f7"/>
        <path id="Trazado_912011" data-name="Trazado 912011" d="M363.035,99.232a13.4,13.4,0,0,1,.071-4.693,1.687,1.687,0,0,0-1.846-.069c-.864.845-.231,2.12.072,2.926a3.059,3.059,0,0,1,.18.748,1.389,1.389,0,0,0,1.579,1.323c-.018-.079-.037-.156-.055-.236Z" transform="translate(-295.76 -79.155)" fill="#fc9460"/>
        <path id="Trazado_912012" data-name="Trazado 912012" d="M469.837,94.47a1.687,1.687,0,0,0-1.846.069,13.4,13.4,0,0,1,.071,4.693c-.018.08-.037.157-.055.236a1.389,1.389,0,0,0,1.579-1.323,3.059,3.059,0,0,1,.18-.748C470.068,96.59,470.7,95.314,469.837,94.47Z" transform="translate(-385.792 -79.155)" fill="#ffaa7b"/>
        <path id="Trazado_912013" data-name="Trazado 912013" d="M409.537,62.091a1.058,1.058,0,0,1-.281-.672c-.027-.916-.259-3.158-1.812-4.192-1.1-.734-2.651-.726-4.6.023a.911.911,0,0,1-.654,0q-.188-.072-.371-.135c-1.562,1.094-1.8,3.277-1.829,4.185a1.044,1.044,0,0,1-.306.686c-1.06,1.119-.828,4.39-.58,5.737a19.943,19.943,0,0,0,2.358,5.872,9.2,9.2,0,0,0,3.189,3.067,8.737,8.737,0,0,0,3.26-3.2,20.3,20.3,0,0,0,2.165-5.754C410.288,66.319,410.521,63.2,409.537,62.091Z" transform="translate(-327.741 -47.619)" fill="#ffc7ab"/>
        <g id="Grupo_1122027" data-name="Grupo 1122027" transform="translate(67.023 9.065)">
          <path id="Trazado_912014" data-name="Trazado 912014" d="M379.849,73.464a19.53,19.53,0,0,1-2.309-5.75c-.242-1.319-.469-4.521.568-5.618a1.023,1.023,0,0,0,.3-.672c.029-.916.276-3.158,1.934-4.192l.04-.023c-1.894-.7-3.4-.695-4.478.023-1.554,1.034-1.785,3.276-1.812,4.192a1.057,1.057,0,0,1-.281.672c-.973,1.1-.76,4.3-.533,5.618a20.292,20.292,0,0,0,2.164,5.75,8.805,8.805,0,0,0,4.148,3.646,3.147,3.147,0,0,0,2.49,0,9.245,9.245,0,0,0,1.062-.544A9.036,9.036,0,0,1,379.849,73.464Z" transform="translate(-373.086 -56.689)" fill="#ffaa7b"/>
        </g>
        <path id="Trazado_912015" data-name="Trazado 912015" d="M416.591,19.123a1.165,1.165,0,0,0-.3.713,1.122,1.122,0,0,0,.419.855v5.62a1.617,1.617,0,0,0-.371,1.055,1.056,1.056,0,0,0,.268.619,16.823,16.823,0,0,1,7.144,1.431,1.316,1.316,0,0,0,1.187-.055,1.5,1.5,0,0,0,.684-1.018l1.113-6.4A2.423,2.423,0,0,0,424.35,19.1h-7.781Z" transform="translate(-342.362 -16.048)" fill="#e9efff"/>
        <path id="Trazado_912016" data-name="Trazado 912016" d="M368.816,26.4V20.581a.88.88,0,0,1,0-1.478h-7.4a2.423,2.423,0,0,0-2.388,2.838l1.113,6.4a1.5,1.5,0,0,0,.684,1.018,1.315,1.315,0,0,0,1.187.055,16.826,16.826,0,0,1,6.8-1.435C367.973,27.318,368.816,26.4,368.816,26.4Z" transform="translate(-294.225 -16.048)" fill="#d3dcfb"/>
        <path id="Trazado_912017" data-name="Trazado 912017" d="M415.359,34.165a.965.965,0,0,1-.962-.962V29.311a.962.962,0,0,1,1.925,0V33.2A.965.965,0,0,1,415.359,34.165Z" transform="translate(-340.768 -23.816)" fill="#ff4155"/>
        <path id="Trazado_912018" data-name="Trazado 912018" d="M408.047,41.478a.965.965,0,0,1-.962.962h-3.891a.962.962,0,0,1,0-1.925h3.891A.965.965,0,0,1,408.047,41.478Z" transform="translate(-330.548 -34.037)" fill="#ff7186"/>
        <path id="Trazado_912019" data-name="Trazado 912019" d="M62.878,228.875a21.811,21.811,0,0,1-3.656-3.775,2.275,2.275,0,0,0-1.577.444,2.118,2.118,0,0,0-.707,1.551,25,25,0,0,0,4.04,4.126l.419.347a.619.619,0,0,0,.838-.044l1.73-1.769Z" transform="translate(-40.469 -189.1)" fill="#6289cc"/>
        <path id="Trazado_912020" data-name="Trazado 912020" d="M39.559,191.173a20.729,20.729,0,0,1-3.483-6.533.348.348,0,0,0-.534-.181,2.414,2.414,0,0,1-.424.253s-.631.321-1.625.771a.347.347,0,0,0-.187.425,23.663,23.663,0,0,0,3.993,7.287A1.845,1.845,0,0,1,39.559,191.173Z" transform="translate(-20.602 -154.909)" fill="#4f71b6"/>
        <path id="Trazado_912021" data-name="Trazado 912021" d="M241.442,308.077c-.577,0-1.089-.251-1.6-.251-.47,0-.942.251-1.465.251l-1.091,3.346c.43.679.84,1.3,1.216,1.848a11.943,11.943,0,0,1,1.312,2.523,11.951,11.951,0,0,1,1.312-2.523c.425-.622.895-1.334,1.387-2.12Z" transform="translate(-191.976 -258.603)" fill="#3c58a0"/>
        <path id="Trazado_912022" data-name="Trazado 912022" d="M268.861,260.39a48.13,48.13,0,0,0,3.579-8.133.556.556,0,0,1,.4-.37l-.286-.354a1.026,1.026,0,0,0-1.539-.065l-4.23,4.423a1.206,1.206,0,0,0-.262,1.244A6.968,6.968,0,0,0,268.861,260.39Z" transform="translate(-216.478 -210.99)" fill="#73c3f9"/>
        <path id="Trazado_912023" data-name="Trazado 912023" d="M201.134,252.256a48.307,48.307,0,0,0,3.652,8.266,6.873,6.873,0,0,0,2.53-3.388,1.206,1.206,0,0,0-.262-1.244l-4.23-4.423a1.026,1.026,0,0,0-1.539.065l-.367.435A.553.553,0,0,1,201.134,252.256Z" transform="translate(-161.424 -210.99)" fill="#73c3f9"/>
        <path id="Trazado_912024" data-name="Trazado 912024" d="M317.545,136.807a1.863,1.863,0,0,0-1.983.056,6.226,6.226,0,0,1,.019,1.834l-.523,3.809q0,.461-.027.9c1.275.385,1.909-.76,2.015-1.546a5.847,5.847,0,0,1,.225-1C317.61,139.808,318.834,137.989,317.545,136.807Z" transform="translate(-257.291 -114.706)" fill="#ffaa7b"/>
        <path id="Trazado_912025" data-name="Trazado 912025" d="M173.6,136.807a1.863,1.863,0,0,1,1.983.056,6.227,6.227,0,0,0-.019,1.834l.523,3.809c0,.307.01.608.028.9-1.275.385-1.909-.76-2.015-1.546a5.85,5.85,0,0,0-.225-1C173.539,139.808,172.315,137.989,173.6,136.807Z" transform="translate(-137.995 -114.706)" fill="#fc9460"/>
        <path id="Trazado_912026" data-name="Trazado 912026" d="M168.3,330.167a17.009,17.009,0,0,0-7.477-4.757.7.7,0,0,1-.466-.857l.478-1.71a1.076,1.076,0,0,0-1.037-1.366h-.487c-1.552.22-6.374,1.352-6.374,6.9v20.1a39.015,39.015,0,0,0,15.5,3.457V329.094Q168.346,329.627,168.3,330.167Z" transform="translate(-121.117 -270.071)" fill="#bec8f7"/>
        <path id="Trazado_912027" data-name="Trazado 912027" d="M94.621,286.962c0-6.426,6.621-6.712,6.621-6.712.017-.065.036-.123.055-.185-.018,0-.036,0-.055,0H98.329a.7.7,0,0,1-.7-.766l.582-6.172a2.263,2.263,0,0,1,.308-.945,63.773,63.773,0,0,1-8.141,3.09,5.681,5.681,0,0,0-3.913,4,107.264,107.264,0,0,0-3.233,20.2,39.236,39.236,0,0,0,11.386,7.693C94.621,302.808,94.621,292.021,94.621,286.962Z" transform="translate(-62.562 -228.656)" fill="#a2b2ed"/>
        <circle id="Elipse_11551" data-name="Elipse 11551" cx="5.142" cy="5.142" r="5.142" transform="translate(29.119 59.032) rotate(-22.514)" fill="#e9efff"/>
        <path id="Trazado_912028" data-name="Trazado 912028" d="M196.124,310.6a62.393,62.393,0,0,1-3.294-5.386l0,.022a3.91,3.91,0,0,0-2.931-.116,3.434,3.434,0,0,0-1.82,2.376,8.948,8.948,0,0,0-1.256.225h1.442a.888.888,0,0,1,.855,1.128l-.478,1.71a.887.887,0,0,0,.592,1.088,16.593,16.593,0,0,1,7.689,5.048,11.8,11.8,0,0,1,.622-3.258A11.8,11.8,0,0,0,196.124,310.6Z" transform="translate(-149.583 -256.123)" fill="#d3dcfb"/>
        <path id="Trazado_912029" data-name="Trazado 912029" d="M180.64,264.171h0A47.753,47.753,0,0,1,177,255.951a.551.551,0,0,0-.836-.284l-2.465,1.7a2.453,2.453,0,0,0-1.052,1.791l-.582,6.172a.888.888,0,0,0,.884.972h2.914C176.938,262.194,180.64,264.171,180.64,264.171Z" transform="translate(-137.185 -214.703)" fill="#bec8f7"/>
        <path id="Trazado_912030" data-name="Trazado 912030" d="M265.965,289.574a1.123,1.123,0,0,1,.754-1.074,1.1,1.1,0,0,1,1.241.325,7.48,7.48,0,0,1,1.752,4.973v10.136a39.357,39.357,0,0,0,6.769-5.267,107.253,107.253,0,0,0-3.232-20.19,5.681,5.681,0,0,0-3.913-4,64.68,64.68,0,0,1-8.473-3.241,2.258,2.258,0,0,1,.409,1.1l.582,6.172a.7.7,0,0,1-.7.766h-2.914a1.076,1.076,0,0,0-1.037,1.366l.478,1.71a.7.7,0,0,1-.466.857,16.533,16.533,0,0,0-8.7,6.339h-.188v20.183c.289.006.579.011.87.011a39.009,39.009,0,0,0,16.768-3.762v-16.4Z" transform="translate(-201.254 -227.862)" fill="#d3dcfb"/>
        <path id="Trazado_912031" data-name="Trazado 912031" d="M250.383,269.176a54.23,54.23,0,0,0,6.723-13.224.551.551,0,0,1,.836-.284l2.465,1.7a2.453,2.453,0,0,1,1.052,1.791l.582,6.172a.888.888,0,0,1-.884.972h-2.914a.888.888,0,0,0-.855,1.128l.478,1.71a.887.887,0,0,1-.592,1.088,16.191,16.191,0,0,0-8.948,6.8v-1.19A11.8,11.8,0,0,1,250.383,269.176Z" transform="translate(-201.253 -214.704)" fill="#e9efff"/>
        <path id="Trazado_912032" data-name="Trazado 912032" d="M246,83.825a5.081,5.081,0,0,0-.453-.911,2.737,2.737,0,0,1-.414-1.67c.122-1.685.057-4.981-2.156-5.977-1.88-.846-4.185-.356-5.655.133a4.668,4.668,0,0,1-2.276.166c-1.382,1.4-1.41,4.049-1.3,5.5a2.775,2.775,0,0,1-.425,1.7,5.18,5.18,0,0,0-.453.9,6.237,6.237,0,0,0-.353,3.112l.536,3.9a14.334,14.334,0,0,0,5.541,11.4,7.431,7.431,0,0,0,.638.437,7.37,7.37,0,0,0,1.172-.743,14,14,0,0,0,5.411-11.131l.523-3.809A6.1,6.1,0,0,0,246,83.825Z" transform="translate(-187.919 -62.845)" fill="#ffc7ab"/>
        <g id="Grupo_1122028" data-name="Grupo 1122028" transform="translate(37.389 11.962)">
          <path id="Trazado_912033" data-name="Trazado 912033" d="M201.071,101.774a14,14,0,0,1-5.411-11.131l-.523-3.81a6.089,6.089,0,0,1,.345-3.039,5.053,5.053,0,0,1,.442-.883,2.711,2.711,0,0,0,.415-1.656c-.111-1.518-.073-4.365,1.569-5.639a4.662,4.662,0,0,1-1.07-.22c-1.47-.489-3.776-.979-5.655-.133-2.219,1-2.278,4.31-2.155,5.991a2.711,2.711,0,0,1-.415,1.656,5.065,5.065,0,0,0-.442.883,6.091,6.091,0,0,0-.345,3.039l.523,3.81a14,14,0,0,0,5.411,11.131,7.429,7.429,0,0,0,8.206.593A7.31,7.31,0,0,1,201.071,101.774Z" transform="translate(-187.767 -74.806)" fill="#ffaa7b"/>
        </g>
        <path id="Trazado_912034" data-name="Trazado 912034" d="M172.878,374.206a.965.965,0,0,1-.962-.962v-3.891a.962.962,0,0,1,1.925,0v3.891A.965.965,0,0,1,172.878,374.206Z" transform="translate(-137.061 -309.482)" fill="#ff4155"/>
        <path id="Trazado_912035" data-name="Trazado 912035" d="M165.565,381.518a.965.965,0,0,1-.962.962h-3.891a.962.962,0,0,1,0-1.925H164.6A.965.965,0,0,1,165.565,381.518Z" transform="translate(-126.84 -319.703)" fill="#ff7186"/>
        <path id="Trazado_912036" data-name="Trazado 912036" d="M361.357,382.873a7.727,7.727,0,0,0-1.809-5.128,1.377,1.377,0,0,0-2.418.9v16.51a39.133,39.133,0,0,0,4.227-2.3C361.357,390,361.357,385.914,361.357,382.873Z" transform="translate(-292.659 -316.937)" fill="#bec8f7"/>
      </g>
    </g>
  </g>
</svg>
