<svg xmlns="http://www.w3.org/2000/svg" xmlns:xlink="http://www.w3.org/1999/xlink" width="85" height="85" viewBox="0 0 85 85">
  <defs>
    <clipPath id="clip-path">
      <rect id="Rectángulo_410581" data-name="Rectángulo 410581" width="58.016" height="52.749" fill="#fff"/>
    </clipPath>
  </defs>
  <g id="img12_1" transform="translate(4136 9666)">
    <rect id="Rectángulo_410609" data-name="Rectángulo 410609" width="85" height="85" transform="translate(-4136 -9666)" fill="#2a5f61"/>
    <g id="Grupo_1122025" data-name="Grupo 1122025" transform="translate(-4124.445 -9655.314)">
      <g id="Grupo_1099618" data-name="Grupo 1099618" transform="translate(-0.001 0.043)">
        <rect id="Rectángulo_401104" data-name="Rectángulo 401104" width="61" height="62" transform="translate(0.447 0.272)" fill="none"/>
      </g>
      <g id="Grupo_1122017" data-name="Grupo 1122017" transform="translate(1.938 4.94)">
        <g id="Grupo_1122016" data-name="Grupo 1122016" clip-path="url(#clip-path)">
          <path id="Trazado_911961" data-name="Trazado 911961" d="M247.667,79.75a.85.85,0,0,1-.77-.488,3.324,3.324,0,0,0-3-1.9h-8.83a3.325,3.325,0,0,0-3,1.9.85.85,0,1,1-1.538-.724,5.031,5.031,0,0,1,4.533-2.878h8.83a5.031,5.031,0,0,1,4.533,2.878.85.85,0,0,1-.768,1.212" transform="translate(-204.345 -67.087)" fill="#fff"/>
          <path id="Trazado_911962" data-name="Trazado 911962" d="M18,185.823H1.983A1.985,1.985,0,0,1,0,183.84v-2.124a.85.85,0,1,1,1.7,0v2.124a.284.284,0,0,0,.283.283H17.146v-6.867a3.312,3.312,0,0,0-3.309-3.308H5.008A3.308,3.308,0,0,0,1.7,177.256v.493a.85.85,0,0,1-1.7,0v-.493a5.008,5.008,0,0,1,5.008-5.008h8.83a5.014,5.014,0,0,1,5.008,5.008v7.717a.85.85,0,0,1-.85.85" transform="translate(0 -152.73)" fill="#fff"/>
          <path id="Trazado_911963" data-name="Trazado 911963" d="M2.788,327.443a.849.849,0,0,1-.595-.243L.255,325.3a.85.85,0,1,1,1.19-1.214l1.279,1.254,2.106-2.534a.85.85,0,0,1,1.307,1.086l-2.7,3.244a.85.85,0,0,1-.61.305H2.788" transform="translate(0 -285.956)" fill="#fff"/>
          <path id="Trazado_911964" data-name="Trazado 911964" d="M92.944,338.514H73.955a.85.85,0,0,1,0-1.7H92.944a.85.85,0,0,1,0,1.7" transform="translate(-64.821 -298.649)" fill="#fff"/>
          <path id="Trazado_911965" data-name="Trazado 911965" d="M2.788,380.458a.85.85,0,0,1-.595-.243l-1.938-1.9a.85.85,0,1,1,1.19-1.214l1.279,1.254,2.106-2.534a.85.85,0,0,1,1.307,1.086l-2.7,3.244a.85.85,0,0,1-.61.305H2.788" transform="translate(0 -332.964)" fill="#fff"/>
          <path id="Trazado_911966" data-name="Trazado 911966" d="M92.944,391.529H73.955a.85.85,0,0,1,0-1.7H92.944a.85.85,0,0,1,0,1.7" transform="translate(-64.821 -345.656)" fill="#fff"/>
          <path id="Trazado_911967" data-name="Trazado 911967" d="M118.626,10.273a5.136,5.136,0,1,1,5.136-5.136,5.142,5.142,0,0,1-5.136,5.136m0-8.573a3.437,3.437,0,1,0,3.437,3.437A3.441,3.441,0,0,0,118.626,1.7" transform="translate(-100.63)" fill="#fff"/>
          <path id="Trazado_911968" data-name="Trazado 911968" d="M269.947,10.273a5.136,5.136,0,1,1,5.136-5.136,5.142,5.142,0,0,1-5.136,5.136m0-8.573a3.437,3.437,0,1,0,3.437,3.437A3.441,3.441,0,0,0,269.947,1.7" transform="translate(-234.805)" fill="#fff"/>
          <path id="Trazado_911969" data-name="Trazado 911969" d="M42.966,106.86a5.136,5.136,0,1,1,5.136-5.136,5.142,5.142,0,0,1-5.136,5.136m0-8.573a3.437,3.437,0,1,0,3.437,3.437,3.441,3.441,0,0,0-3.437-3.437" transform="translate(-33.543 -85.642)" fill="#fff"/>
          <path id="Trazado_911970" data-name="Trazado 911970" d="M194.286,106.86a5.136,5.136,0,1,1,5.136-5.136,5.142,5.142,0,0,1-5.136,5.136m0-8.573a3.437,3.437,0,1,0,3.437,3.437,3.441,3.441,0,0,0-3.437-3.437" transform="translate(-167.717 -85.642)" fill="#fff"/>
          <path id="Trazado_911971" data-name="Trazado 911971" d="M345.606,106.86a5.136,5.136,0,1,1,5.136-5.136,5.142,5.142,0,0,1-5.136,5.136m0-8.573a3.437,3.437,0,1,0,3.437,3.437,3.441,3.441,0,0,0-3.437-3.437" transform="translate(-301.89 -85.642)" fill="#fff"/>
          <path id="Trazado_911972" data-name="Trazado 911972" d="M81.392,79.263l-1.538-.724a5.031,5.031,0,0,1,4.533-2.878h8.83a5.031,5.031,0,0,1,4.533,2.878l-1.538.724a3.324,3.324,0,0,0-3-1.9h-8.83a3.325,3.325,0,0,0-3,1.9" transform="translate(-70.806 -67.088)" fill="#fff"/>
          <path id="Trazado_911973" data-name="Trazado 911973" d="M288.068,255.03a13.457,13.457,0,0,1-8.667-3.166.85.85,0,1,1,1.1-1.3,11.736,11.736,0,1,0-2.425-2.807.85.85,0,0,1-1.445.9,13.45,13.45,0,1,1,11.441,6.377" transform="translate(-243.501 -202.282)" fill="#fff"/>
          <path id="Trazado_911974" data-name="Trazado 911974" d="M330.375,290.9h-2.381a1.452,1.452,0,0,1-1.451-1.451v-4.1h-4.1a1.452,1.452,0,0,1-1.451-1.451V281.51a1.453,1.453,0,0,1,1.451-1.451h4.1v-4.1a1.452,1.452,0,0,1,1.451-1.451h2.381a1.452,1.452,0,0,1,1.451,1.451v4.1h4.1a1.452,1.452,0,0,1,1.451,1.451v2.381a1.452,1.452,0,0,1-1.451,1.451h-4.1v4.1a1.452,1.452,0,0,1-1.451,1.451m-2.132-1.7h1.883v-4.1a1.452,1.452,0,0,1,1.451-1.451h4.1v-1.883h-4.1a1.452,1.452,0,0,1-1.451-1.451v-4.1h-1.883v4.1a1.452,1.452,0,0,1-1.451,1.451h-4.1v1.883h4.1a1.452,1.452,0,0,1,1.451,1.451Zm-1.451-3.854h0Z" transform="translate(-284.618 -243.401)" fill="#fff"/>
          <path id="Trazado_911975" data-name="Trazado 911975" d="M304.341,183.668h-1.7v-6.412a5.014,5.014,0,0,1,5.008-5.008h8.83a5.014,5.014,0,0,1,5.008,5.008v4.818h-1.7v-4.818a3.312,3.312,0,0,0-3.309-3.309h-8.83a3.312,3.312,0,0,0-3.309,3.309Z" transform="translate(-268.348 -152.729)" fill="#fff"/>
          <path id="Trazado_911976" data-name="Trazado 911976" d="M156.27,185.822h-4.1a.85.85,0,0,1-.85-.85v-7.717a5.014,5.014,0,0,1,5.008-5.008h8.83a5.014,5.014,0,0,1,5.008,5.008v6.412a.85.85,0,1,1-1.7,0v-6.412a3.312,3.312,0,0,0-3.309-3.309h-8.83a3.312,3.312,0,0,0-3.309,3.309v6.867h3.25a.85.85,0,0,1,0,1.7" transform="translate(-134.174 -152.729)" fill="#fff"/>
          <path id="Trazado_911977" data-name="Trazado 911977" d="M231.416,278.746H223.35a.85.85,0,1,1,0-1.7h8.066a.85.85,0,1,1,0,1.7" transform="translate(-197.288 -245.653)" fill="#fff"/>
        </g>
      </g>
    </g>
  </g>
</svg>
