<svg xmlns="http://www.w3.org/2000/svg" xmlns:xlink="http://www.w3.org/1999/xlink" width="85" height="85" viewBox="0 0 85 85">
  <defs>
    <clipPath id="clip-path">
      <rect id="Rectángulo_410580" data-name="Rectángulo 410580" width="45.357" height="59.798" fill="#fff"/>
    </clipPath>
  </defs>
  <g id="img11_1" transform="translate(4451 9666)">
    <rect id="Rectángulo_410608" data-name="Rectángulo 410608" width="85" height="85" transform="translate(-4451 -9666)" fill="#2a5f61"/>
    <g id="Grupo_1122024" data-name="Grupo 1122024" transform="translate(-4439.445 -9655.314)">
      <g id="Grupo_1099618" data-name="Grupo 1099618" transform="translate(-0.001 0.043)">
        <rect id="Rectángulo_401104" data-name="Rectángulo 401104" width="61" height="62" transform="translate(0.447 0.272)" fill="none"/>
      </g>
      <g id="Grupo_1122015" data-name="Grupo 1122015" transform="translate(8.268 1.415)">
        <g id="Grupo_1122014" data-name="Grupo 1122014" clip-path="url(#clip-path)">
          <path id="Trazado_911943" data-name="Trazado 911943" d="M4.166,271.427a.876.876,0,0,1-.876-.876v-14a.876.876,0,1,1,1.752,0v14a.876.876,0,0,1-.876.876" transform="translate(-2.906 -225.819)" fill="#fff"/>
          <path id="Trazado_911944" data-name="Trazado 911944" d="M8.254,418.16H4.166a.876.876,0,0,1-.876-.876v-5.9a.876.876,0,1,1,1.752,0v5.022H8.254a.876.876,0,1,1,0,1.752" transform="translate(-2.906 -362.566)" fill="#fff"/>
          <path id="Trazado_911945" data-name="Trazado 911945" d="M8.254,466.966H4.75a1.461,1.461,0,0,1-1.46-1.46v-3.621a.876.876,0,0,1,.876-.876H8.254a.876.876,0,0,1,.876.876v4.2a.876.876,0,0,1-.876.876m-3.212-1.752H7.378v-2.453H5.042Z" transform="translate(-2.906 -407.168)" fill="#fff"/>
          <path id="Trazado_911946" data-name="Trazado 911946" d="M44.745,301.823a.872.872,0,0,1-.217-.027.771.771,0,0,0-.191-.027H39.165a.876.876,0,0,1-.876-.876v-21.4a.876.876,0,0,1,1.338-.744l4.786,2.976a.282.282,0,0,0,.2.039.876.876,0,0,1,1.01.866v18.32a.876.876,0,0,1-.876.876m-4.7-1.807h3.828V283.394a2.033,2.033,0,0,1-.38-.185h0l-3.448-2.144Z" transform="translate(-33.817 -246.074)" fill="#fff"/>
          <path id="Trazado_911947" data-name="Trazado 911947" d="M46.173,466.966H39.166a.876.876,0,0,1-.876-.876v-4.2a.876.876,0,0,1,.876-.876h5.173a3.3,3.3,0,0,1,3.295,3.295v1.2a1.461,1.461,0,0,1-1.46,1.46m-6.132-1.752h5.84v-.91a1.545,1.545,0,0,0-1.543-1.543h-4.3Z" transform="translate(-33.818 -407.168)" fill="#fff"/>
          <path id="Trazado_911948" data-name="Trazado 911948" d="M226.565,269.138a.876.876,0,0,1-.876-.876V249.868a5.613,5.613,0,0,0-5.606-5.606H209.021a.876.876,0,0,1,0-1.752h11.061a7.367,7.367,0,0,1,7.358,7.358v18.394a.876.876,0,0,1-.876.876" transform="translate(-183.835 -214.187)" fill="#fff"/>
          <path id="Trazado_911949" data-name="Trazado 911949" d="M227.731,269.138a.876.876,0,0,1-.876-.876V243.386a.876.876,0,1,1,1.752,0v24.877a.876.876,0,0,1-.876.876" transform="translate(-200.36 -214.187)" fill="#fff"/>
          <path id="Trazado_911950" data-name="Trazado 911950" d="M243.089,409.262H227.731a.876.876,0,0,1,0-1.752h15.359a.876.876,0,0,1,0,1.752" transform="translate(-200.36 -359.916)" fill="#fff"/>
          <path id="Trazado_911951" data-name="Trazado 911951" d="M116.989,50.151a.876.876,0,0,1-.758-1.314l.668-1.156a1.4,1.4,0,0,1,1.916-.513l.473.273a1.511,1.511,0,0,0,2.065-.553l.509-.882a.876.876,0,0,1,1.2-.321l.262.151-.055-2a.876.876,0,0,1,.117-.462l1.124-1.948-2.8-1.617L120.5,41.075a1.4,1.4,0,0,1-1.718.248l-.607-.351a.876.876,0,0,1-.436-.7.819.819,0,0,0-1-.758.819.819,0,0,0-.541.391l-.615,1.066a.825.825,0,0,0,.438,1.193.876.876,0,0,1,.464,1.263l-2.371,4.106a.876.876,0,0,1-1.517-.876l1.95-3.378a2.59,2.59,0,0,1-.481-3.184l.615-1.066a2.578,2.578,0,0,1,4.728.635l.013.007,1.207-1.268a1.4,1.4,0,0,1,1.717-.248l3.8,2.192a.876.876,0,0,1,.321,1.2l-1.439,2.492.066,2.4A1.392,1.392,0,0,1,123,47.674l-.061-.036-.071.124a3.263,3.263,0,0,1-4.458,1.194l-.17-.1-.493.854a.876.876,0,0,1-.759.438" transform="translate(-99.341 -33.33)" fill="#fff"/>
          <path id="Trazado_911952" data-name="Trazado 911952" d="M10.751,135.432a2.046,2.046,0,0,1-1.08-.308L.686,129.538A1.468,1.468,0,0,1,.2,127.556L8.357,113.7a5.6,5.6,0,0,1,7.562-2.039l.926.52a6.119,6.119,0,0,1,2.267,8.331l-2.4,5.061a.876.876,0,0,1-1.583-.75l2.413-5.092c.01-.021.021-.042.033-.063a4.367,4.367,0,0,0-1.6-5.965l-.917-.515a3.864,3.864,0,0,0-5.194,1.4L1.853,128.2l8.743,5.435a.292.292,0,0,0,.418-.123l2.179-4.6a.876.876,0,0,1,1.583.75l-2.179,4.6a2.043,2.043,0,0,1-1.846,1.168" transform="translate(0 -97.988)" fill="#fff"/>
          <path id="Trazado_911953" data-name="Trazado 911953" d="M149.871,8.648a.874.874,0,0,1-.438-.117l-3.559-2.055-1.206,1.268a1.4,1.4,0,0,1-1.717.248l-.608-.351a.876.876,0,0,1-.436-.7.819.819,0,0,0-1-.758.876.876,0,0,1-.947-1.293l1.83-3.169a3.431,3.431,0,0,1,4.68-1.259L150.858,2.9a3.008,3.008,0,0,1,.2,5.138l-.7.463a.875.875,0,0,1-.483.145m-4.061-4.016a1.4,1.4,0,0,1,.7.189l3.328,1.921.249-.164a1.257,1.257,0,0,0-.082-2.146l-4.4-2.447-.012-.007a1.679,1.679,0,0,0-2.293.615L142.13,4.628a2.573,2.573,0,0,1,1.445,1.7l.013.007,1.206-1.269a1.4,1.4,0,0,1,1.015-.437" transform="translate(-123.508 0)" fill="#fff"/>
          <path id="Trazado_911954" data-name="Trazado 911954" d="M187.989,68.243a.876.876,0,0,1-.758-1.314l.335-.58a.876.876,0,0,1,1.517.876l-.335.58a.876.876,0,0,1-.759.438" transform="translate(-165.26 -58.213)" fill="#fff"/>
          <path id="Trazado_911955" data-name="Trazado 911955" d="M180.255,233.266h-1.82a.876.876,0,0,1-.8-1.243v-2.769a.876.876,0,0,1,.8-1.243h1.82a2.628,2.628,0,0,1,0,5.256m-.864-1.752h.864a.876.876,0,0,0,0-1.752h-.864Z" transform="translate(-156.821 -201.38)" fill="#fff"/>
          <path id="Trazado_911956" data-name="Trazado 911956" d="M100.033,161.576h-2.17a.876.876,0,1,1,0-1.752h1.878v-2.336H94.323a.876.876,0,0,1-.876-.876v-7.129a1.252,1.252,0,0,0-.376-.887,1.132,1.132,0,0,0-.815-.334,1.174,1.174,0,0,0-1.145,1.168v9.227a1.169,1.169,0,0,0,1.168,1.168h1.5a.876.876,0,1,1,0,1.752h-1.5a2.923,2.923,0,0,1-2.92-2.92V149.43a2.934,2.934,0,0,1,2.865-2.919,2.88,2.88,0,0,1,2.074.835,3.015,3.015,0,0,1,.9,2.138v6.253h4.834a1.461,1.461,0,0,1,1.46,1.46v2.92a1.461,1.461,0,0,1-1.46,1.46" transform="translate(-78.923 -129.399)" fill="#fff"/>
          <path id="Trazado_911957" data-name="Trazado 911957" d="M347.388,462.109h-2.8a1.228,1.228,0,0,1-1.226-1.226v-2.745a2.628,2.628,0,1,1,5.256,0v2.745a1.228,1.228,0,0,1-1.226,1.226m-2.277-1.752h1.752v-2.219a.876.876,0,1,0-1.752,0Z" transform="translate(-303.258 -402.31)" fill="#fff"/>
          <path id="Trazado_911958" data-name="Trazado 911958" d="M215.884,462.109h-2.8a1.228,1.228,0,0,1-1.226-1.226v-2.745a2.628,2.628,0,1,1,5.256,0v2.745a1.228,1.228,0,0,1-1.226,1.226m-2.277-1.752h1.752v-2.219a.876.876,0,1,0-1.752,0Z" transform="translate(-187.112 -402.31)" fill="#fff"/>
          <path id="Trazado_911959" data-name="Trazado 911959" d="M307.841,314.262h-6.8a.876.876,0,1,1,0-1.752h6.8a.876.876,0,1,1,0,1.752" transform="translate(-265.112 -276.011)" fill="#fff"/>
          <path id="Trazado_911960" data-name="Trazado 911960" d="M232.207,314.262h-4.475a.876.876,0,0,1,0-1.752h4.475a.876.876,0,0,1,0,1.752" transform="translate(-200.361 -276.011)" fill="#fff"/>
        </g>
      </g>
    </g>
  </g>
</svg>
