<svg xmlns="http://www.w3.org/2000/svg" xmlns:xlink="http://www.w3.org/1999/xlink" width="123.001" height="123" viewBox="0 0 123.001 123">
  <defs>
    <linearGradient id="linear-gradient" x1="0.5" x2="0.5" y2="1" gradientUnits="objectBoundingBox">
      <stop offset="0" stop-color="#ddf1ff"/>
      <stop offset="1" stop-color="#fff"/>
    </linearGradient>
    <clipPath id="clip-path">
      <rect id="Rectángulo_410577" data-name="Rectángulo 410577" width="72.141" height="72.141" transform="translate(0 0)" fill="#445866"/>
    </clipPath>
  </defs>
  <g id="img6" transform="translate(-264.668 -6026)">
    <g id="Grupo_1099808" data-name="Grupo 1099808" transform="translate(264.668 6026)">
      <g id="Grupo_1099775" data-name="Grupo 1099775" transform="translate(0 0)">
        <g id="Grupo_1099770" data-name="Grupo 1099770" transform="translate(0 0)">
          <rect id="Rectángulo_401345" data-name="Rectángulo 401345" width="104.839" height="104.839" transform="translate(9 9.16)" fill="url(#linear-gradient)"/>
          <path id="Sustracción_141" data-name="Sustracción 141" d="M106.183,123,0,106.181,16.822,0,123,16.819,106.183,123v0h0v0ZM23.2,8.788,8.783,99.8,99.8,114.212,114.214,23.2,23.2,8.788Z" transform="translate(0 0)" fill="#8ce2e5"/>
        </g>
      </g>
      <g id="Grupo_1099776" data-name="Grupo 1099776" transform="translate(25 24.995)">
        <g id="Grupo_1099618" data-name="Grupo 1099618" transform="translate(0 0)">
          <rect id="Rectángulo_401104" data-name="Rectángulo 401104" width="72.141" height="73.01" transform="translate(0)" fill="none"/>
        </g>
        <g id="Grupo_1122009" data-name="Grupo 1122009" transform="translate(0 0.433)">
          <g id="Grupo_1122008" data-name="Grupo 1122008" transform="translate(0 0.001)" clip-path="url(#clip-path)">
            <path id="Trazado_911885" data-name="Trazado 911885" d="M132.967,143.4h-9.036a1.057,1.057,0,0,1-1.057-1.057v-19.2a5.581,5.581,0,0,1,5.575-5.575,6.138,6.138,0,0,1,5.674,3.769l3.516,8.37,11.134,5.06a3.377,3.377,0,0,1,1.957,3.768,3.317,3.317,0,0,1-4.613,2.309l-11.6-5.272a5.549,5.549,0,0,1-2.869-3l-3.162-7.9a1.057,1.057,0,0,1,1.962-.785l3.162,7.9a3.444,3.444,0,0,0,1.781,1.865l11.6,5.272a1.193,1.193,0,0,0,.5.108,1.214,1.214,0,0,0,1.181-.96,1.275,1.275,0,0,0-.77-1.377l-11.511-5.232a1.057,1.057,0,0,1-.537-.553l-3.676-8.751a4.028,4.028,0,0,0-3.722-2.474,3.466,3.466,0,0,0-3.464,3.461v18.144h7.979a1.057,1.057,0,0,1,0,2.114" transform="translate(-109.89 -105.146)" fill="#445866"/>
            <path id="Trazado_911886" data-name="Trazado 911886" d="M113.241,363.94a1.057,1.057,0,0,1-.944-1.53l5.965-11.93a12.5,12.5,0,0,0,1.077-3.138l3.033-15.162a1.057,1.057,0,0,1,2.072.414l-3.033,15.162a14.6,14.6,0,0,1-1.259,3.669l-5.965,11.93a1.057,1.057,0,0,1-.946.584" transform="translate(-100.33 -296.317)" fill="#445866"/>
            <path id="Trazado_911887" data-name="Trazado 911887" d="M59.8,363.944a1.057,1.057,0,0,1-.971-1.473l6.691-15.613V332.391a1.057,1.057,0,1,1,2.113,0v14.683a1.058,1.058,0,0,1-.085.416L60.77,363.3a1.057,1.057,0,0,1-.972.641" transform="translate(-52.535 -296.32)" fill="#445866"/>
            <path id="Trazado_911888" data-name="Trazado 911888" d="M66.579,626.545H59.8a1.057,1.057,0,0,1-1.057-1.057v-4.518a1.057,1.057,0,0,1,1.057-1.057h3.388a4.45,4.45,0,0,1,4.445,4.445v1.129a1.057,1.057,0,0,1-1.057,1.057m-5.72-2.114h4.663v-.073a2.334,2.334,0,0,0-2.332-2.332H60.859Z" transform="translate(-52.538 -554.405)" fill="#445866"/>
            <path id="Trazado_911889" data-name="Trazado 911889" d="M184.149,626.545h-6.777a1.057,1.057,0,0,1-1.057-1.057v-4.518a1.057,1.057,0,0,1,1.057-1.057h3.388a4.45,4.45,0,0,1,4.445,4.445v1.129a1.057,1.057,0,0,1-1.057,1.057m-5.72-2.114h4.663v-.073a2.334,2.334,0,0,0-2.332-2.332h-2.332Z" transform="translate(-157.683 -554.405)" fill="#445866"/>
            <path id="Trazado_911890" data-name="Trazado 911890" d="M209.437,344.825a1.057,1.057,0,0,1-1.057-1.057V311.014a1.057,1.057,0,1,1,2.113,0v32.755a1.057,1.057,0,0,1-1.057,1.057" transform="translate(-186.359 -277.202)" fill="#445866"/>
            <path id="Trazado_911891" data-name="Trazado 911891" d="M162.624,538.389a1.057,1.057,0,0,1-1.04-.875l-1.732-9.884a1.057,1.057,0,0,1,2.082-.365l1.732,9.884a1.057,1.057,0,0,1-.859,1.223,1.068,1.068,0,0,1-.184.016" transform="translate(-142.946 -470.765)" fill="#445866"/>
            <path id="Trazado_911892" data-name="Trazado 911892" d="M155.995,14.539a1.057,1.057,0,0,1-1.057-1.057V5.576A5.581,5.581,0,0,1,160.513,0h1.13a5.581,5.581,0,0,1,5.575,5.575v3.44a3.316,3.316,0,0,1-4.547,3.078l-1.129-.452a3.3,3.3,0,0,1-2.085-3.079v-.73a1.057,1.057,0,1,1,2.113,0v.73a1.2,1.2,0,0,0,.756,1.116l1.129.452A1.2,1.2,0,0,0,165.1,9.016V5.576a3.465,3.465,0,0,0-3.461-3.461h-1.13a3.465,3.465,0,0,0-3.461,3.461v7.906a1.057,1.057,0,0,1-1.057,1.057" transform="translate(-138.565 -0.001)" fill="#445866"/>
            <path id="Trazado_911893" data-name="Trazado 911893" d="M304.959,272.88a1.057,1.057,0,0,1-.95-1.518l1.729-3.565a1.057,1.057,0,1,1,1.9.923l-1.729,3.565a1.057,1.057,0,0,1-.951.6" transform="translate(-271.788 -238.965)" fill="#445866"/>
            <path id="Trazado_911894" data-name="Trazado 911894" d="M344.551,507.324a7.834,7.834,0,1,1,3.049-15.051,1.057,1.057,0,1,1-.823,1.947,5.717,5.717,0,1,0,2.938,2.808,1.057,1.057,0,1,1,1.907-.912,7.764,7.764,0,0,1,.762,3.375,7.842,7.842,0,0,1-7.834,7.833" transform="translate(-301.134 -439.701)" fill="#445866"/>
            <path id="Trazado_911895" data-name="Trazado 911895" d="M401.9,507.322a1.057,1.057,0,0,1-1.057-1.057V492.712a1.057,1.057,0,1,1,2.113,0v13.554a1.057,1.057,0,0,1-1.057,1.057" transform="translate(-358.487 -439.7)" fill="#445866"/>
            <path id="Trazado_911896" data-name="Trazado 911896" d="M351.327,557.9H337.773a1.057,1.057,0,1,1,0-2.114h13.554a1.057,1.057,0,1,1,0,2.114" transform="translate(-301.134 -497.053)" fill="#445866"/>
            <path id="Trazado_911897" data-name="Trazado 911897" d="M544.237,607.429a4.445,4.445,0,1,1,4.445-4.445,4.45,4.45,0,0,1-4.445,4.445m0-6.777a2.332,2.332,0,1,0,2.331,2.331,2.334,2.334,0,0,0-2.331-2.331" transform="translate(-482.75 -535.289)" fill="#445866"/>
            <path id="Trazado_911898" data-name="Trazado 911898" d="M459.336,457.272a1.057,1.057,0,0,1-1.046-.917l-1.867-14a2.339,2.339,0,0,0-2.311-2.023h-9.458a1.057,1.057,0,0,1,0-2.114h9.458a4.459,4.459,0,0,1,4.406,3.858l1.867,14a1.058,1.058,0,0,1-1.049,1.2" transform="translate(-396.721 -391.908)" fill="#445866"/>
            <path id="Trazado_911899" data-name="Trazado 911899" d="M494.185,505.064a1.057,1.057,0,0,1-1.035-.85L491.06,493.77h-3.651a1.057,1.057,0,0,1,0-2.114h4.518a1.057,1.057,0,0,1,1.036.85l2.259,11.295a1.057,1.057,0,0,1-1.037,1.264" transform="translate(-434.957 -439.7)" fill="#445866"/>
            <path id="Trazado_911900" data-name="Trazado 911900" d="M373.227,307.031a1.057,1.057,0,0,1-1.057-1.057v-2.259a2.334,2.334,0,0,0-2.332-2.332,1.057,1.057,0,1,1,0-2.113,4.45,4.45,0,0,1,4.445,4.445v2.259a1.057,1.057,0,0,1-1.057,1.057" transform="translate(-329.811 -267.645)" fill="#445866"/>
            <path id="Trazado_911901" data-name="Trazado 911901" d="M306.315,473.607a12.351,12.351,0,1,1,12.351-12.352,12.365,12.365,0,0,1-12.351,12.352m0-22.589a10.238,10.238,0,1,0,10.238,10.238,10.25,10.25,0,0,0-10.238-10.238" transform="translate(-262.899 -401.466)" fill="#445866"/>
            <path id="Trazado_911902" data-name="Trazado 911902" d="M415.457,296.949H404.163a3.319,3.319,0,0,1-3.316-3.316V284.6a6.712,6.712,0,0,1,6.7-6.7A4.45,4.45,0,0,1,412,282.338v7.979h.073a4.45,4.45,0,0,1,4.445,4.445v1.129a1.057,1.057,0,0,1-1.057,1.057m-7.906-16.942a4.6,4.6,0,0,0-4.591,4.59v9.036a1.2,1.2,0,0,0,1.2,1.2H414.4v-.073a2.334,2.334,0,0,0-2.332-2.332h-5.647a1.057,1.057,0,0,1-1.057-1.057V284.6a1.057,1.057,0,0,1,2.113,0v5.72h2.4v-7.979a2.334,2.334,0,0,0-2.331-2.332" transform="translate(-358.488 -248.527)" fill="#445866"/>
            <path id="Trazado_911903" data-name="Trazado 911903" d="M428.926,171.473h-2.259a4.45,4.45,0,0,1-4.445-4.445,6.712,6.712,0,0,1,6.7-6.7h2.259a4.45,4.45,0,0,1,4.445,4.445V165.9a1.057,1.057,0,0,1-1.057,1.057h-3.388a1.2,1.2,0,0,0-1.2,1.2v2.259a1.057,1.057,0,0,1-1.057,1.057m0-9.036a4.6,4.6,0,0,0-4.591,4.591,2.334,2.334,0,0,0,2.332,2.332h1.2v-1.2a3.319,3.319,0,0,1,3.316-3.316h2.332v-.073a2.334,2.334,0,0,0-2.332-2.332Z" transform="translate(-377.604 -143.382)" fill="#445866"/>
            <path id="Trazado_911904" data-name="Trazado 911904" d="M480.106,210.889a3.316,3.316,0,0,1-1.232-.238l-2.549-1.02a1.057,1.057,0,1,1,.785-1.962l2.55,1.02a1.2,1.2,0,0,0,1.649-1.116v-3.44a1.057,1.057,0,1,1,2.113,0v3.44a3.317,3.317,0,0,1-3.315,3.316" transform="translate(-425.395 -181.616)" fill="#445866"/>
            <path id="Trazado_911905" data-name="Trazado 911905" d="M404.452,137.045a1.058,1.058,0,0,1-.261-.033,4.445,4.445,0,1,1,5.544-4.308,1.057,1.057,0,1,1-2.113,0,2.332,2.332,0,1,0-2.91,2.26,1.057,1.057,0,0,1-.26,2.081" transform="translate(-358.486 -114.705)" fill="#445866"/>
          </g>
        </g>
      </g>
    </g>
  </g>
</svg>
