<svg xmlns="http://www.w3.org/2000/svg" xmlns:xlink="http://www.w3.org/1999/xlink" width="85" height="85" viewBox="0 0 85 85">
  <defs>
    <clipPath id="clip-path">
      <rect id="Rectángulo_410579" data-name="Rectángulo 410579" width="57.717" height="58.085" fill="#fff"/>
    </clipPath>
  </defs>
  <g id="img9_1" transform="translate(5081 9666)">
    <rect id="Rectángulo_410606" data-name="Rectángulo 410606" width="85" height="85" transform="translate(-5081 -9666)" fill="#2a5f61"/>
    <g id="Grupo_1122022" data-name="Grupo 1122022" transform="translate(-5069.445 -9655.314)">
      <g id="Grupo_1099618" data-name="Grupo 1099618" transform="translate(-0.001 0.043)">
        <rect id="Rectángulo_401104" data-name="Rectángulo 401104" width="61" height="62" transform="translate(0.447 0.272)" fill="none"/>
      </g>
      <g id="Grupo_1122013" data-name="Grupo 1122013" transform="translate(2.088 2.272)">
        <g id="Grupo_1122012" data-name="Grupo 1122012" clip-path="url(#clip-path)">
          <path id="Trazado_911927" data-name="Trazado 911927" d="M84.823,282.548a5.485,5.485,0,0,1-5.479-5.479v-1.992a4.563,4.563,0,0,1,4.557-4.557h1.844a4.563,4.563,0,0,1,4.557,4.557v1.992a5.486,5.486,0,0,1-5.479,5.479M83.9,272.221a2.859,2.859,0,0,0-2.856,2.856v1.992a3.778,3.778,0,0,0,7.555,0v-1.992a2.859,2.859,0,0,0-2.856-2.856Z" transform="translate(-70.343 -239.829)" fill="#fff"/>
          <path id="Trazado_911928" data-name="Trazado 911928" d="M338.285,282.548a5.485,5.485,0,0,1-5.479-5.479v-1.992a4.563,4.563,0,0,1,4.557-4.557h1.844a4.563,4.563,0,0,1,4.557,4.557v1.992a5.486,5.486,0,0,1-5.479,5.479m-.922-10.327a2.859,2.859,0,0,0-2.856,2.856v1.992a3.778,3.778,0,0,0,7.555,0v-1.992a2.859,2.859,0,0,0-2.856-2.856Z" transform="translate(-295.05 -239.829)" fill="#fff"/>
          <path id="Trazado_911929" data-name="Trazado 911929" d="M331.316,218.949a.851.851,0,0,1-.851-.851v-.035a.851.851,0,0,1,.851-.851h.031a.224.224,0,0,0,.036-.032l.02-.021,0,0c1.493-1.641,4.474-2.751,7.977-2.967a.851.851,0,0,1,.1,1.7c-3.028.187-5.643,1.113-6.825,2.416l-.013.014-.011.012a1.9,1.9,0,0,1-1.251.617l-.071,0" transform="translate(-292.974 -189.888)" fill="#fff"/>
          <path id="Trazado_911930" data-name="Trazado 911930" d="M351.2,91.208a1.282,1.282,0,0,1-.923-.386,9.479,9.479,0,0,0-5.112-2.135.851.851,0,0,1,.264-1.681,12.61,12.61,0,0,1,5.117,1.841c-1.739-7.084-8.743-13.828-17.478-16.674a.851.851,0,0,1,.527-1.618,31.316,31.316,0,0,1,12.7,7.795,21.826,21.826,0,0,1,6.169,11.377,1.277,1.277,0,0,1-1.261,1.481M350.784,90h0Z" transform="translate(-294.764 -62.513)" fill="#fff"/>
          <path id="Trazado_911931" data-name="Trazado 911931" d="M168.884,19.534a2.324,2.324,0,0,1-1.648-.682l-7.311-7.311a6.766,6.766,0,0,1-1.068-8.174.851.851,0,1,1,1.471.855,5.062,5.062,0,0,0,.8,6.116l7.311,7.311a.63.63,0,0,0,.89,0l7.311-7.311a5.059,5.059,0,1,0-7.154-7.154.851.851,0,0,1-1.2,0,5.067,5.067,0,0,0-5.392-1.147.851.851,0,1,1-.609-1.589,6.773,6.773,0,0,1,6.6,1,6.761,6.761,0,0,1,10.94,5.315,6.717,6.717,0,0,1-1.98,4.78l-7.311,7.311a2.324,2.324,0,0,1-1.648.682" transform="translate(-140.026)" fill="#fff"/>
          <path id="Trazado_911932" data-name="Trazado 911932" d="M19.375,91.662l-.071,0a1.9,1.9,0,0,1-1.253-.618l-.011-.012-.012-.013c-1.33-1.466-4.531-2.451-7.966-2.451-3.371,0-6.458.92-7.863,2.345A1.281,1.281,0,0,1,.016,89.815,21.821,21.821,0,0,1,6.174,78.449a31.31,31.31,0,0,1,12.673-7.795.851.851,0,0,1,.529,1.617C10.658,75.123,3.667,81.862,1.931,88.936a14.93,14.93,0,0,1,8.132-2.073c3.5,0,6.632.878,8.493,2.334a36.705,36.705,0,0,1,3.238-13.965.851.851,0,1,1,1.53.745,35.556,35.556,0,0,0-3.1,14.8v.035a.851.851,0,0,1-.851.851" transform="translate(0 -62.601)" fill="#fff"/>
          <path id="Trazado_911933" data-name="Trazado 911933" d="M183.014,123.989a1.892,1.892,0,0,1-1.408-.628l0,0-.016-.017c-2.84-3.132-5.52-4.72-7.964-4.72s-5.124,1.588-7.964,4.72l-.012.013-.011.011a1.893,1.893,0,0,1-1.566.618.851.851,0,0,1-.781-.848V123.1a.851.851,0,0,1,1.026-.833.219.219,0,0,0,.065-.05l.015-.016.011-.012c3.219-3.547,6.234-5.271,9.218-5.271,2.792,0,5.611,1.51,8.6,4.608a34.873,34.873,0,0,0-3.068-13.231.851.851,0,0,1,1.53-.745,37.32,37.32,0,0,1,3.274,15.55v.035a.851.851,0,0,1-.781.848q-.08.007-.16.007m.09-.855h0Z" transform="translate(-144.762 -94.924)" fill="#fff"/>
          <path id="Trazado_911934" data-name="Trazado 911934" d="M247.726,54.7a.851.851,0,0,1-.851-.851V48.006a.851.851,0,0,1,1.7,0v5.845a.851.851,0,0,1-.851.851" transform="translate(-218.868 -41.805)" fill="#fff"/>
          <path id="Trazado_911935" data-name="Trazado 911935" d="M227.809,74.619h-5.845a.851.851,0,0,1,0-1.7h5.845a.851.851,0,1,1,0,1.7" transform="translate(-196.028 -64.645)" fill="#fff"/>
          <path id="Trazado_911936" data-name="Trazado 911936" d="M249.922,211.052a3.048,3.048,0,0,1-3.044-3.044V194.715a.851.851,0,1,1,1.7,0v13.292a1.343,1.343,0,0,0,2.686,0,.851.851,0,0,1,1.7,0,3.048,3.048,0,0,1-3.044,3.044" transform="translate(-218.869 -171.871)" fill="#fff"/>
          <path id="Trazado_911937" data-name="Trazado 911937" d="M34.539,403.555H12.114a2.126,2.126,0,0,1-1.7-.836,2.093,2.093,0,0,1-.369-1.825l.826.205-.822-.218,1.593-5.973a7.054,7.054,0,0,1,6.807-5.23H28.2a7.054,7.054,0,0,1,6.806,5.23l1.592,5.969v0h0l.005.021a2.089,2.089,0,0,1-.371,1.818,2.126,2.126,0,0,1-1.7.836M18.45,391.38a5.351,5.351,0,0,0-5.162,3.967L11.7,401.316l0,.014a.4.4,0,0,0,.073.351.44.44,0,0,0,.348.172H34.539a.44.44,0,0,0,.349-.172.4.4,0,0,0,.073-.351l0-.014-1.592-5.969A5.35,5.35,0,0,0,28.2,391.38Z" transform="translate(-8.844 -345.47)" fill="#fff"/>
          <path id="Trazado_911938" data-name="Trazado 911938" d="M287.991,403.555h-7.208a.851.851,0,1,1,0-1.7h7.208a.439.439,0,0,0,.348-.172.4.4,0,0,0,.073-.351l-.006-.023-1.59-5.961a5.351,5.351,0,0,0-5.162-3.966H271.9a5.351,5.351,0,0,0-5.162,3.967l-1.592,5.969,0,.014a.4.4,0,0,0,.073.351.439.439,0,0,0,.349.172h11.213a.851.851,0,0,1,0,1.7H265.566a2.126,2.126,0,0,1-1.7-.836,2.093,2.093,0,0,1-.369-1.825l.826.205-.822-.218,1.593-5.973a7.055,7.055,0,0,1,6.807-5.23h9.752a7.054,7.054,0,0,1,6.807,5.229l1.592,5.97,0,.017a2.094,2.094,0,0,1-.369,1.825,2.127,2.127,0,0,1-1.7.836" transform="translate(-233.543 -345.47)" fill="#fff"/>
          <path id="Trazado_911939" data-name="Trazado 911939" d="M58.53,460.311a.851.851,0,0,1-.851-.851v-4.913a.851.851,0,1,1,1.7,0v4.913a.851.851,0,0,1-.851.851" transform="translate(-51.135 -402.225)" fill="#fff"/>
          <path id="Trazado_911940" data-name="Trazado 911940" d="M183.455,460.311a.851.851,0,0,1-.851-.851v-4.913a.851.851,0,1,1,1.7,0v4.913a.851.851,0,0,1-.851.851" transform="translate(-161.888 -402.225)" fill="#fff"/>
          <path id="Trazado_911941" data-name="Trazado 911941" d="M312.006,460.311a.851.851,0,0,1-.851-.851v-4.913a.851.851,0,1,1,1.7,0v4.913a.851.851,0,0,1-.851.851" transform="translate(-275.855 -402.225)" fill="#fff"/>
          <path id="Trazado_911942" data-name="Trazado 911942" d="M436.931,460.311a.851.851,0,0,1-.851-.851v-4.913a.851.851,0,1,1,1.7,0v4.913a.851.851,0,0,1-.851.851" transform="translate(-386.608 -402.225)" fill="#fff"/>
        </g>
      </g>
    </g>
  </g>
</svg>
