<svg xmlns="http://www.w3.org/2000/svg" width="144.162" height="144.161" viewBox="0 0 144.162 144.161">
  <g id="img12" transform="translate(-307.664 -4469.839)">
    <rect id="Rectángulo_401345" data-name="Rectángulo 401345" width="126" height="126" transform="translate(316.664 4479)" fill="#fff"/>
    <path id="Sustracción_141" data-name="Sustracción 141" d="M19166.113,11844.16l-124.449-19.712,19.715-124.449,124.447,19.713-19.713,124.448v0h0v0Zm-97.256-133.861-16.9,106.667,106.672,16.9,16.9-106.672-106.672-16.891Z" transform="translate(-18734 -7230.16)" fill="#59c4c8"/>
    <g id="Grupo_1099758" data-name="Grupo 1099758" transform="translate(337.469 4500.701)">
      <rect id="Rectángulo_401104" data-name="Rectángulo 401104" width="84.031" height="84.031" transform="translate(0 0)" fill="none"/>
      <g id="Teacher" transform="translate(-27 -26.542)">
        <path id="Trazado_912301" data-name="Trazado 912301" d="M32,32h82.2V98.051H32Z" transform="translate(-4.083 -4.083)" fill="#57b070"/>
        <path id="Trazado_912302" data-name="Trazado 912302" d="M391.725,169.068h-6.582a.918.918,0,0,1-.549-1.652c1.9-1.422,5.493-3.8,5.541-5.707.064-2.539-3.58-2.206-3.58.023a.917.917,0,0,1-1.835,0c0-4.679,7.375-4.974,7.249.023-.053,2.088-2.017,3.92-4.045,5.478h3.8A.917.917,0,0,1,391.725,169.068Z" transform="translate(-291.685 -107.059)" fill="#f2f2ff"/>
        <path id="Trazado_912303" data-name="Trazado 912303" d="M167.661,177.532h34.406l-.94-.967a12.372,12.372,0,0,1,1.424-1.119c1.142-.74,1.155.12,4.478-2.681s.358-6.313-1.586-8.161c4.748-4.473,2.4-6.115,1.6-5.594-.718.471-4.744,3.465-6.711,5.169L188.07,174.7c-1.287-2.137-2.652-4.545-4.177-6.921a4.921,4.921,0,0,0-.671-.958V139.4c0-10.3-11.766-11.819-16.39-8.467Z" transform="translate(-114.177 -83.564)" fill="#4d9c63"/>
        <path id="Trazado_912304" data-name="Trazado 912304" d="M110.114,94.886h-82.2A.917.917,0,0,1,27,93.968V27.917A.917.917,0,0,1,27.917,27h82.2a.917.917,0,0,1,.917.917V93.968A.917.917,0,0,1,110.114,94.886ZM28.835,93.051H109.2V28.835H28.835Z" transform="translate(0 0)" fill="#938ca3"/>
        <path id="Trazado_912305" data-name="Trazado 912305" d="M295.885,303.593s1.056-5.7,3.475-7.794c1.968-1.7,5.994-4.7,6.711-5.169.794-.521,3.144,1.121-1.6,5.594,1.944,1.849,4.909,5.36,1.586,8.161s-3.336,1.941-4.478,2.681a17.3,17.3,0,0,0-2.449,2.1l-4.277-4.88Z" transform="translate(-218.707 -215.185)" fill="#ffb8a6"/>
        <path id="Trazado_912306" data-name="Trazado 912306" d="M94.167,170.085V139.4c0-10.3-11.766-11.819-16.39-8.467a8.247,8.247,0,0,1-4.847,1.537H71.665a7.157,7.157,0,0,0-7.157,7.157v30.454Z" transform="translate(-30.626 -83.564)" fill="#594a47"/>
        <path id="Trazado_912307" data-name="Trazado 912307" d="M79.529,331.152c-1.9,1.84-3.93,3.782-5.59,5.346-1.719-2.612-3.528-5.971-5.645-9.269a4.913,4.913,0,0,0-4.283-2.606H63.92l-22.343,0v0H41.52a4.916,4.916,0,0,0-4.537,3.024C34.968,331.417,32,353.129,32,353.129H63.954l.027-13.482c7.582,11.665,11.169,8.055,12.6,6.858.341-.286.783-.676,1.352-1.194.891-.811,2.1-1.941,3.591-3.359,1.742-1.655,3.479-3.332,4.394-4.216a.917.917,0,0,0,.02-1.3l-5.113-5.264a.917.917,0,0,0-1.3-.02Z" transform="translate(-4.083 -243.015)" fill="#ffcf63"/>
        <path id="Trazado_912308" data-name="Trazado 912308" d="M123.779,332.708a5.288,5.288,0,0,0,7.8,0v-7.013h-7.8Z" transform="translate(-79.023 -243.892)" fill="#e6e6ff"/>
        <path id="Trazado_912309" data-name="Trazado 912309" d="M121.312,311.109c.076,4.01-2.973,7.417-2.973,7.417l-3.9-3.906-3.9,3.906s-3.049-3.407-2.973-7.417a2.864,2.864,0,0,1,2.878-2.783h7.986a2.864,2.864,0,0,1,2.878,2.783Z" transform="translate(-65.787 -229.711)" fill="#f2f2ff"/>
        <path id="Trazado_912310" data-name="Trazado 912310" d="M118.7,292.139v4.44a4.829,4.829,0,0,0,9.659,0v-4.415Z" transform="translate(-74.877 -216.493)" fill="#ffb8a6"/>
        <path id="Trazado_912311" data-name="Trazado 912311" d="M118.7,300.708a12.289,12.289,0,0,0,9.659,0v-2.233H118.7Z" transform="translate(-74.877 -221.666)" fill="#ffa68f"/>
        <path id="Trazado_912312" data-name="Trazado 912312" d="M86.676,183.521A5.507,5.507,0,0,0,82.4,188.86c-.009,1.737,0,3.53.057,4.5.2,3.408,2.386,10.651,11.43,10.651s11.225-7.243,11.43-10.651c.058-.965.066-2.758.057-4.494a5.508,5.508,0,0,0-4.275-5.34c-2.422-.557-5.122-1.386-6.426-2.5a1.205,1.205,0,0,0-1.572,0C91.8,182.134,89.1,182.963,86.676,183.521Z" transform="translate(-45.236 -125.524)" fill="#ffb8a6"/>
        <circle id="Elipse_11563" data-name="Elipse 11563" cx="1.535" cy="1.535" r="1.535" transform="translate(41.46 63.46) rotate(-45)" fill="#414344"/>
        <circle id="Elipse_11564" data-name="Elipse 11564" cx="1.535" cy="1.535" r="1.535" transform="translate(51.493 63.462) rotate(-45)" fill="#414344"/>
        <path id="Trazado_912313" data-name="Trazado 912313" d="M82.026,436.6H80.191v-8.842a.917.917,0,0,1,1.835,0Z" transform="translate(-43.432 -326.485)" fill="#f79f54"/>
        <g id="Grupo_1122209" data-name="Grupo 1122209" transform="translate(74.738 51.056)">
          <path id="Trazado_912314" data-name="Trazado 912314" d="M294.689,169.069h-6.582a.918.918,0,0,1-.549-1.652c1.9-1.422,5.493-3.8,5.541-5.707.064-2.539-3.58-2.206-3.58.023a.917.917,0,0,1-1.835,0c0-4.679,7.375-4.974,7.249.023-.052,2.088-2.017,3.921-4.045,5.478h3.8A.917.917,0,0,1,294.689,169.069Z" transform="translate(-287.191 -158.115)" fill="#f2f2ff"/>
          <path id="Trazado_912315" data-name="Trazado 912315" d="M345.523,176.845h-1.176v-1.176a.917.917,0,0,0-1.835,0v1.176h-1.176a.917.917,0,0,0,0,1.835h1.176v1.176a.917.917,0,0,0,1.835,0V178.68h1.176A.917.917,0,0,0,345.523,176.845Z" transform="translate(-330.659 -171.705)" fill="#f2f2ff"/>
        </g>
      </g>
    </g>
  </g>
</svg>
