<svg xmlns="http://www.w3.org/2000/svg" width="90.184" height="90.184" viewBox="0 0 90.184 90.184">
  <g id="img19" transform="translate(-1179.578 -4583)">
    <g id="Grupo_1099869" data-name="Grupo 1099869" transform="translate(1179.578 4583)">
      <g id="Grupo_1073526" data-name="Grupo 1073526" transform="translate(0 0)">
        <g id="Grupo_1072785" data-name="Grupo 1072785" transform="translate(0 0)">
          <path id="Trazado_608385" data-name="Trazado 608385" d="M45.092,0A45.092,45.092,0,1,1,0,45.092,45.092,45.092,0,0,1,45.092,0Z" transform="translate(0 0)" fill="none"/>
        </g>
        <g id="Grupo_1073383" data-name="Grupo 1073383" transform="translate(0 0)">
          <path id="Trazado_608385-2" data-name="Trazado 608385" d="M45.092,0A45.092,45.092,0,1,1,0,45.092,45.092,45.092,0,0,1,45.092,0Z" transform="translate(0 0)" fill="#fff"/>
        </g>
      </g>
    </g>
    <g id="Grupo_1099873" data-name="Grupo 1099873" transform="translate(777.441 -1443.469)">
      <rect id="Rectángulo_401104" data-name="Rectángulo 401104" width="59" height="59" transform="translate(418.137 6042.469)" fill="none"/>
      <g id="Grupo_1122247" data-name="Grupo 1122247" transform="translate(408.404 6042.469)">
        <path id="Trazado_912385" data-name="Trazado 912385" d="M67.465,50.232A28.222,28.222,0,0,1,53.24,74.751c-.3.173-.606-.928-.915-.766a28.345,28.345,0,0,1-19.474,2.489c-.365-.084-.727,1.092-1.087.993a28.236,28.236,0,1,1,35.7-27.234Z" transform="translate(0 -19.465)" fill="#0055ca"/>
        <circle id="Elipse_11565" data-name="Elipse 11565" cx="23.047" cy="23.047" r="23.047" transform="translate(14.431 7.418)" fill="#0066ed"/>
        <path id="Trazado_912386" data-name="Trazado 912386" d="M107.72,0A18.932,18.932,0,0,0,94.336,5.525a18.9,18.9,0,0,0-4.084,10.342l-.119,1.5a3.458,3.458,0,0,1-.354,1.274l-4.542,9.083A1.224,1.224,0,0,0,86.332,29.5h1.519a1.224,1.224,0,0,1,1.22,1.32L88.5,38.027a6.654,6.654,0,0,0,8.676,6.856,1.224,1.224,0,0,1,1.6,1.165v9.61q.692.15,1.4.267c.1.016.191.2.287.425a14.414,14.414,0,0,0,.422,2.381A28.494,28.494,0,0,0,104.8,59a28.1,28.1,0,0,0,14.007-3.714V41.78a8.018,8.018,0,0,1,2.331-5.671,18.965,18.965,0,0,0,5.557-13.416V18.974A18.974,18.974,0,0,0,107.72,0Z" transform="translate(-65.567 0)" fill="#65befc"/>
        <path id="Trazado_912387" data-name="Trazado 912387" d="M89.774,75.467V60.979a1.131,1.131,0,0,0-1.447-1.165c-4.079,1.454-10.922,1.272-9.8-5.386l.843-7.807c.051-.712.422-1.378-.224-1.378h-.631a1.224,1.224,0,0,1-.991-1.771l4.109-9.083a3.739,3.739,0,0,0,.32-1.274l.107-1.5a19.7,19.7,0,0,1,5.715-12.694,18.969,18.969,0,0,0-10.08,15.3l-.119,1.5a3.458,3.458,0,0,1-.354,1.274L72.68,46.078a1.224,1.224,0,0,0,1.1,1.771h1.519a1.224,1.224,0,0,1,1.22,1.32l-.569,7.207a6.654,6.654,0,0,0,8.676,6.856,1.224,1.224,0,0,1,1.6,1.165v10.34A28.091,28.091,0,0,0,89.774,75.467Z" transform="translate(-54.457 -16.736)" fill="#49b6fc"/>
        <circle id="Elipse_11566" data-name="Elipse 11566" cx="16.064" cy="16.064" r="16.064" transform="translate(25.655 3.073)" fill="#bde2fd"/>
        <path id="Trazado_912388" data-name="Trazado 912388" d="M224.666,47.542a8.35,8.35,0,0,0-12.275-1.957l-1.526,1.2a.576.576,0,0,1-.713,0l-1.526-1.2a8.5,8.5,0,0,0-10.409-.078,4.246,4.246,0,0,0-1.648,2.99,9.464,9.464,0,0,0,3.224,8.01L212.557,67.59l.332.052,10.27-8.917a8.792,8.792,0,0,0,1.506-11.183Z" transform="translate(-164.152 -38.684)" fill="#ff5757"/>
        <path id="Trazado_912389" data-name="Trazado 912389" d="M188.012,69.3a9.65,9.65,0,0,1-2.229-11.749,8.5,8.5,0,0,0-.675,13.361L196.68,80.961a1.729,1.729,0,0,0,2.267,0l1.247-1.083Z" transform="translate(-151.456 -50.92)" fill="#ff4343"/>
      </g>
    </g>
  </g>
</svg>
