<svg xmlns="http://www.w3.org/2000/svg" xmlns:xlink="http://www.w3.org/1999/xlink" width="73" height="73" viewBox="0 0 73 73">
  <defs>
    <linearGradient id="linear-gradient" x1="0.5" x2="0.5" y2="1" gradientUnits="objectBoundingBox">
      <stop offset="0" stop-color="#ddf1ff"/>
      <stop offset="1" stop-color="#fff"/>
    </linearGradient>
    <clipPath id="clip-path">
      <rect id="Rectángulo_410574" data-name="Rectángulo 410574" width="42" height="42" transform="translate(-0.289 -0.289)" fill="#445866"/>
    </clipPath>
  </defs>
  <g id="img1" transform="translate(-264.528 -6025.861)">
    <g id="Grupo_1099808" data-name="Grupo 1099808" transform="translate(264.663 6025.995)">
      <g id="Grupo_1099775" data-name="Grupo 1099775" transform="translate(0 0)">
        <g id="Grupo_1099770" data-name="Grupo 1099770">
          <rect id="Rectángulo_401345" data-name="Rectángulo 401345" width="61.989" height="61.989" transform="translate(5.324 5.419)" fill="url(#linear-gradient)"/>
          <path id="Sustracción_141" data-name="Sustracción 141" d="M63.019,73,0,63.018,9.984,0,73,9.982,63.019,73h0ZM13.771,5.215,5.213,59.229l54.017,8.555,8.556-54.016L13.77,5.215Z" transform="translate(-0.135 -0.134)" fill="#59c4c8"/>
        </g>
      </g>
      <g id="Grupo_1099776" data-name="Grupo 1099776" transform="translate(14.784 14.782)">
        <g id="Grupo_1099618" data-name="Grupo 1099618" transform="translate(0 0)">
          <rect id="Rectángulo_401104" data-name="Rectángulo 401104" width="42.655" height="43.169" transform="translate(0)" fill="none"/>
        </g>
        <g id="Grupo_1122003" data-name="Grupo 1122003" transform="translate(0.454 0.632)">
          <g id="Grupo_1122002" data-name="Grupo 1122002" transform="translate(0.415 0.413)" clip-path="url(#clip-path)">
            <path id="Trazado_911846" data-name="Trazado 911846" d="M203.226,387.644h-6.719a1.692,1.692,0,0,1-1.69-1.69v-6.846a2.653,2.653,0,0,1,2.65-2.65h4.8a2.653,2.653,0,0,1,2.65,2.65v6.846a1.69,1.69,0,0,1-1.69,1.69m-5.759-9.948a1.414,1.414,0,0,0-1.412,1.412v6.846a.452.452,0,0,0,.452.452h6.719a.452.452,0,0,0,.452-.452v-6.846a1.414,1.414,0,0,0-1.412-1.412Z" transform="translate(-179.002 -345.651)" fill="#445866"/>
            <path id="Trazado_911847" data-name="Trazado 911847" d="M398.035,387.644h-6.719a1.692,1.692,0,0,1-1.69-1.69v-6.846a2.653,2.653,0,0,1,2.65-2.65h4.8a2.653,2.653,0,0,1,2.65,2.65v6.846a1.692,1.692,0,0,1-1.69,1.69m-5.759-9.948a1.414,1.414,0,0,0-1.412,1.412v6.846a.452.452,0,0,0,.452.452h6.719a.452.452,0,0,0,.452-.452v-6.846a1.414,1.414,0,0,0-1.412-1.412Z" transform="translate(-357.734 -345.651)" fill="#445866"/>
            <path id="Trazado_911848" data-name="Trazado 911848" d="M301.7,317.648a.619.619,0,0,1-.619-.619v-3.8a1.414,1.414,0,0,0-1.412-1.412h-4.8a1.414,1.414,0,0,0-1.412,1.412v3.8a.619.619,0,0,1-1.238,0v-3.8a2.653,2.653,0,0,1,2.65-2.65h4.8a2.653,2.653,0,0,1,2.65,2.65v3.8a.619.619,0,0,1-.619.619" transform="translate(-268.368 -285.204)" fill="#445866"/>
            <path id="Trazado_911849" data-name="Trazado 911849" d="M341.16,432.03h-4.144a.619.619,0,1,1,0-1.238h4.144a.457.457,0,0,0,.1-.012.619.619,0,1,1,.287,1.2,1.688,1.688,0,0,1-.392.046" transform="translate(-308.898 -395.475)" fill="#445866"/>
            <path id="Trazado_911850" data-name="Trazado 911850" d="M98.019,317.647a.619.619,0,0,1-.619-.619v-3.805a2.653,2.653,0,0,1,2.65-2.65h4.8a2.653,2.653,0,0,1,2.65,2.65v3.8a.619.619,0,0,1-1.238,0v-3.8a1.414,1.414,0,0,0-1.412-1.412h-4.8a1.414,1.414,0,0,0-1.412,1.412v3.805a.619.619,0,0,1-.619.619" transform="translate(-89.624 -285.204)" fill="#445866"/>
            <path id="Trazado_911851" data-name="Trazado 911851" d="M114.95,432.027h-6.719a1.691,1.691,0,0,1-.392-.046.619.619,0,1,1,.286-1.2.457.457,0,0,0,.105.012h6.719a.459.459,0,0,0,.106-.012.619.619,0,0,1,.287,1.2,1.7,1.7,0,0,1-.393.046" transform="translate(-98.765 -395.471)" fill="#445866"/>
            <path id="Trazado_911852" data-name="Trazado 911852" d="M132.068,20.2h0a1.083,1.083,0,0,1-1.019-.7l-1.343-3.513a1.4,1.4,0,0,0-1.3-.894h-4.894a2.593,2.593,0,0,1-2.591-2.59V11.012a.619.619,0,1,1,1.238,0V12.5a1.354,1.354,0,0,0,1.353,1.353h4.894a2.644,2.644,0,0,1,2.456,1.69l1.206,3.154,1.206-3.154a2.644,2.644,0,0,1,2.456-1.69h4.9A1.354,1.354,0,0,0,141.98,12.5V2.591a1.354,1.354,0,0,0-1.353-1.353H123.513a1.354,1.354,0,0,0-1.353,1.353v5.54a.619.619,0,1,1-1.238,0V2.591A2.594,2.594,0,0,1,123.513,0h17.115a2.593,2.593,0,0,1,2.59,2.591V12.5a2.593,2.593,0,0,1-2.59,2.59h-4.9a1.4,1.4,0,0,0-1.3.895L133.088,19.5a1.083,1.083,0,0,1-1.019.7m.137-1.143h0Z" transform="translate(-111.205 -0.261)" fill="#445866"/>
            <path id="Trazado_911853" data-name="Trazado 911853" d="M192.767,37.394a1.859,1.859,0,0,1-1.857-1.857V33.562h-1.975a1.865,1.865,0,0,1-1.344-.575,1.843,1.843,0,0,1-.511-1.371,1.872,1.872,0,0,1,1.89-1.768h1.94V27.874a1.857,1.857,0,1,1,3.714,0v1.975h1.94a1.872,1.872,0,0,1,1.89,1.768,1.842,1.842,0,0,1-.511,1.371,1.866,1.866,0,0,1-1.344.575h-1.975v1.975a1.859,1.859,0,0,1-1.857,1.857m-3.8-6.307a.644.644,0,0,0-.653.588.619.619,0,0,0,.618.65h2.216a1,1,0,0,1,1,1v2.216a.619.619,0,1,0,1.238,0V33.321a1,1,0,0,1,1-1H196.6a.619.619,0,0,0,.618-.65.644.644,0,0,0-.653-.588h-2.181a1,1,0,0,1-1-1V27.874a.619.619,0,1,0-1.238,0v2.216a1,1,0,0,1-1,1Z" transform="translate(-171.902 -24.131)" fill="#445866"/>
            <path id="Trazado_911854" data-name="Trazado 911854" d="M8.409,387.644H4.973a.619.619,0,0,1,0-1.238H8.409a.452.452,0,0,0,.452-.452v-6.846A1.414,1.414,0,0,0,7.449,377.7H2.65a1.414,1.414,0,0,0-1.412,1.412v6.846a.452.452,0,0,0,.452.452H2a.619.619,0,0,1,0,1.238H1.69A1.692,1.692,0,0,1,0,385.954v-6.846a2.653,2.653,0,0,1,2.65-2.65h4.8a2.653,2.653,0,0,1,2.65,2.65v6.846a1.692,1.692,0,0,1-1.69,1.69" transform="translate(-0.262 -345.651)" fill="#445866"/>
            <path id="Trazado_911855" data-name="Trazado 911855" d="M413.684,285.5a3.345,3.345,0,0,1-1.519-.365l-.028-.015a3.324,3.324,0,0,1-1.792-2.958v-1.02a2.96,2.96,0,0,1,2.339-2.885,3,3,0,0,1,.609-.063h.781a2.951,2.951,0,0,1,2.948,2.948v1.02a3.343,3.343,0,0,1-3.339,3.339m-.932-1.455a2.073,2.073,0,0,0,.932.217,2.1,2.1,0,0,0,2.1-2.1v-1.02a1.712,1.712,0,0,0-1.71-1.71h-.781a1.755,1.755,0,0,0-.356.037,1.716,1.716,0,0,0-1.355,1.673v1.02a2.092,2.092,0,0,0,1.146,1.871l.024.013" transform="translate(-376.743 -255.493)" fill="#445866"/>
            <path id="Trazado_911856" data-name="Trazado 911856" d="M218.877,285.5a3.346,3.346,0,0,1-1.519-.365l-.028-.015a3.324,3.324,0,0,1-1.791-2.958v-1.02a2.96,2.96,0,0,1,2.339-2.885,3,3,0,0,1,.609-.063h.782a2.951,2.951,0,0,1,2.948,2.948v1.02a3.343,3.343,0,0,1-3.339,3.339m-.932-1.455a2.074,2.074,0,0,0,.932.217,2.1,2.1,0,0,0,2.1-2.1v-1.02a1.712,1.712,0,0,0-1.71-1.71h-.782a1.763,1.763,0,0,0-.356.037,1.717,1.717,0,0,0-1.355,1.673v1.02a2.092,2.092,0,0,0,1.146,1.871l.024.013" transform="translate(-198.013 -255.496)" fill="#445866"/>
            <path id="Trazado_911857" data-name="Trazado 911857" d="M121.461,219.615a3.348,3.348,0,0,1-1.519-.365l-.029-.016a3.325,3.325,0,0,1-1.791-2.958v-1.02a2.96,2.96,0,0,1,2.339-2.885,3,3,0,0,1,.609-.063h.782a2.951,2.951,0,0,1,2.948,2.948v1.02a3.343,3.343,0,0,1-3.339,3.339m-.931-1.455a2.074,2.074,0,0,0,.931.217,2.1,2.1,0,0,0,2.1-2.1v-1.02a1.712,1.712,0,0,0-1.71-1.71h-.782a1.758,1.758,0,0,0-.356.037,1.716,1.716,0,0,0-1.355,1.673v1.02a2.092,2.092,0,0,0,1.146,1.871l.024.013" transform="translate(-108.636 -195.048)" fill="#445866"/>
            <path id="Trazado_911858" data-name="Trazado 911858" d="M24.061,285.5a3.346,3.346,0,0,1-1.519-.365l-.028-.015a3.324,3.324,0,0,1-1.791-2.958v-1.02a2.96,2.96,0,0,1,2.339-2.885,3,3,0,0,1,.609-.063h.781a2.951,2.951,0,0,1,2.948,2.948v1.02a3.343,3.343,0,0,1-3.339,3.339m-.932-1.455a2.073,2.073,0,0,0,.932.217,2.1,2.1,0,0,0,2.1-2.1v-1.02a1.712,1.712,0,0,0-1.71-1.71h-.781a1.763,1.763,0,0,0-.356.037,1.717,1.717,0,0,0-1.355,1.673v1.02a2.092,2.092,0,0,0,1.146,1.871l.024.013" transform="translate(-19.274 -255.496)" fill="#445866"/>
            <path id="Trazado_911859" data-name="Trazado 911859" d="M316.282,219.615a3.348,3.348,0,0,1-1.519-.365l-.029-.016a3.325,3.325,0,0,1-1.791-2.958v-1.02a2.96,2.96,0,0,1,2.339-2.885,3,3,0,0,1,.609-.063h.781a2.951,2.951,0,0,1,2.948,2.948v1.02a3.343,3.343,0,0,1-3.339,3.339m-.931-1.455a2.074,2.074,0,0,0,.931.217,2.1,2.1,0,0,0,2.1-2.1v-1.02a1.712,1.712,0,0,0-1.71-1.71h-.781a1.758,1.758,0,0,0-.356.037,1.716,1.716,0,0,0-1.355,1.673v1.02a2.092,2.092,0,0,0,1.146,1.871l.024.013" transform="translate(-287.379 -195.048)" fill="#445866"/>
          </g>
        </g>
      </g>
    </g>
  </g>
</svg>
