<svg xmlns="http://www.w3.org/2000/svg" width="144.162" height="144.161" viewBox="0 0 144.162 144.161">
  <g id="img13" transform="translate(-307.664 -4469.839)">
    <rect id="Rectángulo_401345" data-name="Rectángulo 401345" width="126" height="126" transform="translate(316.664 4479)" fill="#fff"/>
    <path id="Sustracción_141" data-name="Sustracción 141" d="M19166.113,11844.16l-124.449-19.712,19.715-124.449,124.447,19.713-19.713,124.448v0h0v0Zm-97.256-133.861-16.9,106.667,106.672,16.9,16.9-106.672-106.672-16.891Z" transform="translate(-18734 -7230.16)" fill="#59c4c8"/>
    <g id="Grupo_1099758" data-name="Grupo 1099758" transform="translate(337.469 4500.701)">
      <rect id="Rectángulo_401104" data-name="Rectángulo 401104" width="84.031" height="84.031" transform="translate(0 0)" fill="none"/>
      <g id="Grupo_1122216" data-name="Grupo 1122216" transform="translate(-45.519 -1.013)">
        <path id="Trazado_912316" data-name="Trazado 912316" d="M153.087,34.9V77.722H130.793a2.972,2.972,0,0,1-2.537-1.434l-3.938-6.459A2.972,2.972,0,0,0,121.78,68.4H104.1V40.748l7.448-7.448H151.5a1.6,1.6,0,0,1,1.582,1.6Z" transform="translate(-41.594 -26.967)" fill="#eaeffe"/>
        <path id="Trazado_912317" data-name="Trazado 912317" d="M136.012,121.1h-3.081a1.635,1.635,0,0,1-1.631-1.631V104.231a1.624,1.624,0,0,1,1.631-1.631h3.081a1.624,1.624,0,0,0-1.631,1.631v15.241A1.6,1.6,0,0,0,136.012,121.1Z" transform="translate(-64.313 -84.849)" fill="#f3ae83"/>
        <path id="Trazado_912318" data-name="Trazado 912318" d="M165.339,104.23v15.241a1.646,1.646,0,0,1-1.631,1.631H151.531a1.635,1.635,0,0,1-1.631-1.631V104.23a1.624,1.624,0,0,1,1.631-1.631h12.177A1.614,1.614,0,0,1,165.339,104.23Z" transform="translate(-79.848 -84.847)" fill="#f6c9af"/>
        <path id="Trazado_912319" data-name="Trazado 912319" d="M104.1,40.748l7.431-7.448v5.849a1.6,1.6,0,0,1-1.6,1.6Z" transform="translate(-41.594 -26.967)" fill="#d5dcf8"/>
        <path id="Trazado_912320" data-name="Trazado 912320" d="M67.268,289.915h-10a2.964,2.964,0,0,1-2.966-2.966V249.266a2.954,2.954,0,0,1,2.966-2.966h10a2.954,2.954,0,0,0-2.966,2.966v37.683A2.964,2.964,0,0,0,67.268,289.915Z" transform="translate(0 -204.871)" fill="#66aff1"/>
        <path id="Trazado_912321" data-name="Trazado 912321" d="M171.467,258.592v28.357a2.964,2.964,0,0,1-2.966,2.966H117.966A2.964,2.964,0,0,1,115,286.949V249.266a2.954,2.954,0,0,1,2.966-2.966H130.9a2.937,2.937,0,0,1,2.537,1.434l3.938,6.459a3.01,3.01,0,0,0,2.537,1.434h28.6A2.94,2.94,0,0,1,171.467,258.592Z" transform="translate(-50.698 -204.871)" fill="#86c1f4"/>
        <path id="Trazado_912322" data-name="Trazado 912322" d="M58.338,216.466h-.972a2.954,2.954,0,0,0-2.966,2.966v-5.866a2.974,2.974,0,0,1,2.851-2.966Z" transform="translate(-0.084 -175.053)" fill="#4c9ced"/>
        <path id="Trazado_912323" data-name="Trazado 912323" d="M410.677,213.666v15.192a2.954,2.954,0,0,0-2.966-2.966H401.4v-5.075l3.246-10.117h3.065a2.964,2.964,0,0,1,2.966,2.966Z" transform="translate(-289.908 -175.137)" fill="#4c9ced"/>
        <path id="Trazado_912324" data-name="Trazado 912324" d="M306.434,65.11h2.06V63.05a1.45,1.45,0,0,1,2.9,0v2.06h2.06a1.45,1.45,0,0,1,0,2.9h-2.06v2.06a1.45,1.45,0,1,1-2.9,0V68.01h-2.06a1.45,1.45,0,0,1,0-2.9Z" transform="translate(-209.392 -50.604)" fill="#f44a7e"/>
        <path id="Trazado_912325" data-name="Trazado 912325" d="M206.749,365.352h3.312V362.04a2.34,2.34,0,1,1,4.68,0v3.312h3.312a2.34,2.34,0,1,1,0,4.68H214.74v3.312a2.34,2.34,0,0,1-4.68,0v-3.312h-3.312A2.34,2.34,0,0,1,206.749,365.352Z" transform="translate(-125.41 -299.586)" fill="#eaeffe"/>
        <path id="Trazado_912326" data-name="Trazado 912326" d="M170.3,158.026v3.328h-8.4v-3.328a3.871,3.871,0,0,1,2.257-3.526,3.1,3.1,0,0,0,3.905,0A3.884,3.884,0,0,1,170.3,158.026Z" transform="translate(-89.871 -128.197)" fill="#44569b"/>
        <path id="Trazado_912327" data-name="Trazado 912327" d="M174.946,124.59a3.073,3.073,0,0,1-6.146,0A3.073,3.073,0,0,1,174.946,124.59Z" transform="translate(-95.634 -100.676)" fill="#6a88c8"/>
        <g id="Grupo_1122210" data-name="Grupo 1122210" transform="translate(54.304 1.012)">
          <path id="Trazado_912328" data-name="Trazado 912328" d="M185.39,6.333H165.7l1.335-4.2a1.59,1.59,0,0,1,2.01-1.038Z" transform="translate(-147.348 -1.012)" fill="#c0c8f3"/>
          <path id="Trazado_912329" data-name="Trazado 912329" d="M410.561,75.114c-2.093,6.525-7.135,22.244-9.161,28.588V70.5l8.14,2.6A1.6,1.6,0,0,1,410.561,75.114Z" transform="translate(-344.211 -59.05)" fill="#c0c8f3"/>
          <path id="Trazado_912330" data-name="Trazado 912330" d="M62.523,100v24.106H58.272c-.725-3.839-3.164-16.971-3.922-21.025a1.5,1.5,0,0,1,1.2-1.78Z" transform="translate(-54.321 -83.69)" fill="#c0c8f3"/>
        </g>
        <g id="Grupo_1122211" data-name="Grupo 1122211" transform="translate(88.706 19.959)">
          <path id="Trazado_912331" data-name="Trazado 912331" d="M268.334,117.78h-4.35a.89.89,0,0,1,0-1.78h4.35A.89.89,0,0,1,268.334,117.78Z" transform="translate(-263.112 -116)" fill="#44569b"/>
        </g>
        <g id="Grupo_1122212" data-name="Grupo 1122212" transform="translate(88.706 25.38)">
          <path id="Trazado_912332" data-name="Trazado 912332" d="M279.884,150.68h-15.9a.89.89,0,0,1,0-1.78h15.9A.89.89,0,0,1,279.884,150.68Z" transform="translate(-263.112 -148.9)" fill="#44569b"/>
        </g>
        <g id="Grupo_1122213" data-name="Grupo 1122213" transform="translate(88.706 30.636)">
          <path id="Trazado_912333" data-name="Trazado 912333" d="M279.884,182.58h-15.9a.89.89,0,0,1,0-1.78h15.9A.89.89,0,0,1,279.884,182.58Z" transform="translate(-263.112 -180.8)" fill="#44569b"/>
        </g>
        <g id="Grupo_1122214" data-name="Grupo 1122214" transform="translate(88.706 36.156)">
          <path id="Trazado_912334" data-name="Trazado 912334" d="M279.884,216.08h-15.9a.89.89,0,0,1,0-1.78h15.9A.89.89,0,0,1,279.884,216.08Z" transform="translate(-263.112 -214.3)" fill="#44569b"/>
        </g>
        <g id="Grupo_1122215" data-name="Grupo 1122215" transform="translate(88.706 41.693)">
          <path id="Trazado_912335" data-name="Trazado 912335" d="M279.884,249.68h-15.9a.89.89,0,0,1,0-1.78h15.9A.89.89,0,0,1,279.884,249.68Z" transform="translate(-263.112 -247.9)" fill="#44569b"/>
        </g>
      </g>
    </g>
  </g>
</svg>
