<svg xmlns="http://www.w3.org/2000/svg" width="144.162" height="144.161" viewBox="0 0 144.162 144.161">
  <g id="img14" transform="translate(-307.664 -4469.839)">
    <rect id="Rectángulo_401345" data-name="Rectángulo 401345" width="126" height="126" transform="translate(316.664 4479)" fill="#fff"/>
    <path id="Sustracción_141" data-name="Sustracción 141" d="M19166.113,11844.16l-124.449-19.712,19.715-124.449,124.447,19.713-19.713,124.448v0h0v0Zm-97.256-133.861-16.9,106.667,106.672,16.9,16.9-106.672-106.672-16.891Z" transform="translate(-18734 -7230.16)" fill="#59c4c8"/>
    <g id="Grupo_1099758" data-name="Grupo 1099758" transform="translate(337.469 4500.701)">
      <rect id="Rectángulo_401104" data-name="Rectángulo 401104" width="84.031" height="84.031" transform="translate(0 0)" fill="none"/>
      <g id="Grupo_1122030" data-name="Grupo 1122030" transform="translate(-41.184 -15.278)">
        <path id="Trazado_912037" data-name="Trazado 912037" d="M48.96,25.89c9.141-1.066,17.139-5.062,23.325-9.4a1.646,1.646,0,0,1,.984-.311H93.129a1.646,1.646,0,0,1,.984.311c6.187,4.339,14.184,8.335,23.325,9.4a1.708,1.708,0,0,1,1.516,1.7V57.278c0,19.953-20.051,36.751-35.289,41.064a1.644,1.644,0,0,1-.933,0C67.5,94.029,47.444,77.231,47.444,57.278V27.592a1.707,1.707,0,0,1,1.516-1.7Z" fill="#66d4f1" fill-rule="evenodd"/>
        <path id="Trazado_912038" data-name="Trazado 912038" d="M104.492,114.9c7.506-2.337,15.071-7.549,20.418-13.079,6.11-6.317,10.931-14.57,10.931-23.578V50.879a57.7,57.7,0,0,1-22.268-9.4H95.41a57.7,57.7,0,0,1-22.268,9.4V78.245c0,9.008,4.821,17.261,10.931,23.578,5.347,5.529,12.913,10.742,20.418,13.079Z" transform="translate(-21.292 -20.966)" fill="#4fc0e8" fill-rule="evenodd"/>
        <circle id="Elipse_11552" data-name="Elipse 11552" cx="21.424" cy="21.424" r="21.424" transform="translate(52.897 53.896) rotate(-45)" fill="#f76c82"/>
        <path id="Trazado_912039" data-name="Trazado 912039" d="M191.969,164.627h9.494v7.519h7.519v9.495h-7.519v7.519h-9.494v-7.519H184.45v-9.495h7.519Z" transform="translate(-113.517 -122.999)" fill="#f4f6f8" fill-rule="evenodd"/>
      </g>
    </g>
  </g>
</svg>
