<svg xmlns="http://www.w3.org/2000/svg" width="125" height="125" viewBox="0 0 125 125">
  <g id="img12" transform="translate(-307.663 -4469.838)">
    <rect id="Rectángulo_401345" data-name="Rectángulo 401345" width="109.924" height="109.924" transform="translate(315.135 4477.443)" fill="#fff"/>
    <path id="Sustracción_141" data-name="Sustracción 141" d="M107.908,125,0,107.908,17.095,0,125,17.093,107.908,125v0h0v0ZM23.579,8.931,8.927,101.42l92.493,14.65,14.65-92.493L23.578,8.931Z" transform="translate(307.663 4469.838)" fill="#9ac1df"/>
    <g id="Grupo_1099758" data-name="Grupo 1099758" transform="translate(337.817 4500.954)">
      <rect id="Rectángulo_401104" data-name="Rectángulo 401104" width="64.22" height="64.22" transform="translate(0 0)" fill="none"/>
      <g id="Grupo_1122174" data-name="Grupo 1122174" transform="translate(8.948)">
        <path id="Trazado_912167" data-name="Trazado 912167" d="M175.6,267.779l-6.127-1.73a1.037,1.037,0,0,0-1.191.5l-3.068,5.579a.305.305,0,0,1-.548-.029l-2.757-6.588-6.638-15.861,4.916-11.744,4.178,1.748,4.183,10,7.417,17.721A.305.305,0,0,1,175.6,267.779Zm0,0" transform="translate(-135.794 -208.063)" fill="#ff4a4a"/>
        <path id="Trazado_912168" data-name="Trazado 912168" d="M168.546,249.646l-6.639,15.862-6.638-15.861,4.916-11.744,4.177,1.748Zm0,0" transform="translate(-135.794 -208.062)" fill="#ef3535"/>
        <path id="Trazado_912169" data-name="Trazado 912169" d="M59.65,262.392l-3.069-5.579a1.035,1.035,0,0,0-1.19-.5l-6.128,1.73a.3.3,0,0,1-.364-.411l12.915-30.861,11.3,4.728L60.2,262.362A.3.3,0,0,1,59.65,262.392Zm0,0" transform="translate(-42.746 -198.329)" fill="#ff4a4a"/>
        <path id="Trazado_912170" data-name="Trazado 912170" d="M25.918.991,29.688,4.1a4.334,4.334,0,0,0,2.341.97l4.863.468a4.333,4.333,0,0,1,3.9,3.9l.468,4.863a4.331,4.331,0,0,0,.97,2.341l3.107,3.77a4.333,4.333,0,0,1,0,5.512l-3.107,3.77a4.331,4.331,0,0,0-.97,2.341l-.468,4.863a4.333,4.333,0,0,1-3.9,3.9l-4.863.468a4.336,4.336,0,0,0-2.341.969l-3.77,3.108a4.334,4.334,0,0,1-5.512,0l-3.769-3.108a4.337,4.337,0,0,0-2.341-.969l-4.862-.468a4.333,4.333,0,0,1-3.9-3.9l-.468-4.863a4.331,4.331,0,0,0-.97-2.341L.991,25.918a4.333,4.333,0,0,1,0-5.512L4.1,16.637a4.334,4.334,0,0,0,.97-2.341l.468-4.863a4.333,4.333,0,0,1,3.9-3.9L14.3,5.068a4.331,4.331,0,0,0,2.341-.97L20.406.991a4.333,4.333,0,0,1,5.512,0Zm0,0" transform="translate(-0.001 -0.001)" fill="#ffd782"/>
        <path id="Trazado_912171" data-name="Trazado 912171" d="M98.957,84.607A14.349,14.349,0,1,1,84.608,70.258,14.349,14.349,0,0,1,98.957,84.607Zm0,0" transform="translate(-61.447 -61.446)" fill="#ff8000"/>
        <path id="Trazado_912172" data-name="Trazado 912172" d="M159.533,70.258a14.371,14.371,0,0,0-3.6.456,14.354,14.354,0,0,1,0,27.786,14.351,14.351,0,1,0,3.6-28.242Zm0,0" transform="translate(-136.371 -61.445)" fill="#ff5f06"/>
        <path id="Trazado_912173" data-name="Trazado 912173" d="M114.077,149.381a2.019,2.019,0,0,1-1.428-.591l-4.286-4.287a2.019,2.019,0,1,1,2.856-2.856l2.858,2.858,7.929-7.929a2.02,2.02,0,0,1,2.856,2.856l-9.357,9.357a2.019,2.019,0,0,1-1.428.591Zm0,0" transform="translate(-94.254 -118.929)" fill="#fff"/>
      </g>
    </g>
  </g>
</svg>
