<svg xmlns="http://www.w3.org/2000/svg" width="125" height="125" viewBox="0 0 125 125">
  <g id="img10" transform="translate(-307.663 -4469.838)">
    <rect id="Rectángulo_401345" data-name="Rectángulo 401345" width="109.924" height="109.924" transform="translate(315.135 4477.443)" fill="#fff"/>
    <path id="Sustracción_141" data-name="Sustracción 141" d="M107.908,125,0,107.908,17.095,0,125,17.093,107.908,125v0h0v0ZM23.579,8.931,8.927,101.42l92.493,14.65,14.65-92.493L23.578,8.931Z" transform="translate(307.663 4469.838)" fill="#9ac1df"/>
    <g id="Grupo_1099758" data-name="Grupo 1099758" transform="translate(337.817 4500.954)">
      <rect id="Rectángulo_401104" data-name="Rectángulo 401104" width="64.22" height="64.22" transform="translate(0 0)" fill="none"/>
      <g id="Grupo_1122167" data-name="Grupo 1122167" transform="translate(7.35 0.833)">
        <path id="Trazado_912121" data-name="Trazado 912121" d="M13.026,16.475c-3-6.59,1.122-11.562,5.259-13.21v.01c.051-.639.134-1.213.222-1.7A1.935,1.935,0,0,1,20.416,0H32.676c7.628,0,12.633,8.9,9.8,16.684L40.539,22.01h-25l-2.515-5.534Z" transform="translate(-2.879 0)" fill="#0d3b8d"/>
        <path id="Trazado_912122" data-name="Trazado 912122" d="M17.577,16.1c-2.325-5.113-2-9.615-.306-13.228-3.749,2-6.994,6.68-4.245,12.729l2.515,5.534h4.324Z" transform="translate(-2.879 0.872)" fill="#00286f"/>
        <path id="Trazado_912123" data-name="Trazado 912123" d="M48.006,54.544H11.516a6.523,6.523,0,0,1-6.4-7.72l1.852-9.867a9.056,9.056,0,0,1,6.564-7.116l9.035-2.462a27.382,27.382,0,0,1,14.394,0l9.033,2.462h0A9.059,9.059,0,0,1,52.56,36.96l1.849,9.863a6.522,6.522,0,0,1-6.4,7.722Z" transform="translate(-5.001 8.01)" fill="#0588e2"/>
        <path id="Trazado_912124" data-name="Trazado 912124" d="M51.916,49.667H15.425a6.523,6.523,0,0,1-6.4-7.72l1.852-9.867a9.1,9.1,0,0,1,.838-2.471A9.015,9.015,0,0,0,6.965,35.99L5.113,45.856a6.523,6.523,0,0,0,6.4,7.72h36.49a6.509,6.509,0,0,0,6.12-4.3A6.5,6.5,0,0,1,51.916,49.667Z" transform="translate(-5.001 8.978)" fill="#0075d3"/>
        <path id="Trazado_912125" data-name="Trazado 912125" d="M23,32h2.606V52.852H23Z" transform="translate(0.456 9.703)" fill="#0075d3"/>
        <path id="Trazado_912126" data-name="Trazado 912126" d="M23,45h2.606v3.91H23Z" transform="translate(0.456 13.645)" fill="#005ccc"/>
        <path id="Trazado_912127" data-name="Trazado 912127" d="M18.213,40.606H14.3A1.3,1.3,0,1,1,14.3,38h3.91a1.3,1.3,0,1,1,0,2.606Z" transform="translate(-2.576 11.523)" fill="#eff3f9"/>
        <path id="Trazado_912128" data-name="Trazado 912128" d="M24.123,26h5.213a9.123,9.123,0,0,1,9.123,9.123,2.606,2.606,0,0,1-2.606,2.606H17.606A2.606,2.606,0,0,1,15,35.123,9.123,9.123,0,0,1,24.123,26Z" transform="translate(-1.969 7.884)" fill="#47caf0"/>
        <path id="Trazado_912129" data-name="Trazado 912129" d="M19,24.04v7.767a6.516,6.516,0,0,0,13.032,0V24.04Z" transform="translate(-0.757 7.29)" fill="#ffcdb4"/>
        <path id="Trazado_912130" data-name="Trazado 912130" d="M19,31.808a6.508,6.508,0,0,0,.125,1.243c.391.027.781.06,1.178.06a16.868,16.868,0,0,0,11.729-4.735V24.039H19v7.767Z" transform="translate(-0.757 7.289)" fill="#f6a28d"/>
        <path id="Trazado_912131" data-name="Trazado 912131" d="M34.821,26.123H28.3a1.3,1.3,0,0,1,0-2.606h6.517a1.3,1.3,0,0,0,1.3-1.3V18.3a1.3,1.3,0,1,1,2.606,0v3.91A3.914,3.914,0,0,1,34.821,26.123Z" transform="translate(1.669 5.155)" fill="#afb4c2"/>
        <path id="Trazado_912132" data-name="Trazado 912132" d="M34.91,22.426H32.3a1.3,1.3,0,0,1-1.3-1.3V13.3A1.3,1.3,0,0,1,32.3,12H34.91a3.914,3.914,0,0,1,3.91,3.91v2.606A3.914,3.914,0,0,1,34.91,22.426Z" transform="translate(2.882 3.639)" fill="#0075d3"/>
        <path id="Trazado_912133" data-name="Trazado 912133" d="M11,18.516V15.91A3.914,3.914,0,0,1,14.91,12h2.606a1.3,1.3,0,0,1,1.3,1.3v7.819a1.3,1.3,0,0,1-1.3,1.3H14.91A3.914,3.914,0,0,1,11,18.516Z" transform="translate(-3.182 3.639)" fill="#0075d3"/>
        <path id="Trazado_912134" data-name="Trazado 912134" d="M34.91,18.91H32.3a1.3,1.3,0,0,1-1.3-1.3v2.606a1.3,1.3,0,0,0,1.3,1.3H34.91a3.914,3.914,0,0,0,3.91-3.91V15A3.914,3.914,0,0,1,34.91,18.91Z" transform="translate(2.882 4.548)" fill="#005ccc"/>
        <path id="Trazado_912135" data-name="Trazado 912135" d="M17.516,18.91H14.91A3.914,3.914,0,0,1,11,15v2.606a3.914,3.914,0,0,0,3.91,3.91h2.606a1.3,1.3,0,0,0,1.3-1.3V17.606A1.3,1.3,0,0,1,17.516,18.91Z" transform="translate(-3.182 4.548)" fill="#005ccc"/>
        <path id="Trazado_912136" data-name="Trazado 912136" d="M15,23.336V14.213A5.213,5.213,0,0,1,20.213,9H33.245a5.213,5.213,0,0,1,5.213,5.213v9.123a9.438,9.438,0,0,1-2.764,6.674L33.4,32.3a9.439,9.439,0,0,1-13.348,0l-2.29-2.29A9.438,9.438,0,0,1,15,23.336Z" transform="translate(-1.969 2.729)" fill="#ffcdb4"/>
        <path id="Trazado_912137" data-name="Trazado 912137" d="M24.47,32.015,21.951,29.5a10.383,10.383,0,0,1-3.04-7.341V12.12a5.693,5.693,0,0,1,.916-3.089A5.2,5.2,0,0,0,15,14.2v9.123A9.438,9.438,0,0,0,17.765,30l2.29,2.29a9.375,9.375,0,0,0,9.159,2.421,10.37,10.37,0,0,1-4.744-2.7Z" transform="translate(-1.969 2.738)" fill="#f6a28d"/>
        <path id="Trazado_912138" data-name="Trazado 912138" d="M34.821,24.606H28.3A1.3,1.3,0,0,1,28.3,22h6.517Z" transform="translate(1.669 6.671)" fill="#afb4c2"/>
        <rect id="Rectángulo_410614" data-name="Rectángulo 410614" width="7.819" height="5.213" rx="2" transform="translate(23.456 27.368)" fill="#0d3b8d"/>
        <path id="Trazado_912139" data-name="Trazado 912139" d="M29.516,24.855H26.91a2.6,2.6,0,0,1-2.372-3.675,2.6,2.6,0,0,0,1.069,4.978h2.606a2.6,2.6,0,0,0,2.372-1.538A2.593,2.593,0,0,1,29.516,24.855Z" transform="translate(0.456 6.422)" fill="#00286f"/>
      </g>
    </g>
  </g>
</svg>
