<svg xmlns="http://www.w3.org/2000/svg" xmlns:xlink="http://www.w3.org/1999/xlink" width="85" height="84.595" viewBox="0 0 85 84.595">
  <defs>
    <clipPath id="clip-path">
      <rect id="Rectángulo_400938" data-name="Rectángulo 400938" width="75" height="74" transform="translate(-0.229 0.232)" fill="none"/>
    </clipPath>
    <clipPath id="clip-path-2">
      <rect id="Rectángulo_400938-2" data-name="Rectángulo 400938" width="79" height="79" transform="translate(-0.306 0.115)" fill="none"/>
    </clipPath>
    <clipPath id="clip-path-3">
      <rect id="Rectángulo_410643" data-name="Rectángulo 410643" width="83" height="83" transform="translate(-0.19 -0.001)" fill="#8ce2e5"/>
    </clipPath>
  </defs>
  <g id="img19" transform="translate(-180 -5796.861)">
    <g id="Grupo_1122325" data-name="Grupo 1122325" transform="translate(184.806 5802.629)">
      <g id="Grupo_1099379" data-name="Grupo 1099379" transform="translate(0 0)">
        <rect id="Rectángulo_401103" data-name="Rectángulo 401103" width="75" height="74" transform="translate(-0.229 0.232)" fill="none"/>
      </g>
    </g>
    <g id="Grupo_108927" data-name="Grupo 108927" transform="translate(180 5797.115)">
      <path id="Rectángulo_36179" data-name="Rectángulo 36179" d="M0,0H85V84.341H0Z" transform="translate(0 0)" fill="#abdbff"/>
    </g>
    <g id="Enmascarar_grupo_1098835" data-name="Enmascarar grupo 1098835" transform="translate(181.768 5796.862)" clip-path="url(#clip-path-3)">
      <path id="Sustracción_195" data-name="Sustracción 195" d="M66.96,66.96H0V0H66.96V66.96ZM2.678,2.678v61.6h61.6V2.678Z" transform="translate(49.919 -14.441) rotate(45)" fill="#fff" opacity="0.7"/>
    </g>
    <g id="Grupo_1122327" data-name="Grupo 1122327" transform="translate(192.497 5808.397)">
      <rect id="Rectángulo_401104" data-name="Rectángulo 401104" width="60" height="61" transform="translate(0.081 0.464)" fill="none"/>
      <g id="Grupo_1122178" data-name="Grupo 1122178" transform="translate(0.079 0.965)">
        <g id="Grupo_1122177" data-name="Grupo 1122177" transform="translate(0.002 -0.001)">
          <path id="Trazado_912196" data-name="Trazado 912196" d="M60.4,36.891l.009,0L50.477,15.215l2.409-1.2-.9-1.8-2.348,1.17-.318-.693a1.008,1.008,0,0,0-1.833,0l-.283.619A12.971,12.971,0,0,0,41.747,12.1h-8.47V10.083h2.017V8.066H33.56l.725-2.9a4.157,4.157,0,1,0-8.067,0l.725,2.9H25.21v2.017h2.017V12.1H18.762a12.971,12.971,0,0,0-5.46,1.21l-.283-.619a1.008,1.008,0,0,0-1.833,0l-.318.693L8.519,12.209l-.9,1.807,2.409,1.2L.094,36.888a.985.985,0,0,0-.092.42A7.066,7.066,0,0,0,7.06,44.366H17.143A7.066,7.066,0,0,0,24.2,37.308a.986.986,0,0,0-.1-.417l-9.96-21.755a10.968,10.968,0,0,1,4.621-1.019h8.465V51.007L23.784,54.45H20.168a5.048,5.048,0,0,0-5.042,5.042A1.008,1.008,0,0,0,16.135,60.5H44.368a1.008,1.008,0,0,0,1.008-1.008,5.048,5.048,0,0,0-5.042-5.042H36.719l-3.442-3.442V14.116h8.47a10.968,10.968,0,0,1,4.621,1.019L36.393,36.888a.985.985,0,0,0-.092.42,7.066,7.066,0,0,0,7.058,7.058H53.443A7.066,7.066,0,0,0,60.5,37.308.982.982,0,0,0,60.4,36.891ZM17.143,42.35H7.06a5.05,5.05,0,0,1-4.941-4.033H22.084A5.05,5.05,0,0,1,17.143,42.35Zm4.479-6.05H2.581l9.262-20.208a1,1,0,0,0,.516,0Zm6.942-33.46a2.206,2.206,0,0,1,3.374,0,2.129,2.129,0,0,1,.39,1.837l-.848,3.39H29.023l-.848-3.39A2.129,2.129,0,0,1,28.565,2.839Zm.679,9.26V10.083H31.26V12.1Zm2.017,2.017v36.3H29.243v-36.3Zm9.075,42.35a3.031,3.031,0,0,1,2.853,2.017H17.316a3.031,3.031,0,0,1,2.853-2.017ZM33.868,54.45H26.636l2.017-2.017h3.2ZM48.141,16.095a.688.688,0,0,0,.51-.021L57.922,36.3H38.881Zm5.3,26.255H43.36a5.05,5.05,0,0,1-4.941-4.033H58.384A5.05,5.05,0,0,1,53.443,42.35Z" transform="translate(-0.002 0.001)" fill="#445866"/>
        </g>
      </g>
    </g>
    <rect id="Rectángulo_410644" data-name="Rectángulo 410644" width="24" height="26" transform="translate(241 5796.861)" fill="#2a5f61"/>
    <text id="_7" data-name="7" transform="translate(248 5797.861)" fill="#fff" font-size="18" font-family="Roboto-Bold, Roboto" font-weight="700"><tspan x="0" y="17">7</tspan></text>
  </g>
</svg>
