<svg xmlns="http://www.w3.org/2000/svg" width="144.162" height="144.161" viewBox="0 0 144.162 144.161">
  <g id="img15" transform="translate(-307.664 -4469.839)">
    <rect id="Rectángulo_401345" data-name="Rectángulo 401345" width="126" height="126" transform="translate(316.664 4479)" fill="#fff"/>
    <path id="Sustracción_141" data-name="Sustracción 141" d="M19166.113,11844.16l-124.449-19.712,19.715-124.449,124.447,19.713-19.713,124.448v0h0v0Zm-97.256-133.861-16.9,106.667,106.672,16.9,16.9-106.672-106.672-16.891Z" transform="translate(-18734 -7230.16)" fill="#59c4c8"/>
    <g id="Grupo_1099758" data-name="Grupo 1099758" transform="translate(337.469 4500.701)">
      <rect id="Rectángulo_401104" data-name="Rectángulo 401104" width="84.031" height="84.031" transform="translate(0 0)" fill="none"/>
      <g id="_x31_55" transform="translate(-3.102 -2.853)">
        <g id="Grupo_1122074" data-name="Grupo 1122074" transform="translate(6.449 28.941)">
          <g id="Grupo_1122073" data-name="Grupo 1122073" transform="translate(0)">
            <g id="Grupo_1122032" data-name="Grupo 1122032" transform="translate(40.545 16.23)">
              <g id="Grupo_1122031" data-name="Grupo 1122031">
                <path id="Trazado_912040" data-name="Trazado 912040" d="M47.055,42.5a4.212,4.212,0,0,1-4.047,4.192l-5.539-.207.765-7.585.8-1.912a1.258,1.258,0,0,1,.873-.718,1.385,1.385,0,0,1,.281-.029,1.235,1.235,0,0,1,1.164.835l.437,1.291.767-.049A4.189,4.189,0,0,1,47.055,42.5Z" transform="translate(-37.469 -36.237)" fill="#f9c4c0"/>
              </g>
            </g>
            <g id="Grupo_1122072" data-name="Grupo 1122072">
              <g id="Grupo_1122052" data-name="Grupo 1122052" transform="translate(0.002 0.009)">
                <g id="Grupo_1122051" data-name="Grupo 1122051">
                  <g id="Grupo_1122050" data-name="Grupo 1122050">
                    <g id="Grupo_1122047" data-name="Grupo 1122047">
                      <g id="Grupo_1122046" data-name="Grupo 1122046">
                        <g id="Grupo_1122045" data-name="Grupo 1122045">
                          <g id="Grupo_1122034" data-name="Grupo 1122034" transform="translate(1.277 0.006)">
                            <g id="Grupo_1122033" data-name="Grupo 1122033">
                              <path id="Trazado_912041" data-name="Trazado 912041" d="M32.461,60.261V27.278a3.68,3.68,0,0,0-.076-.709H28.691V24.612l-.058-1.035L12.009,23.54a5.276,5.276,0,0,0-5.285,5.29V60.261H32.461Z" transform="translate(-6.724 -23.54)" fill="#78d7a6"/>
                            </g>
                          </g>
                          <g id="Grupo_1122038" data-name="Grupo 1122038" transform="translate(26.694 5.471)">
                            <g id="Grupo_1122037" data-name="Grupo 1122037">
                              <g id="Grupo_1122036" data-name="Grupo 1122036">
                                <g id="Grupo_1122035" data-name="Grupo 1122035">
                                  <path id="Trazado_912042" data-name="Trazado 912042" d="M26.635,40.409h.617V36.933a1.121,1.121,0,0,1,.377-.824,3.17,3.17,0,0,0-.012-4.668,1.125,1.125,0,0,1-.375-.82v-2.8h-.617v2.8A1.741,1.741,0,0,0,27.2,31.9a2.551,2.551,0,0,1,.832,1.895,2.514,2.514,0,0,1-.822,1.866,1.731,1.731,0,0,0-.575,1.277Z" transform="translate(-26.626 -27.819)" fill="#6675e9"/>
                                </g>
                              </g>
                            </g>
                          </g>
                          <g id="Grupo_1122040" data-name="Grupo 1122040">
                            <g id="Grupo_1122039" data-name="Grupo 1122039">
                              <path id="Trazado_912043" data-name="Trazado 912043" d="M23.841,60.262l.611-24.046a10.967,10.967,0,0,0-3.821-8.6l-4.742-4.069-4.723-.011a5.435,5.435,0,0,0-5.441,5.441V60.262Z" transform="translate(-5.724 -23.535)" fill="#f1f7ff"/>
                            </g>
                          </g>
                          <g id="Grupo_1122042" data-name="Grupo 1122042" transform="translate(8.678 10.985)">
                            <g id="Grupo_1122041" data-name="Grupo 1122041">
                              <path id="Trazado_912044" data-name="Trazado 912044" d="M15.207,42.038a1.732,1.732,0,0,1-1.665-1.275l-.871-3.193a4.3,4.3,0,1,1,8.3-2.262l.871,3.193a1.732,1.732,0,0,1-1.213,2.123.639.639,0,1,1-.337-1.232.453.453,0,0,0,.317-.556l-.871-3.192A3.024,3.024,0,1,0,13.9,37.235l.871,3.193a.451.451,0,0,0,.554.317.639.639,0,0,1,.337,1.232,1.744,1.744,0,0,1-.458.062Z" transform="translate(-12.519 -32.137)" fill="#5592ff"/>
                            </g>
                          </g>
                          <g id="Grupo_1122044" data-name="Grupo 1122044" transform="translate(0 7.473)">
                            <g id="Grupo_1122043" data-name="Grupo 1122043">
                              <path id="Trazado_912045" data-name="Trazado 912045" d="M7.407,58.641a16.629,16.629,0,0,1,1.637-5.656,11.387,11.387,0,0,1,4.97-5.1c2.924-1.435,6.33-1.307,9.575-1.125v-1.9a11.5,11.5,0,0,1-4.755-1.221A12.355,12.355,0,0,1,14.1,38.172c-1.1-2.185-1.917-4.52-3.17-6.63-.6-1.028-1.478-2.1-2.678-2.153a3.424,3.424,0,0,0-2.528,1.36V58.641Z" transform="translate(-5.724 -29.387)" fill="#c7dafa"/>
                            </g>
                          </g>
                        </g>
                      </g>
                    </g>
                    <g id="Grupo_1122049" data-name="Grupo 1122049" transform="translate(10.405 0.023)">
                      <g id="Grupo_1122048" data-name="Grupo 1122048">
                        <path id="Trazado_912046" data-name="Trazado 912046" d="M21.56,23.554l.941,4.837-8.63-4.837Z" transform="translate(-13.871 -23.554)" fill="#f9c4c0"/>
                      </g>
                    </g>
                  </g>
                </g>
              </g>
              <g id="Grupo_1122054" data-name="Grupo 1122054" transform="translate(20.715 0.032)">
                <g id="Grupo_1122053" data-name="Grupo 1122053">
                  <path id="Trazado_912047" data-name="Trazado 912047" d="M21.943,47.131A5.472,5.472,0,0,0,27.777,50.3L41.769,50l.766-7.591L32.5,40.824l-.4-9.224a8.748,8.748,0,0,0-7.679-8.028,7.568,7.568,0,0,0-.969,0Z" transform="translate(-21.943 -23.554)" fill="#f1f7ff"/>
                </g>
              </g>
              <g id="Grupo_1122056" data-name="Grupo 1122056" transform="translate(18.864)">
                <g id="Grupo_1122055" data-name="Grupo 1122055">
                  <path id="Trazado_912048" data-name="Trazado 912048" d="M22.913,33.582l-.151,26.682h7.284V30.638c0-3.376.018-6.593-6.2-7.061-.454-.034-2.075-.069-3.355-.034,0,0,2.367,4.231,2.663,5.8a22.732,22.732,0,0,1-.243,4.24Z" transform="translate(-20.493 -23.529)" fill="#f1f7ff"/>
                </g>
              </g>
              <g id="Grupo_1122058" data-name="Grupo 1122058" transform="translate(21.067 22.423)">
                <g id="Grupo_1122057" data-name="Grupo 1122057">
                  <path id="Trazado_912049" data-name="Trazado 912049" d="M23.667,44.773a7.867,7.867,0,0,1,3.477,4.146,19.209,19.209,0,0,1,.95,6.479h1.473V42.077A6.651,6.651,0,0,0,23.83,41.5c-.76.314-1.622.943-1.612,1.855.02.821.831,1.095,1.45,1.419Z" transform="translate(-22.218 -41.086)" fill="#c7dafa"/>
                </g>
              </g>
              <g id="Grupo_1122060" data-name="Grupo 1122060" transform="translate(0 0.004)">
                <g id="Grupo_1122059" data-name="Grupo 1122059">
                  <path id="Trazado_912050" data-name="Trazado 912050" d="M16.752,40.271S14.4,28.627,11.789,23.538H11.77c-2.888-.133-6.132,2.024-6.045,4.914v8.626l2.954,6.851a5.481,5.481,0,0,0,5.286,4.021l15.594.633V40.735Z" transform="translate(-5.723 -23.531)" fill="#f1f7ff"/>
                </g>
              </g>
              <g id="Grupo_1122062" data-name="Grupo 1122062" transform="translate(28.101 12.064)">
                <g id="Grupo_1122061" data-name="Grupo 1122061">
                  <path id="Trazado_912051" data-name="Trazado 912051" d="M27.726,32.975h.639V47.7h-.639Z" transform="translate(-27.726 -32.975)" fill="#cdcccc"/>
                </g>
              </g>
              <g id="Grupo_1122065" data-name="Grupo 1122065" transform="translate(8.725 8.076)">
                <g id="Grupo_1122064" data-name="Grupo 1122064">
                  <g id="Grupo_1122063" data-name="Grupo 1122063">
                    <path id="Trazado_912052" data-name="Trazado 912052" d="M27.577,39.23l.029-.617L15.484,37.95l-2.425-8.1-.5.145,2.533,8.549Z" transform="translate(-12.554 -29.852)" fill="#c7dafa"/>
                  </g>
                </g>
              </g>
              <g id="Grupo_1122067" data-name="Grupo 1122067" transform="translate(23.822 15.807)">
                <g id="Grupo_1122066" data-name="Grupo 1122066">
                  <path id="Trazado_912053" data-name="Trazado 912053" d="M24.375,37.555l2.881.61.846-.407a.974.974,0,0,0-.418-1.853.934.934,0,0,0-.471.118Z" transform="translate(-24.375 -35.905)" fill="#f9c4c0"/>
                </g>
              </g>
              <g id="Grupo_1122069" data-name="Grupo 1122069" transform="translate(23.822 17.456)">
                <g id="Grupo_1122068" data-name="Grupo 1122068">
                  <path id="Trazado_912054" data-name="Trazado 912054" d="M24.375,37.2l.011,7.594h5.12a3.483,3.483,0,0,0,3.481-3.684,3.479,3.479,0,0,0-3.481-3.3H27.256Z" transform="translate(-24.375 -37.197)" fill="#f9c4c0"/>
                </g>
              </g>
              <g id="Grupo_1122071" data-name="Grupo 1122071" transform="translate(5.186 36.524)">
                <g id="Grupo_1122070" data-name="Grupo 1122070">
                  <path id="Trazado_912055" data-name="Trazado 912055" d="M9.783,52.127h8.959v.212H9.783Z" transform="translate(-9.783 -52.127)" fill="#c7dafa"/>
                </g>
              </g>
            </g>
          </g>
        </g>
        <g id="Grupo_1122079" data-name="Grupo 1122079" transform="translate(3.102 57.861)">
          <g id="Grupo_1122076" data-name="Grupo 1122076" transform="translate(0)">
            <g id="Grupo_1122075" data-name="Grupo 1122075">
              <path id="Trazado_912056" data-name="Trazado 912056" d="M87.133,56.257H3.1l2.442-9.348a.965.965,0,0,1,.945-.735H83.754a.973.973,0,0,1,.945.735Z" transform="translate(-3.102 -46.173)" fill="#387094"/>
            </g>
          </g>
          <g id="Grupo_1122078" data-name="Grupo 1122078" transform="translate(0 10.084)">
            <g id="Grupo_1122077" data-name="Grupo 1122077">
              <path id="Trazado_912057" data-name="Trazado 912057" d="M87.133,54.069V57.01a.979.979,0,0,1-.98.98H4.082a.979.979,0,0,1-.98-.98V54.069Z" transform="translate(-3.102 -54.069)" fill="#315a79"/>
            </g>
          </g>
        </g>
        <g id="Grupo_1122112" data-name="Grupo 1122112" transform="translate(33.402 27.148)">
          <g id="Grupo_1122109" data-name="Grupo 1122109">
            <g id="Grupo_1122081" data-name="Grupo 1122081" transform="translate(44.546 26.056)">
              <g id="Grupo_1122080" data-name="Grupo 1122080">
                <path id="Trazado_912058" data-name="Trazado 912058" d="M69.2,74.715V49.232a6.7,6.7,0,0,0-2.7-5.377.008.008,0,0,0-.008-.008,6.7,6.7,0,0,0-4-1.319h-.785V74.715Z" transform="translate(-61.706 -42.527)" fill="#79affe"/>
              </g>
            </g>
            <g id="Grupo_1122083" data-name="Grupo 1122083" transform="translate(48.388 33.259)">
              <g id="Grupo_1122082" data-name="Grupo 1122082" transform="translate(0 0)">
                <path id="Trazado_912059" data-name="Trazado 912059" d="M66.833,73.152l-.462-24.985h-.492L64.715,73.152Z" transform="translate(-64.715 -48.167)" fill="#f97d00"/>
              </g>
            </g>
            <g id="Grupo_1122094" data-name="Grupo 1122094" transform="translate(0 19.368)">
              <g id="Grupo_1122085" data-name="Grupo 1122085" transform="translate(30.134 0)">
                <g id="Grupo_1122084" data-name="Grupo 1122084">
                  <path id="Trazado_912060" data-name="Trazado 912060" d="M58.688,37.29v6.922l-.2.05-7.615,1.82.033-2.931-.033-.526-.067-1.077-.058-.943-.134-2.1-.192-1.211Z" transform="translate(-50.422 -37.29)" fill="#f9c4c0"/>
                </g>
              </g>
              <g id="Grupo_1122087" data-name="Grupo 1122087" transform="translate(30.134)">
                <g id="Grupo_1122086" data-name="Grupo 1122086">
                  <path id="Trazado_912061" data-name="Trazado 912061" d="M55.19,39.169a9.515,9.515,0,0,1-4.384,2.38l-.058-.943-.134-2.1-.192-1.211h3.666Z" transform="translate(-50.422 -37.29)" fill="#fd9997"/>
                </g>
              </g>
              <g id="Grupo_1122089" data-name="Grupo 1122089" transform="translate(0 11.424)">
                <g id="Grupo_1122088" data-name="Grupo 1122088">
                  <path id="Trazado_912062" data-name="Trazado 912062" d="M33.894,48.648l-3.165,5.438L27.8,51.815a2.534,2.534,0,0,1-.976-1.985,2.444,2.444,0,0,1,.126-.774,2.511,2.511,0,0,1,3.4-1.522l1.245.538-.278-.875a.659.659,0,0,1-.034-.219.753.753,0,0,1,.3-.605.743.743,0,0,1,1.093.261Z" transform="translate(-26.827 -46.235)" fill="#f9c4c0"/>
                </g>
              </g>
              <g id="Grupo_1122091" data-name="Grupo 1122091" transform="translate(3.731 6.688)">
                <g id="Grupo_1122090" data-name="Grupo 1122090">
                  <path id="Trazado_912063" data-name="Trazado 912063" d="M46.221,42.527h0a4.676,4.676,0,0,0-4.234,2.691L38.743,53l-5.656-3.318c-1.336-.021-4.05,3.742-3.164,5.439l7.7,7.714a5.776,5.776,0,0,0,8.109.064l4.05-3.929Z" transform="translate(-29.749 -42.527)" fill="#79affe"/>
                </g>
              </g>
              <g id="Grupo_1122093" data-name="Grupo 1122093" transform="translate(20.204 6.688)">
                <g id="Grupo_1122092" data-name="Grupo 1122092">
                  <path id="Trazado_912064" data-name="Trazado 912064" d="M71.781,43.854a.008.008,0,0,0-.008-.008,6.7,6.7,0,0,0-4-1.319H42.647V74.716H72V44.84a2.244,2.244,0,0,0-.217-.985Z" transform="translate(-42.647 -42.527)" fill="#79affe"/>
                </g>
              </g>
            </g>
            <g id="Grupo_1122096" data-name="Grupo 1122096" transform="translate(26.301 4.756)">
              <g id="Grupo_1122095" data-name="Grupo 1122095">
                <path id="Trazado_912065" data-name="Trazado 912065" d="M60.6,32.437v4.751a6.589,6.589,0,0,1-13.059,1.244,6.958,6.958,0,0,1-.117-1.11V32.437a6.588,6.588,0,1,1,13.176,0Z" transform="translate(-47.421 -25.849)" fill="#f9c4c0"/>
              </g>
            </g>
            <g id="Grupo_1122098" data-name="Grupo 1122098" transform="translate(31.882 4.185)">
              <g id="Grupo_1122097" data-name="Grupo 1122097">
                <path id="Trazado_912066" data-name="Trazado 912066" d="M59.6,41.468c2.024-2.285,4.856-7.686,4.856-10.433,0-4.065-4.648-5.632-7.374-5.632s-5.287,5.325-5.287,9.39a25.182,25.182,0,0,0,.4,4.5,4.229,4.229,0,0,0,4.357,3.45A4.388,4.388,0,0,0,59.6,41.468Z" transform="translate(-51.791 -25.402)" fill="#363383"/>
              </g>
            </g>
            <g id="Grupo_1122100" data-name="Grupo 1122100" transform="translate(23.646)">
              <g id="Grupo_1122099" data-name="Grupo 1122099">
                <path id="Trazado_912067" data-name="Trazado 912067" d="M53.578,33.625c-4.45,0-8.236-3.1-8.236-6.089s3.617-5.411,8.066-5.411,10.5,3.254,10.5,6.248-5.868,5.252-10.327,5.252Z" transform="translate(-45.342 -22.125)" fill="#363383"/>
              </g>
            </g>
            <g id="Grupo_1122102" data-name="Grupo 1122102" transform="translate(26.301 11.642)">
              <g id="Grupo_1122101" data-name="Grupo 1122101">
                <path id="Trazado_912068" data-name="Trazado 912068" d="M47.421,31.24c.241,0,.43.422.43.943s-.189.936-.43.936" transform="translate(-47.421 -31.24)" fill="#242c3f"/>
              </g>
            </g>
            <g id="Grupo_1122104" data-name="Grupo 1122104" transform="translate(29.799 10.948)">
              <g id="Grupo_1122103" data-name="Grupo 1122103">
                <ellipse id="Elipse_11553" data-name="Elipse 11553" cx="1.732" cy="2.344" rx="1.732" ry="2.344" fill="#f9c4c0"/>
              </g>
            </g>
            <g id="Grupo_1122106" data-name="Grupo 1122106" transform="translate(29.132 9.204)">
              <g id="Grupo_1122105" data-name="Grupo 1122105">
                <path id="Trazado_912069" data-name="Trazado 912069" d="M51.641,30.334l-1,4.968a1,1,0,0,1-1-1V30.334a1,1,0,1,1,2,0Z" transform="translate(-49.637 -29.332)" fill="#363383"/>
              </g>
            </g>
            <g id="Grupo_1122108" data-name="Grupo 1122108" transform="translate(29.934 24.822)">
              <g id="Grupo_1122107" data-name="Grupo 1122107">
                <path id="Trazado_912070" data-name="Trazado 912070" d="M59.741,42.795H50.266A1.234,1.234,0,0,1,51.5,41.56h7.007A1.234,1.234,0,0,1,59.741,42.795Z" transform="translate(-50.266 -41.56)" fill="#ddeaf7"/>
              </g>
            </g>
          </g>
          <g id="Grupo_1122111" data-name="Grupo 1122111" transform="translate(25.645 36.812)">
            <g id="Grupo_1122110" data-name="Grupo 1122110">
              <path id="Trazado_912071" data-name="Trazado 912071" d="M46.907,50.949h.834V72.381h-.834Z" transform="translate(-46.907 -50.949)" fill="#f97d00"/>
            </g>
          </g>
        </g>
        <g id="Grupo_1122117" data-name="Grupo 1122117" transform="translate(56.394 60.482)">
          <g id="Grupo_1122114" data-name="Grupo 1122114">
            <g id="Grupo_1122113" data-name="Grupo 1122113">
              <path id="Trazado_912072" data-name="Trazado 912072" d="M74.407,73.48H44.829V54.692A6.466,6.466,0,0,1,51.3,48.226H67.94a6.466,6.466,0,0,1,6.466,6.466V73.48Z" transform="translate(-44.829 -48.226)" fill="#f99072"/>
            </g>
          </g>
          <g id="Grupo_1122116" data-name="Grupo 1122116" transform="translate(1.162)">
            <g id="Grupo_1122115" data-name="Grupo 1122115">
              <path id="Trazado_912073" data-name="Trazado 912073" d="M75.317,73.48H45.739V54.692a6.466,6.466,0,0,1,6.466-6.466H68.85a6.466,6.466,0,0,1,6.466,6.466V73.48Z" transform="translate(-45.739 -48.226)" fill="#fcba97"/>
            </g>
          </g>
        </g>
        <g id="Grupo_1122138" data-name="Grupo 1122138" transform="translate(12.505 4)">
          <g id="Grupo_1122119" data-name="Grupo 1122119">
            <g id="Grupo_1122118" data-name="Grupo 1122118">
              <path id="Trazado_912074" data-name="Trazado 912074" d="M11.1,28.973H26.588c.053-.133,2.2-5.531,3.353-9.041,1.159-3.563.851-11.958-3.666-14.753s-6.3.274-6.3.274C10.66,1.379,9.637,16.479,10.9,20.142Z" transform="translate(-10.465 -4)" fill="#333077"/>
            </g>
          </g>
          <g id="Grupo_1122121" data-name="Grupo 1122121" transform="translate(2.676 22.467)">
            <g id="Grupo_1122120" data-name="Grupo 1122120">
              <path id="Trazado_912075" data-name="Trazado 912075" d="M13.2,24.438a.638.638,0,0,1-.513-1.019,4.48,4.48,0,0,1,3.632-1.828h2.673a6.4,6.4,0,0,1,4.254,1.617.639.639,0,0,1-.848.955,5.122,5.122,0,0,0-3.406-1.3H16.318a3.212,3.212,0,0,0-2.606,1.311.638.638,0,0,1-.514.258Z" transform="translate(-12.56 -21.591)" fill="#5592ff"/>
            </g>
          </g>
          <g id="Grupo_1122123" data-name="Grupo 1122123" transform="translate(4.351 15.784)">
            <g id="Grupo_1122122" data-name="Grupo 1122122">
              <path id="Trazado_912076" data-name="Trazado 912076" d="M13.871,16.359h7.664v9.189H13.871Z" transform="translate(-13.871 -16.359)" fill="#f9c4c0"/>
            </g>
          </g>
          <g id="Grupo_1122125" data-name="Grupo 1122125" transform="translate(4.351 14.204)">
            <g id="Grupo_1122124" data-name="Grupo 1122124">
              <path id="Trazado_912077" data-name="Trazado 912077" d="M21.535,15.122v7.145a13.682,13.682,0,0,1-7.664,1.095v-8.24Z" transform="translate(-13.871 -15.122)" fill="#fd9997"/>
            </g>
          </g>
          <g id="Grupo_1122127" data-name="Grupo 1122127" transform="translate(4.355 3.954)">
            <g id="Grupo_1122126" data-name="Grupo 1122126">
              <path id="Trazado_912078" data-name="Trazado 912078" d="M27.281,13.8v4.612a6.7,6.7,0,0,1-13.407,0V13.8a6.7,6.7,0,1,1,13.407,0Z" transform="translate(-13.874 -7.096)" fill="#f9c4c0"/>
            </g>
          </g>
          <g id="Grupo_1122129" data-name="Grupo 1122129" transform="translate(14.561 12.049)">
            <g id="Grupo_1122128" data-name="Grupo 1122128">
              <ellipse id="Elipse_11554" data-name="Elipse 11554" cx="0.626" cy="0.839" rx="0.626" ry="0.839" fill="#242c3f"/>
            </g>
          </g>
          <g id="Grupo_1122131" data-name="Grupo 1122131" transform="translate(10.025 12.049)">
            <g id="Grupo_1122130" data-name="Grupo 1122130">
              <ellipse id="Elipse_11555" data-name="Elipse 11555" cx="0.626" cy="0.839" rx="0.626" ry="0.839" fill="#242c3f"/>
            </g>
          </g>
          <g id="Grupo_1122133" data-name="Grupo 1122133" transform="translate(10.3 16.658)">
            <g id="Grupo_1122132" data-name="Grupo 1122132">
              <path id="Trazado_912079" data-name="Trazado 912079" d="M18.54,17.043c0,.037-.011.072-.011.109a2.543,2.543,0,1,0,5.085,0c0-.037-.009-.072-.011-.109Z" transform="translate(-18.529 -17.043)" fill="#fff"/>
            </g>
          </g>
          <g id="Grupo_1122135" data-name="Grupo 1122135" transform="translate(2.121 11.964)">
            <g id="Grupo_1122134" data-name="Grupo 1122134">
              <path id="Trazado_912080" data-name="Trazado 912080" d="M12.125,15.608a2.24,2.24,0,0,0,2.23,2.24v-4.48a2.241,2.241,0,0,0-2.23,2.24" transform="translate(-12.125 -13.368)" fill="#f9c4c0"/>
            </g>
          </g>
          <g id="Grupo_1122137" data-name="Grupo 1122137" transform="translate(4.355 1.807)">
            <g id="Grupo_1122136" data-name="Grupo 1122136">
              <path id="Trazado_912081" data-name="Trazado 912081" d="M13.875,13.1s10.011.92,13.14-.707,0-4.3,0-4.3L24.406,6.945l-6.044-1.53-4.488,1.53V13.1Z" transform="translate(-13.874 -5.415)" fill="#333077"/>
            </g>
          </g>
        </g>
        <g id="Grupo_1122140" data-name="Grupo 1122140" transform="translate(36.962 8.31)">
          <g id="Grupo_1122139" data-name="Grupo 1122139" transform="translate(0 0)">
            <path id="Trazado_912082" data-name="Trazado 912082" d="M51.2,7.73V22.225a.356.356,0,0,1-.356.356H35.393a.356.356,0,0,0-.211.069l-2.664,1.961a.356.356,0,0,1-.567-.287V22.937a.356.356,0,0,0-.356-.356H29.97a.356.356,0,0,1-.356-.356V7.73a.356.356,0,0,1,.356-.356H50.848a.356.356,0,0,1,.356.356Z" transform="translate(-29.614 -7.374)" fill="#f1f7ff"/>
          </g>
        </g>
        <g id="Grupo_1122147" data-name="Grupo 1122147" transform="translate(42.159 14.574)">
          <g id="Grupo_1122142" data-name="Grupo 1122142">
            <g id="Grupo_1122141" data-name="Grupo 1122141">
              <path id="Trazado_912083" data-name="Trazado 912083" d="M36.325,13.594a1.321,1.321,0,1,1-1.315-1.315A1.326,1.326,0,0,1,36.325,13.594Z" transform="translate(-33.684 -12.279)" fill="#c7dafa"/>
            </g>
          </g>
          <g id="Grupo_1122144" data-name="Grupo 1122144" transform="translate(4.277)">
            <g id="Grupo_1122143" data-name="Grupo 1122143">
              <path id="Trazado_912084" data-name="Trazado 912084" d="M39.674,13.594a1.321,1.321,0,1,1-1.315-1.315A1.326,1.326,0,0,1,39.674,13.594Z" transform="translate(-37.032 -12.279)" fill="#c7dafa"/>
            </g>
          </g>
          <g id="Grupo_1122146" data-name="Grupo 1122146" transform="translate(8.554)">
            <g id="Grupo_1122145" data-name="Grupo 1122145">
              <path id="Trazado_912085" data-name="Trazado 912085" d="M43.023,13.594a1.321,1.321,0,1,1-1.315-1.315A1.326,1.326,0,0,1,43.023,13.594Z" transform="translate(-40.381 -12.279)" fill="#c7dafa"/>
            </g>
          </g>
        </g>
        <g id="Grupo_1122154" data-name="Grupo 1122154" transform="translate(14.415 27.922)">
          <g id="Grupo_1122149" data-name="Grupo 1122149" transform="translate(10.389)">
            <g id="Grupo_1122148" data-name="Grupo 1122148">
              <path id="Trazado_912086" data-name="Trazado 912086" d="M25.195,35.6l-3.467-9.652a5.147,5.147,0,0,0-1.419-2.1.638.638,0,0,1,.848-.954,6.426,6.426,0,0,1,1.773,2.62L26.4,35.166a.639.639,0,0,1-1.2.432Z" transform="translate(-20.095 -22.731)" fill="#5592ff"/>
            </g>
          </g>
          <g id="Grupo_1122151" data-name="Grupo 1122151" transform="translate(0 0.115)">
            <g id="Grupo_1122150" data-name="Grupo 1122150">
              <path id="Trazado_912087" data-name="Trazado 912087" d="M15.2,35.573,12.227,27.3a4.516,4.516,0,0,1,.625-4.225.638.638,0,1,1,1.025.761,3.242,3.242,0,0,0-.448,3.033l2.971,8.27a.639.639,0,0,1-1.2.432Z" transform="translate(-11.96 -22.821)" fill="#5592ff"/>
            </g>
          </g>
          <g id="Grupo_1122153" data-name="Grupo 1122153" transform="translate(12.87 9.57)">
            <g id="Grupo_1122152" data-name="Grupo 1122152">
              <ellipse id="Elipse_11556" data-name="Elipse 11556" cx="2.323" cy="2.71" rx="2.323" ry="2.71" transform="matrix(0.624, -0.781, 0.781, 0.624, 0, 3.629)" fill="#5592ff"/>
            </g>
          </g>
        </g>
      </g>
    </g>
  </g>
</svg>
