<svg xmlns="http://www.w3.org/2000/svg" xmlns:xlink="http://www.w3.org/1999/xlink" width="85" height="84.595" viewBox="0 0 85 84.595">
  <defs>
    <clipPath id="clip-path">
      <rect id="Rectángulo_400938" data-name="Rectángulo 400938" width="75" height="74" transform="translate(-0.229 0.232)" fill="none"/>
    </clipPath>
    <clipPath id="clip-path-2">
      <rect id="Rectángulo_400938-2" data-name="Rectángulo 400938" width="79" height="79" transform="translate(-0.306 0.115)" fill="none"/>
    </clipPath>
    <clipPath id="clip-path-3">
      <rect id="Rectángulo_410624" data-name="Rectángulo 410624" width="83" height="83" transform="translate(-0.19 -0.001)" fill="#8ce2e5"/>
    </clipPath>
  </defs>
  <g id="img16" transform="translate(-810.422 -5544.774)">
    <g id="Grupo_1122310" data-name="Grupo 1122310" transform="translate(815.229 5550.542)">
      <g id="Grupo_1099379" data-name="Grupo 1099379" transform="translate(0 0)">
        <rect id="Rectángulo_401103" data-name="Rectángulo 401103" width="75" height="74" transform="translate(-0.229 0.232)" fill="none"/>
      </g>
    </g>
    <g id="Grupo_108927" data-name="Grupo 108927" transform="translate(810.422 5545.028)">
      <path id="Rectángulo_36179" data-name="Rectángulo 36179" d="M0,0H85V84.341H0Z" transform="translate(0 0)" fill="#abdbff"/>
    </g>
    <g id="Enmascarar_grupo_1098830" data-name="Enmascarar grupo 1098830" transform="translate(812.19 5544.775)" clip-path="url(#clip-path-3)">
      <path id="Sustracción_190" data-name="Sustracción 190" d="M66.96,66.96H0V0H66.96V66.96ZM2.678,2.678v61.6h61.6V2.678Z" transform="translate(49.919 -14.441) rotate(45)" fill="#fff" opacity="0.7"/>
    </g>
    <g id="Grupo_1122312" data-name="Grupo 1122312" transform="translate(822.919 5556.31)">
      <rect id="Rectángulo_401104" data-name="Rectángulo 401104" width="60" height="61" transform="translate(0.081 0.464)" fill="none"/>
      <g id="Grupo_1121650" data-name="Grupo 1121650" transform="translate(0.886 1.78)">
        <rect id="Rectángulo_401104-2" data-name="Rectángulo 401104" width="58" height="59" transform="translate(0.125 -0.315)" fill="none"/>
        <path id="Trazado_912222" data-name="Trazado 912222" d="M21.528,21.722a.865.865,0,0,1,.865-.865h7.252a.865.865,0,1,1,0,1.73H22.393A.865.865,0,0,1,21.528,21.722Zm.865-3.942h11.3a.865.865,0,1,0,0-1.73h-11.3a.865.865,0,0,0,0,1.73ZM11.2,15.089h4.054a2.2,2.2,0,0,1,2.081,1.487l1.348-1.223a.865.865,0,1,1,1.162,1.281L17.461,18.8v2.543a2.2,2.2,0,0,1-2.2,2.2H11.2a2.205,2.205,0,0,1-2.2-2.2V17.291a2.205,2.205,0,0,1,2.2-2.2Zm4.054,1.73H11.2a.479.479,0,0,0-.473.473v4.054a.479.479,0,0,0,.473.473h4.054a.479.479,0,0,0,.473-.473v-.974l-.662.6a.865.865,0,0,1-1.193-.029l-1.968-1.968a.865.865,0,1,1,1.223-1.223l1.386,1.386,1.214-1.1v-.744a.479.479,0,0,0-.473-.473Zm4.65,9.963A.865.865,0,0,1,19.85,28l-2.389,2.168v2.544a2.2,2.2,0,0,1-2.2,2.2H11.2a2.2,2.2,0,0,1-2.2-2.2V28.661a2.2,2.2,0,0,1,2.2-2.2h4.054a2.2,2.2,0,0,1,2.081,1.487l1.348-1.223a.865.865,0,0,1,1.222.059Zm-4.177,4.959-.662.6a.865.865,0,0,1-1.193-.029l-1.968-1.968a.865.865,0,0,1,1.223-1.223l1.386,1.386,1.214-1.1v-.744a.479.479,0,0,0-.473-.473H11.2a.479.479,0,0,0-.473.473v4.054a.479.479,0,0,0,.473.473h4.054a.479.479,0,0,0,.473-.473v-.974Zm4.177,6.411a.865.865,0,0,1-.059,1.221l-2.389,2.168v2.543a2.2,2.2,0,0,1-2.2,2.2H11.2a2.205,2.205,0,0,1-2.2-2.2V40.03a2.2,2.2,0,0,1,2.2-2.2h4.054a2.2,2.2,0,0,1,2.081,1.487l1.348-1.223a.865.865,0,0,1,1.221.059ZM15.731,43.11l-.662.6a.865.865,0,0,1-1.193-.029l-1.968-1.968a.865.865,0,0,1,1.223-1.223l1.386,1.386,1.214-1.1V40.03a.479.479,0,0,0-.473-.473H11.2a.479.479,0,0,0-.473.473v4.054a.479.479,0,0,0,.473.473h4.054a.479.479,0,0,0,.473-.473V43.11Zm39.084,9.32L52.6,54.711a1.882,1.882,0,0,1-2.658.04L43.813,48.8a1.879,1.879,0,0,1-.258-.312v3.586a3.272,3.272,0,0,1-3.268,3.268H3.269A3.272,3.272,0,0,1,0,52.076V7.846A3.272,3.272,0,0,1,3.269,4.578h8.39V3.99a.865.865,0,0,1,.865-.865h4.651a4.954,4.954,0,0,1,9.208,0h4.651a.865.865,0,0,1,.865.865v.588h8.39a3.272,3.272,0,0,1,3.268,3.268V27.722A12,12,0,0,1,44.1,41.067l2.448,2.4a1.878,1.878,0,0,1,.763-.174,1.843,1.843,0,0,1,1.337.529l6.131,5.949a1.882,1.882,0,0,1,.04,2.658ZM43.076,42.489q-.348.418-.732.8l2.15,2.11.757-.78Zm1.057-7.69a10.3,10.3,0,1,0-10.3,10.3A10.311,10.311,0,0,0,44.134,34.8ZM31.9,6.307V7.922h7.45a.865.865,0,0,1,.865.865V24.6a12.1,12.1,0,0,1,1.614,1.213V7.846a1.541,1.541,0,0,0-1.539-1.539ZM13.388,9.375h16.78V4.854H25.75a.865.865,0,0,1-.841-.662,3.222,3.222,0,0,0-6.263,0,.865.865,0,0,1-.841.662H13.388v4.52Zm-.865,1.73a.865.865,0,0,1-.865-.865V9.651H5.074v40.62H38.482V45.893a12.014,12.014,0,0,1-10.462-.567H22.393a.865.865,0,1,1,0-1.73h3.248a12.1,12.1,0,0,1-2.386-3.077h-.862a.865.865,0,1,1,0-1.73h.094a11.974,11.974,0,0,1-.681-3.991c0-.348.016-.693.045-1.034a.864.864,0,0,1,.219-1.475,11.937,11.937,0,0,1,1.148-3.14h-.825a.865.865,0,0,1,0-1.73h1.949A12.018,12.018,0,0,1,38.482,23.7V9.651H31.9v.588a.865.865,0,0,1-.865.865H12.523Zm29.3,40.972V45.207l-.792-.778q-.4.3-.822.564v6.143a.865.865,0,0,1-.865.865H4.209a.865.865,0,0,1-.865-.865V8.787a.865.865,0,0,1,.865-.865h7.45V6.307H3.269A1.541,1.541,0,0,0,1.729,7.846v44.23a1.541,1.541,0,0,0,1.539,1.539H40.287A1.541,1.541,0,0,0,41.826,52.076Zm11.745-1.063L47.44,45.065a.147.147,0,0,0-.1-.041h0a.148.148,0,0,0-.106.044l-2.213,2.281a.153.153,0,0,0,0,.212l6.131,5.949a.154.154,0,0,0,.212,0l2.213-2.281a.154.154,0,0,0,0-.212ZM42.716,34.8a8.881,8.881,0,1,1-8.881-8.881A8.891,8.891,0,0,1,42.716,34.8Zm-1.73,0a7.152,7.152,0,1,0-7.152,7.152A7.16,7.16,0,0,0,40.986,34.8ZM21.778,3.134a1.081,1.081,0,1,0,1.081,1.081A1.083,1.083,0,0,0,21.778,3.134Z" transform="translate(2.919 -0.086)" fill="#445866" fill-rule="evenodd"/>
      </g>
    </g>
    <rect id="Rectángulo_410629" data-name="Rectángulo 410629" width="24" height="26" transform="translate(871.422 5544.774)" fill="#2a5f61"/>
    <text id="_4" data-name="4" transform="translate(878.422 5545.774)" fill="#fff" font-size="18" font-family="Roboto-Bold, Roboto" font-weight="700"><tspan x="0" y="17">4</tspan></text>
  </g>
</svg>
