<svg xmlns="http://www.w3.org/2000/svg" xmlns:xlink="http://www.w3.org/1999/xlink" width="85" height="84.595" viewBox="0 0 85 84.595">
  <defs>
    <clipPath id="clip-path">
      <rect id="Rectángulo_400938" data-name="Rectángulo 400938" width="75" height="74" transform="translate(-0.229 0.232)" fill="none"/>
    </clipPath>
    <clipPath id="clip-path-2">
      <rect id="Rectángulo_400938-2" data-name="Rectángulo 400938" width="79" height="79" transform="translate(-0.306 0.115)" fill="none"/>
    </clipPath>
    <clipPath id="clip-path-3">
      <rect id="Rectángulo_410620" data-name="Rectángulo 410620" width="83" height="83" transform="translate(-0.19 -0.001)" fill="#8ce2e5"/>
    </clipPath>
  </defs>
  <g id="img14" transform="translate(-810.422 -5432.469)">
    <g id="Grupo_1122307" data-name="Grupo 1122307" transform="translate(815.229 5438.237)">
      <g id="Grupo_1099379" data-name="Grupo 1099379" transform="translate(0 0)">
        <rect id="Rectángulo_401103" data-name="Rectángulo 401103" width="75" height="74" transform="translate(-0.229 0.232)" fill="none"/>
      </g>
    </g>
    <g id="Grupo_108927" data-name="Grupo 108927" transform="translate(810.422 5432.723)">
      <path id="Rectángulo_36179" data-name="Rectángulo 36179" d="M0,0H85V84.341H0Z" transform="translate(0 0)" fill="#abdbff"/>
    </g>
    <g id="Enmascarar_grupo_1098829" data-name="Enmascarar grupo 1098829" transform="translate(812.19 5432.469)" clip-path="url(#clip-path-3)">
      <path id="Sustracción_189" data-name="Sustracción 189" d="M66.96,66.96H0V0H66.96V66.96ZM2.678,2.678v61.6h61.6V2.678Z" transform="translate(49.919 -14.441) rotate(45)" fill="#fff" opacity="0.7"/>
    </g>
    <g id="Grupo_1122309" data-name="Grupo 1122309" transform="translate(822.919 5444.004)">
      <rect id="Rectángulo_401104" data-name="Rectángulo 401104" width="60" height="61" transform="translate(0.081 0.464)" fill="none"/>
      <path id="Trazado_912221" data-name="Trazado 912221" d="M59.116,53.223a9.658,9.658,0,0,0-5.214-.179l-8.215,1.521c2.783-2.384,5.284-5.865,5.284-9.695V35.826a.864.864,0,0,0-.667-.841,22.009,22.009,0,0,1-7.039-3.11.864.864,0,0,0-.475-.143H36.874a.865.865,0,0,0-.475.143,22.01,22.01,0,0,1-7.039,3.11.864.864,0,0,0-.667.841v9.045a9.231,9.231,0,0,0,.292,2.265,14.837,14.837,0,0,0-4.875,1.184c-2.175.8-4.339,1.567-6.537,2.34l-.062-.208a2.417,2.417,0,0,0-3-1.619L10.741,49.96a2.406,2.406,0,0,0-1.62,3.006l4.6,15.315a2.414,2.414,0,0,0,3,1.619l3.766-1.126a2.407,2.407,0,0,0,1.62-3.006l-.439-1.462,3.37-1.231a3.43,3.43,0,0,1,2.571.045L34.9,66.071a6.788,6.788,0,0,0,2.566.455,20.2,20.2,0,0,0,5.2-.945l.474-.13,14.654-3.985a5.12,5.12,0,0,0,3.649-5.675A3.629,3.629,0,0,0,59.116,53.223ZM30.421,36.5a23.917,23.917,0,0,0,6.709-3.038h5.4A23.916,23.916,0,0,0,49.242,36.5v8.372c0,3.009-2.115,6.468-5.453,9.01a4.037,4.037,0,0,0-1.8-1.362l-6.48-2.47a11.558,11.558,0,0,0-4.655-2.694,7.815,7.815,0,0,1-.429-2.485ZM20.4,66.788a.682.682,0,0,1-.409.33l-3.766,1.126a.686.686,0,0,1-.852-.459l-4.6-15.315a.678.678,0,0,1,.46-.853L15,50.491a.678.678,0,0,1,.2-.029.687.687,0,0,1,.657.488l4.6,15.315a.682.682,0,0,1-.051.523ZM57.339,59.8,42.684,63.783l-.479.131c-2.129.586-4.779,1.317-6.661.554l-7.287-2.952a5.159,5.159,0,0,0-3.813-.066l-3.274,1.2-3.1-10.328c2.23-.784,4.426-1.563,6.637-2.376,3.829-1.408,5.844-1.933,9.777,1.511a.869.869,0,0,0,.262.157l6.623,2.524A2.349,2.349,0,0,1,39.7,58.524l-8.8-3.354a.864.864,0,1,0-.616,1.615l8.8,3.354a4.079,4.079,0,0,0,5.526-3.615l9.611-1.779c3.132-.58,5.2-.045,5.54,1.431A3.4,3.4,0,0,1,57.339,59.8Zm12.57-33.762-4.6-15.315a2.417,2.417,0,0,0-3-1.619l-3.766,1.126a2.407,2.407,0,0,0-1.62,3.006l.439,1.462-3.37,1.232a3.432,3.432,0,0,1-2.57-.044l-7.287-2.953c-2.425-.982-5.388-.166-7.769.49l-.474.13L21.237,17.536a5.119,5.119,0,0,0-3.649,5.675,3.629,3.629,0,0,0,2.326,2.568,9.655,9.655,0,0,0,5.214.179l9.584-1.774a4.067,4.067,0,0,0,2.333,2.3l6.48,2.47c2.145,1.853,3.958,2.747,5.864,2.893.188.014.375.021.561.021a14.534,14.534,0,0,0,4.969-1.185c2.168-.8,4.336-1.565,6.537-2.34l.062.208a2.413,2.413,0,0,0,3,1.619l3.766-1.126a2.407,2.407,0,0,0,1.621-3.006ZM54.323,29.06c-3.829,1.409-5.844,1.933-9.777-1.51a.865.865,0,0,0-.262-.157l-6.623-2.524a2.349,2.349,0,1,1,1.673-4.39l8.8,3.355a.864.864,0,1,0,.616-1.615l-8.8-3.355a4.078,4.078,0,0,0-5.525,3.615l-9.611,1.779c-3.132.58-5.2.045-5.54-1.431A3.4,3.4,0,0,1,21.691,19.2l14.655-3.985.479-.132c2.129-.587,4.779-1.317,6.661-.554l7.287,2.952a5.159,5.159,0,0,0,3.813.066l3.275-1.2,3.1,10.329C58.726,27.47,56.527,28.249,54.323,29.06Zm13.879-2a.682.682,0,0,1-.409.33l-3.766,1.126a.686.686,0,0,1-.852-.459l-4.6-15.315a.678.678,0,0,1,.46-.853l3.766-1.126a.686.686,0,0,1,.852.459l4.6,15.315a.682.682,0,0,1-.051.523ZM33.968,43.149a.864.864,0,1,1,1.435-.963L37.563,45.4l6.87-5.578a.864.864,0,1,1,1.09,1.342l-7.6,6.175a.864.864,0,0,1-1.262-.189Z" transform="translate(-9.434 -8.537)" fill="#445866"/>
    </g>
    <rect id="Rectángulo_410621" data-name="Rectángulo 410621" width="24" height="26" transform="translate(871.422 5432.469)" fill="#2a5f61"/>
    <text id="_2" data-name="2" transform="translate(878.422 5433.469)" fill="#fff" font-size="18" font-family="Roboto-Bold, Roboto" font-weight="700"><tspan x="0" y="17">2</tspan></text>
  </g>
</svg>
