<svg xmlns="http://www.w3.org/2000/svg" width="125" height="125" viewBox="0 0 125 125">
  <g id="img11" transform="translate(-307.663 -4469.838)">
    <rect id="Rectángulo_401345" data-name="Rectángulo 401345" width="109.924" height="109.924" transform="translate(315.135 4477.443)" fill="#fff"/>
    <path id="Sustracción_141" data-name="Sustracción 141" d="M107.908,125,0,107.908,17.095,0,125,17.093,107.908,125v0h0v0ZM23.579,8.931,8.927,101.42l92.493,14.65,14.65-92.493L23.578,8.931Z" transform="translate(307.663 4469.838)" fill="#9ac1df"/>
    <g id="Grupo_1099758" data-name="Grupo 1099758" transform="translate(337.817 4500.954)">
      <rect id="Rectángulo_401104" data-name="Rectángulo 401104" width="64.22" height="64.22" transform="translate(0 0)" fill="none"/>
      <g id="Grupo_1122171" data-name="Grupo 1122171" transform="translate(0.923 0.462)">
        <path id="Trazado_912140" data-name="Trazado 912140" d="M43.887,115.879H1.854A1.854,1.854,0,0,1,0,114.025V61.854A1.854,1.854,0,0,1,1.854,60H43.887a1.854,1.854,0,0,1,1.854,1.854v52.17A1.854,1.854,0,0,1,43.887,115.879Z" transform="translate(0 -52.582)" fill="#e2dff4"/>
        <path id="Trazado_912141" data-name="Trazado 912141" d="M206.017,60H185v55.879h21.017a1.854,1.854,0,0,0,1.854-1.854V61.854A1.854,1.854,0,0,0,206.017,60Z" transform="translate(-162.129 -52.582)" fill="#bebcdd"/>
        <path id="Trazado_912142" data-name="Trazado 912142" d="M105.887,55.879H63.854A1.854,1.854,0,0,1,62,54.025V1.854A1.854,1.854,0,0,1,63.854,0h42.033a1.854,1.854,0,0,1,1.854,1.854v52.17A1.854,1.854,0,0,1,105.887,55.879Z" transform="translate(-54.335)" fill="#f1f1f4"/>
        <path id="Trazado_912143" data-name="Trazado 912143" d="M268.017,0H247V55.879h21.017a1.854,1.854,0,0,0,1.854-1.854V1.854A1.854,1.854,0,0,0,268.017,0Z" transform="translate(-216.464)" fill="#e2dff4"/>
        <g id="Grupo_1122168" data-name="Grupo 1122168" transform="translate(15.082 7.665)">
          <path id="Trazado_912144" data-name="Trazado 912144" d="M131.272,73.126h-7.418A1.854,1.854,0,0,1,122,71.272V63.854A1.854,1.854,0,0,1,123.854,62h7.418a1.854,1.854,0,0,1,1.854,1.854v7.418A1.854,1.854,0,0,1,131.272,73.126Z" transform="translate(-122 -62)" fill="#999fed"/>
          <path id="Trazado_912145" data-name="Trazado 912145" d="M131.272,193.126h-7.418A1.854,1.854,0,0,1,122,191.272v-7.418A1.854,1.854,0,0,1,123.854,182h7.418a1.854,1.854,0,0,1,1.854,1.854v7.418A1.854,1.854,0,0,1,131.272,193.126Z" transform="translate(-122 -167.165)" fill="#999fed"/>
          <path id="Trazado_912146" data-name="Trazado 912146" d="M131.272,313.126h-7.418A1.854,1.854,0,0,1,122,311.272v-7.418A1.854,1.854,0,0,1,123.854,302h7.418a1.854,1.854,0,0,1,1.854,1.854v7.418A1.854,1.854,0,0,1,131.272,313.126Z" transform="translate(-122 -272.33)" fill="#999fed"/>
        </g>
        <g id="Grupo_1122169" data-name="Grupo 1122169" transform="translate(30.536 7.665)">
          <path id="Trazado_912147" data-name="Trazado 912147" d="M255.654,125.709h-6.8a1.854,1.854,0,1,1,0-3.709h6.8a1.854,1.854,0,1,1,0,3.709Z" transform="translate(-247 -114.582)" fill="#453d83"/>
          <path id="Trazado_912148" data-name="Trazado 912148" d="M260.6,65.709H248.854a1.854,1.854,0,1,1,0-3.709H260.6a1.854,1.854,0,1,1,0,3.709Z" transform="translate(-247 -62)" fill="#453d83"/>
          <path id="Trazado_912149" data-name="Trazado 912149" d="M258.126,245.709h-9.272a1.854,1.854,0,0,1,0-3.709h9.272a1.854,1.854,0,0,1,0,3.709Z" transform="translate(-247 -219.747)" fill="#453d83"/>
          <path id="Trazado_912150" data-name="Trazado 912150" d="M260.6,185.709H248.854a1.854,1.854,0,1,1,0-3.709H260.6a1.854,1.854,0,0,1,0,3.709Z" transform="translate(-247 -167.165)" fill="#453d83"/>
          <path id="Trazado_912151" data-name="Trazado 912151" d="M259.2,365.709H248.854a1.854,1.854,0,0,1,0-3.709H259.2a1.854,1.854,0,1,1,0,3.709Z" transform="translate(-247 -324.912)" fill="#453d83"/>
          <path id="Trazado_912152" data-name="Trazado 912152" d="M258.126,305.709h-9.272a1.854,1.854,0,1,1,0-3.709h9.272a1.854,1.854,0,1,1,0,3.709Z" transform="translate(-247 -272.33)" fill="#453d83"/>
        </g>
        <g id="Grupo_1122170" data-name="Grupo 1122170" transform="translate(39.808 26.209)">
          <path id="Trazado_912153" data-name="Trazado 912153" d="M333.745,242.907a1.853,1.853,0,0,1-.651-.118A17.1,17.1,0,0,1,322,226.781v-9.218a1.854,1.854,0,0,1,1.2-1.736l9.89-3.709a1.855,1.855,0,0,1,1.3,0l9.89,3.709a1.854,1.854,0,0,1,1.2,1.736v9.218A17.1,17.1,0,0,1,334.4,242.789,1.856,1.856,0,0,1,333.745,242.907Z" transform="translate(-322 -212)" fill="#ffcd00"/>
          <path id="Trazado_912154" data-name="Trazado 912154" d="M417.651,242.789a17.1,17.1,0,0,0,11.093-16.008v-9.218a1.854,1.854,0,0,0-1.2-1.736l-9.89-3.709A1.853,1.853,0,0,0,417,212v30.907A1.853,1.853,0,0,0,417.651,242.789Z" transform="translate(-405.255 -212)" fill="#ff9f22"/>
          <path id="Trazado_912155" data-name="Trazado 912155" d="M352,246.033v7.932a13.455,13.455,0,0,0,8.036,12.271,13.455,13.455,0,0,0,8.036-12.271v-7.932l-8.036-3.013Z" transform="translate(-348.291 -239.185)" fill="#ffeb99"/>
          <path id="Trazado_912156" data-name="Trazado 912156" d="M425.036,253.966v-7.932L417,243.02v23.217A13.455,13.455,0,0,0,425.036,253.966Z" transform="translate(-405.255 -239.185)" fill="#ffcd00"/>
          <path id="Trazado_912157" data-name="Trazado 912157" d="M373.345,299.2l-2.623-2.622a1.854,1.854,0,0,1,2.622-2.622l1.311,1.311,3.934-3.934a1.854,1.854,0,1,1,2.623,2.622l-5.245,5.245A1.854,1.854,0,0,1,373.345,299.2Z" transform="translate(-364.223 -281.046)" fill="#5f55af"/>
          <path id="Trazado_912158" data-name="Trazado 912158" d="M422.245,291.33a1.854,1.854,0,0,0-2.622,0L417,293.952V299.2l5.245-5.245A1.854,1.854,0,0,0,422.245,291.33Z" transform="translate(-405.255 -281.046)" fill="#453d83"/>
        </g>
      </g>
    </g>
  </g>
</svg>
