<svg xmlns="http://www.w3.org/2000/svg" width="505" height="132.823" viewBox="0 0 505 132.823">
  <g id="img15" transform="translate(-810 -3791)">
    <rect id="Rectángulo_401121" data-name="Rectángulo 401121" width="505" height="51.595" rx="25.798" transform="translate(810 3872.228)" fill="#8ce2e5"/>
    <g id="Grupo_1122337" data-name="Grupo 1122337" transform="translate(-7225.805 11678.453)">
      <path id="Trazado_911824" data-name="Trazado 911824" d="M446.213,23.79,396.464,23.7l.031-16.51A7.1,7.1,0,0,1,403.6.109l35.561.064a7.1,7.1,0,0,1,7.08,7.108ZM400.273,19.9l42.144.077.024-12.708a3.3,3.3,0,0,0-3.286-3.3L403.6,3.911A3.3,3.3,0,0,0,400.3,7.2Z" transform="translate(8023.366 -7880.55)" fill="#162a45"/>
      <path id="Trazado_911825" data-name="Trazado 911825" d="M497.5,15.4l-134.409-.246a4.238,4.238,0,0,0-4.246,4.231l-.156,85.226a4.239,4.239,0,0,0,4.231,4.247l134.407.246a4.24,4.24,0,0,0,4.247-4.231l.156-85.228A4.239,4.239,0,0,0,497.5,15.4" transform="translate(8014.422 -7876.988)" fill="#383d84"/>
      <rect id="Rectángulo_410558" data-name="Rectángulo 410558" width="37.792" height="142.886" transform="translate(8373.151 -7796.097) rotate(-89.895)" fill="#4d52a8"/>
      <path id="Trazado_911826" data-name="Trazado 911826" d="M452.6,58.986a30.286,30.286,0,1,1-30.23-30.341A30.286,30.286,0,0,1,452.6,58.986" transform="translate(8022.316 -7873.793)" fill="#4d52a8"/>
      <path id="Trazado_911827" data-name="Trazado 911827" d="M436.11,51.07l-11.2-.021.02-11.2-10.483-.019-.021,11.2-11.2-.021-.019,10.484,11.2.02-.021,11.2,10.484.019.02-11.2,11.2.021Z" transform="translate(8024.965 -7871.144)" fill="#fff"/>
      <rect id="Rectángulo_410559" data-name="Rectángulo 410559" width="93.704" height="9.707" transform="matrix(0.002, -1, 1, 0.002, 8483.663, -7767.938)" fill="#d35d57"/>
      <path id="Trazado_911828" data-name="Trazado 911828" d="M457.973,12.447l-9.189-.017a1.845,1.845,0,0,0-1.848,1.842l0,1.715,12.878.023,0-1.715a1.845,1.845,0,0,0-1.841-1.848" transform="translate(8035.315 -7877.633)" fill="#162a45"/>
      <rect id="Rectángulo_410560" data-name="Rectángulo 410560" width="93.704" height="9.707" transform="matrix(0.002, -1, 1, 0.002, 8395.718, -7768.1)" fill="#d35d57"/>
      <path id="Trazado_911829" data-name="Trazado 911829" d="M386.864,12.317l-9.189-.017a1.845,1.845,0,0,0-1.848,1.842l0,1.714,12.878.025,0-1.715a1.845,1.845,0,0,0-1.842-1.848" transform="translate(8018.479 -7877.664)" fill="#162a45"/>
      <path id="Trazado_911830" data-name="Trazado 911830" d="M461.954,62.266l-16.615-.03.016-9.044,16.615.031ZM446.1,61.477l15.093.027.014-7.523-15.093-.027Z" transform="translate(8034.938 -7867.982)" fill="#fff"/>
      <path id="Trazado_911831" data-name="Trazado 911831" d="M390.845,62.136l-16.615-.03.016-9.044,16.616.031Zm-15.853-.789,15.095.027.014-7.523-15.095-.027Z" transform="translate(8018.102 -7868.013)" fill="#fff"/>
    </g>
    <g id="Grupo_1122335" data-name="Grupo 1122335" transform="translate(-7203.422 11659.793)">
      <path id="Trazado_911832" data-name="Trazado 911832" d="M110.748,20.813l-9.707-5.939V6.792H77.507v8.08L67.8,20.805a15.57,15.57,0,0,0-7.448,13.283l-.007,41.46A16.447,16.447,0,0,0,76.784,92L89.26,92h12.477a16.446,16.446,0,0,0,16.449-16.444l.006-41.46a15.567,15.567,0,0,0-7.444-13.284" transform="translate(8033.422 -7865.44)" fill="#6265ce"/>
      <rect id="Rectángulo_410561" data-name="Rectángulo 410561" width="57.846" height="27.118" transform="translate(8093.766 -7826.911)" fill="#93d8c3"/>
      <rect id="Rectángulo_410562" data-name="Rectángulo 410562" width="12.099" height="16.635" transform="translate(8097.59 -7823.284)" fill="#fff"/>
      <rect id="Rectángulo_410563" data-name="Rectángulo 410563" width="30.057" height="0.946" transform="translate(8112.715 -7823.28)" fill="#fff"/>
      <rect id="Rectángulo_410564" data-name="Rectángulo 410564" width="30.057" height="0.946" transform="translate(8112.713 -7818.838)" fill="#fff"/>
      <rect id="Rectángulo_410565" data-name="Rectángulo 410565" width="30.057" height="0.946" transform="translate(8112.713 -7814.396)" fill="#fff"/>
      <rect id="Rectángulo_410566" data-name="Rectángulo 410566" width="32.034" height="11.153" transform="translate(8106.68 -7868.792)" fill="#252a5e"/>
      <rect id="Rectángulo_410567" data-name="Rectángulo 410567" width="33.64" height="3.78" transform="translate(8105.876 -7859.246)" fill="#383d84"/>
    </g>
    <rect id="Rectángulo_410568" data-name="Rectángulo 410568" width="24.209" height="38.301" transform="translate(1048.299 3864.524)" fill="#7b85e8"/>
    <rect id="Rectángulo_410569" data-name="Rectángulo 410569" width="25.293" height="7.588" transform="translate(1047.76 3859.736)" fill="#d35d57"/>
    <rect id="Rectángulo_410570" data-name="Rectángulo 410570" width="26.467" height="1.762" transform="translate(1047.172 3866.443)" fill="#fff"/>
    <rect id="Rectángulo_410571" data-name="Rectángulo 410571" width="17.615" height="20.934" transform="translate(1048.297 3873.286)" fill="#6265ce"/>
    <path id="Trazado_911833" data-name="Trazado 911833" d="M297.672,3.19c-12.3,8.014-29.322,7.018-29.322,7.018L269.6,38.776a26.974,26.974,0,0,0,14.761,22.889l13.335,6.754,13.331-6.762a26.975,26.975,0,0,0,14.746-22.9L327,10.191s-17.023,1.006-29.327-7" transform="translate(813.395 3822.133)" fill="#ffb552"/>
    <path id="Trazado_911834" data-name="Trazado 911834" d="M287.553,59.759A23.082,23.082,0,0,1,274.938,40.2L273.87,15.72c5.829-.208,16.263-1.344,25.227-6.36,8.968,5.011,19.4,6.141,25.231,6.345l-1.053,24.477a23.082,23.082,0,0,1-12.6,19.568l-11.559,5.863Z" transform="translate(811.97 3820.541)" fill="#f78721"/>
    <path id="Trazado_911835" data-name="Trazado 911835" d="M315.282,37.012l-8.249,0,0-8.249-6.2,0,0,8.249-8.249,0v6.2l8.249,0,0,8.249,6.2,0,0-8.249,8.249,0Z" transform="translate(807.142 3815.534)" fill="#fff"/>
    <g id="Grupo_1122336" data-name="Grupo 1122336" transform="translate(-7217.981 11675.444)">
      <path id="Trazado_911836" data-name="Trazado 911836" d="M68.378,87.7C54.129,84.592,41.353,76.451,33.7,65.243l2.248-1.537c8.861,12.976,24.994,21.624,42.1,22.573,15.653.868,32.237-4.274,46.7-14.477,4.939-3.484,9.617-7.53,14.14-11.442,2.271-1.964,4.618-4,6.981-5.94,6.07-5,14.266-11.139,23.839-14.31,9.878-3.274,19.993-2.767,27.752,1.393,9.027,4.838,14.4,14.98,12.772,24.118l-2.68-.478c1.426-8.01-3.358-16.943-11.378-21.241-7.1-3.805-16.437-4.247-25.61-1.209-9.145,3.03-17.076,8.982-22.965,13.828-2.335,1.924-4.67,3.943-6.93,5.9-4.573,3.955-9.3,8.046-14.351,11.608C111.355,84.583,94.159,89.9,77.9,89a60.181,60.181,0,0,1-9.518-1.3" transform="translate(8039.771 -7862.084)" fill="#162a45"/>
      <path id="Trazado_911837" data-name="Trazado 911837" d="M194.506,69.219a12.223,12.223,0,1,1-9.336-14.547,12.223,12.223,0,0,1,9.336,14.547" transform="translate(8065.517 -7858.991)" fill="#4d52a8"/>
      <path id="Trazado_911838" data-name="Trazado 911838" d="M187.533,66.936a6.082,6.082,0,1,1-4.646-7.24,6.082,6.082,0,0,1,4.646,7.24" transform="translate(8066.491 -7858.018)" fill="#252a5e"/>
      <path id="Trazado_911839" data-name="Trazado 911839" d="M27.317,69.855a10.635,10.635,0,0,1-6.561-5.548L.614,22.678a6.1,6.1,0,0,1,3.074-8.263L9.7,11.823l1.079,2.5L4.769,16.915a3.383,3.383,0,0,0-1.7,4.578L23.207,63.122a7.893,7.893,0,0,0,6.46,4.414l10.783.85L49.524,62.5A7.891,7.891,0,0,0,53.1,55.539l-2.132-46.2a3.382,3.382,0,0,0-3.679-3.212l-6.515.584L40.53,4l6.515-.584a6.105,6.105,0,0,1,6.642,5.8l2.132,46.2a10.621,10.621,0,0,1-4.813,9.369l-9.848,6.389-11.7-.922a10.526,10.526,0,0,1-2.137-.395" transform="translate(8033.422 -7868.6)" fill="#383d84"/>
      <path id="Trazado_911840" data-name="Trazado 911840" d="M55.732,51.3,54.514,24.9l-1.616.406c-.893.226-1.773.421-2.617.578l-1.162.22L50.292,51.55A6.526,6.526,0,0,1,47.336,57.3L38.649,62.94l-10.323-.814a6.524,6.524,0,0,1-5.342-3.65L12.318,36.428,7.684,39.354l10.4,21.493A11.971,11.971,0,0,0,27.9,67.554l12.163.959L50.3,61.874A11.989,11.989,0,0,0,55.732,51.3" transform="translate(8034.87 -7864.547)" fill="#162a45"/>
      <path id="Trazado_911841" data-name="Trazado 911841" d="M10.067,8.574,5.846,10.415a3.013,3.013,0,1,0,2.409,5.523L12.476,14.1a1.188,1.188,0,0,0,.613-1.564L11.63,9.187a1.187,1.187,0,0,0-1.563-.613" transform="translate(8034.183 -7867.643)" fill="#4d52a8"/>
      <path id="Trazado_911842" data-name="Trazado 911842" d="M32.042,3.1l4.55-.706a3.012,3.012,0,1,1,.925,5.953l-4.55.706a1.186,1.186,0,0,1-1.356-.991l-.56-3.606A1.188,1.188,0,0,1,32.042,3.1" transform="translate(8039.27 -7868.794)" fill="#4d52a8"/>
      <path id="Trazado_911843" data-name="Trazado 911843" d="M140.623,72.62h-8.8v-8.8H123.96v8.8h-8.8v7.864h8.8v8.8h7.864v-8.8h8.8Z" transform="translate(8055.121 -7857.214)" fill="#fff"/>
      <path id="Trazado_911844" data-name="Trazado 911844" d="M156.888,84.119h-5.183V78.937h-4.63v5.183h-5.183v4.631h5.183v5.183h4.63V88.751h5.183Z" transform="translate(8060.157 -7854.366)" fill="#fff"/>
    </g>
    <rect id="Rectángulo_410572" data-name="Rectángulo 410572" width="474.344" height="91.555" transform="translate(810 3819.451)" fill="none"/>
  </g>
</svg>
