<svg xmlns="http://www.w3.org/2000/svg" width="144.162" height="144.161" viewBox="0 0 144.162 144.161">
  <g id="img14" transform="translate(-307.664 -4469.839)">
    <rect id="Rectángulo_401345" data-name="Rectángulo 401345" width="126" height="126" transform="translate(316.664 4479)" fill="#fff"/>
    <path id="Sustracción_141" data-name="Sustracción 141" d="M19166.113,11844.16l-124.449-19.712,19.715-124.449,124.447,19.713-19.713,124.448v0h0v0Zm-97.256-133.861-16.9,106.667,106.672,16.9,16.9-106.672-106.672-16.891Z" transform="translate(-18734 -7230.16)" fill="#59c4c8"/>
    <g id="Grupo_1099758" data-name="Grupo 1099758" transform="translate(337.469 4500.701)">
      <rect id="Rectángulo_401104" data-name="Rectángulo 401104" width="84.031" height="84.031" transform="translate(0 0)" fill="none"/>
      <g id="Library-Woman-Education-School-Book" transform="translate(-3 -3.224)">
        <path id="Trazado_912336" data-name="Trazado 912336" d="M32.386,19v5.8H15A5.788,5.788,0,0,1,20.8,19Z" transform="translate(5.386 7.181)" fill="#c49a6c"/>
        <path id="Trazado_912337" data-name="Trazado 912337" d="M18.691,20.7a5.831,5.831,0,0,1,1.7,4.1H3V19H14.591A5.831,5.831,0,0,1,18.691,20.7Z" transform="translate(0 7.181)" fill="#c49a6c"/>
        <path id="Trazado_912338" data-name="Trazado 912338" d="M32.386,3V26.181H20.8a5.788,5.788,0,0,0-5.8,5.8V8.8A5.8,5.8,0,0,1,20.8,3Z" transform="translate(5.386)" fill="#e6e7e8"/>
        <path id="Trazado_912339" data-name="Trazado 912339" d="M20.386,8.8V31.976a5.788,5.788,0,0,0-5.8-5.8H3V3H14.591A5.8,5.8,0,0,1,20.386,8.8Z" fill="#d1d3d4"/>
        <path id="Trazado_912340" data-name="Trazado 912340" d="M29.606,23.159l2.1-.609c.478,2.028,2.84,3.55,5.679,3.55s5.2-1.521,5.679-3.55l2.1.609,2.043.58A5.787,5.787,0,0,1,51.236,27.9l3.535,15.589H48.817L45.63,36.879a1.757,1.757,0,0,1-.275.42,2.682,2.682,0,0,0-.724,1.7v4.491H30.142V38.994a2.682,2.682,0,0,0-.724-1.7,1.757,1.757,0,0,1-.275-.42l-3.187,6.607H20L23.535,27.9a5.787,5.787,0,0,1,4.028-4.158Z" transform="translate(7.63 8.774)" fill="#3d9ae2"/>
        <path id="Trazado_912341" data-name="Trazado 912341" d="M44.933,22.024a2.817,2.817,0,0,0,.8-1.985,2.867,2.867,0,0,0-1.174-2.318,3.868,3.868,0,0,1-1.724-3.086v-.043A7.508,7.508,0,0,0,35.328,7a7.23,7.23,0,0,0-6.983,7.244v.377a3.852,3.852,0,0,1-1.71,3.086,2.867,2.867,0,0,0-1.188,2.333,2.816,2.816,0,0,0,.8,1.985,4.346,4.346,0,0,0,1.565,8.113l2.1-.609c.478,2.028,2.84,3.55,5.679,3.55s5.2-1.521,5.679-3.55l2.1.609a4.346,4.346,0,0,0,1.565-8.113Z" transform="translate(9.427 1.795)" fill="#57565c"/>
        <path id="Trazado_912342" data-name="Trazado 912342" d="M39.439,24.386c-.478,2.028-2.84,3.55-5.679,3.55s-5.2-1.521-5.679-3.55l2.782-.8V18.46a5.758,5.758,0,0,0,5.8,0v5.129Z" transform="translate(11.256 6.939)" fill="#ffc477"/>
        <path id="Trazado_912343" data-name="Trazado 912343" d="M7,41H79.441V69.976H7Z" transform="translate(1.795 17.055)" fill="#a97c50"/>
        <path id="Trazado_912344" data-name="Trazado 912344" d="M87.031,37v5.8H3V37Z" transform="translate(0 15.26)" fill="#a97c50"/>
        <path id="Trazado_912345" data-name="Trazado 912345" d="M63.386,25v5.8H48.9a2.9,2.9,0,1,1,0-5.8Z" transform="translate(19.299 9.874)" fill="#8b5e3c"/>
        <path id="Trazado_912346" data-name="Trazado 912346" d="M63.488,29a2.9,2.9,0,1,1,0,5.8H49V29Z" transform="translate(20.645 11.669)" fill="#ff9811"/>
        <path id="Trazado_912347" data-name="Trazado 912347" d="M66.429,33.855a2.832,2.832,0,0,1,.855,2.043,2.906,2.906,0,0,1-2.9,2.9H47V33H64.386A2.832,2.832,0,0,1,66.429,33.855Z" transform="translate(19.748 13.464)" fill="#3d9ae2"/>
        <rect id="Rectángulo_410615" data-name="Rectángulo 410615" width="30" height="15" rx="1" transform="translate(29.859 63.172)" fill="#c49a6c"/>
        <path id="Trazado_912348" data-name="Trazado 912348" d="M7,41H79.441v2.9H7Z" transform="translate(1.795 17.055)" fill="#8b5e3c"/>
        <path id="Trazado_912349" data-name="Trazado 912349" d="M35.8,18.46v2.9a5.758,5.758,0,0,1-5.8,0v-2.9A5.758,5.758,0,0,0,35.8,18.46Z" transform="translate(12.118 6.939)" fill="#ffb655"/>
        <path id="Trazado_912350" data-name="Trazado 912350" d="M39.591,13.1v4.245A5.787,5.787,0,0,1,30.9,22.359a6.121,6.121,0,0,1-1.2-.913,5.831,5.831,0,0,1-1.7-4.1V15.8C31.825,15.3,33.839,13,38.142,13a10.475,10.475,0,0,1,1.449.1Z" transform="translate(11.22 4.488)" fill="#ffc477"/>
        <path id="Trazado_912351" data-name="Trazado 912351" d="M29.348,41.488h-2.9V37a1.3,1.3,0,0,0-.384-.762A5.368,5.368,0,0,1,25,32.8a5.375,5.375,0,0,1,1.065-3.444,1.292,1.292,0,0,0,.384-.758V27h2.9v1.594a4.042,4.042,0,0,1-1.078,2.643,3.477,3.477,0,0,0,0,3.122A4.048,4.048,0,0,1,29.348,37Z" transform="translate(9.872 10.772)" fill="#1e81ce"/>
        <path id="Trazado_912352" data-name="Trazado 912352" d="M38.9,41.488H36V37a4.042,4.042,0,0,1,1.078-2.643,3.477,3.477,0,0,0,0-3.122A4.048,4.048,0,0,1,36,28.594V27h2.9v1.594a1.3,1.3,0,0,0,.384.762A5.368,5.368,0,0,1,40.346,32.8a5.375,5.375,0,0,1-1.065,3.444A1.292,1.292,0,0,0,38.9,37Z" transform="translate(14.811 10.772)" fill="#1e81ce"/>
        <g id="Grupo_1122217" data-name="Grupo 1122217" transform="translate(7.346 7.346)">
          <path id="Trazado_912353" data-name="Trazado 912353" d="M6,6h8.693V8.9H6Z" transform="translate(-6 -6)" fill="#bcbec0"/>
          <path id="Trazado_912354" data-name="Trazado 912354" d="M6,10h8.693v2.9H6Z" transform="translate(-6 -4.205)" fill="#bcbec0"/>
          <path id="Trazado_912355" data-name="Trazado 912355" d="M6,14h8.693v2.9H6Z" transform="translate(-6 -2.409)" fill="#bcbec0"/>
          <path id="Trazado_912356" data-name="Trazado 912356" d="M18,6h8.693V8.9H18Z" transform="translate(-0.614 -6)" fill="#bcbec0"/>
          <path id="Trazado_912357" data-name="Trazado 912357" d="M18,10h8.693v2.9H18Z" transform="translate(-0.614 -4.205)" fill="#bcbec0"/>
          <path id="Trazado_912358" data-name="Trazado 912358" d="M18,14h8.693v2.9H18Z" transform="translate(-0.614 -2.409)" fill="#bcbec0"/>
        </g>
        <path id="Trazado_912359" data-name="Trazado 912359" d="M31,49h2.9v2.9H31Z" transform="translate(12.567 20.645)" fill="#a97c50"/>
        <path id="Trazado_912360" data-name="Trazado 912360" d="M35,49h2.9v2.9H35Z" transform="translate(14.362 20.645)" fill="#a97c50"/>
        <path id="Trazado_912361" data-name="Trazado 912361" d="M27,49h2.9v2.9H27Z" transform="translate(10.772 20.645)" fill="#a97c50"/>
      </g>
    </g>
  </g>
</svg>
