<svg xmlns="http://www.w3.org/2000/svg" width="144.162" height="144.161" viewBox="0 0 144.162 144.161">
  <g id="img25" transform="translate(-307.664 -4469.839)">
    <rect id="Rectángulo_401345" data-name="Rectángulo 401345" width="126" height="126" transform="translate(316.664 4479)" fill="#fff"/>
    <path id="Sustracción_141" data-name="Sustracción 141" d="M19166.113,11844.16l-124.449-19.712,19.715-124.449,124.447,19.713-19.713,124.448v0h0v0Zm-97.256-133.861-16.9,106.667,106.672,16.9,16.9-106.672-106.672-16.891Z" transform="translate(-18734 -7230.16)" fill="#59c4c8"/>
    <g id="Grupo_1099758" data-name="Grupo 1099758" transform="translate(337.469 4500.701)">
      <rect id="Rectángulo_401104" data-name="Rectángulo 401104" width="84.031" height="84.031" transform="translate(0 0)" fill="none"/>
      <g id="Grupo_1122249" data-name="Grupo 1122249" transform="translate(-4 -4)">
        <path id="Trazado_912392" data-name="Trazado 912392" d="M78.02,41.836V66.091a3,3,0,0,1-3,3H27a3,3,0,0,1-3-3V41.836Z" transform="translate(10.011 18.939)" fill="#1565c0" fill-rule="evenodd"/>
        <path id="Trazado_912393" data-name="Trazado 912393" d="M83.026,25.819V56.1H17a3,3,0,0,1-3-3V25.819Z" transform="translate(5.006 10.922)" fill="#1976d2" fill-rule="evenodd"/>
        <path id="Trazado_912394" data-name="Trazado 912394" d="M85.03,4a3,3,0,0,1,3,3V40.013H7a3,3,0,0,1-3-3V7A3,3,0,0,1,7,4H85.03Z" transform="translate(0 0)" fill="#1e88e5" fill-rule="evenodd"/>
        <path id="Trazado_912395" data-name="Trazado 912395" d="M27.5,47.006A7.5,7.5,0,1,0,20,39.5,7.5,7.5,0,0,0,27.5,47.006Z" transform="translate(8.009 14.016)" fill="#fbc02d"/>
        <path id="Trazado_912396" data-name="Trazado 912396" d="M34.5,59A4.5,4.5,0,1,0,30,54.5,4.5,4.5,0,0,0,34.5,59Z" transform="translate(13.015 23.026)" fill="#fbc02d"/>
        <g id="Grupo_1122248" data-name="Grupo 1122248" transform="translate(13.003 11.503)">
          <path id="Trazado_912397" data-name="Trazado 912397" d="M20.5,9l3.246,6.916,7.258,1.107-5.252,5.382,1.24,7.6L20.5,26.42l-6.492,3.586,1.24-7.6L10,17.023l7.258-1.107Z" transform="translate(-10 -9)" fill="#fbc02d" fill-rule="evenodd"/>
          <path id="Trazado_912398" data-name="Trazado 912398" d="M30.375,14.5a1.125,1.125,0,1,1,0-2.251H66.389a1.125,1.125,0,1,1,0,2.251Z" transform="translate(-0.364 -7.373)" fill="#eceef0" fill-rule="evenodd"/>
          <path id="Trazado_912399" data-name="Trazado 912399" d="M30.375,20.5a1.125,1.125,0,1,1,0-2.251H66.389a1.125,1.125,0,1,1,0,2.251Z" transform="translate(-0.364 -4.37)" fill="#eceef0" fill-rule="evenodd"/>
          <path id="Trazado_912400" data-name="Trazado 912400" d="M36.375,38.5a1.125,1.125,0,0,1,0-2.251h27.01a1.125,1.125,0,1,1,0,2.251Z" transform="translate(2.639 4.64)" fill="#eceef0" fill-rule="evenodd"/>
          <path id="Trazado_912401" data-name="Trazado 912401" d="M42.375,54.5a1.125,1.125,0,1,1,0-2.251H60.382a1.125,1.125,0,1,1,0,2.251Z" transform="translate(5.642 12.649)" fill="#eceef0" fill-rule="evenodd"/>
        </g>
      </g>
    </g>
  </g>
</svg>
