<svg xmlns="http://www.w3.org/2000/svg" width="109" height="109" viewBox="0 0 109 109">
  <g id="img2" transform="translate(-285 -942.968)">
    <g id="Rectángulo_401426" data-name="Rectángulo 401426" transform="translate(285 942.968)" fill="#2a5f61" stroke="#707070" stroke-width="1">
      <rect width="109" height="109" stroke="none"/>
      <rect x="0.5" y="0.5" width="108" height="108" fill="none"/>
    </g>
    <g id="Grupo_1098917" data-name="Grupo 1098917" transform="translate(-105.466 -5079.184)">
      <path id="Trazado_873216" data-name="Trazado 873216" d="M0,0H71.062V71.063H0Z" transform="translate(408.527 6040.213)" fill="none"/>
      <g id="Layer_2" transform="translate(407.527 6039.651)">
        <path id="Trazado_912265" data-name="Trazado 912265" d="M45.7,42.969a6.877,6.877,0,1,0-6.877-6.877A6.9,6.9,0,0,0,45.7,42.969Zm0-11.462a4.585,4.585,0,1,1-4.585,4.585A4.6,4.6,0,0,1,45.7,31.508Zm13.754,8.023a3.438,3.438,0,1,0-3.438-3.438A3.377,3.377,0,0,0,59.454,39.531Zm0-4.585a1.146,1.146,0,1,1-1.146,1.146A1.083,1.083,0,0,1,59.454,34.946ZM23.923,10.3a6.3,6.3,0,1,0-12.608,0,6.3,6.3,0,0,0,12.608,0Zm-6.3,4.012A4.012,4.012,0,1,1,21.631,10.3,4.061,4.061,0,0,1,17.619,14.315Zm54.442,8.023H32.978a6.816,6.816,0,0,0-5.616-5.616l-1.146-.115H7.877l-1.146.115A6.9,6.9,0,0,0,1,23.485V38.958a4.061,4.061,0,0,0,4.012,4.012,3.234,3.234,0,0,0,1.719-.458V63.6a4.585,4.585,0,1,0,9.169,0V44.115h2.292V63.6a4.585,4.585,0,1,0,9.169,0V49.846h44.7ZM33.092,28.069H60.715a6.816,6.816,0,0,0,5.616,5.616V38.5a6.816,6.816,0,0,0-5.616,5.616H30.685l-.344-1.375a4.067,4.067,0,0,0,2.751-3.782ZM30.8,23.485V38.958a1.719,1.719,0,0,1-3.438,0V19.015A4.675,4.675,0,0,1,30.8,23.485ZM5.012,40.677a1.763,1.763,0,0,1-1.719-1.719V23.485a4.675,4.675,0,0,1,3.438-4.47V38.958A1.763,1.763,0,0,1,5.012,40.677ZM25.069,63.6a2.292,2.292,0,0,1-4.585,0V41.823H13.608V63.6a2.292,2.292,0,0,1-4.585,0V18.9H25.069V63.6Zm44.7-16.046H27.362V42.511a.421.421,0,0,1,.344.115c.115.115.115.229.229.229a5.217,5.217,0,0,1,.573,2.292v1.146H62.892V45.147a4.6,4.6,0,0,1,4.585-4.585h1.146V31.393H67.477a4.6,4.6,0,0,1-4.585-4.585V25.662h-29.8V24.516H69.769Z" fill="#fff"/>
      </g>
    </g>
  </g>
</svg>
