<svg xmlns="http://www.w3.org/2000/svg" width="129.998" height="130" viewBox="0 0 129.998 130">
  <g id="img34" transform="translate(-810 -3680.17)">
    <rect id="Rectángulo_401362" data-name="Rectángulo 401362" width="106.336" height="106.337" transform="translate(821.664 3692.168)" fill="#fff"/>
    <g id="Grupo_1099788" data-name="Grupo 1099788" transform="translate(838.819 3708.303)">
      <rect id="Rectángulo_401104" data-name="Rectángulo 401104" width="73.372" height="73.372" transform="translate(0 0)" fill="none"/>
      <g id="Grupo_1099356" data-name="Grupo 1099356" transform="translate(2.09 1.968)">
        <path id="Trazado_608993" data-name="Trazado 608993" d="M34.738,0,0,23.406v.023l34.649,23.41L69.363,23.2Z" transform="translate(0 0)" fill="#2a9ed1"/>
        <path id="Trazado_608994" data-name="Trazado 608994" d="M8.758,5.2V56.522L11.2,59.113,14.146,56l2.941,3.115L20.03,56l2.941,3.115L25.912,56l2.942,3.115L31.8,56l1.243,1.317V5.2Z" transform="translate(1.671 0.993)" fill="#fff3b8"/>
        <path id="Trazado_608995" data-name="Trazado 608995" d="M29.149,5.2V57.315l1.7,1.8L33.788,56l2.942,3.115L39.672,56l2.941,3.115L45.555,56,48.5,59.113,51.44,56l2.16,2.289V5.2Z" transform="translate(5.562 0.993)" fill="#f6e381"/>
        <path id="Trazado_608996" data-name="Trazado 608996" d="M37.3,13.582h2.678V8.9H29.1v4.677h8.2Z" transform="translate(5.552 1.699)" fill="#1e2d4f"/>
        <rect id="Rectángulo_377588" data-name="Rectángulo 377588" width="11.71" height="4.677" transform="translate(22.94 10.604)" fill="#2d4375"/>
        <rect id="Rectángulo_377589" data-name="Rectángulo 377589" width="21.9" height="4.677" transform="translate(12.75 18.511)" fill="#2d4375"/>
        <path id="Trazado_608997" data-name="Trazado 608997" d="M45.074,20.222h5.094V15.545H29.1v4.677H45.074Z" transform="translate(5.552 2.966)" fill="#1e2d4f"/>
        <path id="Trazado_608998" data-name="Trazado 608998" d="M39.979,27.2h10.19V22.519H29.1V27.2Z" transform="translate(5.552 4.296)" fill="#1e2d4f"/>
        <rect id="Rectángulo_377590" data-name="Rectángulo 377590" width="21.9" height="4.677" transform="translate(12.75 26.815)" fill="#2d4375"/>
        <rect id="Rectángulo_377591" data-name="Rectángulo 377591" width="21.9" height="4.677" transform="translate(12.75 35.041)" fill="#2d4375"/>
        <path id="Trazado_608999" data-name="Trazado 608999" d="M39.979,34.1h10.19V29.427H29.1V34.1Z" transform="translate(5.552 5.614)" fill="#1e2d4f"/>
        <path id="Trazado_609000" data-name="Trazado 609000" d="M29.1,43.122,63.827,66.587V19.494l-.015-.01Z" transform="translate(5.552 3.717)" fill="#2a9ed1"/>
        <path id="Trazado_609001" data-name="Trazado 609001" d="M0,19.776v46.9L34.649,43.085,0,19.675Z" transform="translate(0 3.754)" fill="#62c3ed"/>
        <path id="Trazado_609002" data-name="Trazado 609002" d="M0,62.839v.107H34.649v-23.7Z" transform="translate(0 7.487)" fill="#2a9ed1"/>
        <path id="Trazado_609003" data-name="Trazado 609003" d="M29.1,62.946H63.827v-.237L29.1,39.245Z" transform="translate(5.552 7.487)" fill="#62c3ed"/>
      </g>
    </g>
    <g id="Grupo_1099787" data-name="Grupo 1099787" transform="translate(810 3680.17)">
      <rect id="Rectángulo_401345" data-name="Rectángulo 401345" width="114.924" height="114.925" transform="translate(7.471 7.604)" fill="#fff"/>
      <path id="Sustracción_141" data-name="Sustracción 141" d="M112.224,130h0L0,112.223,17.775,0,130,17.774,112.224,130ZM24.521,9.286,9.285,105.477l96.191,15.235,15.235-96.191Z" transform="translate(0 0)" fill="#9ac1df"/>
      <g id="Grupo_1099758" data-name="Grupo 1099758" transform="translate(32.633 33.674)">
        <rect id="Rectángulo_401104-2" data-name="Rectángulo 401104" width="64.22" height="64.22" transform="translate(0 0)" fill="none"/>
        <g id="Grupo_1122197" data-name="Grupo 1122197" transform="translate(-14.522 -0.313)">
          <path id="Trazado_912259" data-name="Trazado 912259" d="M304.211,44.158H290.026a2.026,2.026,0,0,1,0-4.053,4.058,4.058,0,0,0,4.053-4.053,3.615,3.615,0,0,0-.237-1.32,2.027,2.027,0,0,1,1.9-2.733h12.523a2.026,2.026,0,1,1,0,4.053,2.028,2.028,0,0,0-2.026,2.026v4.053A2.025,2.025,0,0,1,304.211,44.158Z" transform="translate(-237.551 -27.947)" fill="#d92c48"/>
          <path id="Trazado_912260" data-name="Trazado 912260" d="M208.444,92.79a6.069,6.069,0,0,1-5.941-7.284l3.75-18.758c-1.575-5.27-3.243-10.779-4.381-14.308a6.05,6.05,0,0,1,2.67-7.061l8.264-4.983a2.036,2.036,0,0,1,1.047-.291H226.7V38.079a6.079,6.079,0,1,1,12.158,0v8.106a6.086,6.086,0,0,1-6.079,6.079H226.7V66.043L230.631,85.5a6.08,6.08,0,0,1-11.915,2.432l-2.149-10.75L214.42,87.922A6.12,6.12,0,0,1,208.444,92.79Z" transform="translate(-162.065 -27.947)" fill="#4db5ff"/>
          <path id="Trazado_912261" data-name="Trazado 912261" d="M52.475,45.16a4.065,4.065,0,0,1-4.053-4.053,5.568,5.568,0,0,1,.081-.891,2.076,2.076,0,0,0-.811-2.067,2.106,2.106,0,0,0-2.229-.081L37.2,43.012a1.787,1.787,0,0,0-.932,2.148,4.065,4.065,0,0,1-4.053,4.053,3.544,3.544,0,0,1-2.27-.73,2.01,2.01,0,0,0-2.391-.122l-8.795,5.917A6.076,6.076,0,0,0,16,59.345v8.106a6.079,6.079,0,0,0,12.158,0V62.709l2.026,6-5.025,7.538a5.81,5.81,0,0,0-1.054,3.364V91.768a6.079,6.079,0,0,0,12.158,0V81.433l2.026-3.04L41.816,83.7l4.053-20.386c-.811-2.715-1.581-5.147-2.188-7.052a.04.04,0,0,0-.041-.041,2.012,2.012,0,0,1,.932-2.31l7.781-4.7h.122a2.026,2.026,0,0,0,0-4.053Z" transform="translate(0 -33.002)" fill="#d92c48"/>
          <g id="Grupo_1122196" data-name="Grupo 1122196" transform="translate(44.37)">
            <path id="Trazado_912262" data-name="Trazado 912262" d="M400,192v.081l6.079-.081Z" transform="translate(-379.736 -167.683)" fill="#4db5ff"/>
            <path id="Trazado_912263" data-name="Trazado 912263" d="M248.106,16.211A8.114,8.114,0,0,1,240,8.106a8.519,8.519,0,0,1,.164-1.7,8.106,8.106,0,0,1,15.572-.984,7.62,7.62,0,0,1,.475,2.687A8.114,8.114,0,0,1,248.106,16.211Z" transform="translate(-240)" fill="#4db5ff"/>
          </g>
          <path id="Trazado_912264" data-name="Trazado 912264" d="M88.106,48.211A7.619,7.619,0,0,1,83.323,46.6,7.868,7.868,0,0,1,80,40.106a8.092,8.092,0,0,1,16.154-.712,3.644,3.644,0,0,1,.057.712A8.114,8.114,0,0,1,88.106,48.211Z" transform="translate(-55.894 -27.947)" fill="#f23051"/>
        </g>
      </g>
    </g>
  </g>
</svg>
