<svg xmlns="http://www.w3.org/2000/svg" width="109" height="109" viewBox="0 0 109 109">
  <g id="img3" transform="translate(-285 -1106.968)">
    <g id="Rectángulo_401427" data-name="Rectángulo 401427" transform="translate(285 1106.968)" fill="#2a5f61" stroke="#707070" stroke-width="1">
      <rect width="109" height="109" stroke="none"/>
      <rect x="0.5" y="0.5" width="108" height="108" fill="none"/>
    </g>
    <g id="Grupo_1099806" data-name="Grupo 1099806" transform="translate(-105.466 -4915.184)">
      <path id="Trazado_873216" data-name="Trazado 873216" d="M0,0H71.062V71.063H0Z" transform="translate(408.527 6040.213)" fill="none"/>
      <g id="Grupo_1122204" data-name="Grupo 1122204" transform="translate(405.407 6040.213)">
        <g id="Grupo_1122198" data-name="Grupo 1122198" transform="translate(22.836 25.431)">
          <path id="Trazado_912266" data-name="Trazado 912266" d="M21.965,24.511a.555.555,0,1,1,0-1.111H47.641a.555.555,0,0,1,0,1.111Z" transform="translate(-20.855 -22.845)" fill="#fff"/>
          <path id="Trazado_912267" data-name="Trazado 912267" d="M47.7,22.9H22.021a1.111,1.111,0,0,0,0,2.221H47.7a1.111,1.111,0,0,0,0-2.221Z" transform="translate(-20.91 -22.9)" fill="#fff"/>
        </g>
        <g id="Grupo_1122199" data-name="Grupo 1122199" transform="translate(22.836 32.616)">
          <path id="Trazado_912268" data-name="Trazado 912268" d="M21.965,30.981a.555.555,0,1,1,0-1.111H47.641a.555.555,0,1,1,0,1.111Z" transform="translate(-20.855 -29.315)" fill="#fff"/>
          <path id="Trazado_912269" data-name="Trazado 912269" d="M47.7,29.37H22.021a1.111,1.111,0,0,0,0,2.221H47.7a1.111,1.111,0,0,0,0-2.221Z" transform="translate(-20.91 -29.37)" fill="#fff"/>
        </g>
        <g id="Grupo_1122200" data-name="Grupo 1122200" transform="translate(22.836 39.801)">
          <path id="Trazado_912270" data-name="Trazado 912270" d="M21.965,37.451a.555.555,0,1,1,0-1.111H47.641a.555.555,0,0,1,0,1.111Z" transform="translate(-20.855 -35.785)" fill="#fff"/>
          <path id="Trazado_912271" data-name="Trazado 912271" d="M47.7,35.84H22.021a1.111,1.111,0,0,0,0,2.221H47.7a1.111,1.111,0,0,0,0-2.221Z" transform="translate(-20.91 -35.84)" fill="#fff"/>
        </g>
        <g id="Grupo_1122201" data-name="Grupo 1122201" transform="translate(22.836 46.986)">
          <path id="Trazado_912272" data-name="Trazado 912272" d="M21.965,43.921a.555.555,0,1,1,0-1.111H47.641a.555.555,0,1,1,0,1.111Z" transform="translate(-20.855 -42.255)" fill="#fff"/>
          <path id="Trazado_912273" data-name="Trazado 912273" d="M47.7,42.31H22.021a1.111,1.111,0,0,0,0,2.221H47.7a1.111,1.111,0,0,0,0-2.221Z" transform="translate(-20.91 -42.31)" fill="#fff"/>
        </g>
        <g id="Grupo_1122202" data-name="Grupo 1122202" transform="translate(22.929 52.106)">
          <path id="Trazado_912274" data-name="Trazado 912274" d="M34.437,52.372a.75.75,0,0,1-.155-.022.548.548,0,0,1-.378-.689,2.738,2.738,0,0,0-.189-2.521,2.8,2.8,0,0,0-2.066-.611,10.663,10.663,0,0,0-2.365.311,2.75,2.75,0,0,0-1,.466l-.966.711A3.869,3.869,0,0,1,25,50.773a4.158,4.158,0,0,1-.833-.089,3.938,3.938,0,0,1-2.588-1.921.512.512,0,0,1-.044-.422.567.567,0,0,1,.267-.333.591.591,0,0,1,.267-.067.565.565,0,0,1,.489.289,2.794,2.794,0,0,0,1.855,1.377,2.858,2.858,0,0,0,.611.067,2.786,2.786,0,0,0,1.655-.544l.966-.711a3.657,3.657,0,0,1,1.4-.644,11.282,11.282,0,0,1,2.632-.344,3.8,3.8,0,0,1,2.865.966c.755.788.911,2,.466,3.6a.652.652,0,0,1-.566.378Z" transform="translate(-20.937 -46.864)" fill="#fff"/>
          <path id="Trazado_912275" data-name="Trazado 912275" d="M31.7,48.031a3.524,3.524,0,0,1,2.354.677,3.524,3.524,0,0,0-2.354-.677,10.2,10.2,0,0,0-2.2.267,10.364,10.364,0,0,1,2.2-.267m-3.01.5a3.527,3.527,0,0,0-.689.389l-.966.711a2.363,2.363,0,0,1-.278.178c.1-.056.189-.122.278-.178L28,48.919a3.527,3.527,0,0,1,.689-.389m5.575.389a2.05,2.05,0,0,1,.389.777,2.05,2.05,0,0,0-.389-.777M24.2,50.163l.133.033c.078.011.155.033.233.044a1.723,1.723,0,0,1-.233-.044l-.133-.033m7.5-3.243a12.211,12.211,0,0,0-2.754.366,4.386,4.386,0,0,0-1.6.744l-.966.711a2.215,2.215,0,0,1-1.322.433,2.442,2.442,0,0,1-.489-.056,2.231,2.231,0,0,1-1.488-1.111,1.093,1.093,0,0,0-.966-.566,1.119,1.119,0,0,0-.977,1.655,4.433,4.433,0,0,0,2.954,2.188,4.65,4.65,0,0,0,.955.1,4.456,4.456,0,0,0,2.643-.866l.966-.711a2.4,2.4,0,0,1,.8-.378,9.846,9.846,0,0,1,2.243-.3,2.377,2.377,0,0,1,1.666.444c.422.444.222,1.433.056,1.988a1.124,1.124,0,0,0,.766,1.377.958.958,0,0,0,.311.044,1.123,1.123,0,0,0,1.066-.811c.511-1.8.311-3.187-.589-4.131A4.414,4.414,0,0,0,31.7,46.92Z" transform="translate(-20.994 -46.92)" fill="#fff"/>
        </g>
        <g id="Grupo_1122203" data-name="Grupo 1122203" transform="translate(3.484 0)">
          <path id="Trazado_912276" data-name="Trazado 912276" d="M18.018,70.463A8.574,8.574,0,0,1,9.456,61.9a.55.55,0,0,1,.555-.555h8.251V54.005L15.73,52.339a1.6,1.6,0,0,1-.155-.167l-.056-.078L4.381,32.794a3.082,3.082,0,0,1,5.342-3.076l8.54,14.792V21.367A4.341,4.341,0,0,1,22.6,17.025h.733V12.249a5.18,5.18,0,0,1,5.175-5.175h7.807l.167-.2A4.048,4.048,0,0,1,39.6,5.364h.522l.033-.522a4.64,4.64,0,0,1,9.262,0l.033.522h.522a4.013,4.013,0,0,1,3.109,1.51l.167.2h7.8a5.183,5.183,0,0,1,5.186,5.175V62.856a5.183,5.183,0,0,1-5.186,5.175H54.665L54.5,68.3a4.408,4.408,0,0,1-3.787,2.166Zm1.355-9.117H46.581a.55.55,0,0,1,.555.555V65.91a3.457,3.457,0,0,0,3.454,3.454h.133a3.322,3.322,0,0,0,3.32-3.32V21.389a.541.541,0,0,0,.011-.133,3.807,3.807,0,0,1,.067-.622,2.274,2.274,0,0,1,.056-.267,4.413,4.413,0,0,1,.167-.544l.067-.178A5.059,5.059,0,0,1,54.743,19l.566-.855H22.6a3.242,3.242,0,0,0-3.232,3.232V46.431l1.488,2.588.022.056a.71.71,0,0,1,.067.178l.022.133.322,5.564a.536.536,0,0,1-.278.511.614.614,0,0,1-.278.078.558.558,0,0,1-.3-.089l-1.077-.711v6.608ZM10.655,63.1a7.429,7.429,0,0,0,7.363,6.252H47.425l-.6-.866a4.556,4.556,0,0,1-.8-2.576V62.456H10.555Zm44.5,2.932c0,.044-.011.078-.011.122s-.011.122-.022.178l-.044.589H61.04a4.076,4.076,0,0,0,4.076-4.065V12.249A4.076,4.076,0,0,0,61.04,8.185H53.855l.1.633a3.811,3.811,0,0,1,.067.6v.722a.55.55,0,0,1-.555.555H36.108a.55.55,0,0,1-.555-.555V9.418a4.846,4.846,0,0,1,.056-.577l.1-.633-.644-.022H28.512a4.066,4.066,0,0,0-4.065,4.065v4.775H58.4a4.365,4.365,0,0,1,4.364,4.364v4.864a.55.55,0,0,1-.555.555H55.154ZM17.1,51.9l3.032,2.01-.222-3.631ZM7.057,29.274a1.873,1.873,0,0,0-.977.267,1.977,1.977,0,0,0-.722,2.7L16.252,51.107l3.409-1.977L8.756,30.262A1.955,1.955,0,0,0,7.057,29.274ZM58.4,18.135a3.243,3.243,0,0,0-2.91,1.821,1.309,1.309,0,0,0-.089.178l-.044.133a3.4,3.4,0,0,0-.211,1.133v4.309h6.5V21.4A3.244,3.244,0,0,0,58.4,18.135ZM39.607,6.475A2.928,2.928,0,0,0,36.7,8.94l-.111.644H52.955l-.111-.644a2.928,2.928,0,0,0-2.91-2.465H48.868a.55.55,0,0,1-.555-.555V5.142a3.531,3.531,0,1,0-7.063,0v.766a.55.55,0,0,1-.555.555H39.607Z" transform="translate(-3.431 0.055)" fill="#fff"/>
          <path id="Trazado_912277" data-name="Trazado 912277" d="M44.835,1.111h0m-.022,0h0m.044,0Zm-3.409,1.8a4.063,4.063,0,0,0-.7,2.288v.766h-.067l.067-1.033a4.085,4.085,0,0,1,.7-2.021m6.774,0a3.968,3.968,0,0,1,.689,2.021l.067,1.033h-.056V5.2a4.063,4.063,0,0,0-.7-2.288m4.742,4.7.067.078h1.51l-1.288.033.133.888a3.346,3.346,0,0,0-.422-1m-16.269,0a3.837,3.837,0,0,0-.433,1l.133-.922h.222ZM23.946,12.3v0Zm34.5,5.331a3.76,3.76,0,0,0-3.4,2.121.232.232,0,0,1-.044.067,3.721,3.721,0,0,1,.255-.478l1.122-1.721h2.066m-39.579,3.8V46.631l.144.255,1.377,2.377-.478-.833L9.3,30.04a2.414,2.414,0,0,0-.544-.655,2.594,2.594,0,0,1,.544.655l7.5,12.993,2.077,3.587v-25.2Zm35.781.033V26.3h0V21.455M6.767,28.8a2.73,2.73,0,0,0-.655.178,3.364,3.364,0,0,1,.655-.178m-1.9,1.355a2.534,2.534,0,0,0,.056,2.421L15.54,50.962l.5.866v-.011L4.923,32.572a2.505,2.505,0,0,1-.056-2.421M20.459,49.4l-1.544.9-.633.366-.633.366-1.544.888.955-.555,1.222-.711L19.5,49.94Zm.044.544.311,5.086-.133-2.221-.1-1.632Zm-4.342,2.021.988.644Zm2.71,1.788v0Zm26.653,8.207h0Zm20.2.955a4.633,4.633,0,0,1-4.631,4.62H54.4l-.122.211a3.717,3.717,0,0,0,.311-.977l-.056.766h6.552a4.635,4.635,0,0,0,4.642-4.62m-19.09,3.043h0m0,.022Zm0,.011v0m0,.011a4.012,4.012,0,0,0,4.009,3.965h-2.11l-1.2-1.744a4.045,4.045,0,0,1-.7-2.221m-1.8-66a5.208,5.208,0,0,0-5.186,4.864,4.606,4.606,0,0,0-3.543,1.71h-7.54a5.73,5.73,0,0,0-5.73,5.73v4.22h-.178a4.905,4.905,0,0,0-4.9,4.9V42.478l-7.5-12.993a3.647,3.647,0,0,0-3.154-1.821,3.549,3.549,0,0,0-1.81.489,3.644,3.644,0,0,0-1.333,4.964L15.14,52.461l.033.033a.925.925,0,0,0,.222.244c.022.022.044.033.067.056l.033.033,2.277,1.51v6.5H10.065a1.114,1.114,0,0,0-1.111,1.111,9.123,9.123,0,0,0,9.117,9.117h32.7a4.978,4.978,0,0,0,4.264-2.432h6.052a5.74,5.74,0,0,0,5.741-5.73V12.3a5.739,5.739,0,0,0-5.741-5.73H53.564a4.571,4.571,0,0,0-3.543-1.71A5.208,5.208,0,0,0,44.835,0ZM37.306,9.084a2.4,2.4,0,0,1,2.365-2h1.077a1.114,1.114,0,0,0,1.111-1.111V5.2a2.976,2.976,0,1,1,5.952,0v.766a1.114,1.114,0,0,0,1.111,1.111H50a2.4,2.4,0,0,1,2.365,2H37.306Zm-1.144,2.221H53.509a1.114,1.114,0,0,0,1.111-1.111V9.473a4.517,4.517,0,0,0-.067-.677h6.541a3.519,3.519,0,0,1,3.52,3.509V62.911a3.519,3.519,0,0,1-3.52,3.509H55.73c.011-.111.033-.222.033-.333V27.419h6.5a1.114,1.114,0,0,0,1.111-1.111V21.444a4.929,4.929,0,0,0-4.92-4.92H25.057V12.3A3.517,3.517,0,0,1,28.566,8.8h6.552a4.516,4.516,0,0,0-.067.677v.722a1.107,1.107,0,0,0,1.111,1.111ZM55.763,25.2V21.444a2.689,2.689,0,0,1,.178-.944l.033-.1c.022-.056.056-.1.078-.144a2.691,2.691,0,0,1,5.108,1.188V25.2Zm-1.421-6.452a5.057,5.057,0,0,0-.389.722,1.484,1.484,0,0,0-.078.2,3.886,3.886,0,0,0-.189.611l-.067.3a3.732,3.732,0,0,0-.067.7c0,.056-.011.1-.011.155V66.087a2.773,2.773,0,0,1-2.765,2.765h-.133a2.9,2.9,0,0,1-2.9-2.9V61.945a1.114,1.114,0,0,0-1.111-1.111H19.982v-5.02l.211.144a1.1,1.1,0,0,0,1.721-.988l-.333-5.641c0-.011-.011-.022-.011-.044s-.011-.056-.011-.078a1.108,1.108,0,0,0-.111-.322.067.067,0,0,1-.011-.044l-1.444-2.51V21.422a2.678,2.678,0,0,1,2.676-2.676ZM16.495,50.407,5.878,32.016A1.416,1.416,0,0,1,6.4,30.084a1.365,1.365,0,0,1,.711-.189,1.43,1.43,0,0,1,1.233.711L18.96,49l-1.222.711Zm3.065,2.476-1.366-.9.633-.366.633-.366Zm-.689,10.184H45.524v2.9a5.119,5.119,0,0,0,.9,2.9H18.072a6.912,6.912,0,0,1-6.808-5.786h7.6c0-.011,0-.011.011-.011Z" transform="translate(-3.484 0)" fill="#fff"/>
        </g>
      </g>
    </g>
  </g>
</svg>
