<svg xmlns="http://www.w3.org/2000/svg" xmlns:xlink="http://www.w3.org/1999/xlink" width="73" height="73" viewBox="0 0 73 73">
  <defs>
    <linearGradient id="linear-gradient" x1="0.5" x2="0.5" y2="1" gradientUnits="objectBoundingBox">
      <stop offset="0" stop-color="#ddf1ff"/>
      <stop offset="1" stop-color="#fff"/>
    </linearGradient>
    <clipPath id="clip-path">
      <rect id="Rectángulo_410610" data-name="Rectángulo 410610" width="41.926" height="41.926" fill="#445866"/>
    </clipPath>
  </defs>
  <g id="img3" transform="translate(-264.528 -6025.861)">
    <g id="Grupo_1099808" data-name="Grupo 1099808" transform="translate(264.663 6025.995)">
      <g id="Grupo_1099775" data-name="Grupo 1099775" transform="translate(0 0)">
        <g id="Grupo_1099770" data-name="Grupo 1099770">
          <rect id="Rectángulo_401345" data-name="Rectángulo 401345" width="61.989" height="61.989" transform="translate(5.324 5.419)" fill="url(#linear-gradient)"/>
          <path id="Sustracción_141" data-name="Sustracción 141" d="M63.019,73,0,63.018,9.984,0,73,9.982,63.019,73h0ZM13.771,5.215,5.213,59.229l54.017,8.555,8.556-54.016L13.77,5.215Z" transform="translate(-0.135 -0.134)" fill="#59c4c8"/>
        </g>
      </g>
      <g id="Grupo_1099776" data-name="Grupo 1099776" transform="translate(14.784 14.782)">
        <g id="Grupo_1099618" data-name="Grupo 1099618" transform="translate(0 0)">
          <rect id="Rectángulo_401104" data-name="Rectángulo 401104" width="42.655" height="43.169" transform="translate(0)" fill="none"/>
        </g>
        <g id="Grupo_1122159" data-name="Grupo 1122159" transform="translate(0.364 0.62)">
          <g id="Grupo_1122156" data-name="Grupo 1122156">
            <g id="Grupo_1122155" data-name="Grupo 1122155" clip-path="url(#clip-path)">
              <path id="Trazado_912088" data-name="Trazado 912088" d="M55.672,446.937h0a.614.614,0,0,1-.434-.18l-2.227-2.227a.614.614,0,0,1,0-.869l6.14-6.14a.614.614,0,0,1,.869,0l2.227,2.227a.614.614,0,0,1,0,.869l-6.14,6.14a.614.614,0,0,1-.434.18M54.314,444.1l1.358,1.358,5.272-5.272-1.358-1.358Z" transform="translate(-49.587 -410.482)" fill="#445866"/>
            </g>
          </g>
          <g id="Grupo_1122158" data-name="Grupo 1122158" transform="translate(0 0)">
            <g id="Grupo_1122157" data-name="Grupo 1122157" clip-path="url(#clip-path)">
              <path id="Trazado_912089" data-name="Trazado 912089" d="M7.77,530.709a2.174,2.174,0,0,1-1.548-.641L.656,524.5a2.189,2.189,0,0,1,3.1-3.1l5.567,5.567h0a2.189,2.189,0,0,1-1.548,3.736M2.2,521.994a.96.96,0,0,0-.679,1.639L7.091,529.2a.96.96,0,0,0,1.358-1.358l-5.567-5.567a.957.957,0,0,0-.679-.281" transform="translate(-0.015 -488.783)" fill="#445866"/>
              <path id="Trazado_912090" data-name="Trazado 912090" d="M122.549,373.027a2.174,2.174,0,0,1-1.548-.641l-8.57-8.569a2.189,2.189,0,0,1,3.1-3.1l8.569,8.57a2.189,2.189,0,0,1-1.548,3.736m-8.57-11.718a.96.96,0,0,0-.679,1.639l8.57,8.57a.96.96,0,0,0,1.358-1.358h0l-8.57-8.57a.957.957,0,0,0-.679-.281" transform="translate(-104.925 -337.966)" fill="#445866"/>
              <path id="Trazado_912091" data-name="Trazado 912091" d="M175.35,168.786a.614.614,0,0,1-.434-.18l-7.084-7.084a.614.614,0,0,1,0-.869l13.431-13.431a3.727,3.727,0,0,1,5.271,0l2.682,2.682a3.732,3.732,0,0,1,0,5.271l-13.431,13.431a.614.614,0,0,1-.434.18m-6.216-7.7,6.216,6.216,13-13a2.5,2.5,0,0,0,0-3.534l-2.682-2.682a2.5,2.5,0,0,0-3.534,0Z" transform="translate(-157.355 -137.156)" fill="#445866"/>
              <path id="Trazado_912092" data-name="Trazado 912092" d="M464.569,142.9a.612.612,0,0,1-.434-.18l-2.227-2.227a.614.614,0,0,1,0-.869l1.19-1.19a2.189,2.189,0,0,1,3.1,0h0a2.188,2.188,0,0,1,0,3.1l-1.19,1.19a.612.612,0,0,1-.434.18m-1.358-2.841,1.358,1.358.756-.756a.96.96,0,0,0,0-1.358h0a.96.96,0,0,0-1.358,0Z" transform="translate(-433.371 -129.33)" fill="#445866"/>
              <path id="Trazado_912093" data-name="Trazado 912093" d="M522.038,9.9a.614.614,0,0,1-.434-1.048L530.278.181a.614.614,0,0,1,.869.869l-8.674,8.674a.612.612,0,0,1-.434.18" transform="translate(-489.4 -0.001)" fill="#445866"/>
              <path id="Trazado_912094" data-name="Trazado 912094" d="M476.471,276.723a.612.612,0,0,1-.434-.18l-.531-.531a.614.614,0,0,1,.869-.869l.531.531a.614.614,0,0,1-.434,1.048" transform="translate(-446.133 -258.076)" fill="#445866"/>
              <path id="Trazado_912095" data-name="Trazado 912095" d="M424.28,312.672a.612.612,0,0,1-.434-.18l-1.063-1.063a.614.614,0,0,1,.869-.869l1.063,1.063a.614.614,0,0,1-.434,1.048" transform="translate(-396.649 -291.319)" fill="#445866"/>
              <path id="Trazado_912096" data-name="Trazado 912096" d="M336.14,400.812a.612.612,0,0,1-.434-.18l-1.063-1.063a.614.614,0,0,1,.869-.869l1.063,1.063a.614.614,0,0,1-.434,1.048" transform="translate(-313.922 -374.046)" fill="#445866"/>
              <path id="Trazado_912097" data-name="Trazado 912097" d="M388.33,364.862a.612.612,0,0,1-.434-.18l-.531-.531a.614.614,0,1,1,.869-.868l.531.531a.614.614,0,0,1-.434,1.048" transform="translate(-363.405 -340.803)" fill="#445866"/>
              <path id="Trazado_912098" data-name="Trazado 912098" d="M91.928,483.193a.612.612,0,0,1-.434-.18l-2.227-2.227a.614.614,0,0,1,0-.869l6.14-6.14a.614.614,0,0,1,.869,0L98.5,476a.614.614,0,0,1,0,.869l-2.247,2.247a.614.614,0,1,1-.869-.869l1.813-1.813-1.358-1.358-5.272,5.272,1.358,1.358,1.432-1.432a.614.614,0,0,1,.869.869l-1.867,1.867a.612.612,0,0,1-.434.18" transform="translate(-83.616 -444.512)" fill="#445866"/>
              <path id="Trazado_912099" data-name="Trazado 912099" d="M175.351,353.95a.614.614,0,0,1-.434-.18l-7.084-7.084a.614.614,0,0,1,0-.869l2.227-2.227a.614.614,0,0,1,.869,0l2.542,2.542a.614.614,0,1,1-.869.868l-2.108-2.108-1.358,1.358,6.216,6.216,1.358-1.358-2.081-2.081a.614.614,0,1,1,.869-.868l2.515,2.515a.614.614,0,0,1,0,.869l-2.227,2.227a.614.614,0,0,1-.434.18" transform="translate(-157.356 -322.32)" fill="#445866"/>
            </g>
          </g>
        </g>
      </g>
    </g>
  </g>
</svg>
