<svg xmlns="http://www.w3.org/2000/svg" xmlns:xlink="http://www.w3.org/1999/xlink" width="123.001" height="123" viewBox="0 0 123.001 123">
  <defs>
    <linearGradient id="linear-gradient" x1="0.5" x2="0.5" y2="1" gradientUnits="objectBoundingBox">
      <stop offset="0" stop-color="#ddf1ff"/>
      <stop offset="1" stop-color="#fff"/>
    </linearGradient>
    <clipPath id="clip-path">
      <rect id="Rectángulo_410574" data-name="Rectángulo 410574" width="72" height="72" transform="translate(0 0)" fill="#445866"/>
    </clipPath>
  </defs>
  <g id="img3" transform="translate(-264.668 -6026)">
    <g id="Grupo_1099808" data-name="Grupo 1099808" transform="translate(264.668 6026)">
      <g id="Grupo_1099775" data-name="Grupo 1099775" transform="translate(0 0)">
        <g id="Grupo_1099770" data-name="Grupo 1099770" transform="translate(0 0)">
          <rect id="Rectángulo_401345" data-name="Rectángulo 401345" width="104.839" height="104.839" transform="translate(9 9.16)" fill="url(#linear-gradient)"/>
          <path id="Sustracción_141" data-name="Sustracción 141" d="M106.183,123,0,106.181,16.822,0,123,16.819,106.183,123v0h0v0ZM23.2,8.788,8.783,99.8,99.8,114.212,114.214,23.2,23.2,8.788Z" transform="translate(0 0)" fill="#8ce2e5"/>
        </g>
      </g>
      <g id="Grupo_1099776" data-name="Grupo 1099776" transform="translate(25 24.995)">
        <g id="Grupo_1099618" data-name="Grupo 1099618" transform="translate(0 0)">
          <rect id="Rectángulo_401104" data-name="Rectángulo 401104" width="72.141" height="73.01" transform="translate(0)" fill="none"/>
        </g>
        <g id="Grupo_1122003" data-name="Grupo 1122003" transform="translate(-0.415 -0.408)">
          <g id="Grupo_1122002" data-name="Grupo 1122002" transform="translate(0.415 0.413)" clip-path="url(#clip-path)">
            <path id="Trazado_911846" data-name="Trazado 911846" d="M209.325,395.757H197.732a2.919,2.919,0,0,1-2.915-2.915V381.03a4.577,4.577,0,0,1,4.572-4.572h8.279a4.577,4.577,0,0,1,4.572,4.572v11.812a2.915,2.915,0,0,1-2.915,2.915m-9.936-17.163a2.439,2.439,0,0,0-2.436,2.436v11.812a.78.78,0,0,0,.78.78h11.593a.78.78,0,0,0,.78-.78V381.03a2.439,2.439,0,0,0-2.436-2.436Z" transform="translate(-167.531 -323.306)" fill="#445866"/>
            <path id="Trazado_911847" data-name="Trazado 911847" d="M404.134,395.757H392.541a2.919,2.919,0,0,1-2.915-2.915V381.03a4.577,4.577,0,0,1,4.572-4.572h8.279a4.577,4.577,0,0,1,4.572,4.572v11.812a2.919,2.919,0,0,1-2.915,2.915M394.2,378.594a2.439,2.439,0,0,0-2.436,2.436v11.812a.78.78,0,0,0,.78.78h11.593a.78.78,0,0,0,.78-.78V381.03a2.439,2.439,0,0,0-2.436-2.436Z" transform="translate(-334.602 -323.306)" fill="#445866"/>
            <path id="Trazado_911848" data-name="Trazado 911848" d="M308.577,322.779a1.068,1.068,0,0,1-1.068-1.068v-6.565a2.439,2.439,0,0,0-2.436-2.436h-8.279a2.439,2.439,0,0,0-2.436,2.436v6.565a1.068,1.068,0,0,1-2.136,0v-6.565a4.577,4.577,0,0,1,4.572-4.572h8.279a4.577,4.577,0,0,1,4.572,4.572v6.565a1.068,1.068,0,0,1-1.068,1.068" transform="translate(-251.066 -266.803)" fill="#445866"/>
            <path id="Trazado_911849" data-name="Trazado 911849" d="M344.615,432.949h-7.15a1.068,1.068,0,0,1,0-2.136h7.15a.789.789,0,0,0,.181-.021,1.068,1.068,0,1,1,.5,2.077,2.913,2.913,0,0,1-.677.079" transform="translate(-288.952 -369.879)" fill="#445866"/>
            <path id="Trazado_911850" data-name="Trazado 911850" d="M98.468,322.778A1.068,1.068,0,0,1,97.4,321.71v-6.565a4.577,4.577,0,0,1,4.572-4.572h8.279a4.577,4.577,0,0,1,4.572,4.572v6.565a1.068,1.068,0,1,1-2.136,0v-6.565a2.439,2.439,0,0,0-2.436-2.436h-8.279a2.439,2.439,0,0,0-2.436,2.436v6.565a1.068,1.068,0,0,1-1.068,1.068" transform="translate(-83.985 -266.802)" fill="#445866"/>
            <path id="Trazado_911851" data-name="Trazado 911851" d="M120.453,432.946H108.86a2.925,2.925,0,0,1-.675-.079,1.068,1.068,0,1,1,.494-2.078.79.79,0,0,0,.182.021h11.593a.8.8,0,0,0,.183-.021,1.068,1.068,0,1,1,.5,2.078,2.93,2.93,0,0,1-.678.08" transform="translate(-92.529 -369.876)" fill="#445866"/>
            <path id="Trazado_911852" data-name="Trazado 911852" d="M140.153,34.849h0a1.869,1.869,0,0,1-1.758-1.211l-2.317-6.061a2.414,2.414,0,0,0-2.242-1.543h-8.444a4.475,4.475,0,0,1-4.47-4.469V19a1.068,1.068,0,1,1,2.136,0v2.565a2.336,2.336,0,0,0,2.334,2.334h8.444a4.562,4.562,0,0,1,4.237,2.916l2.08,5.442,2.08-5.442A4.562,4.562,0,0,1,146.47,23.9h8.45a2.336,2.336,0,0,0,2.334-2.334V4.47a2.336,2.336,0,0,0-2.334-2.334H125.392a2.336,2.336,0,0,0-2.334,2.334v9.558a1.068,1.068,0,1,1-2.136,0V4.47A4.475,4.475,0,0,1,125.392,0H154.92a4.475,4.475,0,0,1,4.469,4.47v17.1a4.474,4.474,0,0,1-4.469,4.469h-8.45a2.414,2.414,0,0,0-2.242,1.543l-2.317,6.061a1.869,1.869,0,0,1-1.758,1.21m.237-1.973h0Z" transform="translate(-104.157 -0.45)" fill="#445866"/>
            <path id="Trazado_911853" data-name="Trazado 911853" d="M196.893,45.646a3.207,3.207,0,0,1-3.2-3.2V39.035h-3.407a3.218,3.218,0,0,1-2.318-.992,3.179,3.179,0,0,1-.882-2.365,3.23,3.23,0,0,1,3.26-3.05h3.347V29.221a3.2,3.2,0,1,1,6.407,0v3.407h3.347a3.23,3.23,0,0,1,3.26,3.05,3.178,3.178,0,0,1-.882,2.365,3.219,3.219,0,0,1-2.318.992H200.1v3.407a3.207,3.207,0,0,1-3.2,3.2m-6.55-10.882a1.111,1.111,0,0,0-1.127,1.015,1.068,1.068,0,0,0,1.067,1.121H194.1a1.722,1.722,0,0,1,1.72,1.72v3.823a1.068,1.068,0,1,0,2.136,0V38.619a1.722,1.722,0,0,1,1.72-1.72H203.5a1.068,1.068,0,0,0,1.067-1.121,1.112,1.112,0,0,0-1.127-1.015h-3.762a1.722,1.722,0,0,1-1.72-1.72V29.221a1.068,1.068,0,1,0-2.136,0v3.823a1.722,1.722,0,0,1-1.72,1.72Z" transform="translate(-160.894 -22.763)" fill="#445866"/>
            <path id="Trazado_911854" data-name="Trazado 911854" d="M14.508,395.757H8.579a1.068,1.068,0,1,1,0-2.136h5.929a.781.781,0,0,0,.78-.78V381.03a2.439,2.439,0,0,0-2.436-2.436H4.572a2.439,2.439,0,0,0-2.436,2.436v11.812a.78.78,0,0,0,.78.78H3.45a1.068,1.068,0,1,1,0,2.136H2.915A2.919,2.919,0,0,1,0,392.842V381.03a4.577,4.577,0,0,1,4.572-4.572h8.279a4.577,4.577,0,0,1,4.572,4.572v11.812a2.919,2.919,0,0,1-2.916,2.915" transform="translate(-0.453 -323.306)" fill="#445866"/>
            <path id="Trazado_911855" data-name="Trazado 911855" d="M416.106,290.8a5.772,5.772,0,0,1-2.621-.63l-.049-.027a5.736,5.736,0,0,1-3.091-5.1v-1.76a5.108,5.108,0,0,1,4.036-4.978,5.178,5.178,0,0,1,1.051-.108h1.348a5.092,5.092,0,0,1,5.086,5.086v1.76a5.767,5.767,0,0,1-5.761,5.761m-1.607-2.511a3.576,3.576,0,0,0,1.607.375,3.629,3.629,0,0,0,3.625-3.625v-1.76a2.954,2.954,0,0,0-2.95-2.95h-1.348a3.03,3.03,0,0,0-.615.063,2.961,2.961,0,0,0-2.337,2.887v1.76a3.61,3.61,0,0,0,1.977,3.228l.041.022" transform="translate(-352.371 -239.03)" fill="#445866"/>
            <path id="Trazado_911856" data-name="Trazado 911856" d="M221.3,290.8a5.774,5.774,0,0,1-2.621-.63l-.049-.027a5.736,5.736,0,0,1-3.091-5.1v-1.76a5.107,5.107,0,0,1,4.036-4.978,5.178,5.178,0,0,1,1.051-.108h1.348a5.092,5.092,0,0,1,5.086,5.086v1.76A5.767,5.767,0,0,1,221.3,290.8m-1.607-2.511a3.578,3.578,0,0,0,1.607.375,3.629,3.629,0,0,0,3.625-3.625v-1.76a2.954,2.954,0,0,0-2.95-2.95h-1.348a3.033,3.033,0,0,0-.615.063,2.961,2.961,0,0,0-2.337,2.887v1.76a3.609,3.609,0,0,0,1.977,3.228l.041.022" transform="translate(-185.301 -239.033)" fill="#445866"/>
            <path id="Trazado_911857" data-name="Trazado 911857" d="M123.883,224.915a5.776,5.776,0,0,1-2.621-.63l-.05-.027a5.736,5.736,0,0,1-3.09-5.1v-1.76a5.107,5.107,0,0,1,4.036-4.978,5.18,5.18,0,0,1,1.051-.108h1.348a5.092,5.092,0,0,1,5.086,5.086v1.76a5.767,5.767,0,0,1-5.761,5.761m-1.607-2.51a3.579,3.579,0,0,0,1.607.374,3.629,3.629,0,0,0,3.625-3.625v-1.76a2.954,2.954,0,0,0-2.95-2.95h-1.348a3.034,3.034,0,0,0-.615.063,2.962,2.962,0,0,0-2.337,2.887v1.76a3.61,3.61,0,0,0,1.976,3.228l.042.023" transform="translate(-101.756 -182.529)" fill="#445866"/>
            <path id="Trazado_911858" data-name="Trazado 911858" d="M26.483,290.8a5.772,5.772,0,0,1-2.621-.63l-.049-.027a5.736,5.736,0,0,1-3.091-5.1v-1.76a5.108,5.108,0,0,1,4.036-4.978,5.177,5.177,0,0,1,1.051-.108h1.348a5.092,5.092,0,0,1,5.086,5.086v1.76a5.767,5.767,0,0,1-5.761,5.761m-1.607-2.511a3.576,3.576,0,0,0,1.607.375,3.629,3.629,0,0,0,3.625-3.625v-1.76a2.954,2.954,0,0,0-2.95-2.95H25.81a3.033,3.033,0,0,0-.615.063,2.961,2.961,0,0,0-2.337,2.887v1.76a3.609,3.609,0,0,0,1.977,3.228l.041.022" transform="translate(-18.224 -239.033)" fill="#445866"/>
            <path id="Trazado_911859" data-name="Trazado 911859" d="M318.7,224.915a5.776,5.776,0,0,1-2.621-.63l-.05-.027a5.736,5.736,0,0,1-3.09-5.1v-1.76a5.108,5.108,0,0,1,4.036-4.978,5.18,5.18,0,0,1,1.051-.108h1.348a5.092,5.092,0,0,1,5.086,5.086v1.76a5.767,5.767,0,0,1-5.761,5.761M317.1,222.4a3.579,3.579,0,0,0,1.607.374,3.629,3.629,0,0,0,3.625-3.625v-1.76a2.954,2.954,0,0,0-2.95-2.95H318.03a3.034,3.034,0,0,0-.615.063,2.961,2.961,0,0,0-2.337,2.887v1.76a3.61,3.61,0,0,0,1.976,3.228l.042.023" transform="translate(-268.837 -182.529)" fill="#445866"/>
          </g>
        </g>
      </g>
    </g>
  </g>
</svg>
