<svg xmlns="http://www.w3.org/2000/svg" xmlns:xlink="http://www.w3.org/1999/xlink" width="73" height="73" viewBox="0 0 73 73">
  <defs>
    <linearGradient id="linear-gradient" x1="0.5" x2="0.5" y2="1" gradientUnits="objectBoundingBox">
      <stop offset="0" stop-color="#ddf1ff"/>
      <stop offset="1" stop-color="#fff"/>
    </linearGradient>
  </defs>
  <g id="img30" transform="translate(-264.528 -6025.861)">
    <g id="Grupo_1099808" data-name="Grupo 1099808" transform="translate(264.663 6025.995)">
      <g id="Grupo_1099775" data-name="Grupo 1099775" transform="translate(0 0)">
        <g id="Grupo_1099770" data-name="Grupo 1099770">
          <rect id="Rectángulo_401345" data-name="Rectángulo 401345" width="61.989" height="61.989" transform="translate(5.324 5.419)" fill="url(#linear-gradient)"/>
          <path id="Sustracción_141" data-name="Sustracción 141" d="M63.019,73,0,63.018,9.984,0,73,9.982,63.019,73h0ZM13.771,5.215,5.213,59.229l54.017,8.555,8.556-54.016L13.77,5.215Z" transform="translate(-0.135 -0.134)" fill="#59c4c8"/>
        </g>
      </g>
      <g id="Grupo_1099776" data-name="Grupo 1099776" transform="translate(14.784 14.782)">
        <g id="Grupo_1099618" data-name="Grupo 1099618" transform="translate(0 0)">
          <rect id="Rectángulo_401104" data-name="Rectángulo 401104" width="42.655" height="43.169" transform="translate(0)" fill="none"/>
        </g>
        <g id="Grupo_1122194" data-name="Grupo 1122194" transform="translate(-0.426 -7.927)">
          <path id="Trazado_912249" data-name="Trazado 912249" d="M40.361,34.144a3.962,3.962,0,0,0,.4-3.138,19.465,19.465,0,0,0,.273-3.249A19.285,19.285,0,0,0,13.026,10.564a19.458,19.458,0,0,0-6.654,5.572.637.637,0,1,0,1.016.769,18.176,18.176,0,0,1,6.167-5.179l-1.24,2.434a1.382,1.382,0,0,0-.1,1.019l.5,1.722a1.392,1.392,0,0,0,.694.844l1.128.584a1.388,1.388,0,0,0,1.957-.8l.759-2.32a.112.112,0,0,1,.12-.076l3.055.365a.113.113,0,0,1,.092.073l1.44,3.909a.113.113,0,0,1-.05.137l-1.886.8a.637.637,0,1,0,.5,1.174l1.906-.806.027-.012a1.382,1.382,0,0,0,.7-1.731l-1.44-3.91a1.381,1.381,0,0,0-1.137-.9l-3.054-.365a1.389,1.389,0,0,0-1.483.946l-.759,2.319a.113.113,0,0,1-.159.064L14,16.613a.112.112,0,0,1-.056-.069l-.5-1.723a.113.113,0,0,1,.008-.083L15.4,10.905a17.657,17.657,0,0,1,3.034-.849l-.018.163a1.437,1.437,0,0,0,1.055,1.549l2.351.641a.168.168,0,0,1,.07.039l1.786,1.642a.17.17,0,0,1,.054.107l.2,1.966a1.443,1.443,0,0,0,1,1.228l.476.149a1.444,1.444,0,0,0,1.808-.94l.624-1.962a.17.17,0,0,1,.106-.109l2-.694a1.435,1.435,0,0,0,.959-1.183l.045-.359a18.126,18.126,0,0,1,7.063,7.767l-3.615-.4a1.382,1.382,0,0,0-1.312.617L31.71,22.4a.113.113,0,0,1-.063.046l-2.82.812A1.409,1.409,0,0,0,27.813,24.6v5.165a3.954,3.954,0,0,0-.213,4.377,6.648,6.648,0,0,0-1.222.96,6.542,6.542,0,0,0-1.206-.951,3.974,3.974,0,1,0-7.294-2.906l-1.549-.159a3.97,3.97,0,0,0-4.5-2.881L9.522,27.078a.112.112,0,0,1-.062-.088l-.122-1.059a.114.114,0,0,1,.076-.121l1.421-.483a.112.112,0,0,1,.1.012l1.3.81a1.392,1.392,0,0,0,1.746-.228l2.412-2.573a.117.117,0,0,1,.043-.029l.018-.007,1.488-.629a.637.637,0,0,0-.5-1.174l-1.48.626a1.4,1.4,0,0,0-.5.341l-2.412,2.573a.114.114,0,0,1-.143.018l-1.3-.81a1.383,1.383,0,0,0-1.179-.136L9,24.6a1.4,1.4,0,0,0-.931,1.473l.122,1.062a1.382,1.382,0,0,0,.77,1.087l1.28.625a4.007,4.007,0,0,0-.715.63A3.976,3.976,0,0,0,6.565,28.15c-.081,0-.161,0-.241.008l-.1-1.657a1.4,1.4,0,0,0-.734-1.141l-1.455-.773a17.953,17.953,0,0,1,1.883-5.4A.637.637,0,1,0,4.8,18.581a19.245,19.245,0,0,0-2.089,6.2.632.632,0,0,0-.017.118,19.294,19.294,0,0,0,.06,6.106,3.962,3.962,0,0,0,.4,3.142A6.606,6.606,0,0,0,0,39.757v2.229a2.175,2.175,0,0,0,2.173,2.173h.417v4.567a1.823,1.823,0,0,0,1.821,1.821h.971a1.812,1.812,0,0,0,1.184-.44,1.812,1.812,0,0,0,1.184.44h.971a1.823,1.823,0,0,0,.81-.192,1.807,1.807,0,0,0,.809.192h.971a1.812,1.812,0,0,0,1.184-.44,1.812,1.812,0,0,0,1.184.44h.966a1.823,1.823,0,0,0,1.821-1.821V46.3c.434.124.873.232,1.315.325v2.1A1.823,1.823,0,0,0,19.6,50.546h.971a1.812,1.812,0,0,0,1.184-.44,1.812,1.812,0,0,0,1.184.44h.971a1.823,1.823,0,0,0,1.821-1.821v-2.1q.662-.139,1.315-.325v2.418a1.823,1.823,0,0,0,1.821,1.821h.966a1.811,1.811,0,0,0,1.184-.44,1.812,1.812,0,0,0,1.184.44h.971a1.808,1.808,0,0,0,.808-.192,1.821,1.821,0,0,0,.81.192h.971a1.812,1.812,0,0,0,1.184-.44,1.812,1.812,0,0,0,1.184.44H39.1a1.823,1.823,0,0,0,1.821-1.821V44.151h.417a2.175,2.175,0,0,0,2.173-2.173V39.749a6.6,6.6,0,0,0-3.147-5.6ZM29.655,12.494a.168.168,0,0,1-.112.139l-2,.694a1.451,1.451,0,0,0-.9.926l-.624,1.962a.17.17,0,0,1-.212.11l-.476-.149a.169.169,0,0,1-.118-.144l-.2-1.966a1.443,1.443,0,0,0-.459-.913L22.759,11.51a1.451,1.451,0,0,0-.6-.33l-2.351-.641a.168.168,0,0,1-.124-.182l.054-.493a18.392,18.392,0,0,1,2.013-.111,17.894,17.894,0,0,1,8.009,1.883ZM34.7,33.616a3.96,3.96,0,0,0,0-3,2.7,2.7,0,1,1,0,3ZM29.18,24.479,32,23.667a1.388,1.388,0,0,0,.776-.571l1.391-2.116a.113.113,0,0,1,.107-.05l4.328.477a17.915,17.915,0,0,1,1.158,6.351c0,.5-.021,1-.062,1.5a3.968,3.968,0,0,0-5.717.218,3.967,3.967,0,0,0-4.891-.829V24.6a.128.128,0,0,1,.092-.122Zm-7.426,4.946a2.7,2.7,0,1,1-2.7,2.7,2.7,2.7,0,0,1,2.7-2.7Zm-4.629,5.683a6.654,6.654,0,0,0-1.215-.955,3.947,3.947,0,0,0,.548-1.771l1.34.138a3.946,3.946,0,0,0,.537,1.633,6.546,6.546,0,0,0-1.211.956Zm-1.932-2.982a2.7,2.7,0,1,1-2.7-2.7A2.7,2.7,0,0,1,15.193,32.125Zm-6.382-1.5a3.963,3.963,0,0,0,0,3,2.7,2.7,0,1,1,0-3ZM4.89,26.485a.114.114,0,0,1,.06.093l.114,1.866a3.986,3.986,0,0,0-1.252.816c-.041-.5-.063-1-.063-1.5a18.026,18.026,0,0,1,.095-1.827Zm.491,22.786H4.411a.547.547,0,0,1-.546-.546v-9a.637.637,0,1,0-1.275,0v3.157H2.173a.9.9,0,0,1-.9-.9V39.757a5.322,5.322,0,0,1,2.7-4.616,3.941,3.941,0,0,0,3.072.928,6.547,6.547,0,0,0-1.123,3.687v8.968A.547.547,0,0,1,5.381,49.271ZM7.2,48.725V43.963a2.159,2.159,0,0,0,.9.2h.417v4.567a1.813,1.813,0,0,0,.084.546H7.749A.547.547,0,0,1,7.2,48.725Zm7.987,0a.547.547,0,0,1-.546.546h-.966a.547.547,0,0,1-.546-.546V42.32a.637.637,0,0,0-1.275,0v6.405a.547.547,0,0,1-.546.546h-.97a.547.547,0,0,1-.546-.546v-9a.637.637,0,1,0-1.275,0v3.157H8.1a.9.9,0,0,1-.9-.9V39.757a5.253,5.253,0,0,1,2.7-4.616,3.964,3.964,0,0,0,5.171,0,5.357,5.357,0,0,1,1.233.956,6.569,6.569,0,0,0-1.121,3.659v8.968Zm1.275-3.754V43.963a2.159,2.159,0,0,0,.9.2h.417v1.163C17.336,45.221,16.9,45.1,16.464,44.971Zm7.445,4.3h-.971a.547.547,0,0,1-.546-.546V42.319a.637.637,0,1,0-1.275,0v6.405a.547.547,0,0,1-.546.546H19.6a.547.547,0,0,1-.546-.546v-9a.637.637,0,1,0-1.275,0v3.157h-.417a.9.9,0,0,1-.9-.9V39.757a5.319,5.319,0,0,1,2.7-4.616,3.964,3.964,0,0,0,5.172,0,5.322,5.322,0,0,1,2.7,4.616v2.229a.9.9,0,0,1-.9.9h-.417V39.727a.637.637,0,1,0-1.275,0v6.3a.639.639,0,0,0,0,.142v2.555a.547.547,0,0,1-.546.546Zm1.821-3.951V44.158h.417a2.16,2.16,0,0,0,.9-.2v1.008c-.433.133-.872.249-1.315.349Zm6.47,3.944a.547.547,0,0,1-.546-.546V42.312a.637.637,0,0,0-1.275,0v6.405a.547.547,0,0,1-.546.546h-.966a.547.547,0,0,1-.546-.546V39.757a6.57,6.57,0,0,0-1.124-3.663,5.355,5.355,0,0,1,1.235-.959,3.933,3.933,0,0,0,.85.56.637.637,0,1,0,.557-1.146,2.7,2.7,0,1,1,2.279.036.637.637,0,1,0,.52,1.164,3.968,3.968,0,0,0,.967-.613,5.322,5.322,0,0,1,2.7,4.615v2.229a.9.9,0,0,1-.9.9h-.417V39.719a.637.637,0,1,0-1.275,0v9a.547.547,0,0,1-.546.546H32.2Zm3.56,0h-.852a1.815,1.815,0,0,0,.084-.546V44.151h.417a2.16,2.16,0,0,0,.9-.2v4.762A.547.547,0,0,1,35.759,49.264Zm6.474-7.286a.9.9,0,0,1-.9.9h-.417V39.72a.637.637,0,0,0-1.275,0v9a.547.547,0,0,1-.546.546h-.971a.547.547,0,0,1-.546-.546V39.749a6.571,6.571,0,0,0-1.141-3.689,3.949,3.949,0,0,0,3.09-.927,5.321,5.321,0,0,1,2.7,4.616Z" fill="#445866"/>
        </g>
      </g>
    </g>
  </g>
</svg>
