<svg xmlns="http://www.w3.org/2000/svg" width="139" height="138.999" viewBox="0 0 139 138.999">
  <g id="img33" transform="translate(-173 -7366)">
    <g id="Grupo_1099775" data-name="Grupo 1099775" transform="translate(-407 1749.16)">
      <g id="Grupo_1099770" data-name="Grupo 1099770" transform="translate(580 5616.839)">
        <rect id="Rectángulo_401345" data-name="Rectángulo 401345" width="120.838" height="120.838" transform="translate(9 9.161)" fill="#fff"/>
        <path id="Sustracción_141" data-name="Sustracción 141" d="M119.994,139,0,119.993,19.01,0,139,19.008,119.994,139v0h0v0ZM26.221,9.932,9.926,112.779l102.854,16.29L129.07,26.218,26.219,9.932Z" fill="#b5aae8"/>
      </g>
    </g>
    <g id="Grupo_1099776" data-name="Grupo 1099776" transform="translate(201.414 7393.395)">
      <g id="Grupo_1099618" data-name="Grupo 1099618" transform="translate(0 0)">
        <rect id="Rectángulo_401104" data-name="Rectángulo 401104" width="81.642" height="82.626" fill="none"/>
      </g>
      <g id="Grupo_1122287" data-name="Grupo 1122287" transform="translate(0 -9.323)">
        <g id="Grupo_1122286" data-name="Grupo 1122286" transform="translate(0 11.676)">
          <path id="Trazado_912446" data-name="Trazado 912446" d="M167.569,36.673l9.284,6.745a2.783,2.783,0,0,0,3.281,0l9.284-6.745a9.2,9.2,0,0,0,3.779-7.418v-12.4a5.188,5.188,0,0,0-5.182-5.182H168.971a5.188,5.188,0,0,0-5.182,5.182v4.6a1.2,1.2,0,0,0,2.392,0v-4.6a2.794,2.794,0,0,1,2.791-2.791h19.043a2.794,2.794,0,0,1,2.79,2.791v12.4a6.8,6.8,0,0,1-2.794,5.483l-9.284,6.745a.4.4,0,0,1-.469,0l-9.284-6.745a6.8,6.8,0,0,1-2.794-5.483V27.036a1.2,1.2,0,1,0-2.392,0v2.219a9.2,9.2,0,0,0,3.78,7.418Z" transform="translate(-137.671 -11.676)" fill="#445866"/>
          <path id="Trazado_912447" data-name="Trazado 912447" d="M199.446,69.506a3.606,3.606,0,0,0,5.1,0l7.84-7.84a3.606,3.606,0,0,0-5.1-5.1L202,61.856l-2.325-2.324a3.606,3.606,0,1,0-5.1,5.1Zm-3.183-8.283a1.214,1.214,0,0,1,1.718,0l3.17,3.17a1.2,1.2,0,0,0,1.691,0l6.135-6.135a1.215,1.215,0,0,1,1.718,1.718l-7.84,7.84a1.214,1.214,0,0,1-1.717,0l-4.875-4.875a1.215,1.215,0,0,1,0-1.717Z" transform="translate(-162.657 -48.522)" fill="#445866"/>
          <path id="Trazado_912448" data-name="Trazado 912448" d="M80.539,170.827a3.738,3.738,0,0,0-2.655-1.1h-.018a7.412,7.412,0,0,0-7.361,7.4v9.345a2.989,2.989,0,0,0-.662-.077,2.95,2.95,0,0,0-2.1.87l-3.923,3.923a6.837,6.837,0,0,0-6.2-4.033H52.694a6.8,6.8,0,0,0-6.8,6.739,6.758,6.758,0,0,0-2.678-.551H38.3a6.757,6.757,0,0,0-2.553.5,6.8,6.8,0,0,0-6.795-6.688H24.027a6.837,6.837,0,0,0-6.2,4.033L13.9,187.265a2.954,2.954,0,0,0-2.762-.793v-9.345a7.412,7.412,0,0,0-7.361-7.4,3.758,3.758,0,0,0-2.673,1.1A3.718,3.718,0,0,0,0,173.48v21.664a7.975,7.975,0,0,0,2.351,5.676L4.728,203.2a1.2,1.2,0,0,0,1.691-1.691l-2.377-2.377a5.6,5.6,0,0,1-1.651-3.985V173.48a1.343,1.343,0,0,1,.4-.958,1.363,1.363,0,0,1,.968-.4h.007a5.015,5.015,0,0,1,4.98,5v11.349a6.6,6.6,0,0,0,.954,8.1l5.379,5.379a1.2,1.2,0,1,0,1.691-1.691l-5.379-5.379a4.193,4.193,0,0,1,0-5.93.577.577,0,0,1,.817,0l12.423,12.423a5.2,5.2,0,0,1,1.532,3.7v14.976H16.706v-6.1a5.179,5.179,0,0,0-1.527-3.686l-4.814-4.814a1.2,1.2,0,0,0-1.691,1.691l4.814,4.814a2.8,2.8,0,0,1,.826,1.995v6.5a2,2,0,0,0,1.993,1.993H26.562a2,2,0,0,0,1.993-1.993V208.283H53.087V209.8a1.2,1.2,0,1,0,2.392,0v-4.719a5.2,5.2,0,0,1,1.532-3.7l12.423-12.423a.577.577,0,0,1,.817,0,4.193,4.193,0,0,1,0,5.929l-5.379,5.379a1.2,1.2,0,0,0,1.691,1.691l5.379-5.379a6.6,6.6,0,0,0,.954-8.1V177.127a5.015,5.015,0,0,1,4.98-5h.007a1.362,1.362,0,0,1,.968.4,1.342,1.342,0,0,1,.4.958v21.664a5.6,5.6,0,0,1-1.651,3.985L66.463,210.265a5.179,5.179,0,0,0-1.527,3.686v6.1H55.479v-4.675a1.2,1.2,0,1,0-2.392,0v5.075a2,2,0,0,0,1.993,1.993H65.334a2,2,0,0,0,1.993-1.993v-6.5a2.8,2.8,0,0,1,.826-1.995L79.291,200.82a7.975,7.975,0,0,0,2.351-5.676V173.48a3.718,3.718,0,0,0-1.1-2.653ZM33.355,195.482a6.771,6.771,0,0,0-1.855,4.659v5.751H28.555v-.812a7.574,7.574,0,0,0-2.233-5.391l-6.611-6.611a4.428,4.428,0,0,1,4.315-3.53h4.922a4.411,4.411,0,0,1,4.406,4.406Zm14.27,10.41H33.892v-5.75a4.41,4.41,0,0,1,4.405-4.406h4.922a4.411,4.411,0,0,1,4.406,4.406Zm7.7-6.2a7.574,7.574,0,0,0-2.233,5.391v.812H50.017v-5.75a6.769,6.769,0,0,0-1.729-4.523v-1.666a4.41,4.41,0,0,1,4.405-4.405h4.922a4.428,4.428,0,0,1,4.315,3.53Z" transform="translate(0 -144.528)" fill="#445866"/>
          <path id="Trazado_912449" data-name="Trazado 912449" d="M309.7,202.428a5.77,5.77,0,1,0,5.77-5.77A5.777,5.777,0,0,0,309.7,202.428Zm9.149,0a3.379,3.379,0,1,1-3.379-3.379A3.382,3.382,0,0,1,318.85,202.428Z" transform="translate(-260.317 -167.161)" fill="#445866"/>
          <path id="Trazado_912450" data-name="Trazado 912450" d="M135.693,208.2a5.77,5.77,0,1,0-5.77-5.77A5.777,5.777,0,0,0,135.693,208.2Zm0-9.149a3.379,3.379,0,1,1-3.379,3.379A3.382,3.382,0,0,1,135.693,199.05Z" transform="translate(-109.206 -167.161)" fill="#445866"/>
          <path id="Trazado_912451" data-name="Trazado 912451" d="M219.417,241.236a5.77,5.77,0,1,0,5.77-5.77A5.777,5.777,0,0,0,219.417,241.236Zm9.149,0a3.379,3.379,0,1,1-3.379-3.379A3.382,3.382,0,0,1,228.566,241.236Z" transform="translate(-184.429 -199.781)" fill="#445866"/>
        </g>
      </g>
    </g>
  </g>
</svg>
