<svg xmlns="http://www.w3.org/2000/svg" width="139" height="138.999" viewBox="0 0 139 138.999">
  <g id="img32" transform="translate(-173 -7366)">
    <g id="Grupo_1099775" data-name="Grupo 1099775" transform="translate(-407 1749.16)">
      <g id="Grupo_1099770" data-name="Grupo 1099770" transform="translate(580 5616.839)">
        <rect id="Rectángulo_401345" data-name="Rectángulo 401345" width="120.838" height="120.838" transform="translate(9 9.161)" fill="#fff"/>
        <path id="Sustracción_141" data-name="Sustracción 141" d="M119.994,139,0,119.993,19.01,0,139,19.008,119.994,139v0h0v0ZM26.221,9.932,9.926,112.779l102.854,16.29L129.07,26.218,26.219,9.932Z" fill="#59c4c8"/>
      </g>
    </g>
    <g id="Grupo_1099776" data-name="Grupo 1099776" transform="translate(201.414 7393.395)">
      <g id="Grupo_1099618" data-name="Grupo 1099618" transform="translate(0 0)">
        <rect id="Rectángulo_401104" data-name="Rectángulo 401104" width="81.642" height="82.626" fill="none"/>
      </g>
      <g id="Grupo_1122285" data-name="Grupo 1122285" transform="translate(-7 -5.301)">
        <g id="Grupo_1122253" data-name="Grupo 1122253" transform="translate(83.058 37.918)">
          <path id="Trazado_912414" data-name="Trazado 912414" d="M56.585,29.662a1.591,1.591,0,1,1,1.585-1.585,1.636,1.636,0,0,1-.46,1.125A1.666,1.666,0,0,1,56.585,29.662Z" transform="translate(-55 -26.512)" fill="#445866"/>
        </g>
        <g id="Grupo_1122254" data-name="Grupo 1122254" transform="translate(29.184 66.44)">
          <path id="Trazado_912415" data-name="Trazado 912415" d="M22.585,47.662a1.569,1.569,0,1,1,1.125-.46,1.666,1.666,0,0,1-1.125.46Z" transform="translate(-21 -44.513)" fill="#445866"/>
        </g>
        <g id="Grupo_1122255" data-name="Grupo 1122255" transform="translate(83.058 44.237)">
          <path id="Trazado_912416" data-name="Trazado 912416" d="M56.585,40.007A1.585,1.585,0,0,1,55,38.423V32.085a1.585,1.585,0,1,1,3.169,0v6.338A1.585,1.585,0,0,1,56.585,40.007Z" transform="translate(-55 -30.5)" fill="#445866"/>
        </g>
        <g id="Grupo_1122256" data-name="Grupo 1122256" transform="translate(83.058 13.338)">
          <path id="Trazado_912417" data-name="Trazado 912417" d="M56.585,32.391A1.585,1.585,0,0,1,55,30.807V12.585a1.585,1.585,0,1,1,3.169,0V30.807A1.585,1.585,0,0,1,56.585,32.391Z" transform="translate(-55 -11)" fill="#445866"/>
        </g>
        <g id="Grupo_1122257" data-name="Grupo 1122257" transform="translate(29.184 41.372)">
          <path id="Trazado_912418" data-name="Trazado 912418" d="M22.585,50.571A1.585,1.585,0,0,1,21,48.987V30.277a1.585,1.585,0,1,1,3.169,0v18.71A1.585,1.585,0,0,1,22.585,50.571Z" transform="translate(-21 -28.692)" fill="#445866"/>
        </g>
        <g id="Grupo_1122258" data-name="Grupo 1122258" transform="translate(29.184 72.758)">
          <path id="Trazado_912419" data-name="Trazado 912419" d="M22.585,58.007A1.585,1.585,0,0,1,21,56.423V50.085a1.585,1.585,0,0,1,3.169,0v6.338A1.585,1.585,0,0,1,22.585,58.007Z" transform="translate(-21 -48.5)" fill="#445866"/>
        </g>
        <g id="Grupo_1122259" data-name="Grupo 1122259" transform="translate(49.987 53.744)">
          <path id="Trazado_912420" data-name="Trazado 912420" d="M35.714,64.242a1.585,1.585,0,0,1-1.585-1.585V38.085a1.585,1.585,0,0,1,3.169,0V62.658A1.584,1.584,0,0,1,35.714,64.242Z" transform="translate(-34.129 -36.5)" fill="#445866"/>
        </g>
        <g id="Grupo_1122260" data-name="Grupo 1122260" transform="translate(79.889 50.575)">
          <path id="Trazado_912421" data-name="Trazado 912421" d="M54.585,40.838a1.585,1.585,0,0,1,0-3.169,1.587,1.587,0,0,0,1.585-1.585,1.585,1.585,0,1,1,3.169,0A4.759,4.759,0,0,1,54.585,40.838Z" transform="translate(-53 -34.5)" fill="#445866"/>
        </g>
        <g id="Grupo_1122261" data-name="Grupo 1122261" transform="translate(29.184 53.744)">
          <path id="Trazado_912422" data-name="Trazado 912422" d="M73.29,39.669H22.585a1.585,1.585,0,1,1,0-3.169H73.29a1.585,1.585,0,1,1,0,3.169Z" transform="translate(-21 -36.5)" fill="#445866"/>
        </g>
        <g id="Grupo_1122262" data-name="Grupo 1122262" transform="translate(50.359 26.014)">
          <path id="Trazado_912423" data-name="Trazado 912423" d="M59.14,22.169H35.949a1.585,1.585,0,0,1,0-3.169H59.14a1.585,1.585,0,1,1,0,3.169Z" transform="translate(-34.364 -19)" fill="#445866"/>
        </g>
        <g id="Grupo_1122263" data-name="Grupo 1122263" transform="translate(52.136 32.353)">
          <path id="Trazado_912424" data-name="Trazado 912424" d="M58.485,26.169H37.07a1.585,1.585,0,1,1,0-3.169H58.485a1.585,1.585,0,1,1,0,3.169Z" transform="translate(-35.485 -23)" fill="#445866"/>
        </g>
        <g id="Grupo_1122264" data-name="Grupo 1122264" transform="translate(48.982 38.691)">
          <path id="Trazado_912425" data-name="Trazado 912425" d="M59.648,30.169H35.08a1.585,1.585,0,0,1,0-3.169H59.648a1.585,1.585,0,1,1,0,3.169Z" transform="translate(-33.495 -27)" fill="#445866"/>
        </g>
        <g id="Grupo_1122265" data-name="Grupo 1122265" transform="translate(37.106 19.676)">
          <path id="Trazado_912426" data-name="Trazado 912426" d="M57.691,18.169H27.585a1.585,1.585,0,0,1,0-3.169H57.691a1.585,1.585,0,0,1,0,3.169Z" transform="translate(-26 -15)" fill="#445866"/>
        </g>
        <g id="Grupo_1122266" data-name="Grupo 1122266" transform="translate(52.159 7)">
          <path id="Trazado_912427" data-name="Trazado 912427" d="M37.085,13.338A1.585,1.585,0,0,1,35.5,11.754V8.585a1.585,1.585,0,1,1,3.169,0v3.169A1.585,1.585,0,0,1,37.085,13.338Z" transform="translate(-35.5 -7)" fill="#445866"/>
        </g>
        <g id="Grupo_1122267" data-name="Grupo 1122267" transform="translate(21.261 13.338)">
          <path id="Trazado_912428" data-name="Trazado 912428" d="M17.585,20.5A1.585,1.585,0,0,1,16,18.916V12.585a1.585,1.585,0,0,1,3.169,0v6.332A1.585,1.585,0,0,1,17.585,20.5Z" transform="translate(-16 -11)" fill="#445866"/>
        </g>
        <g id="Grupo_1122268" data-name="Grupo 1122268" transform="translate(21.261 10.169)">
          <path id="Trazado_912429" data-name="Trazado 912429" d="M17.585,15.338A1.585,1.585,0,0,1,16,13.754,4.759,4.759,0,0,1,20.754,9a1.585,1.585,0,1,1,0,3.169,1.587,1.587,0,0,0-1.585,1.585A1.585,1.585,0,0,1,17.585,15.338Z" transform="translate(-16 -9)" fill="#445866"/>
        </g>
        <g id="Grupo_1122269" data-name="Grupo 1122269" transform="translate(24.43 10.169)">
          <path id="Trazado_912430" data-name="Trazado 912430" d="M75.043,12.169H19.585a1.585,1.585,0,0,1,0-3.169H75.043a1.585,1.585,0,1,1,0,3.169Z" transform="translate(-18 -9)" fill="#445866"/>
        </g>
        <g id="Grupo_1122270" data-name="Grupo 1122270" transform="translate(79.889 10.169)">
          <path id="Trazado_912431" data-name="Trazado 912431" d="M57.754,15.338a1.585,1.585,0,0,1-1.585-1.585,1.587,1.587,0,0,0-1.585-1.585,1.585,1.585,0,0,1,0-3.169,4.759,4.759,0,0,1,4.754,4.754A1.585,1.585,0,0,1,57.754,15.338Z" transform="translate(-53 -9)" fill="#445866"/>
        </g>
        <g id="Grupo_1122271" data-name="Grupo 1122271" transform="translate(11.501 35.035)">
          <path id="Trazado_912432" data-name="Trazado 912432" d="M11.424,29.3a1.585,1.585,0,0,1-.48-3.095,32.148,32.148,0,0,1,15.861-.929,1.585,1.585,0,1,1-.6,3.112,28.967,28.967,0,0,0-14.3.837,1.659,1.659,0,0,1-.483.074Z" transform="translate(-9.84 -24.693)" fill="#445866"/>
        </g>
        <g id="Grupo_1122272" data-name="Grupo 1122272" transform="translate(26.579 28.717)">
          <path id="Trazado_912433" data-name="Trazado 912433" d="M20.942,30.749a1.585,1.585,0,0,1-.67-3.022l14.739-6.872a1.585,1.585,0,1,1,1.339,2.873L21.611,30.6A1.544,1.544,0,0,1,20.942,30.749Z" transform="translate(-19.356 -20.706)" fill="#445866"/>
        </g>
        <g id="Grupo_1122273" data-name="Grupo 1122273" transform="translate(41.317 28.388)">
          <path id="Trazado_912434" data-name="Trazado 912434" d="M32.924,29.742a1.584,1.584,0,0,1-.672-3.02,1.588,1.588,0,0,0-1.341-2.871,1.585,1.585,0,1,1-1.339-2.873A4.555,4.555,0,0,1,35.8,23.322a4.557,4.557,0,0,1-2.2,6.273,1.576,1.576,0,0,1-.667.147Z" transform="translate(-28.657 -20.498)" fill="#445866"/>
        </g>
        <g id="Grupo_1122274" data-name="Grupo 1122274" transform="translate(29.182 34.462)">
          <path id="Trazado_912435" data-name="Trazado 912435" d="M22.585,34.41a1.584,1.584,0,0,1-.672-3.02l14.815-6.909a1.584,1.584,0,1,1,1.341,2.871L23.254,34.261A1.567,1.567,0,0,1,22.585,34.41Z" transform="translate(-20.999 -24.331)" fill="#445866"/>
        </g>
        <g id="Grupo_1122275" data-name="Grupo 1122275" transform="translate(35.156 70.138)">
          <path id="Trazado_912436" data-name="Trazado 912436" d="M26.354,62.935a1.585,1.585,0,0,1-1.041-2.779l14.833-12.92a1.585,1.585,0,0,1,2.082,2.389L27.395,62.546A1.583,1.583,0,0,1,26.354,62.935Z" transform="translate(-24.769 -46.846)" fill="#445866"/>
        </g>
        <g id="Grupo_1122276" data-name="Grupo 1122276" transform="translate(49.988 70.138)">
          <path id="Trazado_912437" data-name="Trazado 912437" d="M50.546,62.935a1.576,1.576,0,0,1-1.039-.39L34.674,49.625a1.585,1.585,0,1,1,2.082-2.389l14.833,12.92a1.585,1.585,0,0,1-1.043,2.779Z" transform="translate(-34.13 -46.846)" fill="#445866"/>
        </g>
        <g id="Grupo_1122277" data-name="Grupo 1122277" transform="translate(7 42.541)">
          <path id="Trazado_912438" data-name="Trazado 912438" d="M8.585,48.945A1.585,1.585,0,0,1,7,47.361V31.015a1.585,1.585,0,0,1,3.169,0V47.361A1.585,1.585,0,0,1,8.585,48.945Z" transform="translate(-7 -29.43)" fill="#445866"/>
        </g>
        <g id="Grupo_1122278" data-name="Grupo 1122278" transform="translate(7 36.473)">
          <path id="Trazado_912439" data-name="Trazado 912439" d="M8.585,34.838A1.585,1.585,0,0,1,7,33.253a7.88,7.88,0,0,1,5.627-7.584,1.585,1.585,0,0,1,.919,3.033,4.729,4.729,0,0,0-3.377,4.551A1.585,1.585,0,0,1,8.585,34.838Z" transform="translate(-7 -25.6)" fill="#445866"/>
        </g>
        <g id="Grupo_1122279" data-name="Grupo 1122279" transform="translate(13.338 44.26)">
          <path id="Trazado_912440" data-name="Trazado 912440" d="M12.585,68.52A1.585,1.585,0,0,1,11,66.936V32.1a1.585,1.585,0,0,1,3.169,0V66.936A1.585,1.585,0,0,1,12.585,68.52Z" transform="translate(-11 -30.515)" fill="#445866"/>
        </g>
        <g id="Grupo_1122280" data-name="Grupo 1122280" transform="translate(13.581 19.668)">
          <path id="Trazado_912441" data-name="Trazado 912441" d="M20.418,33.525a9.39,9.39,0,0,1-9.265-9.265,9.39,9.39,0,0,1,9.265-9.265,9.389,9.389,0,0,1,9.265,9.265A9.389,9.389,0,0,1,20.418,33.525Zm0-15.359a6.1,6.1,0,1,0,6.1,6.1A6.178,6.178,0,0,0,20.418,18.166Z" transform="translate(-11.153 -14.995)" fill="#445866"/>
        </g>
        <g id="Grupo_1122281" data-name="Grupo 1122281" transform="translate(21.261 58.887)">
          <path id="Trazado_912442" data-name="Trazado 912442" d="M17.585,63.124A1.585,1.585,0,0,1,16,61.54V41.331a1.585,1.585,0,0,1,3.169,0V61.54A1.585,1.585,0,0,1,17.585,63.124Z" transform="translate(-16 -39.746)" fill="#445866"/>
        </g>
        <g id="Grupo_1122282" data-name="Grupo 1122282" transform="translate(7 58.887)">
          <path id="Trazado_912443" data-name="Trazado 912443" d="M11.754,45.981A4.557,4.557,0,0,1,7,41.331a1.585,1.585,0,0,1,3.169,0,1.46,1.46,0,0,0,1.585,1.482,1.46,1.46,0,0,0,1.585-1.482,1.585,1.585,0,0,1,3.169,0A4.557,4.557,0,0,1,11.754,45.981Z" transform="translate(-7 -39.746)" fill="#445866"/>
        </g>
        <g id="Grupo_1122283" data-name="Grupo 1122283" transform="translate(21.261 79.097)">
          <path id="Trazado_912444" data-name="Trazado 912444" d="M21.546,59.5a5.744,5.744,0,0,1-3.757-1.341A5.267,5.267,0,0,1,16,54.085a1.585,1.585,0,0,1,3.169,0,2.231,2.231,0,0,0,2.377,2.247,2.231,2.231,0,0,0,2.377-2.247,1.585,1.585,0,0,1,3.169,0A5.312,5.312,0,0,1,21.546,59.5Z" transform="translate(-16 -52.5)" fill="#445866"/>
        </g>
        <g id="Grupo_1122284" data-name="Grupo 1122284" transform="translate(13.338 79.097)">
          <path id="Trazado_912445" data-name="Trazado 912445" d="M16.546,59.5a5.744,5.744,0,0,1-3.757-1.341A5.267,5.267,0,0,1,11,54.085a1.585,1.585,0,0,1,3.169,0,2.231,2.231,0,0,0,2.377,2.247,2.231,2.231,0,0,0,2.377-2.247,1.585,1.585,0,1,1,3.169,0A5.312,5.312,0,0,1,16.546,59.5Z" transform="translate(-11 -52.5)" fill="#445866"/>
        </g>
      </g>
    </g>
  </g>
</svg>
