<svg xmlns="http://www.w3.org/2000/svg" width="109" height="109" viewBox="0 0 109 109">
  <g id="img4" transform="translate(-285 -1258.968)">
    <g id="Rectángulo_401428" data-name="Rectángulo 401428" transform="translate(285 1258.968)" fill="#2a5f61" stroke="#707070" stroke-width="1">
      <rect width="109" height="109" stroke="none"/>
      <rect x="0.5" y="0.5" width="108" height="108" fill="none"/>
    </g>
    <g id="Grupo_1099807" data-name="Grupo 1099807" transform="translate(-105.466 -4763.184)">
      <path id="Trazado_873216" data-name="Trazado 873216" d="M0,0H71.062V71.063H0Z" transform="translate(408.527 6040.213)" fill="none"/>
      <g id="Grupo_1122205" data-name="Grupo 1122205" transform="translate(393.278 6029.213)">
        <path id="Trazado_912278" data-name="Trazado 912278" d="M85.552,34.6a.962.962,0,0,0-.979-.827h0l-7.492-.016a8.247,8.247,0,0,0,.055-1.157,7.955,7.955,0,0,0-7.04-7.952V21.4c0-6.663-5.541-10.149-11.042-10.149a11.9,11.9,0,0,0-7.513,2.508,9.431,9.431,0,0,0-3.5,7.618L48.05,39.86H33.234a12.617,12.617,0,0,0,8.361-9.6A3.542,3.542,0,0,0,41,27.2c-.048-.06-.1-.112-.151-.168l.973-8.448a4.628,4.628,0,0,0-3.235-5.037l-.884-.3.145-.543a.987.987,0,0,0-.7-1.208l-1.51-.405a2.469,2.469,0,0,0-1.278,4.77l1.509.4a1.021,1.021,0,0,0,.256.033.985.985,0,0,0,.953-.732l.11-.409.806.277a2.693,2.693,0,0,1,1.864,2.929l-.887,7.705a3.282,3.282,0,0,0-.453-.032,3.186,3.186,0,0,0-3.058,2.343.933.933,0,0,0-.033.145,6.553,6.553,0,0,1-12.959,0,.949.949,0,0,0-.033-.145,3.187,3.187,0,0,0-3.058-2.343,3.28,3.28,0,0,0-.453.032l-.887-7.7a2.711,2.711,0,0,1,1.918-2.948l.753-.259.109.409a.985.985,0,0,0,.953.732,1.022,1.022,0,0,0,.256-.033l1.509-.4A2.469,2.469,0,0,0,22.9,11a2.493,2.493,0,0,0-.636.084l-1.509.405a.987.987,0,0,0-.7,1.208l.146.544-.831.287a4.647,4.647,0,0,0-3.289,5.056l.973,8.451c-.052.056-.1.113-.151.173a3.491,3.491,0,0,0-.6,3.016,12.645,12.645,0,0,0,8.37,9.637h-4.3A2.83,2.83,0,0,0,17.6,42.729V73.8h-.556A1.1,1.1,0,0,0,16,74.853v3.065c0,2.633,1.955,4.145,5.272,4.145H66.11c3.317,0,5.289-1.511,5.289-4.145V74.853A1.11,1.11,0,0,0,70.344,73.8H69.8V72.237l8.276-.015c3.569-.006,5.717-1.881,6.2-5.425.656-4.835-.177-9.436-.985-13.885a49.517,49.517,0,0,1-1.162-11.248c.121-2.446.687-5.462,2.7-6a.971.971,0,0,0,.724-1.068ZM35.433,14.1l-.556-.149a.494.494,0,0,1,.131-.972.518.518,0,0,1,.126.016l.556.149Zm-12.66-1.1a.51.51,0,0,1,.606.35.5.5,0,0,1-.351.606l-.555.149-.256-.956Zm52.414,19.59a6.025,6.025,0,1,1-6.025-6.026A6.033,6.033,0,0,1,75.188,32.581Zm-25.164-11.2a7.548,7.548,0,0,1,2.772-6.1,10.011,10.011,0,0,1,6.3-2.062c4.381,0,9.112,2.564,9.112,8.181v3.239a8.053,8.053,0,0,0-6.951,9.108h-.247c-3.57.006-5.713,1.859-6.194,5.4-.033.243-.063.56-.089.7h-4.7Zm4.648,23.843H49.852a14.378,14.378,0,0,0,.229-2.22V41.89h4.513A32.133,32.133,0,0,0,54.672,45.226Zm-6.621-2.22a12.546,12.546,0,0,1-.2,2.22H30.1a12.58,12.58,0,0,1-.173-2.22V41.89H48.051Zm-.768,4.25a9.083,9.083,0,0,1-16.615,0ZM18.238,29.85a1.634,1.634,0,0,1,.207-1.41A1.209,1.209,0,0,1,19.383,28a1.187,1.187,0,0,1,1.152.887,8.527,8.527,0,0,0,16.838,0A1.186,1.186,0,0,1,38.524,28a1.208,1.208,0,0,1,.938.436,1.666,1.666,0,0,1,.2,1.446,10.923,10.923,0,0,1-21.424-.036Zm2.14,12.04h7.514v1.116a14.385,14.385,0,0,0,.205,2.22H19.481v-2.5A.882.882,0,0,1,20.378,41.89ZM69.369,77.918c0,.594-.012,2.114-3.259,2.114H21.272c-3.246,0-3.242-1.52-3.242-2.114V75.826h13.2v.547a2.463,2.463,0,0,0,2.45,2.5H53.706a2.477,2.477,0,0,0,2.466-2.5v-.547h13.2v2.092ZM54.142,75.826v.547a.417.417,0,0,1-.436.468H33.677a.525.525,0,0,1-.564-.468v-.547ZM67.919,73.8H19.481V47.256h9.094a11.016,11.016,0,0,0,20.8,0h5.487c.237,1.885.591,3.913.941,5.837.286,1.572.575,3.155.8,4.75H52.486a2.059,2.059,0,0,0-1.476.659c-.993.99-1.609,3.119-1.609,5.557,0,5.058,1.962,8.168,5.122,8.173,0,0,0-.033.005-.033h0l13.389.04ZM54.4,70.311c-2.224-.122-3.022-3.285-3.022-6.239,0-2.658.8-4.1,1.1-4.245.338.169,1.123,1.624,1.123,4.261a1,1,0,0,0,.987,1.008h2.329C56.726,67.27,56.113,69.745,54.4,70.311Zm1.143-7.246a9.578,9.578,0,0,0-.727-3.191h2.021c.1,1.015.165,2.175.163,3.191Zm26.79,3.468c-.348,2.567-1.656,3.712-4.239,3.717l-20.676.038a11.758,11.758,0,0,0,1.524-5.878,51.008,51.008,0,0,0-1.193-11.7c-.817-4.5-1.588-8.742-.974-13.268.348-2.565,1.655-3.712,4.288-3.717h.748A8,8,0,0,0,76.53,35.7l5.157-.009a11.761,11.761,0,0,0-1.525,5.878,51,51,0,0,0,1.193,11.7C82.172,57.76,82.943,62.007,82.329,66.532Z" transform="translate(0 0)" fill="#fff"/>
        <path id="Trazado_912279" data-name="Trazado 912279" d="M356.274,363h-14.1a1.016,1.016,0,0,0,0,2.03h14.1a1.016,1.016,0,0,0,0-2.03Z" transform="translate(-278.026 -300.951)" fill="#fff"/>
        <path id="Trazado_912280" data-name="Trazado 912280" d="M338.143,388h-2.283a1.016,1.016,0,0,0,0,2.03h2.283a1.016,1.016,0,0,0,0-2.03Z" transform="translate(-272.627 -322.325)" fill="#fff"/>
        <path id="Trazado_912281" data-name="Trazado 912281" d="M380.818,388h-8.866a1.016,1.016,0,0,0,0,2.03h8.866a1.016,1.016,0,0,0,0-2.03Z" transform="translate(-303.486 -322.325)" fill="#fff"/>
        <path id="Trazado_912282" data-name="Trazado 912282" d="M370.966,339.015a1.012,1.012,0,0,0,.987,1.015h8.866a1.016,1.016,0,0,0,0-2.03h-8.866A1.012,1.012,0,0,0,370.966,339.015Z" transform="translate(-303.487 -279.577)" fill="#fff"/>
        <path id="Trazado_912283" data-name="Trazado 912283" d="M335.859,340.03h2.283a1.016,1.016,0,0,0,0-2.03h-2.283a1.016,1.016,0,0,0,0,2.03Z" transform="translate(-272.627 -279.577)" fill="#fff"/>
        <path id="Trazado_912284" data-name="Trazado 912284" d="M353.046,134.561a4.282,4.282,0,1,0,4.282-4.281,4.287,4.287,0,0,0-4.282,4.281Zm6.59,0a2.308,2.308,0,1,1-2.308-2.307A2.31,2.31,0,0,1,359.636,134.561Z" transform="translate(-288.166 -101.981)" fill="#fff"/>
        <path id="Trazado_912285" data-name="Trazado 912285" d="M343.98,238.557H345.9v1.971a.926.926,0,0,0,.972.929h3.733a.909.909,0,0,0,.951-.929v-1.971H353.5a.909.909,0,0,0,.958-.921V233.9a.976.976,0,0,0-.958-1h-1.943V231.01a.977.977,0,0,0-.951-1.01h-3.733a.994.994,0,0,0-.972,1.01V232.9H343.98a.994.994,0,0,0-.98,1v3.733A.927.927,0,0,0,343.98,238.557Zm1.05-3.626h1.842a1.086,1.086,0,0,0,1.058-1.028V232.03h1.74V233.9a.98.98,0,0,0,.934,1.028h1.966v1.74h-1.966a.924.924,0,0,0-.934.964v1.937h-1.74v-1.937a1.031,1.031,0,0,0-1.058-.964H345.03Z" transform="translate(-279.577 -187.239)" fill="#fff"/>
      </g>
    </g>
  </g>
</svg>
