<svg xmlns="http://www.w3.org/2000/svg" xmlns:xlink="http://www.w3.org/1999/xlink" width="123.001" height="123" viewBox="0 0 123.001 123">
  <defs>
    <linearGradient id="linear-gradient" x1="0.5" x2="0.5" y2="1" gradientUnits="objectBoundingBox">
      <stop offset="0" stop-color="#ddf1ff"/>
      <stop offset="1" stop-color="#fff"/>
    </linearGradient>
    <clipPath id="clip-path">
      <rect id="Rectángulo_410575" data-name="Rectángulo 410575" width="72" height="72" fill="#445866"/>
    </clipPath>
  </defs>
  <g id="img4" transform="translate(-264.668 -6026)">
    <g id="Grupo_1099808" data-name="Grupo 1099808" transform="translate(264.668 6026)">
      <g id="Grupo_1099775" data-name="Grupo 1099775" transform="translate(0 0)">
        <g id="Grupo_1099770" data-name="Grupo 1099770" transform="translate(0 0)">
          <rect id="Rectángulo_401345" data-name="Rectángulo 401345" width="104.839" height="104.839" transform="translate(9 9.16)" fill="url(#linear-gradient)"/>
          <path id="Sustracción_141" data-name="Sustracción 141" d="M106.183,123,0,106.181,16.822,0,123,16.819,106.183,123v0h0v0ZM23.2,8.788,8.783,99.8,99.8,114.212,114.214,23.2,23.2,8.788Z" transform="translate(0 0)" fill="#8ce2e5"/>
        </g>
      </g>
      <g id="Grupo_1099776" data-name="Grupo 1099776" transform="translate(25 24.995)">
        <g id="Grupo_1099618" data-name="Grupo 1099618" transform="translate(0 0)">
          <rect id="Rectángulo_401104" data-name="Rectángulo 401104" width="72.141" height="73.01" transform="translate(0)" fill="none"/>
        </g>
        <g id="Grupo_1122005" data-name="Grupo 1122005" transform="translate(0 1.005)">
          <g id="Grupo_1122004" data-name="Grupo 1122004" clip-path="url(#clip-path)">
            <path id="Trazado_911860" data-name="Trazado 911860" d="M23.161,34.2a1.054,1.054,0,0,1-.446-.1l-7.692-3.586A15.236,15.236,0,0,1,5.19,26.725a1.055,1.055,0,1,1,1.393-1.584,13.13,13.13,0,0,0,8.678,3.27,1.056,1.056,0,0,1,.446.1l6.4,2.984V27.066a1.055,1.055,0,0,1,.468-.876A13.149,13.149,0,1,0,3.737,21.6a1.055,1.055,0,0,1-1.846,1.02,15.261,15.261,0,1,1,22.325,5v5.532A1.055,1.055,0,0,1,23.161,34.2" fill="#445866"/>
            <path id="Trazado_911861" data-name="Trazado 911861" d="M202.28,227.936a1.055,1.055,0,0,1-1.055-1.055V213.736a1.055,1.055,0,1,1,2.109,0v13.145a1.055,1.055,0,0,1-1.055,1.055" transform="translate(-172.928 -182.773)" fill="#445866"/>
            <path id="Trazado_911862" data-name="Trazado 911862" d="M379.665,218.858a1.055,1.055,0,0,1-1.055-1.055v-4.068a1.055,1.055,0,0,1,2.109,0V217.8a1.055,1.055,0,0,1-1.055,1.055" transform="translate(-325.368 -182.772)" fill="#445866"/>
            <path id="Trazado_911863" data-name="Trazado 911863" d="M379.665,282.875a1.055,1.055,0,0,1-1.055-1.055v-4.155a1.055,1.055,0,0,1,2.109,0v4.155a1.055,1.055,0,0,1-1.055,1.055" transform="translate(-325.368 -237.712)" fill="#445866"/>
            <path id="Trazado_911864" data-name="Trazado 911864" d="M169.751,320.131a1.07,1.07,0,0,1-.215-.022,1.055,1.055,0,0,1-.819-1.247l2.368-11.447a5.623,5.623,0,0,1,5.484-4.466h6.9a1.055,1.055,0,0,1,0,2.109h-6.9a3.5,3.5,0,0,0-3.419,2.784l-2.368,11.447a1.055,1.055,0,0,1-1.032.841" transform="translate(-144.973 -260.348)" fill="#445866"/>
            <path id="Trazado_911865" data-name="Trazado 911865" d="M326.579,311.607a1.055,1.055,0,0,1-1.032-.841l-.605-2.923a3.5,3.5,0,0,0-3.417-2.784h-6.9a1.055,1.055,0,0,1,0-2.109h6.9a5.621,5.621,0,0,1,5.483,4.466l.605,2.923a1.056,1.056,0,0,1-1.034,1.269" transform="translate(-269.473 -260.347)" fill="#445866"/>
            <path id="Trazado_911866" data-name="Trazado 911866" d="M270.645,289.536a4.386,4.386,0,0,1-4.381-4.381v-3.689a1.055,1.055,0,0,1,2.109,0v3.689a2.271,2.271,0,1,0,4.543,0v-3.689a1.055,1.055,0,0,1,2.109,0v3.689a4.386,4.386,0,0,1-4.381,4.381" transform="translate(-228.821 -240.978)" fill="#445866"/>
            <path id="Trazado_911867" data-name="Trazado 911867" d="M233.8,228.945a10.421,10.421,0,0,1-10.409-10.41,1.055,1.055,0,0,1,2.109,0,8.3,8.3,0,1,0,16.6,0,1.055,1.055,0,0,1,2.109,0,10.421,10.421,0,0,1-10.409,10.41" transform="translate(-191.98 -186.898)" fill="#445866"/>
            <path id="Trazado_911868" data-name="Trazado 911868" d="M198.405,178.938h-.935a4.381,4.381,0,1,1,0-8.762h.935a1.055,1.055,0,0,1,1.055,1.055v6.652a1.055,1.055,0,0,1-1.055,1.055m-1.055-6.649a2.271,2.271,0,0,0,0,4.537Z" transform="translate(-165.936 -146.245)" fill="#445866"/>
            <path id="Trazado_911869" data-name="Trazado 911869" d="M358.43,178.938h-.935a1.055,1.055,0,0,1-1.055-1.055v-6.652a1.055,1.055,0,0,1,1.055-1.055h.935a4.381,4.381,0,1,1,0,8.762m.119-6.649v4.537a2.271,2.271,0,0,0,0-4.537" transform="translate(-306.316 -146.245)" fill="#445866"/>
            <path id="Trazado_911870" data-name="Trazado 911870" d="M227.222,66.841H224.1a1.051,1.051,0,0,1-.259-.032c-2.574-.653-3.844-3.12-4.427-4.825l-2.329,1.9a13.181,13.181,0,0,1-8.307,2.958h-6.505a1.055,1.055,0,0,1-1.055-1.055V61a13.528,13.528,0,1,1,27.055,0v4.781a1.055,1.055,0,0,1-1.055,1.055m-2.976-2.109h1.921V61a11.418,11.418,0,1,0-22.837,0v3.727h5.451a11.065,11.065,0,0,0,6.974-2.483l3.6-2.935a1.055,1.055,0,0,1,1.708.653c.006.039.676,4.013,3.184,4.765" transform="translate(-172.924 -40.801)" fill="#445866"/>
            <path id="Trazado_911871" data-name="Trazado 911871" d="M472.016,389.728h-4.261a1.055,1.055,0,0,1-1.055-1.055v-5.539a1.055,1.055,0,1,1,2.109,0v4.485h2.152V371.829h-2.152v6.383a1.055,1.055,0,0,1-2.109,0v-7.438a1.055,1.055,0,0,1,1.055-1.055h4.261a1.055,1.055,0,0,1,1.055,1.055v17.9a1.055,1.055,0,0,1-1.055,1.055" transform="translate(-401.07 -317.728)" fill="#445866"/>
            <path id="Trazado_911872" data-name="Trazado 911872" d="M112.5,366.714H95.026a18.151,18.151,0,0,1-3.48-.337L67.652,361.7a7.848,7.848,0,0,1-4.054-2.159l-8.976-8.976a4.464,4.464,0,1,1,6.313-6.313l8.141,8.141h8a4.469,4.469,0,0,1,4.447-5.4H92.086a5.069,5.069,0,0,1,4.656-3.125h7.182a5.017,5.017,0,0,1,4.964,4.2l.246,1.477H112.5a1.055,1.055,0,1,1,0,2.109h-4.262a1.055,1.055,0,0,1-1.04-.881l-.393-2.359a2.914,2.914,0,0,0-2.883-2.442H96.742a2.939,2.939,0,0,0-2.855,2.3,1.054,1.054,0,0,1-1.03.829H81.521a2.4,2.4,0,0,0-2.436,2.347,2.336,2.336,0,0,0,.442,1.38,1.055,1.055,0,0,1-.856,1.671H68.638a1.056,1.056,0,0,1-.746-.309l-8.449-8.45a2.355,2.355,0,1,0-3.33,3.33l8.976,8.976a5.744,5.744,0,0,0,2.968,1.581l23.895,4.68a16.031,16.031,0,0,0,3.074.3H112.5a1.055,1.055,0,1,1,0,2.109" transform="translate(-45.818 -294.714)" fill="#445866"/>
            <path id="Trazado_911873" data-name="Trazado 911873" d="M243.3,415.076a1.051,1.051,0,0,1-.746-.309l-1.112-1.112h-11.5a4.44,4.44,0,0,1-3.156-1.307,4.313,4.313,0,0,1-.473-.559,1.055,1.055,0,1,1,1.722-1.218,2.209,2.209,0,0,0,.241.285,2.344,2.344,0,0,0,1.665.69h11.932a1.054,1.054,0,0,1,.746.309l1.421,1.42a1.055,1.055,0,0,1-.746,1.8" transform="translate(-194.329 -352.451)" fill="#445866"/>
            <path id="Trazado_911874" data-name="Trazado 911874" d="M47.506,56.658H45.518a2.194,2.194,0,0,1-2.191-2.191V49.7H38.557a2.194,2.194,0,0,1-2.191-2.191V45.518a2.193,2.193,0,0,1,2.191-2.191h4.77V38.557a2.194,2.194,0,0,1,2.191-2.191h1.989A2.194,2.194,0,0,1,49.7,38.557v4.77h4.769a2.191,2.191,0,0,1,2.191,2.192v1.988A2.194,2.194,0,0,1,54.467,49.7H49.7v4.769a2.194,2.194,0,0,1-2.191,2.191M38.557,45.436a.082.082,0,0,0-.082.082v1.989a.082.082,0,0,0,.082.082H44.1a1.34,1.34,0,0,1,1.339,1.339v5.54a.082.082,0,0,0,.082.082h1.989a.082.082,0,0,0,.082-.082v-5.54a1.34,1.34,0,0,1,1.339-1.339h5.54a.082.082,0,0,0,.082-.082V45.518a.081.081,0,0,0-.081-.082h-5.54A1.34,1.34,0,0,1,47.588,44.1v-5.54a.082.082,0,0,0-.082-.082H45.518a.082.082,0,0,0-.082.082V44.1A1.34,1.34,0,0,1,44.1,45.436Z" transform="translate(-31.252 -31.252)" fill="#445866"/>
          </g>
        </g>
      </g>
    </g>
  </g>
</svg>
