<svg xmlns="http://www.w3.org/2000/svg" xmlns:xlink="http://www.w3.org/1999/xlink" width="247.625" height="528.601" viewBox="0 0 247.625 528.601">
  <defs>
    <clipPath id="clip-path">
      <path id="Trazado_194907" data-name="Trazado 194907" d="M0,139.241c0,47.447,39.179,85.908,87.511,85.908s87.511-38.461,87.511-85.908S135.841,53.333,87.511,53.333,0,91.8,0,139.241" transform="translate(0 -53.333)" fill="#8ce2e5"/>
    </clipPath>
    <clipPath id="clip-path-2">
      <path id="Trazado_194907-2" data-name="Trazado 194907" d="M0,95.647A42.315,42.315,0,1,0,42.315,53.333,42.315,42.315,0,0,0,0,95.647" transform="translate(0 -53.333)" fill="#7f4fc7"/>
    </clipPath>
    <clipPath id="clip-path-3">
      <rect id="Rectángulo_46351" data-name="Rectángulo 46351" width="115.414" height="119.42" fill="none"/>
    </clipPath>
    <clipPath id="clip-path-4">
      <rect id="Rectángulo_410368" data-name="Rectángulo 410368" width="184.465" height="528.601" fill="none"/>
    </clipPath>
  </defs>
  <g id="img5" transform="translate(-2.443 0)">
    <g id="Grupo_155444" data-name="Grupo 155444" transform="translate(1.513 22.364)">
      <g id="Grupo_155253" data-name="Grupo 155253" transform="translate(5.211 181.396)">
        <path id="Trazado_196478" data-name="Trazado 196478" d="M319.689,149.033q-.327.339-.648.683a52.147,52.147,0,0,0-14.068,37.632l21.849-.761a30.63,30.63,0,1,1,61.222-2.141l21.849-.761a52.492,52.492,0,0,0-90.2-34.646" transform="translate(-304.936 -133.025)" fill="#9ac1df"/>
        <path id="Trazado_196479" data-name="Trazado 196479" d="M304.88,231.066A52.492,52.492,0,1,0,409.8,227.4l-21.85.761a30.629,30.629,0,0,1-61.221,2.141Z" transform="translate(-304.844 -176.744)" fill="#2a5f61"/>
      </g>
      <g id="Grupo_154313" data-name="Grupo 154313" transform="translate(73.533 321.892)">
        <g id="Grupo_152768" data-name="Grupo 152768" clip-path="url(#clip-path)">
          <path id="Trazado_194826" data-name="Trazado 194826" d="M4.605,55.593a2.284,2.284,0,0,0-2.3-2.26,2.262,2.262,0,1,0,0,4.522,2.284,2.284,0,0,0,2.3-2.263" transform="translate(0.001 -53.333)" fill="#8ce2e5"/>
          <path id="Trazado_194827" data-name="Trazado 194827" d="M12.879,55.589a2.3,2.3,0,1,0-2.3,2.263,2.3,2.3,0,0,0,2.3-2.263" transform="translate(13.028 -53.329)" fill="#8ce2e5"/>
          <path id="Trazado_194828" data-name="Trazado 194828" d="M21.152,55.589a2.3,2.3,0,1,0-2.3,2.263,2.3,2.3,0,0,0,2.3-2.263" transform="translate(26.059 -53.329)" fill="#8ce2e5"/>
          <path id="Trazado_194829" data-name="Trazado 194829" d="M29.425,55.589a2.3,2.3,0,1,0-2.3,2.263,2.3,2.3,0,0,0,2.3-2.263" transform="translate(39.088 -53.329)" fill="#8ce2e5"/>
          <path id="Trazado_194830" data-name="Trazado 194830" d="M37.7,55.589a2.3,2.3,0,1,0-2.3,2.263,2.3,2.3,0,0,0,2.3-2.263" transform="translate(52.116 -53.329)" fill="#8ce2e5"/>
          <path id="Trazado_194831" data-name="Trazado 194831" d="M45.966,55.589a2.3,2.3,0,1,0-2.3,2.263,2.3,2.3,0,0,0,2.3-2.263" transform="translate(65.146 -53.329)" fill="#8ce2e5"/>
          <path id="Trazado_194832" data-name="Trazado 194832" d="M54.242,55.589a2.3,2.3,0,1,0-2.3,2.263,2.3,2.3,0,0,0,2.3-2.263" transform="translate(78.175 -53.329)" fill="#8ce2e5"/>
          <path id="Trazado_194833" data-name="Trazado 194833" d="M62.515,55.589a2.3,2.3,0,1,0-2.3,2.263,2.3,2.3,0,0,0,2.3-2.263" transform="translate(91.204 -53.329)" fill="#8ce2e5"/>
          <path id="Trazado_194834" data-name="Trazado 194834" d="M70.788,55.589a2.3,2.3,0,1,0-2.3,2.262,2.3,2.3,0,0,0,2.3-2.262" transform="translate(104.234 -53.329)" fill="#8ce2e5"/>
          <path id="Trazado_194835" data-name="Trazado 194835" d="M4.609,63.866a2.284,2.284,0,0,0-2.3-2.26,2.26,2.26,0,0,0,0,4.52,2.284,2.284,0,0,0,2.3-2.26" transform="translate(-0.002 -40.693)" fill="#8ce2e5"/>
          <path id="Trazado_194836" data-name="Trazado 194836" d="M12.879,63.862a2.3,2.3,0,1,0-2.3,2.26,2.3,2.3,0,0,0,2.3-2.26" transform="translate(13.028 -40.689)" fill="#8ce2e5"/>
          <path id="Trazado_194837" data-name="Trazado 194837" d="M21.152,63.862a2.3,2.3,0,1,0-2.3,2.26,2.3,2.3,0,0,0,2.3-2.26" transform="translate(26.059 -40.689)" fill="#8ce2e5"/>
          <path id="Trazado_194838" data-name="Trazado 194838" d="M29.425,63.862a2.3,2.3,0,1,0-2.3,2.26,2.3,2.3,0,0,0,2.3-2.26" transform="translate(39.088 -40.689)" fill="#8ce2e5"/>
          <path id="Trazado_194839" data-name="Trazado 194839" d="M37.7,63.862a2.3,2.3,0,1,0-2.3,2.26,2.3,2.3,0,0,0,2.3-2.26" transform="translate(52.116 -40.689)" fill="#8ce2e5"/>
          <path id="Trazado_194840" data-name="Trazado 194840" d="M45.966,63.862a2.3,2.3,0,1,0-2.3,2.26,2.3,2.3,0,0,0,2.3-2.26" transform="translate(65.146 -40.689)" fill="#8ce2e5"/>
          <path id="Trazado_194841" data-name="Trazado 194841" d="M54.242,63.862a2.3,2.3,0,1,0-2.3,2.26,2.3,2.3,0,0,0,2.3-2.26" transform="translate(78.175 -40.689)" fill="#8ce2e5"/>
          <path id="Trazado_194842" data-name="Trazado 194842" d="M62.515,63.862a2.3,2.3,0,1,0-2.3,2.26,2.3,2.3,0,0,0,2.3-2.26" transform="translate(91.204 -40.689)" fill="#8ce2e5"/>
          <path id="Trazado_194843" data-name="Trazado 194843" d="M70.788,63.862a2.3,2.3,0,1,0-2.3,2.26,2.3,2.3,0,0,0,2.3-2.26" transform="translate(104.234 -40.689)" fill="#8ce2e5"/>
          <path id="Trazado_194844" data-name="Trazado 194844" d="M4.609,72.139a2.284,2.284,0,0,0-2.3-2.26,2.26,2.26,0,0,0,0,4.52,2.284,2.284,0,0,0,2.3-2.26" transform="translate(-0.002 -28.054)" fill="#8ce2e5"/>
          <path id="Trazado_194845" data-name="Trazado 194845" d="M12.879,72.135a2.3,2.3,0,1,0-2.3,2.26,2.3,2.3,0,0,0,2.3-2.26" transform="translate(13.028 -28.049)" fill="#8ce2e5"/>
          <path id="Trazado_194846" data-name="Trazado 194846" d="M21.152,72.135a2.3,2.3,0,1,0-2.3,2.26,2.3,2.3,0,0,0,2.3-2.26" transform="translate(26.059 -28.049)" fill="#8ce2e5"/>
          <path id="Trazado_194847" data-name="Trazado 194847" d="M29.425,72.135a2.3,2.3,0,1,0-2.3,2.26,2.3,2.3,0,0,0,2.3-2.26" transform="translate(39.088 -28.049)" fill="#8ce2e5"/>
          <path id="Trazado_194848" data-name="Trazado 194848" d="M37.7,72.135a2.3,2.3,0,1,0-2.3,2.26,2.3,2.3,0,0,0,2.3-2.26" transform="translate(52.116 -28.049)" fill="#8ce2e5"/>
          <path id="Trazado_194849" data-name="Trazado 194849" d="M45.966,72.135a2.3,2.3,0,1,0-2.3,2.26,2.3,2.3,0,0,0,2.3-2.26" transform="translate(65.146 -28.049)" fill="#8ce2e5"/>
          <path id="Trazado_194850" data-name="Trazado 194850" d="M54.242,72.135a2.3,2.3,0,1,0-2.3,2.26,2.3,2.3,0,0,0,2.3-2.26" transform="translate(78.175 -28.049)" fill="#8ce2e5"/>
          <path id="Trazado_194851" data-name="Trazado 194851" d="M62.515,72.135a2.3,2.3,0,1,0-2.3,2.26,2.3,2.3,0,0,0,2.3-2.26" transform="translate(91.204 -28.049)" fill="#8ce2e5"/>
          <path id="Trazado_194852" data-name="Trazado 194852" d="M70.788,72.135a2.3,2.3,0,1,0-2.3,2.26,2.3,2.3,0,0,0,2.3-2.26" transform="translate(104.234 -28.049)" fill="#8ce2e5"/>
          <path id="Trazado_194853" data-name="Trazado 194853" d="M4.609,80.411a2.284,2.284,0,0,0-2.3-2.26,2.26,2.26,0,0,0,0,4.52,2.284,2.284,0,0,0,2.3-2.26" transform="translate(-0.002 -15.416)" fill="#8ce2e5"/>
          <path id="Trazado_194854" data-name="Trazado 194854" d="M12.879,80.407a2.3,2.3,0,1,0-2.3,2.259,2.3,2.3,0,0,0,2.3-2.259" transform="translate(13.028 -15.411)" fill="#8ce2e5"/>
          <path id="Trazado_194855" data-name="Trazado 194855" d="M21.152,80.407a2.3,2.3,0,1,0-2.3,2.259,2.3,2.3,0,0,0,2.3-2.259" transform="translate(26.059 -15.411)" fill="#8ce2e5"/>
          <path id="Trazado_194856" data-name="Trazado 194856" d="M29.425,80.407a2.3,2.3,0,1,0-2.3,2.259,2.3,2.3,0,0,0,2.3-2.259" transform="translate(39.088 -15.411)" fill="#8ce2e5"/>
          <path id="Trazado_194857" data-name="Trazado 194857" d="M37.7,80.407a2.3,2.3,0,1,0-2.3,2.259,2.3,2.3,0,0,0,2.3-2.259" transform="translate(52.116 -15.411)" fill="#8ce2e5"/>
          <path id="Trazado_194858" data-name="Trazado 194858" d="M45.966,80.407a2.3,2.3,0,1,0-2.3,2.259,2.3,2.3,0,0,0,2.3-2.259" transform="translate(65.146 -15.411)" fill="#8ce2e5"/>
          <path id="Trazado_194859" data-name="Trazado 194859" d="M54.242,80.407a2.3,2.3,0,1,0-2.3,2.259,2.3,2.3,0,0,0,2.3-2.259" transform="translate(78.175 -15.411)" fill="#8ce2e5"/>
          <path id="Trazado_194860" data-name="Trazado 194860" d="M62.515,80.407a2.3,2.3,0,1,0-2.3,2.259,2.3,2.3,0,0,0,2.3-2.259" transform="translate(91.204 -15.411)" fill="#8ce2e5"/>
          <path id="Trazado_194861" data-name="Trazado 194861" d="M70.788,80.407a2.3,2.3,0,1,0-2.3,2.259,2.3,2.3,0,0,0,2.3-2.259" transform="translate(104.234 -15.411)" fill="#8ce2e5"/>
          <path id="Trazado_194862" data-name="Trazado 194862" d="M4.605,88.685a2.284,2.284,0,0,0-2.3-2.26,2.262,2.262,0,1,0,0,4.522,2.284,2.284,0,0,0,2.3-2.262" transform="translate(0.001 -2.776)" fill="#8ce2e5"/>
          <path id="Trazado_194863" data-name="Trazado 194863" d="M12.879,88.681a2.3,2.3,0,1,0-2.3,2.262,2.3,2.3,0,0,0,2.3-2.262" transform="translate(13.028 -2.771)" fill="#8ce2e5"/>
          <path id="Trazado_194864" data-name="Trazado 194864" d="M21.152,88.681a2.3,2.3,0,1,0-2.3,2.262,2.3,2.3,0,0,0,2.3-2.262" transform="translate(26.059 -2.771)" fill="#8ce2e5"/>
          <path id="Trazado_194865" data-name="Trazado 194865" d="M29.425,88.681a2.3,2.3,0,1,0-2.3,2.262,2.3,2.3,0,0,0,2.3-2.262" transform="translate(39.088 -2.771)" fill="#8ce2e5"/>
          <path id="Trazado_194866" data-name="Trazado 194866" d="M37.7,88.681a2.3,2.3,0,1,0-2.3,2.262,2.3,2.3,0,0,0,2.3-2.262" transform="translate(52.116 -2.771)" fill="#8ce2e5"/>
          <path id="Trazado_194867" data-name="Trazado 194867" d="M45.966,88.681a2.3,2.3,0,1,0-2.3,2.262,2.3,2.3,0,0,0,2.3-2.262" transform="translate(65.146 -2.771)" fill="#8ce2e5"/>
          <path id="Trazado_194868" data-name="Trazado 194868" d="M54.242,88.681a2.3,2.3,0,1,0-2.3,2.262,2.3,2.3,0,0,0,2.3-2.262" transform="translate(78.175 -2.771)" fill="#8ce2e5"/>
          <path id="Trazado_194869" data-name="Trazado 194869" d="M62.515,88.681a2.3,2.3,0,1,0-2.3,2.262,2.3,2.3,0,0,0,2.3-2.262" transform="translate(91.204 -2.771)" fill="#8ce2e5"/>
          <path id="Trazado_194870" data-name="Trazado 194870" d="M70.788,88.681a2.3,2.3,0,1,0-2.3,2.261,2.3,2.3,0,0,0,2.3-2.261" transform="translate(104.234 -2.771)" fill="#8ce2e5"/>
          <path id="Trazado_194871" data-name="Trazado 194871" d="M4.609,96.957a2.284,2.284,0,0,0-2.3-2.257,2.26,2.26,0,0,0,0,4.52,2.284,2.284,0,0,0,2.3-2.26" transform="translate(-0.002 9.864)" fill="#8ce2e5"/>
          <path id="Trazado_194872" data-name="Trazado 194872" d="M12.879,96.953a2.3,2.3,0,1,0-2.3,2.26,2.3,2.3,0,0,0,2.3-2.26" transform="translate(13.028 9.869)" fill="#8ce2e5"/>
          <path id="Trazado_194873" data-name="Trazado 194873" d="M21.152,96.953a2.3,2.3,0,1,0-2.3,2.26,2.3,2.3,0,0,0,2.3-2.26" transform="translate(26.059 9.869)" fill="#8ce2e5"/>
          <path id="Trazado_194874" data-name="Trazado 194874" d="M29.425,96.953a2.3,2.3,0,1,0-2.3,2.26,2.3,2.3,0,0,0,2.3-2.26" transform="translate(39.088 9.869)" fill="#8ce2e5"/>
          <path id="Trazado_194875" data-name="Trazado 194875" d="M37.7,96.953a2.3,2.3,0,1,0-2.3,2.26,2.3,2.3,0,0,0,2.3-2.26" transform="translate(52.116 9.869)" fill="#8ce2e5"/>
          <path id="Trazado_194876" data-name="Trazado 194876" d="M45.966,96.953a2.3,2.3,0,1,0-2.3,2.26,2.3,2.3,0,0,0,2.3-2.26" transform="translate(65.146 9.869)" fill="#8ce2e5"/>
          <path id="Trazado_194877" data-name="Trazado 194877" d="M54.242,96.953a2.3,2.3,0,1,0-2.3,2.26,2.3,2.3,0,0,0,2.3-2.26" transform="translate(78.175 9.869)" fill="#8ce2e5"/>
          <path id="Trazado_194878" data-name="Trazado 194878" d="M62.515,96.953a2.3,2.3,0,1,0-2.3,2.26,2.3,2.3,0,0,0,2.3-2.26" transform="translate(91.204 9.869)" fill="#8ce2e5"/>
          <path id="Trazado_194879" data-name="Trazado 194879" d="M70.788,96.953a2.3,2.3,0,1,0-2.3,2.26,2.3,2.3,0,0,0,2.3-2.26" transform="translate(104.234 9.869)" fill="#8ce2e5"/>
          <path id="Trazado_194880" data-name="Trazado 194880" d="M4.609,105.229a2.284,2.284,0,0,0-2.3-2.26,2.26,2.26,0,1,0,0,4.52,2.284,2.284,0,0,0,2.3-2.26" transform="translate(-0.002 22.503)" fill="#8ce2e5"/>
          <path id="Trazado_194881" data-name="Trazado 194881" d="M12.879,105.225a2.3,2.3,0,1,0-2.3,2.26,2.3,2.3,0,0,0,2.3-2.26" transform="translate(13.028 22.507)" fill="#8ce2e5"/>
          <path id="Trazado_194882" data-name="Trazado 194882" d="M21.152,105.225a2.3,2.3,0,1,0-2.3,2.26,2.3,2.3,0,0,0,2.3-2.26" transform="translate(26.059 22.507)" fill="#8ce2e5"/>
          <path id="Trazado_194883" data-name="Trazado 194883" d="M29.425,105.225a2.3,2.3,0,1,0-2.3,2.26,2.3,2.3,0,0,0,2.3-2.26" transform="translate(39.088 22.507)" fill="#8ce2e5"/>
          <path id="Trazado_194884" data-name="Trazado 194884" d="M37.7,105.225a2.3,2.3,0,1,0-2.3,2.26,2.3,2.3,0,0,0,2.3-2.26" transform="translate(52.116 22.507)" fill="#8ce2e5"/>
          <path id="Trazado_194885" data-name="Trazado 194885" d="M45.966,105.225a2.3,2.3,0,1,0-2.3,2.26,2.3,2.3,0,0,0,2.3-2.26" transform="translate(65.146 22.507)" fill="#8ce2e5"/>
          <path id="Trazado_194886" data-name="Trazado 194886" d="M54.242,105.225a2.3,2.3,0,1,0-2.3,2.26,2.3,2.3,0,0,0,2.3-2.26" transform="translate(78.175 22.507)" fill="#8ce2e5"/>
          <path id="Trazado_194887" data-name="Trazado 194887" d="M62.515,105.225a2.3,2.3,0,1,0-2.3,2.26,2.3,2.3,0,0,0,2.3-2.26" transform="translate(91.204 22.507)" fill="#8ce2e5"/>
          <path id="Trazado_194888" data-name="Trazado 194888" d="M70.788,105.225a2.3,2.3,0,1,0-2.3,2.26,2.3,2.3,0,0,0,2.3-2.26" transform="translate(104.234 22.507)" fill="#8ce2e5"/>
          <path id="Trazado_194889" data-name="Trazado 194889" d="M4.609,113.5a2.284,2.284,0,0,0-2.3-2.26,2.26,2.26,0,0,0,0,4.52,2.284,2.284,0,0,0,2.3-2.26" transform="translate(-0.002 35.142)" fill="#8ce2e5"/>
          <path id="Trazado_194890" data-name="Trazado 194890" d="M12.879,113.5a2.3,2.3,0,1,0-2.3,2.26,2.3,2.3,0,0,0,2.3-2.26" transform="translate(13.028 35.146)" fill="#8ce2e5"/>
          <path id="Trazado_194891" data-name="Trazado 194891" d="M21.152,113.5a2.3,2.3,0,1,0-2.3,2.26,2.3,2.3,0,0,0,2.3-2.26" transform="translate(26.059 35.146)" fill="#8ce2e5"/>
          <path id="Trazado_194892" data-name="Trazado 194892" d="M29.425,113.5a2.3,2.3,0,1,0-2.3,2.26,2.3,2.3,0,0,0,2.3-2.26" transform="translate(39.088 35.146)" fill="#8ce2e5"/>
          <path id="Trazado_194893" data-name="Trazado 194893" d="M37.7,113.5a2.3,2.3,0,1,0-2.3,2.26,2.3,2.3,0,0,0,2.3-2.26" transform="translate(52.116 35.146)" fill="#8ce2e5"/>
          <path id="Trazado_194894" data-name="Trazado 194894" d="M45.966,113.5a2.3,2.3,0,1,0-2.3,2.26,2.3,2.3,0,0,0,2.3-2.26" transform="translate(65.146 35.146)" fill="#8ce2e5"/>
          <path id="Trazado_194895" data-name="Trazado 194895" d="M54.242,113.5a2.3,2.3,0,1,0-2.3,2.26,2.3,2.3,0,0,0,2.3-2.26" transform="translate(78.175 35.146)" fill="#8ce2e5"/>
          <path id="Trazado_194896" data-name="Trazado 194896" d="M62.515,113.5a2.3,2.3,0,1,0-2.3,2.26,2.3,2.3,0,0,0,2.3-2.26" transform="translate(91.204 35.146)" fill="#8ce2e5"/>
          <path id="Trazado_194897" data-name="Trazado 194897" d="M70.788,113.5a2.3,2.3,0,1,0-2.3,2.26,2.3,2.3,0,0,0,2.3-2.26" transform="translate(104.234 35.146)" fill="#8ce2e5"/>
          <path id="Trazado_194898" data-name="Trazado 194898" d="M4.609,121.774a2.284,2.284,0,0,0-2.3-2.26,2.26,2.26,0,0,0,0,4.52,2.284,2.284,0,0,0,2.3-2.26" transform="translate(-0.002 47.78)" fill="#8ce2e5"/>
          <path id="Trazado_194899" data-name="Trazado 194899" d="M12.879,121.77a2.3,2.3,0,1,0-2.3,2.26,2.3,2.3,0,0,0,2.3-2.26" transform="translate(13.028 47.784)" fill="#8ce2e5"/>
          <path id="Trazado_194900" data-name="Trazado 194900" d="M21.152,121.77a2.3,2.3,0,1,0-2.3,2.26,2.3,2.3,0,0,0,2.3-2.26" transform="translate(26.059 47.784)" fill="#8ce2e5"/>
          <path id="Trazado_194901" data-name="Trazado 194901" d="M29.425,121.77a2.3,2.3,0,1,0-2.3,2.26,2.3,2.3,0,0,0,2.3-2.26" transform="translate(39.088 47.784)" fill="#8ce2e5"/>
          <path id="Trazado_194902" data-name="Trazado 194902" d="M37.7,121.77a2.3,2.3,0,1,0-2.3,2.26,2.3,2.3,0,0,0,2.3-2.26" transform="translate(52.116 47.784)" fill="#8ce2e5"/>
          <path id="Trazado_194903" data-name="Trazado 194903" d="M45.966,121.77a2.3,2.3,0,1,0-2.3,2.26,2.3,2.3,0,0,0,2.3-2.26" transform="translate(65.146 47.784)" fill="#8ce2e5"/>
          <path id="Trazado_194904" data-name="Trazado 194904" d="M54.242,121.77a2.3,2.3,0,1,0-2.3,2.26,2.3,2.3,0,0,0,2.3-2.26" transform="translate(78.175 47.784)" fill="#8ce2e5"/>
          <path id="Trazado_194905" data-name="Trazado 194905" d="M62.515,121.77a2.3,2.3,0,1,0-2.3,2.26,2.3,2.3,0,0,0,2.3-2.26" transform="translate(91.204 47.784)" fill="#8ce2e5"/>
          <path id="Trazado_194906" data-name="Trazado 194906" d="M70.788,121.77a2.3,2.3,0,1,0-2.3,2.26,2.3,2.3,0,0,0,2.3-2.26" transform="translate(104.234 47.784)" fill="#8ce2e5"/>
        </g>
      </g>
      <g id="Grupo_154805" data-name="Grupo 154805" transform="translate(148.638 0)">
        <g id="Grupo_152768-2" data-name="Grupo 152768" transform="translate(0)" clip-path="url(#clip-path-2)">
          <path id="Trazado_194826-2" data-name="Trazado 194826" d="M2.228,54.443a1.113,1.113,0,1,0-1.113,1.114,1.113,1.113,0,0,0,1.113-1.114" transform="translate(0 -53.333)" fill="#7f4fc7"/>
          <path id="Trazado_194827-2" data-name="Trazado 194827" d="M10.5,54.443a1.113,1.113,0,1,0-1.113,1.114A1.113,1.113,0,0,0,10.5,54.443" transform="translate(2.028 -53.333)" fill="#7f4fc7"/>
          <path id="Trazado_194828-2" data-name="Trazado 194828" d="M18.773,54.443a1.113,1.113,0,1,0-1.113,1.114,1.113,1.113,0,0,0,1.113-1.114" transform="translate(4.056 -53.333)" fill="#7f4fc7"/>
          <path id="Trazado_194829-2" data-name="Trazado 194829" d="M27.046,54.443a1.113,1.113,0,1,0-1.113,1.114,1.113,1.113,0,0,0,1.113-1.114" transform="translate(6.083 -53.333)" fill="#7f4fc7"/>
          <path id="Trazado_194830-2" data-name="Trazado 194830" d="M35.318,54.443A1.113,1.113,0,1,0,34.2,55.558a1.113,1.113,0,0,0,1.113-1.114" transform="translate(8.111 -53.333)" fill="#7f4fc7"/>
          <path id="Trazado_194831-2" data-name="Trazado 194831" d="M43.587,54.443a1.113,1.113,0,1,0-1.113,1.114,1.113,1.113,0,0,0,1.113-1.114" transform="translate(10.139 -53.333)" fill="#7f4fc7"/>
          <path id="Trazado_194832-2" data-name="Trazado 194832" d="M51.863,54.443a1.113,1.113,0,1,0-1.113,1.114,1.113,1.113,0,0,0,1.113-1.114" transform="translate(12.167 -53.333)" fill="#7f4fc7"/>
          <path id="Trazado_194833-2" data-name="Trazado 194833" d="M60.136,54.443a1.113,1.113,0,1,0-1.113,1.114,1.113,1.113,0,0,0,1.113-1.114" transform="translate(14.194 -53.333)" fill="#7f4fc7"/>
          <path id="Trazado_194834-2" data-name="Trazado 194834" d="M68.409,54.443A1.113,1.113,0,1,0,67.3,55.558a1.113,1.113,0,0,0,1.113-1.114" transform="translate(16.222 -53.333)" fill="#7f4fc7"/>
          <path id="Trazado_194835-2" data-name="Trazado 194835" d="M2.228,62.719a1.112,1.112,0,1,0-.326.788,1.113,1.113,0,0,0,.326-.788" transform="translate(0 -51.305)" fill="#7f4fc7"/>
          <path id="Trazado_194836-2" data-name="Trazado 194836" d="M10.5,62.719a1.112,1.112,0,1,0-.326.788,1.113,1.113,0,0,0,.326-.788" transform="translate(2.028 -51.305)" fill="#7f4fc7"/>
          <path id="Trazado_194837-2" data-name="Trazado 194837" d="M18.773,62.719a1.112,1.112,0,1,0-.326.788,1.113,1.113,0,0,0,.326-.788" transform="translate(4.056 -51.305)" fill="#7f4fc7"/>
          <path id="Trazado_194838-2" data-name="Trazado 194838" d="M27.046,62.719a1.112,1.112,0,1,0-.326.788,1.113,1.113,0,0,0,.326-.788" transform="translate(6.083 -51.305)" fill="#7f4fc7"/>
          <path id="Trazado_194839-2" data-name="Trazado 194839" d="M35.318,62.719a1.112,1.112,0,1,0-.326.788,1.113,1.113,0,0,0,.326-.788" transform="translate(8.111 -51.305)" fill="#7f4fc7"/>
          <path id="Trazado_194840-2" data-name="Trazado 194840" d="M43.587,62.719a1.112,1.112,0,1,0-.326.788,1.113,1.113,0,0,0,.326-.788" transform="translate(10.139 -51.305)" fill="#7f4fc7"/>
          <path id="Trazado_194841-2" data-name="Trazado 194841" d="M51.863,62.719a1.112,1.112,0,1,0-.326.788,1.113,1.113,0,0,0,.326-.788" transform="translate(12.167 -51.305)" fill="#7f4fc7"/>
          <path id="Trazado_194842-2" data-name="Trazado 194842" d="M60.136,62.719a1.113,1.113,0,1,0-1.113,1.113,1.113,1.113,0,0,0,1.113-1.113" transform="translate(14.194 -51.305)" fill="#7f4fc7"/>
          <path id="Trazado_194843-2" data-name="Trazado 194843" d="M68.409,62.719a1.112,1.112,0,1,0-.326.788,1.113,1.113,0,0,0,.326-.788" transform="translate(16.222 -51.305)" fill="#7f4fc7"/>
          <path id="Trazado_194844-2" data-name="Trazado 194844" d="M2.228,70.992a1.112,1.112,0,1,0-.326.788,1.113,1.113,0,0,0,.326-.788" transform="translate(0 -49.277)" fill="#7f4fc7"/>
          <path id="Trazado_194845-2" data-name="Trazado 194845" d="M10.5,70.992a1.112,1.112,0,1,0-.326.788,1.113,1.113,0,0,0,.326-.788" transform="translate(2.028 -49.277)" fill="#7f4fc7"/>
          <path id="Trazado_194846-2" data-name="Trazado 194846" d="M18.773,70.992a1.112,1.112,0,1,0-.326.788,1.113,1.113,0,0,0,.326-.788" transform="translate(4.056 -49.277)" fill="#7f4fc7"/>
          <path id="Trazado_194847-2" data-name="Trazado 194847" d="M27.046,70.992a1.112,1.112,0,1,0-.326.788,1.113,1.113,0,0,0,.326-.788" transform="translate(6.083 -49.277)" fill="#7f4fc7"/>
          <path id="Trazado_194848-2" data-name="Trazado 194848" d="M35.318,70.992a1.112,1.112,0,1,0-.326.788,1.113,1.113,0,0,0,.326-.788" transform="translate(8.111 -49.277)" fill="#7f4fc7"/>
          <path id="Trazado_194849-2" data-name="Trazado 194849" d="M43.587,70.992a1.112,1.112,0,1,0-.326.788,1.113,1.113,0,0,0,.326-.788" transform="translate(10.139 -49.277)" fill="#7f4fc7"/>
          <path id="Trazado_194850-2" data-name="Trazado 194850" d="M51.863,70.992a1.112,1.112,0,1,0-.326.788,1.113,1.113,0,0,0,.326-.788" transform="translate(12.167 -49.277)" fill="#7f4fc7"/>
          <path id="Trazado_194851-2" data-name="Trazado 194851" d="M60.136,70.992a1.113,1.113,0,1,0-1.113,1.113,1.113,1.113,0,0,0,1.113-1.113" transform="translate(14.194 -49.277)" fill="#7f4fc7"/>
          <path id="Trazado_194852-2" data-name="Trazado 194852" d="M68.409,70.992a1.112,1.112,0,1,0-.326.788,1.113,1.113,0,0,0,.326-.788" transform="translate(16.222 -49.277)" fill="#7f4fc7"/>
          <path id="Trazado_194853-2" data-name="Trazado 194853" d="M2.228,79.264a1.112,1.112,0,1,0-.326.788,1.113,1.113,0,0,0,.326-.788" transform="translate(0 -47.25)" fill="#7f4fc7"/>
          <path id="Trazado_194854-2" data-name="Trazado 194854" d="M10.5,79.264a1.112,1.112,0,1,0-.326.788,1.113,1.113,0,0,0,.326-.788" transform="translate(2.028 -47.25)" fill="#7f4fc7"/>
          <path id="Trazado_194855-2" data-name="Trazado 194855" d="M18.773,79.264a1.112,1.112,0,1,0-.326.788,1.113,1.113,0,0,0,.326-.788" transform="translate(4.056 -47.25)" fill="#7f4fc7"/>
          <path id="Trazado_194856-2" data-name="Trazado 194856" d="M27.046,79.264a1.112,1.112,0,1,0-.326.788,1.113,1.113,0,0,0,.326-.788" transform="translate(6.083 -47.25)" fill="#7f4fc7"/>
          <path id="Trazado_194857-2" data-name="Trazado 194857" d="M35.318,79.264a1.112,1.112,0,1,0-.326.788,1.113,1.113,0,0,0,.326-.788" transform="translate(8.111 -47.25)" fill="#7f4fc7"/>
          <path id="Trazado_194858-2" data-name="Trazado 194858" d="M43.587,79.264a1.112,1.112,0,1,0-.326.788,1.113,1.113,0,0,0,.326-.788" transform="translate(10.139 -47.25)" fill="#7f4fc7"/>
          <path id="Trazado_194859-2" data-name="Trazado 194859" d="M51.863,79.264a1.112,1.112,0,1,0-.326.788,1.113,1.113,0,0,0,.326-.788" transform="translate(12.167 -47.25)" fill="#7f4fc7"/>
          <path id="Trazado_194860-2" data-name="Trazado 194860" d="M60.136,79.264a1.113,1.113,0,1,0-1.113,1.113,1.113,1.113,0,0,0,1.113-1.113" transform="translate(14.194 -47.25)" fill="#7f4fc7"/>
          <path id="Trazado_194861-2" data-name="Trazado 194861" d="M68.409,79.264a1.112,1.112,0,1,0-.326.788,1.113,1.113,0,0,0,.326-.788" transform="translate(16.222 -47.25)" fill="#7f4fc7"/>
          <path id="Trazado_194862-2" data-name="Trazado 194862" d="M2.228,87.537a1.112,1.112,0,1,0-.325.788,1.113,1.113,0,0,0,.325-.788" transform="translate(0 -45.222)" fill="#7f4fc7"/>
          <path id="Trazado_194863-2" data-name="Trazado 194863" d="M10.5,87.537a1.112,1.112,0,1,0-.325.788,1.113,1.113,0,0,0,.325-.788" transform="translate(2.028 -45.222)" fill="#7f4fc7"/>
          <path id="Trazado_194864-2" data-name="Trazado 194864" d="M18.773,87.537a1.112,1.112,0,1,0-.325.788,1.113,1.113,0,0,0,.325-.788" transform="translate(4.056 -45.222)" fill="#7f4fc7"/>
          <path id="Trazado_194865-2" data-name="Trazado 194865" d="M27.046,87.537a1.112,1.112,0,1,0-.325.788,1.113,1.113,0,0,0,.325-.788" transform="translate(6.083 -45.222)" fill="#7f4fc7"/>
          <path id="Trazado_194866-2" data-name="Trazado 194866" d="M35.318,87.537a1.112,1.112,0,1,0-.325.788,1.113,1.113,0,0,0,.325-.788" transform="translate(8.111 -45.222)" fill="#7f4fc7"/>
          <path id="Trazado_194867-2" data-name="Trazado 194867" d="M43.587,87.537a1.112,1.112,0,1,0-.325.788,1.113,1.113,0,0,0,.325-.788" transform="translate(10.139 -45.222)" fill="#7f4fc7"/>
          <path id="Trazado_194868-2" data-name="Trazado 194868" d="M51.863,87.537a1.112,1.112,0,1,0-.325.788,1.113,1.113,0,0,0,.325-.788" transform="translate(12.167 -45.222)" fill="#7f4fc7"/>
          <path id="Trazado_194869-2" data-name="Trazado 194869" d="M60.136,87.537a1.113,1.113,0,1,0-1.113,1.114,1.113,1.113,0,0,0,1.113-1.114" transform="translate(14.194 -45.222)" fill="#7f4fc7"/>
          <path id="Trazado_194870-2" data-name="Trazado 194870" d="M68.409,87.537a1.112,1.112,0,1,0-.325.788,1.113,1.113,0,0,0,.325-.788" transform="translate(16.222 -45.222)" fill="#7f4fc7"/>
          <path id="Trazado_194871-2" data-name="Trazado 194871" d="M2.228,95.81A1.112,1.112,0,1,0,1.9,96.6a1.113,1.113,0,0,0,.326-.788" transform="translate(0 -43.194)" fill="#7f4fc7"/>
          <path id="Trazado_194872-2" data-name="Trazado 194872" d="M10.5,95.81a1.112,1.112,0,1,0-.326.788,1.113,1.113,0,0,0,.326-.788" transform="translate(2.028 -43.194)" fill="#7f4fc7"/>
          <path id="Trazado_194873-2" data-name="Trazado 194873" d="M18.773,95.81a1.112,1.112,0,1,0-.326.788,1.113,1.113,0,0,0,.326-.788" transform="translate(4.056 -43.194)" fill="#7f4fc7"/>
          <path id="Trazado_194874-2" data-name="Trazado 194874" d="M27.046,95.81a1.112,1.112,0,1,0-.326.788,1.113,1.113,0,0,0,.326-.788" transform="translate(6.083 -43.194)" fill="#7f4fc7"/>
          <path id="Trazado_194875-2" data-name="Trazado 194875" d="M35.318,95.81a1.112,1.112,0,1,0-.326.788,1.113,1.113,0,0,0,.326-.788" transform="translate(8.111 -43.194)" fill="#7f4fc7"/>
          <path id="Trazado_194876-2" data-name="Trazado 194876" d="M43.587,95.81a1.112,1.112,0,1,0-.326.788,1.113,1.113,0,0,0,.326-.788" transform="translate(10.139 -43.194)" fill="#7f4fc7"/>
          <path id="Trazado_194877-2" data-name="Trazado 194877" d="M51.863,95.81a1.112,1.112,0,1,0-.326.788,1.113,1.113,0,0,0,.326-.788" transform="translate(12.167 -43.194)" fill="#7f4fc7"/>
          <path id="Trazado_194878-2" data-name="Trazado 194878" d="M60.136,95.81a1.113,1.113,0,1,0-1.113,1.113,1.113,1.113,0,0,0,1.113-1.113" transform="translate(14.194 -43.194)" fill="#7f4fc7"/>
          <path id="Trazado_194879-2" data-name="Trazado 194879" d="M68.409,95.81a1.112,1.112,0,1,0-.326.788,1.113,1.113,0,0,0,.326-.788" transform="translate(16.222 -43.194)" fill="#7f4fc7"/>
          <path id="Trazado_194880-2" data-name="Trazado 194880" d="M2.228,104.082a1.112,1.112,0,1,0-.326.788,1.113,1.113,0,0,0,.326-.788" transform="translate(0 -41.166)" fill="#7f4fc7"/>
          <path id="Trazado_194881-2" data-name="Trazado 194881" d="M10.5,104.082a1.112,1.112,0,1,0-.326.788,1.113,1.113,0,0,0,.326-.788" transform="translate(2.028 -41.166)" fill="#7f4fc7"/>
          <path id="Trazado_194882-2" data-name="Trazado 194882" d="M18.773,104.082a1.112,1.112,0,1,0-.326.788,1.113,1.113,0,0,0,.326-.788" transform="translate(4.056 -41.166)" fill="#7f4fc7"/>
          <path id="Trazado_194883-2" data-name="Trazado 194883" d="M27.046,104.082a1.112,1.112,0,1,0-.326.788,1.113,1.113,0,0,0,.326-.788" transform="translate(6.083 -41.166)" fill="#7f4fc7"/>
          <path id="Trazado_194884-2" data-name="Trazado 194884" d="M35.318,104.082a1.112,1.112,0,1,0-.326.788,1.113,1.113,0,0,0,.326-.788" transform="translate(8.111 -41.166)" fill="#7f4fc7"/>
          <path id="Trazado_194885-2" data-name="Trazado 194885" d="M43.587,104.082a1.112,1.112,0,1,0-.326.788,1.113,1.113,0,0,0,.326-.788" transform="translate(10.139 -41.166)" fill="#7f4fc7"/>
          <path id="Trazado_194886-2" data-name="Trazado 194886" d="M51.863,104.082a1.112,1.112,0,1,0-.326.788,1.113,1.113,0,0,0,.326-.788" transform="translate(12.167 -41.166)" fill="#7f4fc7"/>
          <path id="Trazado_194887-2" data-name="Trazado 194887" d="M60.136,104.082a1.113,1.113,0,1,0-1.113,1.113,1.113,1.113,0,0,0,1.113-1.113" transform="translate(14.194 -41.166)" fill="#7f4fc7"/>
          <path id="Trazado_194888-2" data-name="Trazado 194888" d="M68.409,104.082a1.112,1.112,0,1,0-.326.788,1.113,1.113,0,0,0,.326-.788" transform="translate(16.222 -41.166)" fill="#7f4fc7"/>
          <path id="Trazado_194889-2" data-name="Trazado 194889" d="M2.228,112.355a1.112,1.112,0,1,0-.326.788,1.113,1.113,0,0,0,.326-.788" transform="translate(0 -39.138)" fill="#7f4fc7"/>
          <path id="Trazado_194890-2" data-name="Trazado 194890" d="M10.5,112.355a1.112,1.112,0,1,0-.326.788,1.113,1.113,0,0,0,.326-.788" transform="translate(2.028 -39.138)" fill="#7f4fc7"/>
          <path id="Trazado_194891-2" data-name="Trazado 194891" d="M18.773,112.355a1.112,1.112,0,1,0-.326.788,1.113,1.113,0,0,0,.326-.788" transform="translate(4.056 -39.138)" fill="#7f4fc7"/>
          <path id="Trazado_194892-2" data-name="Trazado 194892" d="M27.046,112.355a1.112,1.112,0,1,0-.326.788,1.113,1.113,0,0,0,.326-.788" transform="translate(6.083 -39.138)" fill="#7f4fc7"/>
          <path id="Trazado_194893-2" data-name="Trazado 194893" d="M35.318,112.355a1.112,1.112,0,1,0-.326.788,1.113,1.113,0,0,0,.326-.788" transform="translate(8.111 -39.138)" fill="#7f4fc7"/>
          <path id="Trazado_194894-2" data-name="Trazado 194894" d="M43.587,112.355a1.112,1.112,0,1,0-.326.788,1.113,1.113,0,0,0,.326-.788" transform="translate(10.139 -39.138)" fill="#7f4fc7"/>
          <path id="Trazado_194895-2" data-name="Trazado 194895" d="M51.863,112.355a1.112,1.112,0,1,0-.326.788,1.113,1.113,0,0,0,.326-.788" transform="translate(12.167 -39.138)" fill="#7f4fc7"/>
          <path id="Trazado_194896-2" data-name="Trazado 194896" d="M60.136,112.355a1.113,1.113,0,1,0-1.113,1.113,1.113,1.113,0,0,0,1.113-1.113" transform="translate(14.194 -39.138)" fill="#7f4fc7"/>
          <path id="Trazado_194897-2" data-name="Trazado 194897" d="M68.409,112.355a1.112,1.112,0,1,0-.326.788,1.113,1.113,0,0,0,.326-.788" transform="translate(16.222 -39.138)" fill="#7f4fc7"/>
          <path id="Trazado_194898-2" data-name="Trazado 194898" d="M2.228,120.627a1.112,1.112,0,1,0-.326.788,1.113,1.113,0,0,0,.326-.788" transform="translate(0 -37.111)" fill="#7f4fc7"/>
          <path id="Trazado_194899-2" data-name="Trazado 194899" d="M10.5,120.627a1.112,1.112,0,1,0-.326.788,1.113,1.113,0,0,0,.326-.788" transform="translate(2.028 -37.111)" fill="#7f4fc7"/>
          <path id="Trazado_194900-2" data-name="Trazado 194900" d="M18.773,120.627a1.112,1.112,0,1,0-.326.788,1.113,1.113,0,0,0,.326-.788" transform="translate(4.056 -37.111)" fill="#7f4fc7"/>
          <path id="Trazado_194901-2" data-name="Trazado 194901" d="M27.046,120.627a1.112,1.112,0,1,0-.326.788,1.113,1.113,0,0,0,.326-.788" transform="translate(6.083 -37.111)" fill="#7f4fc7"/>
          <path id="Trazado_194902-2" data-name="Trazado 194902" d="M35.318,120.627a1.112,1.112,0,1,0-.326.788,1.113,1.113,0,0,0,.326-.788" transform="translate(8.111 -37.111)" fill="#7f4fc7"/>
          <path id="Trazado_194903-2" data-name="Trazado 194903" d="M43.587,120.627a1.112,1.112,0,1,0-.326.788,1.113,1.113,0,0,0,.326-.788" transform="translate(10.139 -37.111)" fill="#7f4fc7"/>
          <path id="Trazado_194904-2" data-name="Trazado 194904" d="M51.863,120.627a1.112,1.112,0,1,0-.326.788,1.113,1.113,0,0,0,.326-.788" transform="translate(12.167 -37.111)" fill="#7f4fc7"/>
          <path id="Trazado_194905-2" data-name="Trazado 194905" d="M60.136,120.627a1.113,1.113,0,1,0-1.113,1.113,1.113,1.113,0,0,0,1.113-1.113" transform="translate(14.194 -37.111)" fill="#7f4fc7"/>
          <path id="Trazado_194906-2" data-name="Trazado 194906" d="M68.409,120.627a1.112,1.112,0,1,0-.326.788,1.113,1.113,0,0,0,.326-.788" transform="translate(16.222 -37.111)" fill="#7f4fc7"/>
        </g>
      </g>
      <g id="Grupo_155254" data-name="Grupo 155254" transform="translate(29.69 403.11)">
        <g id="Grupo_154318" data-name="Grupo 154318">
          <g id="Grupo_154315" data-name="Grupo 154315" transform="translate(32.747 9.551)">
            <path id="Trazado_195058" data-name="Trazado 195058" d="M14.017,225.789H54.543a1.523,1.523,0,0,0,0-3.038H14.017a1.523,1.523,0,1,0,0,3.038" transform="translate(-12.394 -222.747)" fill="#12263f"/>
            <path id="Trazado_195059" data-name="Trazado 195059" d="M83.974,225.789H94.206a1.523,1.523,0,0,0,0-3.038H83.974a1.523,1.523,0,1,0,0,3.038" transform="translate(-35.06 -222.747)" fill="#12263f"/>
            <path id="Trazado_195064" data-name="Trazado 195064" d="M112.811,232.612H84.346a1.067,1.067,0,1,0,0,2.134h28.469a1.067,1.067,0,1,0,0-2.134" transform="translate(-35.33 -225.943)" fill="#12263f"/>
            <path id="Trazado_195065" data-name="Trazado 195065" d="M73.867,232.612H66.681a1.067,1.067,0,1,0,0,2.134h7.186a1.067,1.067,0,1,0,0-2.134" transform="translate(-29.607 -225.943)" fill="#12263f"/>
          </g>
          <g id="Grupo_154316" data-name="Grupo 154316">
            <path id="Trazado_195062" data-name="Trazado 195062" d="M161.607,1.333H113.762c-.991,0-1.793.476-1.793,1.067s.8,1.068,1.793,1.068h47.845c.991,0,1.794-.476,1.794-1.068s-.8-1.067-1.794-1.067" transform="translate(-80.777 -1.333)" fill="#12263f"/>
            <path id="Trazado_195063" data-name="Trazado 195063" d="M115.873,1.333H97.1c-1.541,0-2.787.476-2.787,1.067S95.556,3.467,97.1,3.467h18.777c1.541,0,2.787-.476,2.787-1.068s-1.247-1.067-2.787-1.067" transform="translate(-94.309 -1.333)" fill="#12263f"/>
          </g>
        </g>
      </g>
      <g id="Grupo_154801" data-name="Grupo 154801" transform="translate(0.93 386.815)">
        <g id="Grupo_154721" data-name="Grupo 154721" clip-path="url(#clip-path-3)">
          <line id="Línea_1878" data-name="Línea 1878" x1="21.605" y2="101.839" transform="translate(61.14 29.463)" fill="none" stroke="#1e0b4a" stroke-linecap="round" stroke-linejoin="round" stroke-width="1.052"/>
          <path id="Trazado_196481" data-name="Trazado 196481" d="M238.009,274.732a8.116,8.116,0,1,1-8.116-8.116,8.116,8.116,0,0,1,8.116,8.116" transform="translate(-147.148 -245.268)" fill="#59c4c8"/>
          <path id="Trazado_196482" data-name="Trazado 196482" d="M250.969,334.8c-8.993,25.883-37.317,39.553-37.317,39.553s-13.743-28.29-4.749-54.171,37.317-39.552,37.317-39.552,13.743,28.289,4.749,54.17" transform="translate(-144.709 -243.048)" fill="#12263f"/>
          <path id="Trazado_196483" data-name="Trazado 196483" d="M294.477,324.773c4.17,39.347-24.428,74.631-24.428,74.631s-35.357-28.508-39.526-67.855,24.429-74.631,24.429-74.631,35.356,28.508,39.525,67.855" transform="translate(-213.683 -246.805)" fill="#59c4c8"/>
          <path id="Trazado_196484" data-name="Trazado 196484" d="M301.225,323.107A14.827,14.827,0,1,1,286.4,308.28a14.827,14.827,0,0,1,14.827,14.827" transform="translate(-268.053 -238.666)" fill="#12263f"/>
          <line id="Línea_1879" data-name="Línea 1879" x2="14.585" y2="137.648" transform="translate(41.781 14.95)" fill="none" stroke="#1e0b4a" stroke-linecap="round" stroke-linejoin="round" stroke-width="1.052"/>
          <line id="Línea_1880" data-name="Línea 1880" y1="17.929" x2="27.876" transform="translate(50.522 79.509)" fill="none" stroke="#1e0b4a" stroke-linecap="round" stroke-linejoin="round" stroke-width="1.052"/>
          <line id="Línea_1881" data-name="Línea 1881" x1="23.957" y1="12.551" transform="translate(22.858 49.911)" fill="none" stroke="#1e0b4a" stroke-linecap="round" stroke-linejoin="round" stroke-width="1.052"/>
          <line id="Línea_1882" data-name="Línea 1882" x2="26.068" y2="53.467" transform="translate(18.345 84.441)" fill="none" stroke="#1e0b4a" stroke-linecap="round" stroke-linejoin="round" stroke-width="1.052"/>
        </g>
      </g>
      <g id="Grupo_155255" data-name="Grupo 155255" transform="translate(0.931 23.371)">
        <g id="Grupo_154317" data-name="Grupo 154317">
          <g id="Grupo_154315-2" data-name="Grupo 154315" transform="translate(47.652 8.224)">
            <path id="Trazado_195058-2" data-name="Trazado 195058" d="M14.7,227.158H73.5a2.2,2.2,0,1,0,0-4.407H14.7a2.2,2.2,0,1,0,0,4.407" transform="translate(-12.5 -222.751)" fill="#2a5f61"/>
            <path id="Trazado_195059-2" data-name="Trazado 195059" d="M84.665,227.158H99.51a2.2,2.2,0,1,0,0-4.407H84.665a2.2,2.2,0,1,0,0,4.407" transform="translate(-13.851 -222.751)" fill="#2a5f61"/>
            <path id="Trazado_195064-2" data-name="Trazado 195064" d="M126.12,232.612h-41.3a1.548,1.548,0,1,0,0,3.1h41.3a1.548,1.548,0,0,0,0-3.1" transform="translate(-13.866 -222.941)" fill="#2a5f61"/>
            <path id="Trazado_195065-2" data-name="Trazado 195065" d="M77.591,232.612H67.161a1.548,1.548,0,1,0,0,3.1H77.591a1.548,1.548,0,0,0,0-3.1" transform="translate(-13.525 -222.941)" fill="#2a5f61"/>
          </g>
          <g id="Grupo_154316-2" data-name="Grupo 154316">
            <path id="Trazado_195062-2" data-name="Trazado 195062" d="M183.977,1.333h-69.41c-1.437,0-2.6.694-2.6,1.547s1.164,1.548,2.6,1.548h69.408c1.437,0,2.6-.694,2.6-1.548s-1.166-1.547-2.6-1.547" transform="translate(-66.719 -1.333)" fill="#2a5f61"/>
            <path id="Trazado_195063-2" data-name="Trazado 195063" d="M125.591,1.333H98.352c-2.234,0-4.043.694-4.043,1.547s1.808,1.548,4.043,1.548h27.239c2.234,0,4.043-.694,4.043-1.548s-1.808-1.547-4.043-1.547" transform="translate(-94.309 -1.333)" fill="#2a5f61"/>
          </g>
        </g>
      </g>
      <g id="Grupo_155256" data-name="Grupo 155256" transform="translate(200.263 155.617)">
        <rect id="Rectángulo_45220" data-name="Rectángulo 45220" width="106.857" height="25.376" transform="translate(48.291) rotate(90)" fill="#445866"/>
        <rect id="Rectángulo_45221" data-name="Rectángulo 45221" width="3.287" height="3.287" transform="translate(0 23.055) rotate(-90)" fill="#9ac1df"/>
        <rect id="Rectángulo_45222" data-name="Rectángulo 45222" width="3.287" height="3.287" transform="translate(0 30.038) rotate(-90)" fill="#9ac1df"/>
        <rect id="Rectángulo_45223" data-name="Rectángulo 45223" width="3.287" height="3.287" transform="translate(0 37.022) rotate(-90)" fill="#9ac1df"/>
        <rect id="Rectángulo_45224" data-name="Rectángulo 45224" width="3.286" height="3.287" transform="translate(0 44.005) rotate(-90)" fill="#9ac1df"/>
        <rect id="Rectángulo_45225" data-name="Rectángulo 45225" width="3.287" height="3.287" transform="translate(0 50.989) rotate(-90)" fill="#9ac1df"/>
        <rect id="Rectángulo_45226" data-name="Rectángulo 45226" width="3.286" height="3.287" transform="translate(0 57.972) rotate(-90)" fill="#9ac1df"/>
        <rect id="Rectángulo_45227" data-name="Rectángulo 45227" width="3.287" height="3.287" transform="translate(0 64.955) rotate(-90)" fill="#9ac1df"/>
        <rect id="Rectángulo_45228" data-name="Rectángulo 45228" width="3.286" height="3.287" transform="translate(0 71.939) rotate(-90)" fill="#9ac1df"/>
        <rect id="Rectángulo_45229" data-name="Rectángulo 45229" width="3.287" height="3.287" transform="translate(0 78.923) rotate(-90)" fill="#9ac1df"/>
        <rect id="Rectángulo_46135" data-name="Rectángulo 46135" width="3.287" height="3.287" transform="translate(0 99.873) rotate(-90)" fill="#9ac1df"/>
        <rect id="Rectángulo_46159" data-name="Rectángulo 46159" width="3.287" height="3.287" transform="translate(0 120.824) rotate(-90)" fill="#9ac1df"/>
        <rect id="Rectángulo_45230" data-name="Rectángulo 45230" width="3.287" height="3.287" transform="translate(0 85.906) rotate(-90)" fill="#9ac1df"/>
        <rect id="Rectángulo_46125" data-name="Rectángulo 46125" width="3.287" height="3.287" transform="translate(0 106.857) rotate(-90)" fill="#9ac1df"/>
        <rect id="Rectángulo_46160" data-name="Rectángulo 46160" width="3.287" height="3.287" transform="translate(0 127.807) rotate(-90)" fill="#9ac1df"/>
        <rect id="Rectángulo_46168" data-name="Rectángulo 46168" width="3.287" height="3.287" transform="translate(0 141.773) rotate(-90)" fill="#9ac1df"/>
        <rect id="Rectángulo_45231" data-name="Rectángulo 45231" width="3.287" height="3.287" transform="translate(0 92.889) rotate(-90)" fill="#9ac1df"/>
        <rect id="Rectángulo_46123" data-name="Rectángulo 46123" width="3.287" height="3.287" transform="translate(0 113.84) rotate(-90)" fill="#9ac1df"/>
        <rect id="Rectángulo_46161" data-name="Rectángulo 46161" width="3.287" height="3.287" transform="translate(0 134.79) rotate(-90)" fill="#9ac1df"/>
        <rect id="Rectángulo_46162" data-name="Rectángulo 46162" width="3.287" height="3.287" transform="translate(0 148.757) rotate(-90)" fill="#9ac1df"/>
        <rect id="Rectángulo_45232" data-name="Rectángulo 45232" width="3.287" height="3.287" transform="translate(6.984 23.055) rotate(-90)" fill="#9ac1df"/>
        <rect id="Rectángulo_45233" data-name="Rectángulo 45233" width="3.287" height="3.287" transform="translate(6.984 30.038) rotate(-90)" fill="#9ac1df"/>
        <rect id="Rectángulo_45234" data-name="Rectángulo 45234" width="3.287" height="3.287" transform="translate(6.984 37.022) rotate(-90)" fill="#9ac1df"/>
        <rect id="Rectángulo_45235" data-name="Rectángulo 45235" width="3.286" height="3.287" transform="translate(6.984 44.005) rotate(-90)" fill="#9ac1df"/>
        <rect id="Rectángulo_45236" data-name="Rectángulo 45236" width="3.287" height="3.287" transform="translate(6.984 50.989) rotate(-90)" fill="#9ac1df"/>
        <rect id="Rectángulo_45237" data-name="Rectángulo 45237" width="3.286" height="3.287" transform="translate(6.984 57.972) rotate(-90)" fill="#9ac1df"/>
        <rect id="Rectángulo_45238" data-name="Rectángulo 45238" width="3.287" height="3.287" transform="translate(6.984 64.955) rotate(-90)" fill="#9ac1df"/>
        <rect id="Rectángulo_45239" data-name="Rectángulo 45239" width="3.286" height="3.287" transform="translate(6.984 71.939) rotate(-90)" fill="#9ac1df"/>
        <rect id="Rectángulo_45240" data-name="Rectángulo 45240" width="3.287" height="3.287" transform="translate(6.984 78.923) rotate(-90)" fill="#9ac1df"/>
        <rect id="Rectángulo_46136" data-name="Rectángulo 46136" width="3.287" height="3.287" transform="translate(6.984 99.873) rotate(-90)" fill="#9ac1df"/>
        <rect id="Rectángulo_46156" data-name="Rectángulo 46156" width="3.287" height="3.287" transform="translate(6.984 120.824) rotate(-90)" fill="#9ac1df"/>
        <rect id="Rectángulo_45241" data-name="Rectángulo 45241" width="3.287" height="3.287" transform="translate(6.984 85.906) rotate(-90)" fill="#9ac1df"/>
        <rect id="Rectángulo_46126" data-name="Rectángulo 46126" width="3.287" height="3.287" transform="translate(6.984 106.857) rotate(-90)" fill="#9ac1df"/>
        <rect id="Rectángulo_46157" data-name="Rectángulo 46157" width="3.287" height="3.287" transform="translate(6.984 127.807) rotate(-90)" fill="#9ac1df"/>
        <rect id="Rectángulo_46169" data-name="Rectángulo 46169" width="3.287" height="3.287" transform="translate(6.984 141.773) rotate(-90)" fill="#9ac1df"/>
        <rect id="Rectángulo_45242" data-name="Rectángulo 45242" width="3.287" height="3.287" transform="translate(6.984 92.889) rotate(-90)" fill="#9ac1df"/>
        <rect id="Rectángulo_46124" data-name="Rectángulo 46124" width="3.287" height="3.287" transform="translate(6.984 113.84) rotate(-90)" fill="#9ac1df"/>
        <rect id="Rectángulo_46158" data-name="Rectángulo 46158" width="3.287" height="3.287" transform="translate(6.984 134.79) rotate(-90)" fill="#9ac1df"/>
        <rect id="Rectángulo_46163" data-name="Rectángulo 46163" width="3.287" height="3.287" transform="translate(6.984 148.757) rotate(-90)" fill="#9ac1df"/>
        <rect id="Rectángulo_45243" data-name="Rectángulo 45243" width="3.287" height="3.287" transform="translate(12.856 23.055) rotate(-90)" fill="#9ac1df"/>
        <rect id="Rectángulo_45244" data-name="Rectángulo 45244" width="3.287" height="3.287" transform="translate(12.856 30.038) rotate(-90)" fill="#9ac1df"/>
        <rect id="Rectángulo_45245" data-name="Rectángulo 45245" width="3.287" height="3.287" transform="translate(12.856 37.022) rotate(-90)" fill="#9ac1df"/>
        <rect id="Rectángulo_45246" data-name="Rectángulo 45246" width="3.286" height="3.287" transform="translate(12.856 44.005) rotate(-90)" fill="#9ac1df"/>
        <rect id="Rectángulo_45247" data-name="Rectángulo 45247" width="3.287" height="3.287" transform="translate(12.856 50.989) rotate(-90)" fill="#9ac1df"/>
        <rect id="Rectángulo_45248" data-name="Rectángulo 45248" width="3.286" height="3.287" transform="translate(12.856 57.972) rotate(-90)" fill="#9ac1df"/>
        <rect id="Rectángulo_45249" data-name="Rectángulo 45249" width="3.287" height="3.287" transform="translate(12.856 64.955) rotate(-90)" fill="#9ac1df"/>
        <rect id="Rectángulo_45250" data-name="Rectángulo 45250" width="3.286" height="3.287" transform="translate(12.856 71.939) rotate(-90)" fill="#9ac1df"/>
        <rect id="Rectángulo_45251" data-name="Rectángulo 45251" width="3.287" height="3.287" transform="translate(12.856 78.923) rotate(-90)" fill="#9ac1df"/>
        <rect id="Rectángulo_46137" data-name="Rectángulo 46137" width="3.287" height="3.287" transform="translate(12.856 99.873) rotate(-90)" fill="#9ac1df"/>
        <rect id="Rectángulo_46146" data-name="Rectángulo 46146" width="3.287" height="3.287" transform="translate(12.856 120.824) rotate(-90)" fill="#9ac1df"/>
        <rect id="Rectángulo_45252" data-name="Rectángulo 45252" width="3.287" height="3.287" transform="translate(12.856 85.906) rotate(-90)" fill="#9ac1df"/>
        <rect id="Rectángulo_46127" data-name="Rectángulo 46127" width="3.287" height="3.287" transform="translate(12.856 106.857) rotate(-90)" fill="#9ac1df"/>
        <rect id="Rectángulo_46147" data-name="Rectángulo 46147" width="3.287" height="3.287" transform="translate(12.856 127.807) rotate(-90)" fill="#9ac1df"/>
        <rect id="Rectángulo_46170" data-name="Rectángulo 46170" width="3.287" height="3.287" transform="translate(12.856 141.773) rotate(-90)" fill="#9ac1df"/>
        <rect id="Rectángulo_45253" data-name="Rectángulo 45253" width="3.287" height="3.287" transform="translate(12.856 92.889) rotate(-90)" fill="#9ac1df"/>
        <rect id="Rectángulo_46128" data-name="Rectángulo 46128" width="3.287" height="3.287" transform="translate(12.856 113.84) rotate(-90)" fill="#9ac1df"/>
        <rect id="Rectángulo_46148" data-name="Rectángulo 46148" width="3.287" height="3.287" transform="translate(12.856 134.79) rotate(-90)" fill="#9ac1df"/>
        <rect id="Rectángulo_46164" data-name="Rectángulo 46164" width="3.287" height="3.287" transform="translate(12.856 148.757) rotate(-90)" fill="#9ac1df"/>
        <rect id="Rectángulo_45221-2" data-name="Rectángulo 45221" width="3.287" height="3.287" transform="translate(18.747 23.055) rotate(-90)" fill="#9ac1df"/>
        <rect id="Rectángulo_45222-2" data-name="Rectángulo 45222" width="3.287" height="3.287" transform="translate(18.747 30.038) rotate(-90)" fill="#9ac1df"/>
        <rect id="Rectángulo_45223-2" data-name="Rectángulo 45223" width="3.287" height="3.287" transform="translate(18.747 37.022) rotate(-90)" fill="#9ac1df"/>
        <rect id="Rectángulo_45224-2" data-name="Rectángulo 45224" width="3.286" height="3.287" transform="translate(18.747 44.005) rotate(-90)" fill="#9ac1df"/>
        <rect id="Rectángulo_45225-2" data-name="Rectángulo 45225" width="3.287" height="3.287" transform="translate(18.747 50.989) rotate(-90)" fill="#9ac1df"/>
        <rect id="Rectángulo_45226-2" data-name="Rectángulo 45226" width="3.286" height="3.287" transform="translate(18.747 57.972) rotate(-90)" fill="#9ac1df"/>
        <rect id="Rectángulo_45227-2" data-name="Rectángulo 45227" width="3.287" height="3.287" transform="translate(18.747 64.955) rotate(-90)" fill="#9ac1df"/>
        <rect id="Rectángulo_45228-2" data-name="Rectángulo 45228" width="3.286" height="3.287" transform="translate(18.747 71.939) rotate(-90)" fill="#9ac1df"/>
        <rect id="Rectángulo_45229-2" data-name="Rectángulo 45229" width="3.287" height="3.287" transform="translate(18.747 78.923) rotate(-90)" fill="#9ac1df"/>
        <rect id="Rectángulo_46138" data-name="Rectángulo 46138" width="3.287" height="3.287" transform="translate(18.747 99.873) rotate(-90)" fill="#9ac1df"/>
        <rect id="Rectángulo_46149" data-name="Rectángulo 46149" width="3.287" height="3.287" transform="translate(18.747 120.824) rotate(-90)" fill="#9ac1df"/>
        <rect id="Rectángulo_45230-2" data-name="Rectángulo 45230" width="3.287" height="3.287" transform="translate(18.747 85.906) rotate(-90)" fill="#9ac1df"/>
        <rect id="Rectángulo_46129" data-name="Rectángulo 46129" width="3.287" height="3.287" transform="translate(18.747 106.857) rotate(-90)" fill="#9ac1df"/>
        <rect id="Rectángulo_46150" data-name="Rectángulo 46150" width="3.287" height="3.287" transform="translate(18.747 127.807) rotate(-90)" fill="#9ac1df"/>
        <rect id="Rectángulo_46171" data-name="Rectángulo 46171" width="3.287" height="3.287" transform="translate(18.747 141.773) rotate(-90)" fill="#9ac1df"/>
        <rect id="Rectángulo_45231-2" data-name="Rectángulo 45231" width="3.287" height="3.287" transform="translate(18.747 92.889) rotate(-90)" fill="#9ac1df"/>
        <rect id="Rectángulo_46130" data-name="Rectángulo 46130" width="3.287" height="3.287" transform="translate(18.747 113.84) rotate(-90)" fill="#9ac1df"/>
        <rect id="Rectángulo_46151" data-name="Rectángulo 46151" width="3.287" height="3.287" transform="translate(18.747 134.79) rotate(-90)" fill="#9ac1df"/>
        <rect id="Rectángulo_46165" data-name="Rectángulo 46165" width="3.287" height="3.287" transform="translate(18.747 148.757) rotate(-90)" fill="#9ac1df"/>
        <rect id="Rectángulo_45232-2" data-name="Rectángulo 45232" width="3.287" height="3.287" transform="translate(25.175 23.055) rotate(-90)" fill="#9ac1df"/>
        <rect id="Rectángulo_45233-2" data-name="Rectángulo 45233" width="3.287" height="3.287" transform="translate(25.175 30.038) rotate(-90)" fill="#9ac1df"/>
        <rect id="Rectángulo_45234-2" data-name="Rectángulo 45234" width="3.287" height="3.287" transform="translate(25.175 37.022) rotate(-90)" fill="#9ac1df"/>
        <rect id="Rectángulo_45235-2" data-name="Rectángulo 45235" width="3.286" height="3.287" transform="translate(25.175 44.005) rotate(-90)" fill="#9ac1df"/>
        <rect id="Rectángulo_45236-2" data-name="Rectángulo 45236" width="3.287" height="3.287" transform="translate(25.175 50.989) rotate(-90)" fill="#9ac1df"/>
        <rect id="Rectángulo_45237-2" data-name="Rectángulo 45237" width="3.286" height="3.287" transform="translate(25.175 57.972) rotate(-90)" fill="#9ac1df"/>
        <rect id="Rectángulo_45238-2" data-name="Rectángulo 45238" width="3.287" height="3.287" transform="translate(25.175 64.955) rotate(-90)" fill="#9ac1df"/>
        <rect id="Rectángulo_45239-2" data-name="Rectángulo 45239" width="3.286" height="3.287" transform="translate(25.175 71.939) rotate(-90)" fill="#9ac1df"/>
        <rect id="Rectángulo_45240-2" data-name="Rectángulo 45240" width="3.287" height="3.287" transform="translate(25.175 78.923) rotate(-90)" fill="#9ac1df"/>
        <rect id="Rectángulo_46139" data-name="Rectángulo 46139" width="3.287" height="3.287" transform="translate(25.175 99.873) rotate(-90)" fill="#9ac1df"/>
        <rect id="Rectángulo_46152" data-name="Rectángulo 46152" width="3.287" height="3.287" transform="translate(25.175 120.824) rotate(-90)" fill="#9ac1df"/>
        <rect id="Rectángulo_45241-2" data-name="Rectángulo 45241" width="3.287" height="3.287" transform="translate(25.175 85.906) rotate(-90)" fill="#9ac1df"/>
        <rect id="Rectángulo_46131" data-name="Rectángulo 46131" width="3.287" height="3.287" transform="translate(25.175 106.857) rotate(-90)" fill="#9ac1df"/>
        <rect id="Rectángulo_46153" data-name="Rectángulo 46153" width="3.287" height="3.287" transform="translate(25.175 127.807) rotate(-90)" fill="#9ac1df"/>
        <rect id="Rectángulo_46172" data-name="Rectángulo 46172" width="3.287" height="3.287" transform="translate(25.175 141.773) rotate(-90)" fill="#9ac1df"/>
        <rect id="Rectángulo_45242-2" data-name="Rectángulo 45242" width="3.287" height="3.287" transform="translate(25.175 92.889) rotate(-90)" fill="#9ac1df"/>
        <rect id="Rectángulo_46132" data-name="Rectángulo 46132" width="3.287" height="3.287" transform="translate(25.175 113.84) rotate(-90)" fill="#9ac1df"/>
        <rect id="Rectángulo_46154" data-name="Rectángulo 46154" width="3.287" height="3.287" transform="translate(25.175 134.79) rotate(-90)" fill="#9ac1df"/>
        <rect id="Rectángulo_46166" data-name="Rectángulo 46166" width="3.287" height="3.287" transform="translate(25.175 148.757) rotate(-90)" fill="#9ac1df"/>
        <rect id="Rectángulo_45243-2" data-name="Rectángulo 45243" width="3.287" height="3.287" transform="translate(31.603 23.055) rotate(-90)" fill="#9ac1df"/>
        <rect id="Rectángulo_45244-2" data-name="Rectángulo 45244" width="3.287" height="3.287" transform="translate(31.603 30.038) rotate(-90)" fill="#9ac1df"/>
        <rect id="Rectángulo_45245-2" data-name="Rectángulo 45245" width="3.287" height="3.287" transform="translate(31.603 37.022) rotate(-90)" fill="#9ac1df"/>
        <rect id="Rectángulo_45246-2" data-name="Rectángulo 45246" width="3.286" height="3.287" transform="translate(31.603 44.005) rotate(-90)" fill="#9ac1df"/>
        <rect id="Rectángulo_45247-2" data-name="Rectángulo 45247" width="3.287" height="3.287" transform="translate(31.603 50.989) rotate(-90)" fill="#9ac1df"/>
        <rect id="Rectángulo_45248-2" data-name="Rectángulo 45248" width="3.286" height="3.287" transform="translate(31.603 57.972) rotate(-90)" fill="#9ac1df"/>
        <rect id="Rectángulo_45249-2" data-name="Rectángulo 45249" width="3.287" height="3.287" transform="translate(31.603 64.955) rotate(-90)" fill="#9ac1df"/>
        <rect id="Rectángulo_45250-2" data-name="Rectángulo 45250" width="3.286" height="3.287" transform="translate(31.603 71.939) rotate(-90)" fill="#9ac1df"/>
        <rect id="Rectángulo_45251-2" data-name="Rectángulo 45251" width="3.287" height="3.287" transform="translate(31.603 78.923) rotate(-90)" fill="#9ac1df"/>
        <rect id="Rectángulo_46140" data-name="Rectángulo 46140" width="3.287" height="3.287" transform="translate(31.603 99.873) rotate(-90)" fill="#9ac1df"/>
        <rect id="Rectángulo_46144" data-name="Rectángulo 46144" width="3.287" height="3.287" transform="translate(31.603 120.824) rotate(-90)" fill="#9ac1df"/>
        <rect id="Rectángulo_45252-2" data-name="Rectángulo 45252" width="3.287" height="3.287" transform="translate(31.603 85.906) rotate(-90)" fill="#9ac1df"/>
        <rect id="Rectángulo_46133" data-name="Rectángulo 46133" width="3.287" height="3.287" transform="translate(31.603 106.857) rotate(-90)" fill="#9ac1df"/>
        <rect id="Rectángulo_46145" data-name="Rectángulo 46145" width="3.287" height="3.287" transform="translate(31.603 127.807) rotate(-90)" fill="#9ac1df"/>
        <rect id="Rectángulo_46173" data-name="Rectángulo 46173" width="3.287" height="3.287" transform="translate(31.603 141.773) rotate(-90)" fill="#9ac1df"/>
        <rect id="Rectángulo_45253-2" data-name="Rectángulo 45253" width="3.287" height="3.287" transform="translate(31.603 92.889) rotate(-90)" fill="#9ac1df"/>
        <rect id="Rectángulo_46134" data-name="Rectángulo 46134" width="3.287" height="3.287" transform="translate(31.603 113.84) rotate(-90)" fill="#9ac1df"/>
        <rect id="Rectángulo_46155" data-name="Rectángulo 46155" width="3.287" height="3.287" transform="translate(31.603 134.79) rotate(-90)" fill="#9ac1df"/>
        <rect id="Rectángulo_46167" data-name="Rectángulo 46167" width="3.287" height="3.287" transform="translate(31.603 148.757) rotate(-90)" fill="#9ac1df"/>
      </g>
    </g>
    <g id="Grupo_1121737" data-name="Grupo 1121737" transform="translate(60.068 0)">
      <g id="Grupo_1121736" data-name="Grupo 1121736" transform="translate(0 -0.001)" clip-path="url(#clip-path-4)">
        <path id="Trazado_910897" data-name="Trazado 910897" d="M86.038,164.976l4.51-2.653-.157-2.191-.619-8.638,24.164-16.2.717,3.932,2.95,16.148.853,4.338,5.45,6.108-.846,3.946L93.367,187.339S80.588,172.3,80.776,172.023s5.262-7.047,5.262-7.047" transform="translate(19.687 -66.832)" fill="#ce6f5f"/>
        <path id="Trazado_910898" data-name="Trazado 910898" d="M84.086,329.769l44.541,1.778,20.842-130.515.687-4.294c-1.052.161-27.835,17.319-29.654,17.014s-8.946-12.711-8.946-12.711-.442,1.373-1.206,3.768c-4.555,14.3-20.514,65.112-21.659,78.338-1.336,15.44-4.605,46.621-4.605,46.621" transform="translate(-8.24 -97.184)" fill="#6cbbbe"/>
        <path id="Trazado_910899" data-name="Trazado 910899" d="M84.087,204.811c3.8,5.764,8.433,12.6,9.214,12.9,1.169.452,23.786-13.018,29.9-16.682l.687-4.294c-1.052.16-27.835,17.318-29.653,17.014s-8.946-12.71-8.946-12.71-.442,1.373-1.206,3.768" transform="translate(18.023 -97.184)" fill="#a8d1d7"/>
        <path id="Trazado_910900" data-name="Trazado 910900" d="M13.829,951.449l2.09,18.819.312,2.813,24.235,5.807-1.246-8.62-2.78-19.218-.378-2.606L16.78,951.051Z" transform="translate(137.002 -468.515)" fill="#ce6f5f"/>
        <path id="Trazado_910901" data-name="Trazado 910901" d="M7.89,1018.818H58.963s-.1-1.639-.31-4.007c-.516-5.87-1.7-16.227-3.7-17.224-2.8-1.4-9.014-.4-13.016-2.8s-9.216-5.007-16.825,3.006c0,0-12.016,7.21-14.622,11.015a15.881,15.881,0,0,0-2.207,6.008,25.544,25.544,0,0,0-.4,4.007" transform="translate(121.51 -490.217)" fill="#efece3"/>
        <path id="Trazado_910902" data-name="Trazado 910902" d="M58.889,1005.727l.9-1.414a22.824,22.824,0,0,0-11.465-2.934v1.674a21.541,21.541,0,0,1,10.567,2.674" transform="translate(100.226 -494.664)" fill="#dbd2bd"/>
        <path id="Trazado_910903" data-name="Trazado 910903" d="M69.5,1012.759l.748-1.5c-.236-.119-5.849-2.892-11.39-2.892v1.674c5.139,0,10.587,2.688,10.641,2.716" transform="translate(84.438 -498.117)" fill="#dbd2bd"/>
        <path id="Trazado_910904" data-name="Trazado 910904" d="M7.89,1040.719H58.963s-.1-1.639-.31-4.006H8.286a25.543,25.543,0,0,0-.4,4.006" transform="translate(121.51 -512.118)" fill="#8e4129"/>
        <path id="Trazado_910905" data-name="Trazado 910905" d="M78.728,1025.315l1.591-.524c-.029-.091-3.107-9.125-12.891-8.755l.062,1.673c8.508-.315,11.131,7.283,11.239,7.606" transform="translate(70.026 -501.899)" fill="#dbd2bd"/>
        <path id="Trazado_910906" data-name="Trazado 910906" d="M139.189,951.449l2.093,18.819.311,2.813,24.232,5.807-1.246-8.62-2.78-19.218-.378-2.606-19.281,2.606Z" transform="translate(-51.792 -468.515)" fill="#ce6f5f"/>
        <path id="Trazado_910907" data-name="Trazado 910907" d="M133.247,1018.818H184.32s-.1-1.639-.31-4.007c-.515-5.87-1.7-16.227-3.7-17.224-2.8-1.4-9.014-.4-13.016-2.8s-9.216-5.007-16.825,3.006c0,0-12.016,7.21-14.622,11.015a15.873,15.873,0,0,0-2.207,6.008,25.546,25.546,0,0,0-.4,4.007" transform="translate(-67.28 -490.217)" fill="#efece3"/>
        <path id="Trazado_910908" data-name="Trazado 910908" d="M185.311,1006.26l.9-1.414a22.824,22.824,0,0,0-11.465-2.934v1.674a21.543,21.543,0,0,1,10.567,2.674" transform="translate(-90.168 -494.927)" fill="#dbd2bd"/>
        <path id="Trazado_910909" data-name="Trazado 910909" d="M195.919,1013.291l.748-1.5c-.236-.118-5.849-2.892-11.39-2.892v1.674c5.139,0,10.587,2.688,10.641,2.716" transform="translate(-105.957 -498.379)" fill="#dbd2bd"/>
        <path id="Trazado_910910" data-name="Trazado 910910" d="M133.247,1040.719H184.32s-.1-1.639-.31-4.006H133.643a25.545,25.545,0,0,0-.4,4.006" transform="translate(-67.28 -512.118)" fill="#8e4129"/>
        <path id="Trazado_910911" data-name="Trazado 910911" d="M204.084,1025.315l1.591-.524c-.03-.091-3.107-9.125-12.891-8.755l.061,1.673c8.511-.305,11.132,7.283,11.239,7.606" transform="translate(-118.762 -501.898)" fill="#dbd2bd"/>
        <path id="Trazado_910912" data-name="Trazado 910912" d="M16.291,953.993l2.09,18.819h23.3L38.9,953.594H19.242Z" transform="translate(134.54 -471.059)" fill="#8c443c"/>
        <path id="Trazado_910913" data-name="Trazado 910913" d="M141.651,953.993l2.093,18.819h23.3l-2.78-19.218H144.6Z" transform="translate(-54.254 -471.059)" fill="#8c443c"/>
        <path id="Trazado_910914" data-name="Trazado 910914" d="M8.823,554.295,22.632,720.017l33.06.418.362-35.21.894-86.57L83.731,722.107s36.828,1.256,36.828,0-28.04-264.9-28.04-264.9l-29.259-2.09-.036,0s-38.918,1.256-48.962-1.256c-1.953-.489-3.353,3.014-4.337,8.976-4.086,24.677-1.1,91.46-1.1,91.46" transform="translate(59.972 -224.175)" fill="#6cbbbe"/>
        <path id="Trazado_910915" data-name="Trazado 910915" d="M121.007,462.835c18.313,2.183,50.509,3.051,50.509,3.051l2.827-10.768-.037,0s-38.918,1.256-48.962-1.256c-1.952-.489-3.352,3.014-4.337,8.976" transform="translate(-51.11 -224.175)" fill="#568286"/>
        <path id="Trazado_910916" data-name="Trazado 910916" d="M152.684,306.748a69.635,69.635,0,0,1-13.1.689,116.67,116.67,0,0,1-17.692-2.3l-2.987,12.867s11.029.689,18.151.23,17.463,2.757,17.463,2.068,1.838-14.016,1.838-14.016Z" transform="translate(-32.064 -150.732)" fill="#619198"/>
        <path id="Trazado_910917" data-name="Trazado 910917" d="M228.061,401.433s-4.965,7.424,9.343,17.7c8.891,6.384,32.02,9.637,32.02,9.637l-2.069-20.43Z" transform="translate(-199.939 -198.3)" fill="#dbd2bd"/>
        <path id="Trazado_910918" data-name="Trazado 910918" d="M133.526,569.648c-.955,52.83,13.729,172.8,13.729,172.8l.894-86.57s-13.509-84.954-14.623-86.228" transform="translate(-31.227 -281.395)" fill="#568286"/>
        <path id="Trazado_910919" data-name="Trazado 910919" d="M105.673,30.386S90.424,25.491,78.187,32.08,62.937,51.472,62.749,54.86a62.148,62.148,0,0,0,.941,9.978l42.924,20.144.565,3.2s11.108-1.694,16.944-17.509-2.636-27.486-18.45-40.288" transform="translate(26.751 -14.144)" fill="#06193a"/>
        <path id="Trazado_910920" data-name="Trazado 910920" d="M99.059,151.5l.619,8.638c14.137-2.82,21.244-14.218,24.262-20.906l-.717-3.932Z" transform="translate(10.399 -66.832)" fill="#8c443c"/>
        <path id="Trazado_910921" data-name="Trazado 910921" d="M146.7,458.9c.194,5.982.194,8.3.194,8.3a67.5,67.5,0,0,0,9.836.77,45.726,45.726,0,0,0,9.837-1.155l10.36-160.2s5.662-62.859,10.86-77.05c2.988-8.158,8.068-23.2,11.12-32.872a43.548,43.548,0,0,1,3.185-7.971s-15.463,5.932-25.494,16.347-18.709,39.156-20.253,48.222-2.508,87.957-2.508,87.957-.382,5.827-.968,14.887q-.055.819-.111,1.675c-.783,12.1-1.885,29.252-2.937,46.011-.037.563-.07,1.122-.1,1.681-1.631,26.036-3.1,50.683-3.018,53.406" transform="translate(-91.855 -93.217)" fill="#efece3"/>
        <path id="Trazado_910922" data-name="Trazado 910922" d="M.007,290.7c-.384.762,14.589,11.977,26.385,19.275a.188.188,0,0,1,.027.014c.911.566,1.8,1.1,2.673,1.6V468.2s18.323,2.7,33.368,2.894S99.5,466.467,99.5,466.467L86.165,318.221,85.03,305.6s2.314-2.7,9.837-19.867,5.4-65.39-4.053-75.227-35.653-23.653-35.653-23.653-10.83,28.087-15.847,49.884c-2.475,10.761-5,25.943-6.916,39.762l-24.66-7.3S7.16,276.509.007,290.7" transform="translate(84.969 -92.301)" fill="#efece3"/>
        <path id="Trazado_910923" data-name="Trazado 910923" d="M200.285,312.054l-5.9-1.433a1.454,1.454,0,0,1,.343-2.868h40.852a1.453,1.453,0,0,1,1.144.557l42.906,54.746a1.454,1.454,0,0,1-.009,1.805l-.005.007a1.455,1.455,0,0,1-1.96.289l-76.889-52.889a1.461,1.461,0,0,0-.481-.215" transform="translate(-193.272 -152.023)" fill="#446993"/>
        <path id="Trazado_910924" data-name="Trazado 910924" d="M196.425,312.278l46.006,55.642,38.594-.516-43.841-55.61Z" transform="translate(-195.955 -154.02)" fill="#193762"/>
        <path id="Trazado_910925" data-name="Trazado 910925" d="M35.718,18.308S31.975,11.531,37.1,6.071s14.341-8.655,24.19-3.384,14.417,16,9.887,26.729a13.663,13.663,0,0,1-14.97,8.66S44.582,21.509,35.718,18.308" transform="translate(94.129 0.004)" fill="#06193a"/>
        <path id="Trazado_910926" data-name="Trazado 910926" d="M128.628,98.143A33.2,33.2,0,0,1,119.061,87.3c-3.526-6.742-9.75-14-20.537-13.484S86.6,79.31,85.3,87.142s1.293,38.743,17.785,38.017,24.479-19.4,24.479-19.4a5.656,5.656,0,0,0,7.365-2.593c2.9-4.771.778-9.454-2.342-9.8-2.93-.325-3.961,4.774-3.961,4.774" transform="translate(5.14 -36.449)" fill="#ce6f5f"/>
        <path id="Trazado_910927" data-name="Trazado 910927" d="M88.706,121.379c.331-2.345,1-3.649,2.045-3.988a2.377,2.377,0,0,1,1.955.11,2.729,2.729,0,0,1,1.184,1.605l-.976.24a1.71,1.71,0,0,0-.7-.971,1.421,1.421,0,0,0-1.149-.029c-.413.134-.735.679-.978,1.428a1.482,1.482,0,0,1,.973.008c1.1.4,1.353,2.064,1.378,2.252l-1,.134c-.055-.4-.307-1.289-.729-1.443-.22-.079-.551.052-.942.37a19.081,19.081,0,0,0-.259,3.438l-1,.018a22.549,22.549,0,0,1,.2-3.172" transform="translate(45.792 -57.91)" fill="#a34d41"/>
        <path id="Trazado_910928" data-name="Trazado 910928" d="M128.425,110.449a7.529,7.529,0,0,1,7.451-1.925,12.926,12.926,0,0,1,4.013,1.755l1.167-1.636c-2.733-1.952-9.184-4.387-14.037.371Z" transform="translate(-20.863 -52.487)" fill="#06193a"/>
        <path id="Trazado_910929" data-name="Trazado 910929" d="M171.332,110.619c2.673-2.629,5.755-.249,5.885-.147l1.255-1.57a6.357,6.357,0,0,0-8.549.284Z" transform="translate(-79.991 -53.037)" fill="#06193a"/>
        <path id="Trazado_910930" data-name="Trazado 910930" d="M167.666,136.987l.052-1.207a4.022,4.022,0,0,1-3.6-2.326,1,1,0,0,1,.458-1.206c2.305-1.585,2.058-6.332,2.023-6.869l-1.206.08c.083,1.267-.024,4.777-1.5,5.793a2.2,2.2,0,0,0-.935,2.536c.489,1.7,2.558,3.107,4.711,3.2" transform="translate(-65.66 -61.933)" fill="#8c443c"/>
        <path id="Trazado_910931" data-name="Trazado 910931" d="M148.17,156.921a10.619,10.619,0,0,0,6.885-2.375c.138-.1.308-.235.366-.266a.427.427,0,0,1-.1.035l-.376-1.631a2.5,2.5,0,0,0-.9.531c-1.289.983-4.308,3.285-10.69,1.172l-.526,1.59a17,17,0,0,0,5.347.945" transform="translate(-43.227 -75.421)" fill="#8c443c"/>
        <path id="Trazado_910932" data-name="Trazado 910932" d="M142.6,121.165c.276,1.67,1.111,2.923,1.864,2.8s1.142-1.579.866-3.25-1.111-2.923-1.865-2.8-1.141,1.579-.865,3.25" transform="translate(-33.061 -58.242)" fill="#06193a"/>
        <path id="Trazado_910933" data-name="Trazado 910933" d="M175.562,123.3c.268,1.622,1.078,2.839,1.811,2.718s1.109-1.534.84-3.156-1.078-2.839-1.811-2.718-1.108,1.534-.84,3.156" transform="translate(-82.629 -59.343)" fill="#06193a"/>
        <path id="Trazado_910934" data-name="Trazado 910934" d="M61.752,285.712c.05-.094,5.073-9.538,10-19.067,10.09-19.507,9.972-20.335,9.9-20.83-.224-1.563-3.934-6.112-5.87-8.4,3.025-1.367,11.159-5.074,12.524-6.02.574-.4,1.361-.942.768-14.784-.284-6.626-.767-13.2-.772-13.27l-1.67.123c.875,11.872,1.339,24.942.622,26.618-1.543.976-9.981,4.827-13.178,6.262l-1.026.461.735.851c2.817,3.259,5.928,7.3,6.194,8.321-.476,2.278-12.3,25.01-19.709,38.942Z" transform="translate(64.677 -100.448)" fill="#d3d1c9"/>
        <path id="Trazado_910935" data-name="Trazado 910935" d="M168.085,271.627l1.663-.2c-.975-8.265-2.43-21.868-2.183-23.185.186-.991,3.61-4.012,6.676-6.242l.728-.529-.58-.688a72.4,72.4,0,0,1-5.081-6.528c.762-2.245,8.951-19.388,14.437-30.706l-1.507-.731c-.037.076-3.713,7.662-7.327,15.254-7.418,15.582-7.364,15.96-7.306,16.361.1.679,1.755,2.947,4.931,6.745-2.1,1.574-6.27,4.907-6.616,6.755-.367,1.959,1.74,20.077,2.166,23.69" transform="translate(-83.215 -100.189)" fill="#d3d1c9"/>
        <path id="Trazado_910936" data-name="Trazado 910936" d="M42.756,311.141l.27-.821c.119-.363,12.014-36.5,17.379-49.968A40.7,40.7,0,0,1,77.173,240.97l-.78-1.482a41.641,41.641,0,0,0-17.544,20.245c-4.93,12.379-15.333,43.762-17.143,49.243l-17.431-6.349L23.7,304.2Z" transform="translate(95.299 -118.301)" fill="#d3d1c9"/>
        <path id="Trazado_910937" data-name="Trazado 910937" d="M26.342,427.516V437.9c8.708,8.068,31.616,23.769,57.074-3.751l-1.135-12.62s-13.742,31.466-55.938,5.992" transform="translate(87.719 -208.224)" fill="#dbd2bd"/>
        <path id="Trazado_910938" data-name="Trazado 910938" d="M59.826,575.371a84.076,84.076,0,0,0,14.1-1.008c3.326-.628,4.92-1.469,5.172-2.726.78-3.9.641-46.562.634-48.376l0-.857-36.3.972.014.829c0,.116.2,11.808.561,23.614.741,24.105,1.438,25.189,1.736,25.652.7,1.089,4.585,1.719,11.548,1.874.8.018,1.653.027,2.539.027m18.231-51.248c.049,15.535-.017,44.25-.6,47.185,0,0-.179.442-1.889.951-7.6,2.26-26.621,1.516-28.423.276-.916-2.425-1.708-29.982-2.008-47.529ZM47.1,572.5h0" transform="translate(82.746 -258.057)" fill="#d3d1c9"/>
        <path id="Trazado_910939" data-name="Trazado 910939" d="M74.5,395.976l1.313-1.04c-.35-.442-8.638-10.854-14.814-14.363l-.827,1.456c5.894,3.349,14.245,13.842,14.329,13.947" transform="translate(78.197 -187.995)" fill="#d3d1c9"/>
        <path id="Trazado_910940" data-name="Trazado 910940" d="M62.233,387.253l.753-1.5c-.062-.033-.231-.133-.49-.286-9.02-5.319-15.892-8.131-19.872-8.131v1.675c4.9,0,14.019,4.949,19.021,7.9.384.226.509.3.588.339" transform="translate(99.91 -186.398)" fill="#d3d1c9"/>
        <path id="Trazado_910941" data-name="Trazado 910941" d="M257.475,384.356c-3,.125-5.395.772-8.864-5.056-1.439-2.418-1.006-8.608-.874-13.172a58.308,58.308,0,0,1,2.433-14.209c.592-2.43,3.747-3.331,4.163-.555s-.616,9.864.217,9.725,7.2-9.893,10.3-12.859c2.586-2.478,3.621-3.558,5.369-2.667A3,3,0,0,1,271.4,347.2a3.842,3.842,0,0,1,3.248,1.622c1.022,1.7.361,2.68.361,2.68a3.273,3.273,0,0,1,1.98,2.251,1.969,1.969,0,0,1-.176,1.634s2.829.675,1.518,4.951a46.151,46.151,0,0,1-11.382,18.9c-2.373,2.274-5.783,4.967-9.476,5.121" transform="translate(-219.49 -170.548)" fill="#ce6f5f"/>
        <rect id="Rectángulo_410363" data-name="Rectángulo 410363" width="1.675" height="14.137" transform="translate(49.991 198.876) rotate(-148.651)" fill="#a34d41"/>
        <rect id="Rectángulo_410364" data-name="Rectángulo 410364" width="1.674" height="15.167" transform="matrix(-0.824, -0.567, 0.567, -0.824, 46.357, 194.752)" fill="#a34d41"/>
        <rect id="Rectángulo_410365" data-name="Rectángulo 410365" width="1.675" height="17.6" transform="matrix(-0.788, -0.615, 0.615, -0.788, 40.777, 191.739)" fill="#a34d41"/>
        <path id="Trazado_910942" data-name="Trazado 910942" d="M171.375,297.158a8.747,8.747,0,0,0,5.607,5.051,16.812,16.812,0,0,0,5.372.784h.027c.117,0,.238,0,.355,0a32.249,32.249,0,0,0,8.135-1.259l-.492-1.6a31.684,31.684,0,0,1-5.011.994,23.226,23.226,0,0,1-4.987.087c-3.165-.325-6.172-1.544-7.459-4.692-3.423-8.373.405-27.43.442-27.624l-1.642-.335c-.164.8-3.969,19.75-.348,28.6" transform="translate(-92.337 -132.664)" fill="#fff"/>
        <path id="Trazado_910943" data-name="Trazado 910943" d="M152.412,199.075c3.885-10.1,10.453-14.258,14.514-15.943l.206,2.822a19.942,19.942,0,0,0-2.288,1.344,25.546,25.546,0,0,0-9.932,12.738c-5.21,13.546-5.534,16.528-5.543,16.616l-2.676-.134c.015-.3.3-3.367,5.718-17.444" transform="translate(-56.897 -90.462)" fill="#193762"/>
        <path id="Trazado_910944" data-name="Trazado 910944" d="M181.218,331.373a16.813,16.813,0,0,0,5.372.784h.027c1.132-.626,2.234-1.35,2.987-1.866a23.222,23.222,0,0,1-4.987.087,24.592,24.592,0,0,1-3.4.995" transform="translate(-96.838 -163.157)" fill="#dddddc"/>
        <path id="Trazado_910945" data-name="Trazado 910945" d="M164.516,308.282c8.263-1.3,13.625-7.566,15.507-18.116a47.912,47.912,0,0,0,.693-13.474l-1.659.23a47.568,47.568,0,0,1-.689,12.985c-1.775,9.9-6.523,15.525-14.113,16.721Z" transform="translate(-79.559 -136.68)" fill="#fff"/>
        <path id="Trazado_910946" data-name="Trazado 910946" d="M186.755,262.763c.072-.386,1-10.026-3.529-14.861A9.834,9.834,0,0,0,175.2,244.8a10.615,10.615,0,0,0-7.921,4.353,27.277,27.277,0,0,0-3.936,10.325l2.651.388a24.938,24.938,0,0,1,3.48-9.177,8.021,8.021,0,0,1,5.916-3.217,7.2,7.2,0,0,1,5.88,2.266c3.6,3.841,2.866,12.455,2.85,12.536Z" transform="translate(-85.071 -120.91)" fill="#193762"/>
        <path id="Trazado_910947" data-name="Trazado 910947" d="M161.385,330.379c.246,1.318,1.969,2.1,3.848,1.749s3.2-1.7,2.956-3.021-1.969-2.1-3.848-1.75-3.2,1.7-2.956,3.021" transform="translate(-65.402 -161.666)" fill="#193762"/>
        <path id="Trazado_910948" data-name="Trazado 910948" d="M23.076,684.52A69.91,69.91,0,0,0,60.224,667.9,65.086,65.086,0,0,0,72.46,654.268l-1.426-.878a64.77,64.77,0,0,1-11.949,13.282,68.238,68.238,0,0,1-36.209,16.186Z" transform="translate(100.43 -322.762)" fill="#d4d2c9"/>
        <path id="Trazado_910949" data-name="Trazado 910949" d="M232.069,666.374l1.6-.332c-6.348-13.154-4.461-36.837-4.441-37.074l-1.672-.06c-.02.239-1.925,24.121,4.517,37.467" transform="translate(-164.205 -310.668)" fill="#d4d2c9"/>
        <path id="Trazado_910950" data-name="Trazado 910950" d="M188.876,351.2a8.058,8.058,0,0,0,.251-1.627c-.621-.451-6.589,15.508-7.354,18.451s-.375,3.054-.375,3.054,1.033-1.96,2.324-4.86c1.878-4.219,4.328-10.383,5.155-15.018" transform="translate(-96.421 -172.678)" fill="#7f7b71"/>
        <path id="Trazado_910951" data-name="Trazado 910951" d="M178.093,306.429a.478.478,0,0,0,.411.375l3.348.422a.382.382,0,0,0,.169.017l43.025-7.5a.325.325,0,0,0,.277-.376l-.266-1.338-.23-1.174a.342.342,0,0,0-.4-.256L181.4,304.095a.044.044,0,0,0-.018.008.315.315,0,0,0-.078.027c-.011.007-.026.011-.037.019l-2.966,1.791a.46.46,0,0,0-.209.49" transform="translate(-130.976 -146.511)" fill="#33506e"/>
        <path id="Trazado_910952" data-name="Trazado 910952" d="M222.561,326.681c-.416-.391-12.225-15.882-17.221-20.054s-9.3-8.084-12.49-8.084-10.27,2.869-10.408,3.651.694,1.7,1.943,1.825,5.967-.521,7.494-.261,5.274,3.26,5.274,3.26a27.8,27.8,0,0,0-7.91-1.173c-3.747.13-6.939,1.565-7.078,5.476s0,5.216.971,5.476,10.131-.131,13.045,3.651,3.608,9.648,8.882,12.386,10.026,4.585,12.523,8.105a42.833,42.833,0,0,0,4.976-14.258" transform="translate(-130.252 -147.474)" fill="#ce6f5f"/>
        <path id="Trazado_910953" data-name="Trazado 910953" d="M241.714,320.7l.538-1.49c-.323-.1-7.97-2.524-12.37-2.388l.054,1.572c4.1-.12,11.7,2.282,11.777,2.306" transform="translate(-174.111 -156.502)" fill="#a34d41"/>
        <path id="Trazado_910954" data-name="Trazado 910954" d="M244.07,327.541l.432-1.52c-.345-.087-8.486-2.119-12.32-1.982l.062,1.572c3.582-.127,11.745,1.909,11.827,1.93" transform="translate(-177.524 -160.065)" fill="#a34d41"/>
        <rect id="Rectángulo_410366" data-name="Rectángulo 410366" width="31.929" height="1.674" transform="translate(145.201 486.737)" fill="#568286"/>
        <rect id="Rectángulo_410367" data-name="Rectángulo 410367" width="26.029" height="1.674" transform="translate(85.16 485.002)" fill="#568286"/>
        <path id="Trazado_910955" data-name="Trazado 910955" d="M283.3,321.4c.919,1.287,2.257,1.907,2.988,1.385s.578-1.989-.342-3.276-2.257-1.907-2.988-1.385-.578,1.989.341,3.276" transform="translate(-245.234 -157.056)" fill="#142b44"/>
        <path id="Trazado_910956" data-name="Trazado 910956" d="M230.3,568.922a26.687,26.687,0,0,0,3.346.244c1.624,0,3.091-.228,3.792-.928.442-.442,1.186-1.183,2.15-24.757.472-11.5.76-22.955.764-23.069l.02-.858h-6.92q-.055.819-.11,1.675h5.312c-.435,16.947-1.457,43.526-2.455,45.874-.647.5-3.145.476-5.794.137-.037.563-.07,1.122-.1,1.681" transform="translate(-172.436 -256.65)" fill="#d4d2c9"/>
        <path id="Trazado_910957" data-name="Trazado 910957" d="M285.051,321.295c.457.64,1.122.948,1.485.688s.287-.988-.17-1.628-1.122-.948-1.485-.689-.287.989.17,1.628" transform="translate(-246.34 -157.863)" fill="#2b4968"/>
        <path id="Trazado_910958" data-name="Trazado 910958" d="M81.594,187.793c-.584-2.455-2.677-4.215-4.506-5.4l-1-1.414-.518-2.632c3.246,1.236,7.456,3.893,8.629,8.821,2.1,8.831-6.356,53.465-6.717,55.36l-2.632-.5c3.021-15.864,8.319-47.615,6.743-54.238" transform="translate(62.053 -88.101)" fill="#193762"/>
        <path id="Trazado_910959" data-name="Trazado 910959" d="M76.492,310.332a9.191,9.191,0,1,0,9.191-9.191,9.191,9.191,0,0,0-9.191,9.191" transform="translate(50.885 -148.757)" fill="#fff"/>
        <path id="Trazado_910960" data-name="Trazado 910960" d="M84.23,314.154a5.275,5.275,0,1,0,5.276-5.276,5.276,5.276,0,0,0-5.276,5.276" transform="translate(47.062 -152.579)" fill="#193762"/>
        <path id="Trazado_910961" data-name="Trazado 910961" d="M87.465,315.752a3.639,3.639,0,1,0,3.639-3.639,3.639,3.639,0,0,0-3.639,3.639" transform="translate(45.464 -154.177)" fill="#33506e"/>
      </g>
    </g>
  </g>
</svg>
