<svg xmlns="http://www.w3.org/2000/svg" xmlns:xlink="http://www.w3.org/1999/xlink" width="123.001" height="123" viewBox="0 0 123.001 123">
  <defs>
    <linearGradient id="linear-gradient" x1="0.5" x2="0.5" y2="1" gradientUnits="objectBoundingBox">
      <stop offset="0" stop-color="#ddf1ff"/>
      <stop offset="1" stop-color="#fff"/>
    </linearGradient>
    <clipPath id="clip-path">
      <rect id="Rectángulo_410576" data-name="Rectángulo 410576" width="61.478" height="73.104" fill="#445866"/>
    </clipPath>
  </defs>
  <g id="img5" transform="translate(-264.668 -6026)">
    <g id="Grupo_1099808" data-name="Grupo 1099808" transform="translate(264.668 6026)">
      <g id="Grupo_1099775" data-name="Grupo 1099775" transform="translate(0 0)">
        <g id="Grupo_1099770" data-name="Grupo 1099770" transform="translate(0 0)">
          <rect id="Rectángulo_401345" data-name="Rectángulo 401345" width="104.839" height="104.839" transform="translate(9 9.16)" fill="url(#linear-gradient)"/>
          <path id="Sustracción_141" data-name="Sustracción 141" d="M106.183,123,0,106.181,16.822,0,123,16.819,106.183,123v0h0v0ZM23.2,8.788,8.783,99.8,99.8,114.212,114.214,23.2,23.2,8.788Z" transform="translate(0 0)" fill="#8ce2e5"/>
        </g>
      </g>
      <g id="Grupo_1099776" data-name="Grupo 1099776" transform="translate(25 24.995)">
        <g id="Grupo_1099618" data-name="Grupo 1099618" transform="translate(0 0)">
          <rect id="Rectángulo_401104" data-name="Rectángulo 401104" width="72.141" height="73.01" transform="translate(0)" fill="none"/>
        </g>
        <g id="Grupo_1122007" data-name="Grupo 1122007" transform="translate(5.332 -0.047)">
          <g id="Grupo_1122006" data-name="Grupo 1122006" clip-path="url(#clip-path)">
            <path id="Trazado_911875" data-name="Trazado 911875" d="M116.909,131.061a11.781,11.781,0,1,0-11.78-11.781,11.794,11.794,0,0,0,11.78,11.781m2.645-2.514a9.589,9.589,0,0,1-5.29,0v-.958a8.714,8.714,0,0,0,5.29,0Zm2.142-17.628a9.63,9.63,0,0,1,0,16.722v-1.077a8.71,8.71,0,0,0,0-14.568Zm-7.431-.906a9.589,9.589,0,0,1,5.29,0v.958a8.7,8.7,0,0,0-5.29,0Zm2.645,2.688a6.579,6.579,0,1,1-6.578,6.579,6.586,6.586,0,0,1,6.578-6.579m-4.786-1.782V112a8.711,8.711,0,0,0,0,14.568v1.077a9.63,9.63,0,0,1,0-16.722" transform="translate(-90.119 -92.151)" fill="#445866"/>
            <path id="Trazado_911876" data-name="Trazado 911876" d="M167.71,158.143h1.332a.4.4,0,1,1,0,.8h-2.453a1.071,1.071,0,1,0,0,2.142h.717v.4a1.071,1.071,0,1,0,2.142,0v-.436a2.541,2.541,0,0,0-.405-5.05H167.71a.4.4,0,0,1,0-.8h2.1a1.071,1.071,0,1,0,0-2.142h-.365v-.4a1.071,1.071,0,1,0-2.142,0v.436a2.541,2.541,0,0,0,.4,5.05" transform="translate(-141.585 -129.943)" fill="#445866"/>
            <path id="Trazado_911877" data-name="Trazado 911877" d="M265.559,205.28a11.781,11.781,0,1,0,11.78-11.78,11.794,11.794,0,0,0-11.78,11.78m6.994,8.361a9.63,9.63,0,0,1,0-16.722V198a8.712,8.712,0,0,0,0,14.569Zm7.432.906a9.59,9.59,0,0,1-5.29,0v-.958a8.7,8.7,0,0,0,5.29,0Zm5.447-12.524a8.708,8.708,0,0,0-3.305-4.041v-1.063a9.63,9.63,0,0,1,0,16.723v-1.076a8.71,8.71,0,0,0,3.43-4.357,1.071,1.071,0,1,0-2.017-.719,6.579,6.579,0,1,1-.094-4.666,1.071,1.071,0,0,0,1.987-.8m-5.447-5.057a8.781,8.781,0,0,0-2.645-.407,8.676,8.676,0,0,0-2.644.412v-.958a9.589,9.589,0,0,1,5.29,0Z" transform="translate(-227.643 -165.872)" fill="#445866"/>
            <path id="Trazado_911878" data-name="Trazado 911878" d="M329.472,242H328.14a.4.4,0,1,1,0-.8h2.1a1.071,1.071,0,1,0,0-2.142h-.365v-.4a1.071,1.071,0,0,0-2.142,0v.436a2.541,2.541,0,0,0,.4,5.05h1.332a.4.4,0,0,1,0,.8h-2.453a1.071,1.071,0,1,0,0,2.142h.717v.4a1.071,1.071,0,1,0,2.142,0v-.436a2.541,2.541,0,0,0-.4-5.05" transform="translate(-279.108 -203.664)" fill="#445866"/>
            <path id="Trazado_911879" data-name="Trazado 911879" d="M287.862,92.322a6.511,6.511,0,1,0-6.511-6.51,6.517,6.517,0,0,0,6.511,6.51m0-10.88a4.369,4.369,0,1,1-4.369,4.369,4.374,4.374,0,0,1,4.369-4.369" transform="translate(-241.18 -67.978)" fill="#445866"/>
            <path id="Trazado_911880" data-name="Trazado 911880" d="M306.752,108.066a3.365,3.365,0,1,0-3.365-3.365,3.369,3.369,0,0,0,3.365,3.365m0-4.588a1.223,1.223,0,1,1-1.223,1.223,1.225,1.225,0,0,1,1.223-1.223" transform="translate(-260.07 -86.867)" fill="#445866"/>
            <path id="Trazado_911881" data-name="Trazado 911881" d="M196.069,13.021a6.511,6.511,0,1,0-6.511-6.51,6.518,6.518,0,0,0,6.511,6.51m0-10.88A4.369,4.369,0,1,1,191.7,6.511a4.374,4.374,0,0,1,4.369-4.369" transform="translate(-162.493 0)" fill="#445866"/>
            <path id="Trazado_911882" data-name="Trazado 911882" d="M214.959,28.764a3.365,3.365,0,1,0-3.365-3.364,3.369,3.369,0,0,0,3.365,3.364m0-4.587a1.223,1.223,0,1,1-1.223,1.223,1.225,1.225,0,0,1,1.223-1.223" transform="translate(-181.383 -18.889)" fill="#445866"/>
            <path id="Trazado_911883" data-name="Trazado 911883" d="M57.461,302.678h-.5V302.6a3.21,3.21,0,0,0-3.206-3.206h-.33a1.1,1.1,0,0,0,.014-.167,3.21,3.21,0,0,0-3.206-3.206H43.359a3.187,3.187,0,0,0-.448-3.937L33.819,283a6.881,6.881,0,0,0-4.369-1.809H22.835v-1.16a1.809,1.809,0,0,0-1.807-1.806H12.484a1.808,1.808,0,0,0-1.779,1.5h-8.9A1.809,1.809,0,0,0,0,281.53v21.352a1.809,1.809,0,0,0,1.807,1.806h8.9a1.808,1.808,0,0,0,1.779,1.5h8.544a1.809,1.809,0,0,0,1.807-1.806V304.2l5.922,5.63a7.187,7.187,0,0,0,4.432,1.771H57.461a3.217,3.217,0,0,0,3.213-3.213v-2.5a3.216,3.216,0,0,0-3.213-3.213m-46.783-.13H2.142V281.865h8.536Zm39.555-4.384a1.066,1.066,0,0,1,1.065,1.065,1.084,1.084,0,0,0,.014.167H39.924a3.178,3.178,0,0,0,.718-.538l.694-.694Zm8.3,10.225a1.072,1.072,0,0,1-1.071,1.071H33.188a5.112,5.112,0,0,1-2.956-1.181l-7.4-7.033V290.185a1.071,1.071,0,0,0-2.142,0v13.864H12.819V280.365h7.874v4.679a1.071,1.071,0,1,0,2.142,0v-1.713h6.616a4.878,4.878,0,0,1,2.855,1.182L41.4,293.6a1.038,1.038,0,0,1,.3.738,1.019,1.019,0,0,1-.3.737l-2.268,2.268a1.038,1.038,0,0,1-.74.3,1.023,1.023,0,0,1-.739-.3l-6.037-6.034a2.513,2.513,0,0,0-1.766-.732H27.334a2.5,2.5,0,0,0-2.5,2.5v.353a2.507,2.507,0,0,0,.8,1.829l8.4,7.816a7.292,7.292,0,0,0,4.439,1.746H47.3a1.071,1.071,0,1,0,0-2.142h-8.83a5.25,5.25,0,0,1-2.945-1.141H53.755a1.066,1.066,0,0,1,1.065,1.065v.076H52.441a1.071,1.071,0,1,0,0,2.142h5.02a1.072,1.072,0,0,1,1.071,1.071Zm-23.09-10.225.694.694a3.178,3.178,0,0,0,.718.538H34.82a5.342,5.342,0,0,1-2.427-.771l-.494-.46ZM31.3,296.022a5.3,5.3,0,0,1-2.822-1.042l-1.385-1.289a.36.36,0,0,1-.114-.262v-.353a.358.358,0,0,1,.357-.358h2.512a.36.36,0,0,1,.252.1l3.2,3.2Z" transform="translate(0 -238.498)" fill="#445866"/>
            <path id="Trazado_911884" data-name="Trazado 911884" d="M109.778,414.867h0a1.071,1.071,0,0,0-1.07,1.071v1.834a1.071,1.071,0,0,0,1.071,1.071h0a1.071,1.071,0,0,0,1.071-1.072l0-1.834a1.071,1.071,0,0,0-1.071-1.07" transform="translate(-93.186 -355.633)" fill="#445866"/>
          </g>
        </g>
      </g>
    </g>
  </g>
</svg>
