<svg xmlns="http://www.w3.org/2000/svg" width="139" height="138.999" viewBox="0 0 139 138.999">
  <g id="img6" transform="translate(-173 -7366)">
    <g id="Grupo_1099775" data-name="Grupo 1099775" transform="translate(-407 1749.16)">
      <g id="Grupo_1099770" data-name="Grupo 1099770" transform="translate(580 5616.839)">
        <rect id="Rectángulo_401345" data-name="Rectángulo 401345" width="120.838" height="120.838" transform="translate(9 9.161)" fill="#fff"/>
        <path id="Sustracción_141" data-name="Sustracción 141" d="M119.994,139,0,119.993,19.01,0,139,19.008,119.994,139v0h0v0ZM26.221,9.932,9.926,112.779l102.854,16.29L129.07,26.218,26.219,9.932Z" fill="#9ac1df"/>
      </g>
    </g>
    <g id="Grupo_1099776" data-name="Grupo 1099776" transform="translate(201.414 7393.395)">
      <g id="Grupo_1099618" data-name="Grupo 1099618" transform="translate(0 0)">
        <rect id="Rectángulo_401104" data-name="Rectángulo 401104" width="81.642" height="82.626" fill="none"/>
      </g>
      <g id="Grupo_1122206" data-name="Grupo 1122206" transform="translate(-25.736 0.728)">
        <path id="Trazado_912286" data-name="Trazado 912286" d="M96.252,29.453H92.391V20.905a1.19,1.19,0,0,0-1.19-1.19H82.093A16.063,16.063,0,0,0,79.66,6.833,1.19,1.19,0,1,0,77.709,8.2c6.069,8.683-.329,21.641-11.152,21.256-7.358.277-13.6-6.205-13.6-13.476A13.6,13.6,0,0,1,74.333,4.822,1.19,1.19,0,1,0,75.7,2.871,15.981,15.981,0,0,0,51.022,19.715H36.985a6.126,6.126,0,0,0-6.12,6.118v49.34a6.005,6.005,0,0,0,6,6H78.812a1.19,1.19,0,1,0,0-2.38H36.865a3.626,3.626,0,0,1-3.516-2.759,3.524,3.524,0,0,0,1.052.16H96.129A1.19,1.19,0,0,0,97.319,75V63.87h2.55v11.3a3.622,3.622,0,0,1-3.618,3.618H84a1.19,1.19,0,1,0,0,2.38H96.252a6,6,0,0,0,6-6V35.451a6,6,0,0,0-6-6ZM81.316,22.1h8.695v7.358H75.131A16.074,16.074,0,0,0,81.316,22.1Zm-44.331,0H51.8a16.075,16.075,0,0,0,6.185,7.358H36.865a3.621,3.621,0,0,1-3.619-3.619A3.743,3.743,0,0,1,36.985,22.1ZM99.869,61.489H83.724a1.191,1.191,0,0,1-1.19-1.19V50.273a1.191,1.191,0,0,1,1.19-1.19H99.869V61.489ZM97.319,46.7V35.571a1.19,1.19,0,0,0-1.19-1.19H50.668a1.19,1.19,0,0,0,0,2.38H94.939V46.7H83.724a3.574,3.574,0,0,0-3.57,3.57V60.3a3.574,3.574,0,0,0,3.57,3.57H94.939v9.943H34.4a1.156,1.156,0,0,1-1.155-1.155v-6.2h2.55v1.274a1.19,1.19,0,1,0,2.38,0V66.454h2.548v1.274a1.19,1.19,0,1,0,2.38,0V66.454h3.739a1.19,1.19,0,0,0,1.19-1.19V61.525h1.274a1.19,1.19,0,0,0,0-2.38H48.032V55.406a1.19,1.19,0,0,0-1.19-1.19H43.1V52.821a1.19,1.19,0,1,0-2.38,0v1.395H38.175V52.821a1.19,1.19,0,1,0-2.38,0v1.395h-2.55V36.568a3.52,3.52,0,0,0,1.155.194h11.08a1.19,1.19,0,0,0,0-2.38H34.4a1.156,1.156,0,0,1-1.155-1.154V30.62a5.95,5.95,0,0,0,3.619,1.213H96.252a3.622,3.622,0,0,1,3.618,3.618V46.7ZM45.652,56.6v7.478H33.246V56.6Z" transform="translate(0 0)" fill="#445866"/>
        <path id="Trazado_912287" data-name="Trazado 912287" d="M392.048,332.985a3.654,3.654,0,1,0-3.654-3.654A3.659,3.659,0,0,0,392.048,332.985Zm0-4.929a1.274,1.274,0,1,1-1.274,1.274A1.276,1.276,0,0,1,392.048,328.056Z" transform="translate(-300.847 -274.044)" fill="#445866"/>
        <path id="Trazado_912288" data-name="Trazado 912288" d="M200.677,61.556c1.647,1.514,3.445,1.427,5.168,0l2.618-2.618,2.618,2.618a3.654,3.654,0,0,0,5.168-5.168h0l-2.618-2.618,2.618-2.618a3.654,3.654,0,0,0-5.168-5.168L208.463,48.6l-2.618-2.618a3.654,3.654,0,0,0-5.168,5.168L203.3,53.77l-2.618,2.618A3.448,3.448,0,0,0,200.677,61.556Zm1.683-3.485,3.459-3.459a1.19,1.19,0,0,0,0-1.683l-3.459-3.459a1.274,1.274,0,1,1,1.8-1.8l3.459,3.459a1.191,1.191,0,0,0,1.683,0l3.459-3.459a1.274,1.274,0,1,1,1.8,1.8l-3.459,3.459a1.19,1.19,0,0,0,0,1.683l3.459,3.459a1.274,1.274,0,1,1-1.8,1.8L209.3,56.414a1.19,1.19,0,0,0-1.683,0l-3.459,3.459c-.6.5-1.2.664-1.8,0A1.3,1.3,0,0,1,202.36,58.071Z" transform="translate(-141.906 -37.793)" fill="#445866"/>
      </g>
    </g>
  </g>
</svg>
