<svg xmlns="http://www.w3.org/2000/svg" xmlns:xlink="http://www.w3.org/1999/xlink" width="400" height="836.96" viewBox="0 0 400 836.96">
  <defs>
    <linearGradient id="linear-gradient" x1="0.5" x2="0.5" y2="1" gradientUnits="objectBoundingBox">
      <stop offset="0" stop-color="#ddf1ff"/>
      <stop offset="1" stop-color="#d1f3f5"/>
    </linearGradient>
    <clipPath id="clip-path">
      <path id="Trazado_611005" data-name="Trazado 611005" d="M0,0H400V826.343H0Z" fill="#ddf1ff"/>
    </clipPath>
    <clipPath id="clip-path-2">
      <path id="Trazado_911427" data-name="Trazado 911427" d="M0,0H400V834.7H0Z" fill="url(#linear-gradient)"/>
    </clipPath>
    <clipPath id="clip-path-3">
      <rect id="Rectángulo_410424" data-name="Rectángulo 410424" width="171.203" height="342.997" fill="none"/>
    </clipPath>
  </defs>
  <g id="img7_1" transform="translate(8269.332 1460.585)">
    <g id="Grupo_1119951" data-name="Grupo 1119951" transform="translate(-8547.711 -11205)">
      <g id="Grupo_1120619" data-name="Grupo 1120619" transform="translate(0.711 8630)">
        <g id="Grupo_1121590" data-name="Grupo 1121590" transform="translate(277.668 1114.414)">
          <path id="Trazado_608309" data-name="Trazado 608309" d="M0,0H400V836.96H0Z" transform="translate(0 0)" fill="url(#linear-gradient)"/>
          <g id="Enmascarar_grupo_1098817" data-name="Enmascarar grupo 1098817" clip-path="url(#clip-path-2)">
            <path id="Sustracción_178" data-name="Sustracción 178" d="M433.385,383.234H63.635V16.959H433.385V383.233ZM84.271,37.4V362.524h328.21V37.4Z" transform="matrix(0.891, 0.454, -0.454, 0.891, 388.417, -28.023)" fill="#fff"/>
            <path id="Sustracción_179" data-name="Sustracción 179" d="M367.358,363.883h0l-369.75,2.392L0,0,369.75-2.392l-2.392,366.274ZM20.636,20.44,18.512,345.565l328.21-2.123,2.123-325.125Z" transform="matrix(0.891, 0.454, -0.454, 0.891, -227.583, 349.855)" fill="#fff"/>
          </g>
        </g>
      </g>
      <rect id="Rectángulo_409713" data-name="Rectángulo 409713" width="304.353" height="114" rx="9" transform="translate(326.378 9779)" fill="#f3f9ff"/>
      <path id="Trazado_912489" data-name="Trazado 912489" d="M4.594,9.688a4.58,4.58,0,0,1-.168,1.324,2.959,2.959,0,0,1-.535.957q-.375.461-1.094,1.215a2.674,2.674,0,0,0-.8,1.527L1.977,15a1.752,1.752,0,0,0,.453,1.3,1.775,1.775,0,0,0,1.3.449A1.821,1.821,0,0,0,5,16.309a1.48,1.48,0,0,0,.488-1.152H6.938a2.7,2.7,0,0,1-.895,2.055,3.3,3.3,0,0,1-2.309.8,3.326,3.326,0,0,1-2.367-.785,2.85,2.85,0,0,1-.836-2.184,4.076,4.076,0,0,1,1.25-2.719l.852-.883a2.638,2.638,0,0,0,.516-1.75Zm.063-2.473a.869.869,0,0,1-.215.6.8.8,0,0,1-.637.243.817.817,0,0,1-.641-.243.86.86,0,0,1-.219-.6.821.821,0,0,1,.219-.581A.832.832,0,0,1,3.8,6.4a.819.819,0,0,1,.637.235A.83.83,0,0,1,4.656,7.215ZM17.578,9.68a7.026,7.026,0,0,1-.523,2.84,4.388,4.388,0,0,1-1.469,1.863l2.031,1.594-1.023.945-2.4-1.906a4.88,4.88,0,0,1-1.187.141,4.244,4.244,0,0,1-4-2.543,6.752,6.752,0,0,1-.59-2.832v-.82a6.953,6.953,0,0,1,.57-2.9,4.218,4.218,0,0,1,4-2.594,4.4,4.4,0,0,1,2.418.664,4.284,4.284,0,0,1,1.605,1.91,7.016,7.016,0,0,1,.563,2.91Zm-1.5-.734a5.162,5.162,0,0,0-.8-3.1,2.666,2.666,0,0,0-2.285-1.09,2.643,2.643,0,0,0-2.23,1.082,5,5,0,0,0-.84,3V9.68a5.147,5.147,0,0,0,.816,3.078,2.646,2.646,0,0,0,2.27,1.125,2.652,2.652,0,0,0,2.25-1.059,5.079,5.079,0,0,0,.82-3.035Zm8.8,5.219a3.07,3.07,0,0,1-2.477.992,2.628,2.628,0,0,1-2.059-.785,3.4,3.4,0,0,1-.715-2.324v-5.5h1.445v5.461q0,1.922,1.563,1.922a2.163,2.163,0,0,0,2.2-1.234V6.547h1.445V15H24.914Zm7.109.992a3.693,3.693,0,0,1-2.8-1.129,4.19,4.19,0,0,1-1.078-3.02v-.266A5.073,5.073,0,0,1,28.6,8.5a3.748,3.748,0,0,1,1.344-1.547,3.378,3.378,0,0,1,1.871-.559,3.166,3.166,0,0,1,2.563,1.086,4.7,4.7,0,0,1,.914,3.109v.6H29.563a3,3,0,0,0,.73,2.02,2.3,2.3,0,0,0,1.777.77,2.517,2.517,0,0,0,1.3-.312,3.259,3.259,0,0,0,.93-.828l.883.688A3.55,3.55,0,0,1,31.992,15.156Zm-.18-7.578a1.928,1.928,0,0,0-1.469.637A3.1,3.1,0,0,0,29.609,10h4.234V9.891a2.753,2.753,0,0,0-.594-1.707A1.815,1.815,0,0,0,31.813,7.578ZM32.516,3h1.75L32.172,5.3l-1.164,0Zm8.055,7.7a4.952,4.952,0,0,1,.922-3.129,3.137,3.137,0,0,1,4.766-.168V3H47.7V15H46.375l-.07-.906a2.943,2.943,0,0,1-2.414,1.063,2.887,2.887,0,0,1-2.395-1.2,5.008,5.008,0,0,1-.926-3.141Zm1.445.164a3.749,3.749,0,0,0,.594,2.25,1.92,1.92,0,0,0,1.641.813A2.108,2.108,0,0,0,46.258,12.7V8.813a2.125,2.125,0,0,0-1.992-1.2,1.929,1.929,0,0,0-1.656.82A4.128,4.128,0,0,0,42.016,10.867Zm11.438,4.289a3.693,3.693,0,0,1-2.8-1.129,4.19,4.19,0,0,1-1.078-3.02v-.266a5.073,5.073,0,0,1,.48-2.246A3.748,3.748,0,0,1,51.4,6.949a3.378,3.378,0,0,1,1.871-.559,3.166,3.166,0,0,1,2.563,1.086,4.7,4.7,0,0,1,.914,3.109v.6H51.023a3,3,0,0,0,.73,2.02,2.3,2.3,0,0,0,1.777.77,2.517,2.517,0,0,0,1.3-.312,3.259,3.259,0,0,0,.93-.828l.883.688A3.55,3.55,0,0,1,53.453,15.156Zm-.18-7.578a1.928,1.928,0,0,0-1.469.637A3.1,3.1,0,0,0,51.07,10H55.3V9.891a2.753,2.753,0,0,0-.594-1.707A1.815,1.815,0,0,0,53.273,7.578Zm12.3,3.289a5.026,5.026,0,0,1-.891,3.113A2.846,2.846,0,0,1,62.3,15.156a2.947,2.947,0,0,1-2.477-1.133L59.75,15H58.422V3h1.445V7.477a2.93,2.93,0,0,1,2.414-1.086A2.863,2.863,0,0,1,64.7,7.555a5.177,5.177,0,0,1,.879,3.188ZM64.133,10.7a3.906,3.906,0,0,0-.57-2.281,1.888,1.888,0,0,0-1.641-.8,2.122,2.122,0,0,0-2.055,1.328V12.6a2.181,2.181,0,0,0,2.07,1.328,1.878,1.878,0,0,0,1.617-.8A4.153,4.153,0,0,0,64.133,10.7Zm2.883-.008A4.993,4.993,0,0,1,67.5,8.461,3.643,3.643,0,0,1,68.863,6.93a3.7,3.7,0,0,1,1.988-.539,3.565,3.565,0,0,1,2.793,1.2,4.6,4.6,0,0,1,1.066,3.18v.1a5.036,5.036,0,0,1-.473,2.215,3.589,3.589,0,0,1-1.352,1.527,3.743,3.743,0,0,1-2.02.547,3.556,3.556,0,0,1-2.785-1.2A4.575,4.575,0,0,1,67.016,10.8Zm1.453.172a3.616,3.616,0,0,0,.652,2.258,2.211,2.211,0,0,0,3.5-.012,3.955,3.955,0,0,0,.648-2.418,3.61,3.61,0,0,0-.66-2.254,2.1,2.1,0,0,0-1.754-.863,2.075,2.075,0,0,0-1.727.852A3.925,3.925,0,0,0,68.469,10.867ZM81.93,7.57a3.073,3.073,0,0,1,2.5-1.18q2.68,0,2.7,3.023V15H85.688V9.406a1.946,1.946,0,0,0-.418-1.352,1.675,1.675,0,0,0-1.277-.437,2.086,2.086,0,0,0-1.234.375,2.546,2.546,0,0,0-.828.984V15H80.484V3H81.93ZM94.516,15a3.036,3.036,0,0,1-.2-.891,3.225,3.225,0,0,1-2.406,1.047,2.984,2.984,0,0,1-2.051-.707,2.288,2.288,0,0,1-.8-1.793,2.39,2.39,0,0,1,1-2.051,4.733,4.733,0,0,1,2.824-.73h1.406V9.211A1.623,1.623,0,0,0,93.836,8,1.821,1.821,0,0,0,92.5,7.555a2.108,2.108,0,0,0-1.3.391,1.151,1.151,0,0,0-.523.945H89.227a2,2,0,0,1,.449-1.223,3.066,3.066,0,0,1,1.219-.934,4.1,4.1,0,0,1,1.691-.344,3.342,3.342,0,0,1,2.289.73,2.635,2.635,0,0,1,.859,2.012v3.891a4.757,4.757,0,0,0,.3,1.852V15Zm-2.4-1.1a2.54,2.54,0,0,0,1.289-.352,2.127,2.127,0,0,0,.883-.914V10.9H93.156q-2.656,0-2.656,1.555a1.316,1.316,0,0,0,.453,1.063A1.742,1.742,0,0,0,92.117,13.9Zm9.273.078a2.082,2.082,0,0,0,1.352-.469,1.649,1.649,0,0,0,.641-1.172h1.367a2.621,2.621,0,0,1-.5,1.383,3.293,3.293,0,0,1-1.23,1.047,3.55,3.55,0,0,1-1.629.391A3.482,3.482,0,0,1,98.645,14a4.59,4.59,0,0,1-1.02-3.152v-.242a5.089,5.089,0,0,1,.453-2.2,3.451,3.451,0,0,1,1.3-1.492,3.7,3.7,0,0,1,2-.531,3.39,3.39,0,0,1,2.363.852,3.043,3.043,0,0,1,1,2.211h-1.367a1.992,1.992,0,0,0-.621-1.348,1.932,1.932,0,0,0-1.379-.527,2.023,2.023,0,0,0-1.707.793,3.724,3.724,0,0,0-.605,2.293v.273a3.65,3.65,0,0,0,.6,2.25A2.033,2.033,0,0,0,101.391,13.977Zm8.492,1.18a3.693,3.693,0,0,1-2.8-1.129,4.19,4.19,0,0,1-1.078-3.02v-.266a5.073,5.073,0,0,1,.48-2.246,3.748,3.748,0,0,1,1.344-1.547,3.378,3.378,0,0,1,1.871-.559,3.166,3.166,0,0,1,2.563,1.086,4.7,4.7,0,0,1,.914,3.109v.6h-5.727a3,3,0,0,0,.73,2.02,2.3,2.3,0,0,0,1.777.77,2.517,2.517,0,0,0,1.3-.312,3.259,3.259,0,0,0,.93-.828l.883.688A3.55,3.55,0,0,1,109.883,15.156Zm-.18-7.578a1.928,1.928,0,0,0-1.469.637A3.1,3.1,0,0,0,107.5,10h4.234V9.891a2.753,2.753,0,0,0-.594-1.707A1.815,1.815,0,0,0,109.7,7.578Zm9.234.266a4.331,4.331,0,0,0-.711-.055A1.9,1.9,0,0,0,116.3,9v6h-1.445V6.547h1.406l.023.977A2.251,2.251,0,0,1,118.3,6.391a1.477,1.477,0,0,1,.641.109Zm8.8,7.313a3.693,3.693,0,0,1-2.8-1.129,4.19,4.19,0,0,1-1.078-3.02v-.266a5.073,5.073,0,0,1,.48-2.246,3.748,3.748,0,0,1,1.344-1.547,3.378,3.378,0,0,1,1.871-.559,3.166,3.166,0,0,1,2.563,1.086,4.7,4.7,0,0,1,.914,3.109v.6H125.3a3,3,0,0,0,.73,2.02,2.3,2.3,0,0,0,1.777.77,2.517,2.517,0,0,0,1.3-.312,3.258,3.258,0,0,0,.93-.828l.883.688A3.55,3.55,0,0,1,127.734,15.156Zm-.18-7.578a1.928,1.928,0,0,0-1.469.637A3.1,3.1,0,0,0,125.352,10h4.234V9.891a2.753,2.753,0,0,0-.594-1.707A1.815,1.815,0,0,0,127.555,7.578Zm6.516-1.031.047,1.063a3.08,3.08,0,0,1,2.531-1.219q2.68,0,2.7,3.023V15h-1.445V9.406a1.946,1.946,0,0,0-.418-1.352,1.675,1.675,0,0,0-1.277-.437,2.086,2.086,0,0,0-1.234.375,2.546,2.546,0,0,0-.828.984V15H132.7V6.547Zm14.813,7.43a2.082,2.082,0,0,0,1.352-.469,1.649,1.649,0,0,0,.641-1.172h1.367a2.621,2.621,0,0,1-.5,1.383,3.293,3.293,0,0,1-1.23,1.047,3.55,3.55,0,0,1-1.629.391A3.482,3.482,0,0,1,146.137,14a4.59,4.59,0,0,1-1.02-3.152v-.242a5.089,5.089,0,0,1,.453-2.2,3.451,3.451,0,0,1,1.3-1.492,3.7,3.7,0,0,1,2-.531,3.39,3.39,0,0,1,2.363.852,3.043,3.043,0,0,1,1,2.211h-1.367a1.992,1.992,0,0,0-.621-1.348,1.932,1.932,0,0,0-1.379-.527,2.023,2.023,0,0,0-1.707.793,3.724,3.724,0,0,0-.605,2.293v.273a3.65,3.65,0,0,0,.6,2.25A2.033,2.033,0,0,0,148.883,13.977ZM159.086,15a3.036,3.036,0,0,1-.2-.891,3.225,3.225,0,0,1-2.406,1.047,2.984,2.984,0,0,1-2.051-.707,2.287,2.287,0,0,1-.8-1.793,2.39,2.39,0,0,1,1-2.051,4.733,4.733,0,0,1,2.824-.73h1.406V9.211A1.623,1.623,0,0,0,158.406,8a1.821,1.821,0,0,0-1.336-.449,2.107,2.107,0,0,0-1.3.391,1.151,1.151,0,0,0-.523.945H153.8a2,2,0,0,1,.449-1.223,3.066,3.066,0,0,1,1.219-.934,4.1,4.1,0,0,1,1.691-.344,3.342,3.342,0,0,1,2.289.73,2.635,2.635,0,0,1,.859,2.012v3.891a4.757,4.757,0,0,0,.3,1.852V15Zm-2.4-1.1a2.54,2.54,0,0,0,1.289-.352,2.127,2.127,0,0,0,.883-.914V10.9h-1.133q-2.656,0-2.656,1.555a1.316,1.316,0,0,0,.453,1.063A1.742,1.742,0,0,0,156.688,13.9Zm10.8-1.141a1.064,1.064,0,0,0-.441-.91,4.249,4.249,0,0,0-1.539-.559,7.277,7.277,0,0,1-1.742-.562,2.479,2.479,0,0,1-.953-.781,1.869,1.869,0,0,1-.309-1.078,2.193,2.193,0,0,1,.879-1.758,3.432,3.432,0,0,1,2.246-.719,3.532,3.532,0,0,1,2.332.742,2.357,2.357,0,0,1,.895,1.9h-1.453a1.3,1.3,0,0,0-.5-1.023,1.888,1.888,0,0,0-1.27-.43,1.976,1.976,0,0,0-1.234.344,1.082,1.082,0,0,0-.445.9.877.877,0,0,0,.414.789,5.1,5.1,0,0,0,1.5.508,7.8,7.8,0,0,1,1.754.578,2.558,2.558,0,0,1,1,.809,1.988,1.988,0,0,1,.324,1.152,2.163,2.163,0,0,1-.906,1.816,3.8,3.8,0,0,1-2.352.684,4.257,4.257,0,0,1-1.8-.359,2.922,2.922,0,0,1-1.223-1,2.42,2.42,0,0,1-.441-1.395h1.445a1.5,1.5,0,0,0,.582,1.152,2.258,2.258,0,0,0,1.434.426A2.331,2.331,0,0,0,167,13.645,1.02,1.02,0,0,0,167.492,12.758Zm2.945-2.062a4.993,4.993,0,0,1,.488-2.234,3.642,3.642,0,0,1,1.359-1.531,3.7,3.7,0,0,1,1.988-.539,3.565,3.565,0,0,1,2.793,1.2,4.6,4.6,0,0,1,1.066,3.18v.1a5.036,5.036,0,0,1-.473,2.215,3.589,3.589,0,0,1-1.352,1.527,3.743,3.743,0,0,1-2.02.547,3.556,3.556,0,0,1-2.785-1.2,4.575,4.575,0,0,1-1.066-3.164Zm1.453.172a3.616,3.616,0,0,0,.652,2.258,2.211,2.211,0,0,0,3.5-.012,3.954,3.954,0,0,0,.648-2.418,3.61,3.61,0,0,0-.66-2.254,2.1,2.1,0,0,0-1.754-.863,2.075,2.075,0,0,0-1.727.852A3.925,3.925,0,0,0,171.891,10.867Zm11.664-.164a4.952,4.952,0,0,1,.922-3.129,3.137,3.137,0,0,1,4.766-.168V3h1.445V15h-1.328l-.07-.906a2.943,2.943,0,0,1-2.414,1.063,2.887,2.887,0,0,1-2.395-1.2,5.008,5.008,0,0,1-.926-3.141Zm1.445.164a3.749,3.749,0,0,0,.594,2.25,1.919,1.919,0,0,0,1.641.813,2.108,2.108,0,0,0,2.008-1.234V8.813a2.125,2.125,0,0,0-1.992-1.2,1.929,1.929,0,0,0-1.656.82A4.128,4.128,0,0,0,185,10.867Zm11.438,4.289a3.693,3.693,0,0,1-2.8-1.129,4.19,4.19,0,0,1-1.078-3.02v-.266a5.073,5.073,0,0,1,.48-2.246,3.748,3.748,0,0,1,1.344-1.547,3.378,3.378,0,0,1,1.871-.559,3.166,3.166,0,0,1,2.563,1.086,4.7,4.7,0,0,1,.914,3.109v.6h-5.727a3,3,0,0,0,.73,2.02,2.3,2.3,0,0,0,1.777.77,2.517,2.517,0,0,0,1.3-.312,3.258,3.258,0,0,0,.93-.828l.883.688A3.55,3.55,0,0,1,196.438,15.156Zm-.18-7.578a1.928,1.928,0,0,0-1.469.637A3.1,3.1,0,0,0,194.055,10h4.234V9.891a2.753,2.753,0,0,0-.594-1.707A1.815,1.815,0,0,0,196.258,7.578Zm14.328,6.586a3.07,3.07,0,0,1-2.477.992,2.628,2.628,0,0,1-2.059-.785,3.4,3.4,0,0,1-.715-2.324v-5.5h1.445v5.461q0,1.922,1.563,1.922a2.163,2.163,0,0,0,2.2-1.234V6.547h1.445V15h-1.375Zm4.969-7.617.047,1.063a3.08,3.08,0,0,1,2.531-1.219q2.68,0,2.7,3.023V15h-1.445V9.406a1.946,1.946,0,0,0-.418-1.352,1.675,1.675,0,0,0-1.277-.437,2.086,2.086,0,0,0-1.234.375,2.546,2.546,0,0,0-.828.984V15h-1.445V6.547ZM228.234,15a3.036,3.036,0,0,1-.2-.891,3.225,3.225,0,0,1-2.406,1.047,2.984,2.984,0,0,1-2.051-.707,2.287,2.287,0,0,1-.8-1.793,2.39,2.39,0,0,1,1-2.051,4.733,4.733,0,0,1,2.824-.73h1.406V9.211A1.623,1.623,0,0,0,227.555,8a1.821,1.821,0,0,0-1.336-.449,2.107,2.107,0,0,0-1.3.391,1.151,1.151,0,0,0-.523.945h-1.453a2,2,0,0,1,.449-1.223,3.066,3.066,0,0,1,1.219-.934,4.1,4.1,0,0,1,1.691-.344,3.342,3.342,0,0,1,2.289.73,2.635,2.635,0,0,1,.859,2.012v3.891a4.757,4.757,0,0,0,.3,1.852V15Zm-2.4-1.1a2.54,2.54,0,0,0,1.289-.352,2.127,2.127,0,0,0,.883-.914V10.9h-1.133q-2.656,0-2.656,1.555a1.316,1.316,0,0,0,.453,1.063A1.742,1.742,0,0,0,225.836,13.9ZM4.6,37.156a3.693,3.693,0,0,1-2.8-1.129,4.19,4.19,0,0,1-1.078-3.02v-.266a5.073,5.073,0,0,1,.48-2.246,3.748,3.748,0,0,1,1.344-1.547,3.378,3.378,0,0,1,1.871-.559,3.166,3.166,0,0,1,2.563,1.086A4.7,4.7,0,0,1,7.9,32.586v.6H2.172a3,3,0,0,0,.73,2.02,2.3,2.3,0,0,0,1.777.77,2.517,2.517,0,0,0,1.3-.312,3.259,3.259,0,0,0,.93-.828l.883.688A3.55,3.55,0,0,1,4.6,37.156Zm-.18-7.578a1.928,1.928,0,0,0-1.469.637A3.1,3.1,0,0,0,2.219,32H6.453v-.109a2.753,2.753,0,0,0-.594-1.707A1.815,1.815,0,0,0,4.422,29.578Zm6.508-1.031.039.938a3.122,3.122,0,0,1,2.508-1.094,2.417,2.417,0,0,1,2.414,1.359,3.2,3.2,0,0,1,1.1-.984,3.242,3.242,0,0,1,1.6-.375q2.781,0,2.828,2.945V37H19.969V31.422a1.941,1.941,0,0,0-.414-1.355,1.823,1.823,0,0,0-1.391-.449,1.916,1.916,0,0,0-1.336.48,1.949,1.949,0,0,0-.617,1.293V37H14.758V31.461a1.613,1.613,0,0,0-1.8-1.844,1.934,1.934,0,0,0-1.945,1.211V37H9.563V28.547ZM27.1,37.156a3.693,3.693,0,0,1-2.8-1.129,4.19,4.19,0,0,1-1.078-3.02v-.266a5.073,5.073,0,0,1,.48-2.246,3.748,3.748,0,0,1,1.344-1.547,3.378,3.378,0,0,1,1.871-.559,3.166,3.166,0,0,1,2.563,1.086,4.7,4.7,0,0,1,.914,3.109v.6H24.672a3,3,0,0,0,.73,2.02,2.3,2.3,0,0,0,1.777.77,2.517,2.517,0,0,0,1.3-.312,3.259,3.259,0,0,0,.93-.828l.883.688A3.55,3.55,0,0,1,27.1,37.156Zm-.18-7.578a1.928,1.928,0,0,0-1.469.637A3.1,3.1,0,0,0,24.719,32h4.234v-.109a2.753,2.753,0,0,0-.594-1.707A1.815,1.815,0,0,0,26.922,29.578Zm9.234.266a4.331,4.331,0,0,0-.711-.055A1.9,1.9,0,0,0,33.516,31v6H32.07V28.547h1.406l.023.977a2.251,2.251,0,0,1,2.016-1.133,1.477,1.477,0,0,1,.641.109Zm.836,2.859a4.968,4.968,0,0,1,.914-3.145,3.151,3.151,0,0,1,4.836-.074l.07-.937h1.32V36.8a3.439,3.439,0,0,1-.973,2.586,3.589,3.589,0,0,1-2.613.945,4.348,4.348,0,0,1-1.789-.391,3.08,3.08,0,0,1-1.336-1.07l.75-.867a2.826,2.826,0,0,0,2.273,1.148,2.214,2.214,0,0,0,1.645-.594,2.269,2.269,0,0,0,.59-1.672v-.727a2.971,2.971,0,0,1-2.367,1,2.887,2.887,0,0,1-2.4-1.2A5.224,5.224,0,0,1,36.992,32.7Zm1.453.164a3.79,3.79,0,0,0,.586,2.246,1.9,1.9,0,0,0,1.641.816,2.117,2.117,0,0,0,2.008-1.242V30.828a2.142,2.142,0,0,0-1.992-1.211,1.921,1.921,0,0,0-1.648.82A4.128,4.128,0,0,0,38.445,32.867ZM49.82,37.156a3.693,3.693,0,0,1-2.8-1.129,4.19,4.19,0,0,1-1.078-3.02v-.266a5.073,5.073,0,0,1,.48-2.246,3.748,3.748,0,0,1,1.344-1.547,3.378,3.378,0,0,1,1.871-.559A3.166,3.166,0,0,1,52.2,29.477a4.7,4.7,0,0,1,.914,3.109v.6H47.391a3,3,0,0,0,.73,2.02,2.3,2.3,0,0,0,1.777.77,2.517,2.517,0,0,0,1.3-.312,3.258,3.258,0,0,0,.93-.828l.883.688A3.55,3.55,0,0,1,49.82,37.156Zm-.18-7.578a1.928,1.928,0,0,0-1.469.637A3.1,3.1,0,0,0,47.438,32h4.234v-.109a2.753,2.753,0,0,0-.594-1.707A1.815,1.815,0,0,0,49.641,29.578Zm6.516-1.031.047,1.063a3.08,3.08,0,0,1,2.531-1.219q2.68,0,2.7,3.023V37H59.992V31.406a1.946,1.946,0,0,0-.418-1.352,1.675,1.675,0,0,0-1.277-.437,2.086,2.086,0,0,0-1.234.375,2.546,2.546,0,0,0-.828.984V37H54.789V28.547Zm10.852,7.43a2.082,2.082,0,0,0,1.352-.469A1.649,1.649,0,0,0,69,34.336h1.367a2.621,2.621,0,0,1-.5,1.383,3.293,3.293,0,0,1-1.23,1.047,3.55,3.55,0,0,1-1.629.391A3.482,3.482,0,0,1,64.262,36a4.59,4.59,0,0,1-1.02-3.152v-.242a5.089,5.089,0,0,1,.453-2.2A3.451,3.451,0,0,1,65,28.922a3.7,3.7,0,0,1,2-.531,3.39,3.39,0,0,1,2.363.852,3.043,3.043,0,0,1,1,2.211H69a1.992,1.992,0,0,0-.621-1.348A1.932,1.932,0,0,0,67,29.578a2.023,2.023,0,0,0-1.707.793,3.724,3.724,0,0,0-.605,2.293v.273a3.65,3.65,0,0,0,.6,2.25A2.033,2.033,0,0,0,67.008,35.977ZM73.563,37H72.117V28.547h1.445ZM72,26.3a.863.863,0,0,1,.215-.594.807.807,0,0,1,.637-.242.819.819,0,0,1,.641.242.854.854,0,0,1,.219.594.826.826,0,0,1-.219.586.834.834,0,0,1-.641.234.821.821,0,0,1-.637-.234A.834.834,0,0,1,72,26.3ZM81.094,37a3.036,3.036,0,0,1-.2-.891,3.225,3.225,0,0,1-2.406,1.047,2.984,2.984,0,0,1-2.051-.707,2.288,2.288,0,0,1-.8-1.793,2.39,2.39,0,0,1,1-2.051,4.733,4.733,0,0,1,2.824-.73h1.406v-.664A1.623,1.623,0,0,0,80.414,30a1.821,1.821,0,0,0-1.336-.449,2.108,2.108,0,0,0-1.3.391,1.151,1.151,0,0,0-.523.945H75.8a2,2,0,0,1,.449-1.223,3.066,3.066,0,0,1,1.219-.934,4.1,4.1,0,0,1,1.691-.344,3.342,3.342,0,0,1,2.289.73,2.635,2.635,0,0,1,.859,2.012v3.891a4.757,4.757,0,0,0,.3,1.852V37Zm-2.4-1.1a2.54,2.54,0,0,0,1.289-.352,2.127,2.127,0,0,0,.883-.914V32.9H79.734q-2.656,0-2.656,1.555a1.316,1.316,0,0,0,.453,1.063A1.742,1.742,0,0,0,78.7,35.9Zm9.461-3.2a4.993,4.993,0,0,1,.488-2.234A3.643,3.643,0,0,1,90,28.93a3.7,3.7,0,0,1,1.988-.539,3.565,3.565,0,0,1,2.793,1.2,4.6,4.6,0,0,1,1.066,3.18v.1a5.036,5.036,0,0,1-.473,2.215,3.589,3.589,0,0,1-1.352,1.527,3.743,3.743,0,0,1-2.02.547,3.556,3.556,0,0,1-2.785-1.2A4.575,4.575,0,0,1,88.156,32.8Zm1.453.172a3.616,3.616,0,0,0,.652,2.258,2.211,2.211,0,0,0,3.5-.012,3.955,3.955,0,0,0,.648-2.418,3.61,3.61,0,0,0-.66-2.254,2.1,2.1,0,0,0-1.754-.863,2.075,2.075,0,0,0-1.727.852A3.925,3.925,0,0,0,89.609,32.867Zm16.1-3.023a4.331,4.331,0,0,0-.711-.055A1.9,1.9,0,0,0,103.07,31v6h-1.445V28.547h1.406l.023.977a2.251,2.251,0,0,1,2.016-1.133,1.477,1.477,0,0,1,.641.109Zm4.688,7.313a3.693,3.693,0,0,1-2.8-1.129,4.19,4.19,0,0,1-1.078-3.02v-.266A5.073,5.073,0,0,1,107,30.5a3.748,3.748,0,0,1,1.344-1.547,3.378,3.378,0,0,1,1.871-.559,3.166,3.166,0,0,1,2.563,1.086,4.7,4.7,0,0,1,.914,3.109v.6h-5.727a3,3,0,0,0,.73,2.02,2.3,2.3,0,0,0,1.777.77,2.517,2.517,0,0,0,1.3-.312,3.259,3.259,0,0,0,.93-.828l.883.688A3.55,3.55,0,0,1,110.4,37.156Zm-.18-7.578a1.928,1.928,0,0,0-1.469.637A3.1,3.1,0,0,0,108.016,32h4.234v-.109a2.753,2.753,0,0,0-.594-1.707A1.815,1.815,0,0,0,110.219,29.578Zm8.539,6.4a2.082,2.082,0,0,0,1.352-.469,1.649,1.649,0,0,0,.641-1.172h1.367a2.621,2.621,0,0,1-.5,1.383,3.293,3.293,0,0,1-1.23,1.047,3.55,3.55,0,0,1-1.629.391A3.482,3.482,0,0,1,116.012,36a4.59,4.59,0,0,1-1.02-3.152v-.242a5.089,5.089,0,0,1,.453-2.2,3.451,3.451,0,0,1,1.3-1.492,3.7,3.7,0,0,1,2-.531,3.39,3.39,0,0,1,2.363.852,3.043,3.043,0,0,1,1,2.211H120.75a1.992,1.992,0,0,0-.621-1.348,1.932,1.932,0,0,0-1.379-.527,2.023,2.023,0,0,0-1.707.793,3.724,3.724,0,0,0-.605,2.293v.273a3.65,3.65,0,0,0,.6,2.25A2.033,2.033,0,0,0,118.758,35.977Zm6.43-6.406a3.073,3.073,0,0,1,2.5-1.18q2.68,0,2.7,3.023V37h-1.445V31.406a1.946,1.946,0,0,0-.418-1.352,1.675,1.675,0,0,0-1.277-.437,2.086,2.086,0,0,0-1.234.375,2.546,2.546,0,0,0-.828.984V37h-1.445V25h1.445ZM137.773,37a3.036,3.036,0,0,1-.2-.891,3.225,3.225,0,0,1-2.406,1.047,2.984,2.984,0,0,1-2.051-.707,2.287,2.287,0,0,1-.8-1.793,2.39,2.39,0,0,1,1-2.051,4.733,4.733,0,0,1,2.824-.73h1.406v-.664A1.623,1.623,0,0,0,137.094,30a1.821,1.821,0,0,0-1.336-.449,2.107,2.107,0,0,0-1.3.391,1.151,1.151,0,0,0-.523.945h-1.453a2,2,0,0,1,.449-1.223,3.066,3.066,0,0,1,1.219-.934,4.1,4.1,0,0,1,1.691-.344,3.342,3.342,0,0,1,2.289.73,2.635,2.635,0,0,1,.859,2.012v3.891a4.757,4.757,0,0,0,.3,1.852V37Zm-2.4-1.1a2.54,2.54,0,0,0,1.289-.352,2.127,2.127,0,0,0,.883-.914V32.9h-1.133q-2.656,0-2.656,1.555a1.316,1.316,0,0,0,.453,1.063A1.742,1.742,0,0,0,135.375,35.9Zm7.242-.078h4.945V37h-6.711V35.938l4.664-6.2h-4.594v-1.2h6.406V29.57ZM148.68,32.7a4.993,4.993,0,0,1,.488-2.234,3.642,3.642,0,0,1,1.359-1.531,3.7,3.7,0,0,1,1.988-.539,3.565,3.565,0,0,1,2.793,1.2,4.6,4.6,0,0,1,1.066,3.18v.1a5.036,5.036,0,0,1-.473,2.215,3.589,3.589,0,0,1-1.352,1.527,3.743,3.743,0,0,1-2.02.547,3.556,3.556,0,0,1-2.785-1.2A4.575,4.575,0,0,1,148.68,32.8Zm1.453.172a3.616,3.616,0,0,0,.652,2.258,2.211,2.211,0,0,0,3.5-.012,3.954,3.954,0,0,0,.648-2.418,3.61,3.61,0,0,0-.66-2.254,2.1,2.1,0,0,0-1.754-.863,2.075,2.075,0,0,0-1.727.852A3.925,3.925,0,0,0,150.133,32.867Zm15.523,4.289a3.693,3.693,0,0,1-2.8-1.129,4.19,4.19,0,0,1-1.078-3.02v-.266a5.073,5.073,0,0,1,.48-2.246,3.748,3.748,0,0,1,1.344-1.547,3.378,3.378,0,0,1,1.871-.559,3.166,3.166,0,0,1,2.563,1.086,4.7,4.7,0,0,1,.914,3.109v.6h-5.727a3,3,0,0,0,.73,2.02,2.3,2.3,0,0,0,1.777.77,2.517,2.517,0,0,0,1.3-.312,3.258,3.258,0,0,0,.93-.828l.883.688A3.55,3.55,0,0,1,165.656,37.156Zm-.18-7.578a1.928,1.928,0,0,0-1.469.637A3.1,3.1,0,0,0,163.273,32h4.234v-.109a2.753,2.753,0,0,0-.594-1.707A1.815,1.815,0,0,0,165.477,29.578Zm6.516-1.031.047,1.063a3.08,3.08,0,0,1,2.531-1.219q2.68,0,2.7,3.023V37h-1.445V31.406a1.946,1.946,0,0,0-.418-1.352,1.675,1.675,0,0,0-1.277-.437,2.086,2.086,0,0,0-1.234.375,2.546,2.546,0,0,0-.828.984V37h-1.445V28.547ZM184.984,37h-1.445V25h1.445Zm7.531,0a3.036,3.036,0,0,1-.2-.891,3.225,3.225,0,0,1-2.406,1.047,2.984,2.984,0,0,1-2.051-.707,2.287,2.287,0,0,1-.8-1.793,2.39,2.39,0,0,1,1-2.051,4.733,4.733,0,0,1,2.824-.73h1.406v-.664A1.623,1.623,0,0,0,191.836,30a1.821,1.821,0,0,0-1.336-.449,2.107,2.107,0,0,0-1.3.391,1.151,1.151,0,0,0-.523.945h-1.453a2,2,0,0,1,.449-1.223,3.066,3.066,0,0,1,1.219-.934,4.1,4.1,0,0,1,1.691-.344,3.342,3.342,0,0,1,2.289.73,2.635,2.635,0,0,1,.859,2.012v3.891a4.757,4.757,0,0,0,.3,1.852V37Zm-2.4-1.1a2.54,2.54,0,0,0,1.289-.352,2.127,2.127,0,0,0,.883-.914V32.9h-1.133q-2.656,0-2.656,1.555a1.316,1.316,0,0,0,.453,1.063A1.742,1.742,0,0,0,190.117,35.9ZM6.313,59a3.036,3.036,0,0,1-.2-.891A3.225,3.225,0,0,1,3.7,59.156a2.984,2.984,0,0,1-2.051-.707,2.287,2.287,0,0,1-.8-1.793,2.39,2.39,0,0,1,1-2.051,4.733,4.733,0,0,1,2.824-.73H6.086v-.664A1.623,1.623,0,0,0,5.633,52,1.821,1.821,0,0,0,4.3,51.555a2.107,2.107,0,0,0-1.3.391,1.151,1.151,0,0,0-.523.945H1.023a2,2,0,0,1,.449-1.223,3.066,3.066,0,0,1,1.219-.934,4.1,4.1,0,0,1,1.691-.344,3.342,3.342,0,0,1,2.289.73,2.635,2.635,0,0,1,.859,2.012v3.891a4.757,4.757,0,0,0,.3,1.852V59Zm-2.4-1.1A2.54,2.54,0,0,0,5.2,57.547a2.127,2.127,0,0,0,.883-.914V54.9H4.953Q2.3,54.9,2.3,56.453a1.316,1.316,0,0,0,.453,1.063A1.742,1.742,0,0,0,3.914,57.9Zm7.844-9.4v2.047h1.578v1.117H11.758v5.249a1.173,1.173,0,0,0,.211.763.888.888,0,0,0,.719.254,3.5,3.5,0,0,0,.688-.094V59a4.215,4.215,0,0,1-1.109.155A1.8,1.8,0,0,1,10.8,58.57a2.517,2.517,0,0,1-.492-1.664V51.664H8.773V50.547h1.539V48.5Zm6.773,10.656a3.693,3.693,0,0,1-2.8-1.129,4.19,4.19,0,0,1-1.078-3.02v-.266a5.073,5.073,0,0,1,.48-2.246,3.748,3.748,0,0,1,1.344-1.547,3.378,3.378,0,0,1,1.871-.559,3.166,3.166,0,0,1,2.563,1.086,4.7,4.7,0,0,1,.914,3.109v.6H16.1a3,3,0,0,0,.73,2.02,2.3,2.3,0,0,0,1.777.77,2.517,2.517,0,0,0,1.3-.312,3.259,3.259,0,0,0,.93-.828l.883.688A3.55,3.55,0,0,1,18.531,59.156Zm-.18-7.578a1.928,1.928,0,0,0-1.469.637A3.1,3.1,0,0,0,16.148,54h4.234v-.109a2.753,2.753,0,0,0-.594-1.707A1.815,1.815,0,0,0,18.352,51.578Zm6.516-1.031.047,1.063a3.08,3.08,0,0,1,2.531-1.219q2.68,0,2.7,3.023V59H28.7V53.406a1.946,1.946,0,0,0-.418-1.352,1.675,1.675,0,0,0-1.277-.437,2.086,2.086,0,0,0-1.234.375,2.546,2.546,0,0,0-.828.984V59H23.5V50.547Zm10.852,7.43a2.082,2.082,0,0,0,1.352-.469,1.649,1.649,0,0,0,.641-1.172h1.367a2.621,2.621,0,0,1-.5,1.383,3.293,3.293,0,0,1-1.23,1.047,3.55,3.55,0,0,1-1.629.391A3.482,3.482,0,0,1,32.973,58a4.59,4.59,0,0,1-1.02-3.152v-.242a5.089,5.089,0,0,1,.453-2.2,3.451,3.451,0,0,1,1.3-1.492,3.7,3.7,0,0,1,2-.531,3.39,3.39,0,0,1,2.363.852,3.043,3.043,0,0,1,1,2.211H37.711a1.992,1.992,0,0,0-.621-1.348,1.932,1.932,0,0,0-1.379-.527A2.023,2.023,0,0,0,34,52.371a3.724,3.724,0,0,0-.605,2.293v.273a3.65,3.65,0,0,0,.6,2.25A2.033,2.033,0,0,0,35.719,57.977ZM42.273,59H40.828V50.547h1.445ZM40.711,48.3a.863.863,0,0,1,.215-.594.807.807,0,0,1,.637-.242.819.819,0,0,1,.641.242.854.854,0,0,1,.219.594.826.826,0,0,1-.219.586.834.834,0,0,1-.641.234.821.821,0,0,1-.637-.234A.834.834,0,0,1,40.711,48.3ZM44.2,54.7a4.993,4.993,0,0,1,.488-2.234,3.643,3.643,0,0,1,1.359-1.531,3.7,3.7,0,0,1,1.988-.539,3.565,3.565,0,0,1,2.793,1.2,4.6,4.6,0,0,1,1.066,3.18v.1a5.036,5.036,0,0,1-.473,2.215,3.589,3.589,0,0,1-1.352,1.527,3.743,3.743,0,0,1-2.02.547,3.556,3.556,0,0,1-2.785-1.2A4.575,4.575,0,0,1,44.2,54.8Zm1.453.172a3.616,3.616,0,0,0,.652,2.258,2.211,2.211,0,0,0,3.5-.012,3.955,3.955,0,0,0,.648-2.418,3.61,3.61,0,0,0-.66-2.254,2.1,2.1,0,0,0-1.754-.863,2.075,2.075,0,0,0-1.727.852A3.925,3.925,0,0,0,45.656,54.867ZM48.7,47h1.75l-2.094,2.3-1.164,0Zm6.383,3.547.047,1.063a3.08,3.08,0,0,1,2.531-1.219q2.68,0,2.7,3.023V59H58.914V53.406a1.946,1.946,0,0,0-.418-1.352,1.675,1.675,0,0,0-1.277-.437,2.086,2.086,0,0,0-1.234.375,2.546,2.546,0,0,0-.828.984V59H53.711V50.547Zm9.156,5.237a4.663,4.663,0,0,1,.211-1.466,3.761,3.761,0,0,1,.8-1.193l1.023-1.053a2.36,2.36,0,0,0,.656-1.59,1.814,1.814,0,0,0-.43-1.282,1.62,1.62,0,0,0-1.25-.464,1.881,1.881,0,0,0-1.281.422,1.426,1.426,0,0,0-.484,1.133H62.031a2.632,2.632,0,0,1,.9-2.043,3.374,3.374,0,0,1,2.309-.777,3.185,3.185,0,0,1,2.3.792,2.87,2.87,0,0,1,.824,2.172A3.926,3.926,0,0,1,67.1,53.124l-.852.842a2.623,2.623,0,0,0-.57,1.818Zm-.062,2.482a.861.861,0,0,1,.215-.6.81.81,0,0,1,.637-.241.822.822,0,0,1,.641.241.852.852,0,0,1,.219.6.824.824,0,0,1-.219.588.837.837,0,0,1-.641.233.774.774,0,0,1-.852-.82Z" transform="translate(356.379 9821.18)" fill="#12263f"/>
      <rect id="Rectángulo_409714" data-name="Rectángulo 409714" width="304.353" height="114" rx="9" transform="translate(326.378 9919.544)" fill="#f3f9ff"/>
      <path id="Trazado_912490" data-name="Trazado 912490" d="M4.594,9.688a4.58,4.58,0,0,1-.168,1.324,2.959,2.959,0,0,1-.535.957q-.375.461-1.094,1.215a2.674,2.674,0,0,0-.8,1.527L1.977,15a1.752,1.752,0,0,0,.453,1.3,1.775,1.775,0,0,0,1.3.449A1.821,1.821,0,0,0,5,16.309a1.48,1.48,0,0,0,.488-1.152H6.938a2.7,2.7,0,0,1-.895,2.055,3.3,3.3,0,0,1-2.309.8,3.326,3.326,0,0,1-2.367-.785,2.85,2.85,0,0,1-.836-2.184,4.076,4.076,0,0,1,1.25-2.719l.852-.883a2.638,2.638,0,0,0,.516-1.75Zm.063-2.473a.869.869,0,0,1-.215.6.8.8,0,0,1-.637.243.817.817,0,0,1-.641-.243.86.86,0,0,1-.219-.6.821.821,0,0,1,.219-.581A.832.832,0,0,1,3.8,6.4a.819.819,0,0,1,.637.235A.83.83,0,0,1,4.656,7.215Zm12.6,4.176a4.185,4.185,0,0,1-1.332,2.785,4.365,4.365,0,0,1-2.98.98,4.008,4.008,0,0,1-3.23-1.445A5.815,5.815,0,0,1,8.5,9.844V8.75a6.481,6.481,0,0,1,.566-2.789,4.231,4.231,0,0,1,1.605-1.848,4.47,4.47,0,0,1,2.406-.645A4.11,4.11,0,0,1,15.984,4.48a4.235,4.235,0,0,1,1.273,2.8H15.75A3.268,3.268,0,0,0,14.9,5.307,2.565,2.565,0,0,0,13.078,4.7a2.684,2.684,0,0,0-2.254,1.063,4.882,4.882,0,0,0-.816,3.026v1.1a5.018,5.018,0,0,0,.773,2.948,2.5,2.5,0,0,0,2.164,1.095,2.886,2.886,0,0,0,1.918-.566,3.143,3.143,0,0,0,.887-1.973ZM24.3,14.164a3.07,3.07,0,0,1-2.477.992,2.628,2.628,0,0,1-2.059-.785,3.4,3.4,0,0,1-.715-2.324v-5.5h1.445v5.461q0,1.922,1.563,1.922a2.163,2.163,0,0,0,2.2-1.234V6.547H25.7V15H24.328Zm8.82.836a3.036,3.036,0,0,1-.2-.891,3.225,3.225,0,0,1-2.406,1.047,2.984,2.984,0,0,1-2.051-.707,2.287,2.287,0,0,1-.8-1.793,2.39,2.39,0,0,1,1-2.051,4.733,4.733,0,0,1,2.824-.73h1.406V9.211A1.623,1.623,0,0,0,32.438,8,1.821,1.821,0,0,0,31.1,7.555a2.108,2.108,0,0,0-1.3.391,1.151,1.151,0,0,0-.523.945H27.828a2,2,0,0,1,.449-1.223A3.066,3.066,0,0,1,29.5,6.734a4.1,4.1,0,0,1,1.691-.344,3.342,3.342,0,0,1,2.289.73,2.635,2.635,0,0,1,.859,2.012v3.891a4.757,4.757,0,0,0,.3,1.852V15Zm-2.4-1.1a2.54,2.54,0,0,0,1.289-.352,2.127,2.127,0,0,0,.883-.914V10.9H31.758q-2.656,0-2.656,1.555a1.316,1.316,0,0,0,.453,1.063A1.742,1.742,0,0,0,30.719,13.9ZM32.055,3H33.8L31.711,5.3l-1.164,0Zm6.117,12H36.727V3h1.445Zm5.82.156a3.693,3.693,0,0,1-2.8-1.129,4.19,4.19,0,0,1-1.078-3.02v-.266A5.073,5.073,0,0,1,40.6,8.5a3.748,3.748,0,0,1,1.344-1.547,3.378,3.378,0,0,1,1.871-.559,3.166,3.166,0,0,1,2.563,1.086,4.7,4.7,0,0,1,.914,3.109v.6H41.563a3,3,0,0,0,.73,2.02,2.3,2.3,0,0,0,1.777.77,2.517,2.517,0,0,0,1.3-.312,3.259,3.259,0,0,0,.93-.828l.883.688A3.55,3.55,0,0,1,43.992,15.156Zm-.18-7.578a1.928,1.928,0,0,0-1.469.637A3.1,3.1,0,0,0,41.609,10h4.234V9.891a2.753,2.753,0,0,0-.594-1.707A1.815,1.815,0,0,0,43.813,7.578Zm10.07,5.18a1.064,1.064,0,0,0-.441-.91,4.249,4.249,0,0,0-1.539-.559,7.277,7.277,0,0,1-1.742-.562,2.479,2.479,0,0,1-.953-.781A1.869,1.869,0,0,1,48.9,8.867a2.193,2.193,0,0,1,.879-1.758,3.432,3.432,0,0,1,2.246-.719,3.532,3.532,0,0,1,2.332.742,2.357,2.357,0,0,1,.895,1.9H53.8a1.3,1.3,0,0,0-.5-1.023,1.888,1.888,0,0,0-1.27-.43,1.976,1.976,0,0,0-1.234.344,1.082,1.082,0,0,0-.445.9.877.877,0,0,0,.414.789,5.1,5.1,0,0,0,1.5.508,7.8,7.8,0,0,1,1.754.578,2.558,2.558,0,0,1,1,.809,1.988,1.988,0,0,1,.324,1.152,2.163,2.163,0,0,1-.906,1.816,3.8,3.8,0,0,1-2.352.684,4.257,4.257,0,0,1-1.8-.359,2.922,2.922,0,0,1-1.223-1,2.42,2.42,0,0,1-.441-1.395h1.445a1.5,1.5,0,0,0,.582,1.152,2.258,2.258,0,0,0,1.434.426,2.331,2.331,0,0,0,1.316-.332A1.02,1.02,0,0,0,53.883,12.758Zm12.211,0a1.064,1.064,0,0,0-.441-.91,4.249,4.249,0,0,0-1.539-.559,7.277,7.277,0,0,1-1.742-.562,2.479,2.479,0,0,1-.953-.781,1.869,1.869,0,0,1-.309-1.078,2.193,2.193,0,0,1,.879-1.758,3.432,3.432,0,0,1,2.246-.719,3.532,3.532,0,0,1,2.332.742,2.357,2.357,0,0,1,.895,1.9H66.008a1.3,1.3,0,0,0-.5-1.023,1.888,1.888,0,0,0-1.27-.43A1.976,1.976,0,0,0,63,7.922a1.082,1.082,0,0,0-.445.9.877.877,0,0,0,.414.789,5.1,5.1,0,0,0,1.5.508,7.8,7.8,0,0,1,1.754.578,2.558,2.558,0,0,1,1,.809,1.988,1.988,0,0,1,.324,1.152,2.163,2.163,0,0,1-.906,1.816,3.8,3.8,0,0,1-2.352.684,4.257,4.257,0,0,1-1.8-.359,2.922,2.922,0,0,1-1.223-1A2.42,2.42,0,0,1,60.82,12.4h1.445a1.5,1.5,0,0,0,.582,1.152,2.258,2.258,0,0,0,1.434.426,2.331,2.331,0,0,0,1.316-.332A1.02,1.02,0,0,0,66.094,12.758ZM69.039,10.7a4.993,4.993,0,0,1,.488-2.234A3.643,3.643,0,0,1,70.887,6.93a3.7,3.7,0,0,1,1.988-.539,3.565,3.565,0,0,1,2.793,1.2,4.6,4.6,0,0,1,1.066,3.18v.1a5.036,5.036,0,0,1-.473,2.215,3.589,3.589,0,0,1-1.352,1.527,3.743,3.743,0,0,1-2.02.547,3.556,3.556,0,0,1-2.785-1.2A4.575,4.575,0,0,1,69.039,10.8Zm1.453.172a3.616,3.616,0,0,0,.652,2.258,2.211,2.211,0,0,0,3.5-.012,3.955,3.955,0,0,0,.648-2.418,3.61,3.61,0,0,0-.66-2.254,2.1,2.1,0,0,0-1.754-.863,2.075,2.075,0,0,0-1.727.852A3.925,3.925,0,0,0,70.492,10.867Zm9.422-4.32.047,1.063a3.08,3.08,0,0,1,2.531-1.219q2.68,0,2.7,3.023V15H83.75V9.406a1.946,1.946,0,0,0-.418-1.352,1.675,1.675,0,0,0-1.277-.437,2.086,2.086,0,0,0-1.234.375,2.546,2.546,0,0,0-.828.984V15H78.547V6.547Zm12.781,0,.039.938a3.122,3.122,0,0,1,2.508-1.094A2.417,2.417,0,0,1,97.656,7.75a3.2,3.2,0,0,1,1.1-.984,3.242,3.242,0,0,1,1.6-.375q2.781,0,2.828,2.945V15h-1.445V9.422a1.941,1.941,0,0,0-.414-1.355,1.823,1.823,0,0,0-1.391-.449,1.916,1.916,0,0,0-1.336.48,1.949,1.949,0,0,0-.617,1.293V15H96.523V9.461a1.613,1.613,0,0,0-1.8-1.844,1.934,1.934,0,0,0-1.945,1.211V15H91.328V6.547ZM106.93,15h-1.445V6.547h1.445ZM105.367,4.3a.863.863,0,0,1,.215-.594.807.807,0,0,1,.637-.242.819.819,0,0,1,.641.242.854.854,0,0,1,.219.594.826.826,0,0,1-.219.586.834.834,0,0,1-.641.234.821.821,0,0,1-.637-.234A.834.834,0,0,1,105.367,4.3Zm8.8,8.453a1.064,1.064,0,0,0-.441-.91,4.249,4.249,0,0,0-1.539-.559,7.277,7.277,0,0,1-1.742-.562,2.479,2.479,0,0,1-.953-.781,1.869,1.869,0,0,1-.309-1.078,2.193,2.193,0,0,1,.879-1.758,3.432,3.432,0,0,1,2.246-.719,3.532,3.532,0,0,1,2.332.742,2.357,2.357,0,0,1,.895,1.9h-1.453a1.3,1.3,0,0,0-.5-1.023,1.888,1.888,0,0,0-1.27-.43,1.976,1.976,0,0,0-1.234.344,1.082,1.082,0,0,0-.445.9.877.877,0,0,0,.414.789,5.1,5.1,0,0,0,1.5.508,7.8,7.8,0,0,1,1.754.578,2.558,2.558,0,0,1,1,.809,1.988,1.988,0,0,1,.324,1.152,2.163,2.163,0,0,1-.906,1.816,3.8,3.8,0,0,1-2.352.684,4.257,4.257,0,0,1-1.8-.359,2.922,2.922,0,0,1-1.223-1,2.42,2.42,0,0,1-.441-1.395h1.445a1.5,1.5,0,0,0,.582,1.152,2.258,2.258,0,0,0,1.434.426,2.331,2.331,0,0,0,1.316-.332A1.02,1.02,0,0,0,114.164,12.758ZM121.1,10.7a4.952,4.952,0,0,1,.922-3.129,3.137,3.137,0,0,1,4.766-.168V3h1.445V15h-1.328l-.07-.906a2.943,2.943,0,0,1-2.414,1.063,2.887,2.887,0,0,1-2.395-1.2,5.008,5.008,0,0,1-.926-3.141Zm1.445.164a3.749,3.749,0,0,0,.594,2.25,1.92,1.92,0,0,0,1.641.813,2.108,2.108,0,0,0,2.008-1.234V8.813a2.125,2.125,0,0,0-1.992-1.2,1.929,1.929,0,0,0-1.656.82A4.128,4.128,0,0,0,122.547,10.867Zm11.438,4.289a3.693,3.693,0,0,1-2.8-1.129,4.19,4.19,0,0,1-1.078-3.02v-.266a5.073,5.073,0,0,1,.48-2.246,3.748,3.748,0,0,1,1.344-1.547,3.378,3.378,0,0,1,1.871-.559,3.166,3.166,0,0,1,2.563,1.086,4.7,4.7,0,0,1,.914,3.109v.6h-5.727a3,3,0,0,0,.73,2.02,2.3,2.3,0,0,0,1.777.77,2.517,2.517,0,0,0,1.3-.312,3.258,3.258,0,0,0,.93-.828l.883.688A3.55,3.55,0,0,1,133.984,15.156Zm-.18-7.578a1.928,1.928,0,0,0-1.469.637A3.1,3.1,0,0,0,131.6,10h4.234V9.891a2.753,2.753,0,0,0-.594-1.707A1.815,1.815,0,0,0,133.8,7.578Zm9.234.266a4.331,4.331,0,0,0-.711-.055A1.9,1.9,0,0,0,140.4,9v6h-1.445V6.547h1.406l.023.977A2.251,2.251,0,0,1,142.4,6.391a1.477,1.477,0,0,1,.641.109Zm4.688,7.313a3.693,3.693,0,0,1-2.8-1.129,4.19,4.19,0,0,1-1.078-3.02v-.266a5.073,5.073,0,0,1,.48-2.246,3.748,3.748,0,0,1,1.344-1.547,3.378,3.378,0,0,1,1.871-.559,3.166,3.166,0,0,1,2.563,1.086,4.7,4.7,0,0,1,.914,3.109v.6H145.3a3,3,0,0,0,.73,2.02,2.3,2.3,0,0,0,1.777.77,2.517,2.517,0,0,0,1.3-.312,3.258,3.258,0,0,0,.93-.828l.883.688A3.55,3.55,0,0,1,147.727,15.156Zm-.18-7.578a1.928,1.928,0,0,0-1.469.637A3.1,3.1,0,0,0,145.344,10h4.234V9.891a2.753,2.753,0,0,0-.594-1.707A1.815,1.815,0,0,0,147.547,7.578Zm8.539,6.4a2.082,2.082,0,0,0,1.352-.469,1.649,1.649,0,0,0,.641-1.172h1.367a2.621,2.621,0,0,1-.5,1.383,3.293,3.293,0,0,1-1.23,1.047,3.55,3.55,0,0,1-1.629.391A3.482,3.482,0,0,1,153.34,14a4.59,4.59,0,0,1-1.02-3.152v-.242a5.089,5.089,0,0,1,.453-2.2,3.451,3.451,0,0,1,1.3-1.492,3.7,3.7,0,0,1,2-.531,3.39,3.39,0,0,1,2.363.852,3.043,3.043,0,0,1,1,2.211h-1.367a1.992,1.992,0,0,0-.621-1.348,1.932,1.932,0,0,0-1.379-.527,2.023,2.023,0,0,0-1.707.793,3.724,3.724,0,0,0-.605,2.293v.273a3.65,3.65,0,0,0,.6,2.25A2.033,2.033,0,0,0,156.086,13.977Zm6.43-6.406a3.073,3.073,0,0,1,2.5-1.18q2.68,0,2.7,3.023V15h-1.445V9.406a1.946,1.946,0,0,0-.418-1.352,1.675,1.675,0,0,0-1.277-.437,2.086,2.086,0,0,0-1.234.375,2.546,2.546,0,0,0-.828.984V15H161.07V3h1.445ZM169.5,10.7a4.993,4.993,0,0,1,.488-2.234,3.642,3.642,0,0,1,1.359-1.531,3.7,3.7,0,0,1,1.988-.539,3.565,3.565,0,0,1,2.793,1.2,4.6,4.6,0,0,1,1.066,3.18v.1a5.036,5.036,0,0,1-.473,2.215,3.589,3.589,0,0,1-1.352,1.527,3.743,3.743,0,0,1-2.02.547,3.556,3.556,0,0,1-2.785-1.2A4.575,4.575,0,0,1,169.5,10.8Zm1.453.172a3.616,3.616,0,0,0,.652,2.258,2.211,2.211,0,0,0,3.5-.012,3.954,3.954,0,0,0,.648-2.418,3.61,3.61,0,0,0-.66-2.254,2.1,2.1,0,0,0-1.754-.863,2.075,2.075,0,0,0-1.727.852A3.925,3.925,0,0,0,170.953,10.867Zm12.977,1.891a1.064,1.064,0,0,0-.441-.91,4.249,4.249,0,0,0-1.539-.559,7.277,7.277,0,0,1-1.742-.562,2.479,2.479,0,0,1-.953-.781,1.869,1.869,0,0,1-.309-1.078,2.193,2.193,0,0,1,.879-1.758,3.432,3.432,0,0,1,2.246-.719,3.532,3.532,0,0,1,2.332.742,2.357,2.357,0,0,1,.895,1.9h-1.453a1.3,1.3,0,0,0-.5-1.023,1.888,1.888,0,0,0-1.27-.43,1.976,1.976,0,0,0-1.234.344,1.082,1.082,0,0,0-.445.9.877.877,0,0,0,.414.789,5.1,5.1,0,0,0,1.5.508,7.8,7.8,0,0,1,1.754.578,2.558,2.558,0,0,1,1,.809,1.988,1.988,0,0,1,.324,1.152,2.163,2.163,0,0,1-.906,1.816,3.8,3.8,0,0,1-2.352.684,4.257,4.257,0,0,1-1.8-.359,2.922,2.922,0,0,1-1.223-1,2.42,2.42,0,0,1-.441-1.395H180.1a1.5,1.5,0,0,0,.582,1.152,2.258,2.258,0,0,0,1.434.426,2.331,2.331,0,0,0,1.316-.332A1.02,1.02,0,0,0,183.93,12.758Zm6.938-2.055a4.952,4.952,0,0,1,.922-3.129,3.137,3.137,0,0,1,4.766-.168V3H198V15h-1.328l-.07-.906a2.943,2.943,0,0,1-2.414,1.063,2.887,2.887,0,0,1-2.395-1.2,5.008,5.008,0,0,1-.926-3.141Zm1.445.164a3.749,3.749,0,0,0,.594,2.25,1.919,1.919,0,0,0,1.641.813,2.108,2.108,0,0,0,2.008-1.234V8.813a2.125,2.125,0,0,0-1.992-1.2,1.929,1.929,0,0,0-1.656.82A4.128,4.128,0,0,0,192.313,10.867Zm11.438,4.289a3.693,3.693,0,0,1-2.8-1.129,4.19,4.19,0,0,1-1.078-3.02v-.266a5.073,5.073,0,0,1,.48-2.246A3.748,3.748,0,0,1,201.7,6.949a3.378,3.378,0,0,1,1.871-.559,3.166,3.166,0,0,1,2.563,1.086,4.7,4.7,0,0,1,.914,3.109v.6H201.32a3,3,0,0,0,.73,2.02,2.3,2.3,0,0,0,1.777.77,2.517,2.517,0,0,0,1.3-.312,3.258,3.258,0,0,0,.93-.828l.883.688A3.55,3.55,0,0,1,203.75,15.156Zm-.18-7.578a1.928,1.928,0,0,0-1.469.637A3.1,3.1,0,0,0,201.367,10H205.6V9.891a2.753,2.753,0,0,0-.594-1.707A1.815,1.815,0,0,0,203.57,7.578Zm6.516-1.031.047,1.063a3.08,3.08,0,0,1,2.531-1.219q2.68,0,2.7,3.023V15h-1.445V9.406a1.946,1.946,0,0,0-.418-1.352,1.675,1.675,0,0,0-1.277-.437,2.086,2.086,0,0,0-1.234.375,2.546,2.546,0,0,0-.828.984V15h-1.445V6.547ZM219.508,4.5V6.547h1.578V7.664h-1.578v5.249a1.173,1.173,0,0,0,.211.763.888.888,0,0,0,.719.254,3.5,3.5,0,0,0,.688-.094V15a4.215,4.215,0,0,1-1.109.155,1.8,1.8,0,0,1-1.461-.586,2.517,2.517,0,0,1-.492-1.664V7.664h-1.539V6.547h1.539V4.5Zm7.352,3.344a4.331,4.331,0,0,0-.711-.055A1.9,1.9,0,0,0,224.219,9v6h-1.445V6.547h1.406l.023.977a2.251,2.251,0,0,1,2.016-1.133,1.477,1.477,0,0,1,.641.109Zm.789,2.852a4.993,4.993,0,0,1,.488-2.234A3.642,3.642,0,0,1,229.5,6.93a3.7,3.7,0,0,1,1.988-.539,3.565,3.565,0,0,1,2.793,1.2,4.6,4.6,0,0,1,1.066,3.18v.1a5.036,5.036,0,0,1-.473,2.215,3.589,3.589,0,0,1-1.352,1.527,3.743,3.743,0,0,1-2.02.547,3.556,3.556,0,0,1-2.785-1.2,4.575,4.575,0,0,1-1.066-3.164Zm1.453.172a3.616,3.616,0,0,0,.652,2.258,2.211,2.211,0,0,0,3.5-.012A3.954,3.954,0,0,0,233.9,10.7a3.61,3.61,0,0,0-.66-2.254,2.1,2.1,0,0,0-1.754-.863,2.075,2.075,0,0,0-1.727.852A3.925,3.925,0,0,0,229.1,10.867ZM.742,32.7a4.952,4.952,0,0,1,.922-3.129,2.915,2.915,0,0,1,2.414-1.184A2.932,2.932,0,0,1,6.43,29.406V25H7.875V37H6.547l-.07-.906a2.943,2.943,0,0,1-2.414,1.063,2.887,2.887,0,0,1-2.395-1.2,5.008,5.008,0,0,1-.926-3.141Zm1.445.164a3.749,3.749,0,0,0,.594,2.25,1.92,1.92,0,0,0,1.641.813A2.108,2.108,0,0,0,6.43,34.7V30.813a2.125,2.125,0,0,0-1.992-1.2,1.929,1.929,0,0,0-1.656.82A4.128,4.128,0,0,0,2.188,32.867Zm11.438,4.289a3.693,3.693,0,0,1-2.8-1.129,4.19,4.19,0,0,1-1.078-3.02v-.266a5.073,5.073,0,0,1,.48-2.246,3.748,3.748,0,0,1,1.344-1.547,3.378,3.378,0,0,1,1.871-.559,3.166,3.166,0,0,1,2.563,1.086,4.7,4.7,0,0,1,.914,3.109v.6H11.2a3,3,0,0,0,.73,2.02,2.3,2.3,0,0,0,1.777.77,2.517,2.517,0,0,0,1.3-.312,3.258,3.258,0,0,0,.93-.828l.883.688A3.55,3.55,0,0,1,13.625,37.156Zm-.18-7.578a1.928,1.928,0,0,0-1.469.637A3.1,3.1,0,0,0,11.242,32h4.234v-.109a2.753,2.753,0,0,0-.594-1.707A1.815,1.815,0,0,0,13.445,29.578ZM20.164,37H18.719V25h1.445Zm9.852-5.07a7.053,7.053,0,0,1-2.809-1.363,2.6,2.6,0,0,1-.879-2A2.751,2.751,0,0,1,27.4,26.348a4.269,4.269,0,0,1,2.793-.879,4.66,4.66,0,0,1,2.09.453,3.436,3.436,0,0,1,1.422,1.25,3.2,3.2,0,0,1,.5,1.742H32.7a2.08,2.08,0,0,0-.656-1.627A2.669,2.669,0,0,0,30.2,26.7a2.732,2.732,0,0,0-1.73.489,1.632,1.632,0,0,0-.621,1.358,1.468,1.468,0,0,0,.59,1.178,5.785,5.785,0,0,0,2.008.88,9.316,9.316,0,0,1,2.219.88A3.367,3.367,0,0,1,33.848,32.6a2.861,2.861,0,0,1,.387,1.508,2.658,2.658,0,0,1-1.078,2.215,4.6,4.6,0,0,1-2.883.832,5.347,5.347,0,0,1-2.187-.449,3.681,3.681,0,0,1-1.566-1.23,3,3,0,0,1-.551-1.773h1.508a1.959,1.959,0,0,0,.762,1.629,3.207,3.207,0,0,0,2.035.6,2.948,2.948,0,0,0,1.82-.484,1.573,1.573,0,0,0,.633-1.32,1.545,1.545,0,0,0-.586-1.293A6.755,6.755,0,0,0,30.016,31.93Zm14.539,3.578a3.465,3.465,0,0,1-1.613,1.238,6.517,6.517,0,0,1-2.41.41,4.674,4.674,0,0,1-2.469-.652,4.346,4.346,0,0,1-1.668-1.855,6.408,6.408,0,0,1-.605-2.789v-.992a5.982,5.982,0,0,1,1.2-3.984,4.179,4.179,0,0,1,3.371-1.414,4.316,4.316,0,0,1,2.867.91,3.965,3.965,0,0,1,1.328,2.582h-1.5A2.48,2.48,0,0,0,40.367,26.7a2.655,2.655,0,0,0-2.285,1.06,5.173,5.173,0,0,0-.785,3.069v.93a4.848,4.848,0,0,0,.875,3.046,2.836,2.836,0,0,0,2.367,1.13,5.229,5.229,0,0,0,1.477-.187,2.283,2.283,0,0,0,1.047-.631V32.563H40.43V31.336h4.125Zm5.852-3.578A7.053,7.053,0,0,1,47.6,30.566a2.6,2.6,0,0,1-.879-2,2.751,2.751,0,0,1,1.074-2.223,4.269,4.269,0,0,1,2.793-.879,4.66,4.66,0,0,1,2.09.453,3.436,3.436,0,0,1,1.422,1.25,3.2,3.2,0,0,1,.5,1.742H53.094a2.08,2.08,0,0,0-.656-1.627,2.669,2.669,0,0,0-1.852-.592,2.732,2.732,0,0,0-1.73.489,1.632,1.632,0,0,0-.621,1.358,1.468,1.468,0,0,0,.59,1.178,5.786,5.786,0,0,0,2.008.88,9.316,9.316,0,0,1,2.219.88A3.367,3.367,0,0,1,54.238,32.6a2.861,2.861,0,0,1,.387,1.508,2.658,2.658,0,0,1-1.078,2.215,4.6,4.6,0,0,1-2.883.832,5.347,5.347,0,0,1-2.187-.449,3.681,3.681,0,0,1-1.566-1.23,3,3,0,0,1-.551-1.773h1.508a1.959,1.959,0,0,0,.762,1.629,3.207,3.207,0,0,0,2.035.6,2.948,2.948,0,0,0,1.82-.484,1.573,1.573,0,0,0,.633-1.32,1.545,1.545,0,0,0-.586-1.293A6.755,6.755,0,0,0,50.406,31.93Zm9.492,0a7.053,7.053,0,0,1-2.809-1.363,2.6,2.6,0,0,1-.879-2,2.751,2.751,0,0,1,1.074-2.223,4.269,4.269,0,0,1,2.793-.879,4.66,4.66,0,0,1,2.09.453,3.436,3.436,0,0,1,1.422,1.25,3.2,3.2,0,0,1,.5,1.742H62.586a2.08,2.08,0,0,0-.656-1.627,2.669,2.669,0,0,0-1.852-.592,2.732,2.732,0,0,0-1.73.489,1.632,1.632,0,0,0-.621,1.358,1.468,1.468,0,0,0,.59,1.178,5.786,5.786,0,0,0,2.008.88,9.316,9.316,0,0,1,2.219.88A3.367,3.367,0,0,1,63.73,32.6a2.861,2.861,0,0,1,.387,1.508,2.658,2.658,0,0,1-1.078,2.215,4.6,4.6,0,0,1-2.883.832,5.347,5.347,0,0,1-2.187-.449,3.681,3.681,0,0,1-1.566-1.23,3,3,0,0,1-.551-1.773h1.508a1.959,1.959,0,0,0,.762,1.629,3.207,3.207,0,0,0,2.035.6,2.948,2.948,0,0,0,1.82-.484,1.573,1.573,0,0,0,.633-1.32,1.545,1.545,0,0,0-.586-1.293A6.755,6.755,0,0,0,59.9,31.93Zm9.492,0a7.053,7.053,0,0,1-2.809-1.363,2.6,2.6,0,0,1-.879-2,2.751,2.751,0,0,1,1.074-2.223,4.269,4.269,0,0,1,2.793-.879,4.66,4.66,0,0,1,2.09.453,3.436,3.436,0,0,1,1.422,1.25,3.2,3.2,0,0,1,.5,1.742H72.078a2.08,2.08,0,0,0-.656-1.627A2.669,2.669,0,0,0,69.57,26.7a2.732,2.732,0,0,0-1.73.489,1.632,1.632,0,0,0-.621,1.358,1.468,1.468,0,0,0,.59,1.178,5.785,5.785,0,0,0,2.008.88,9.316,9.316,0,0,1,2.219.88A3.367,3.367,0,0,1,73.223,32.6a2.861,2.861,0,0,1,.387,1.508,2.658,2.658,0,0,1-1.078,2.215,4.6,4.6,0,0,1-2.883.832,5.347,5.347,0,0,1-2.187-.449,3.681,3.681,0,0,1-1.566-1.23,3,3,0,0,1-.551-1.773h1.508a1.959,1.959,0,0,0,.762,1.629,3.207,3.207,0,0,0,2.035.6,2.948,2.948,0,0,0,1.82-.484,1.573,1.573,0,0,0,.633-1.32,1.545,1.545,0,0,0-.586-1.293A6.755,6.755,0,0,0,69.391,31.93ZM77,33.784a4.663,4.663,0,0,1,.211-1.466,3.761,3.761,0,0,1,.8-1.193l1.023-1.053a2.36,2.36,0,0,0,.656-1.59,1.814,1.814,0,0,0-.43-1.282,1.62,1.62,0,0,0-1.25-.464,1.881,1.881,0,0,0-1.281.422,1.426,1.426,0,0,0-.484,1.133H74.8a2.632,2.632,0,0,1,.9-2.043,3.374,3.374,0,0,1,2.309-.777,3.185,3.185,0,0,1,2.3.792,2.87,2.87,0,0,1,.824,2.172,3.926,3.926,0,0,1-1.266,2.691l-.852.842a2.623,2.623,0,0,0-.57,1.818Zm-.062,2.482a.861.861,0,0,1,.215-.6.81.81,0,0,1,.637-.241.822.822,0,0,1,.641.241.852.852,0,0,1,.219.6.824.824,0,0,1-.219.588.837.837,0,0,1-.641.233.774.774,0,0,1-.852-.82Z" transform="translate(356.379 9961.724)" fill="#12263f"/>
      <path id="Trazado_907117" data-name="Trazado 907117" d="M10.827,0h282.7c5.979,0,10.827,4.029,10.827,9V28c0,4.971-4.847,9-10.827,9H10.827C4.847,37,0,32.971,0,28V9C0,4.029,4.847,0,10.827,0Z" transform="translate(326.379 9772)" fill="#5b5088"/>
      <path id="Trazado_912486" data-name="Trazado 912486" d="M89.809,10.5a5.141,5.141,0,0,1-.237,1.633,3.876,3.876,0,0,1-.826,1.259l-.855.881a2.467,2.467,0,0,0-.747,1.687,1.539,1.539,0,0,0,.407,1.168,1.6,1.6,0,0,0,1.146.387,1.634,1.634,0,0,0,1.17-.416A1.451,1.451,0,0,0,90.307,16h2.017a2.986,2.986,0,0,1-1.009,2.335,4.48,4.48,0,0,1-5.25.029A3,3,0,0,1,85.127,16a4,4,0,0,1,1.287-2.725l.764-.773a2.305,2.305,0,0,0,.73-1.554l.017-.44Zm.166-2.577a1.079,1.079,0,0,1-.295.773,1.107,1.107,0,0,1-.843.31,1.121,1.121,0,0,1-.847-.31,1.139,1.139,0,0,1,0-1.538,1.121,1.121,0,0,1,.847-.31,1.107,1.107,0,0,1,.843.31A1.068,1.068,0,0,1,89.975,7.927Zm13.7,2.345a7.46,7.46,0,0,1-.544,2.976,4.847,4.847,0,0,1-1.523,2l2.075,1.619-1.361,1.229-2.573-2.034a5.213,5.213,0,0,1-1.087.108,4.825,4.825,0,0,1-2.611-.718A4.716,4.716,0,0,1,94.279,13.4a7.183,7.183,0,0,1-.635-3.063V9.658a7.351,7.351,0,0,1,.627-3.121,4.71,4.71,0,0,1,1.768-2.071,4.8,4.8,0,0,1,2.611-.718,4.887,4.887,0,0,1,2.635.71A4.651,4.651,0,0,1,103.049,6.5a7.336,7.336,0,0,1,.631,3.1Zm-2.108-.631a5.248,5.248,0,0,0-.764-3.1,2.509,2.509,0,0,0-2.158-1.054,2.469,2.469,0,0,0-2.121,1.067,5.165,5.165,0,0,0-.784,3.009v.706a5.3,5.3,0,0,0,.768,3.063,2.684,2.684,0,0,0,4.308.042,5.356,5.356,0,0,0,.751-3.1Zm9.488,5.479a3.128,3.128,0,0,1-2.523,1.046,2.788,2.788,0,0,1-2.212-.855,3.637,3.637,0,0,1-.751-2.474V7.019h2.017v5.794q0,1.71,1.419,1.71a1.993,1.993,0,0,0,1.984-1.054V7.019h2.017V16h-1.9Zm7.96,1.046a4.173,4.173,0,0,1-3.109-1.208,4.381,4.381,0,0,1-1.191-3.217v-.249a5.389,5.389,0,0,1,.519-2.4A3.949,3.949,0,0,1,116.7,7.442a3.851,3.851,0,0,1,2.092-.589,3.525,3.525,0,0,1,2.835,1.17,4.949,4.949,0,0,1,1,3.312v.813h-5.869a2.7,2.7,0,0,0,.743,1.76,2.23,2.23,0,0,0,1.639.647,2.731,2.731,0,0,0,2.258-1.121l1.087,1.038a3.631,3.631,0,0,1-1.44,1.249A4.509,4.509,0,0,1,119.019,16.166Zm-.241-7.695a1.7,1.7,0,0,0-1.341.581,3.012,3.012,0,0,0-.652,1.619h3.843v-.149a2.452,2.452,0,0,0-.54-1.531A1.686,1.686,0,0,0,118.779,8.471Zm.457-5.221h2.3l-2.3,2.515-1.619,0Zm6.823,9.206a4.663,4.663,0,0,1,.274-1.761,4.617,4.617,0,0,1,1.083-1.442,8.269,8.269,0,0,0,1.025-1.117,1.955,1.955,0,0,0,.332-1.094,1.672,1.672,0,0,0-.386-1.189,1.482,1.482,0,0,0-1.133-.41,1.631,1.631,0,0,0-1.15.4,1.406,1.406,0,0,0-.436,1.088h-2.017a2.972,2.972,0,0,1,1-2.326,3.824,3.824,0,0,1,2.6-.856,3.732,3.732,0,0,1,2.6.847,3.035,3.035,0,0,1,.934,2.368,3.877,3.877,0,0,1-1.262,2.667l-1.021,1.005a2.738,2.738,0,0,0-.564,1.82Zm-.141,2.577a1.058,1.058,0,0,1,.307-.79,1.29,1.29,0,0,1,1.668.008,1.065,1.065,0,0,1,.307.781,1.046,1.046,0,0,1-.3.761,1.13,1.13,0,0,1-.847.306,1.115,1.115,0,0,1-.843-.306A1.054,1.054,0,0,1,125.917,15.033Z" transform="translate(370.379 9779)" fill="#fff"/>
      <path id="Trazado_611088" data-name="Trazado 611088" d="M10.827,0h282.7c5.979,0,10.827,4.029,10.827,9V28c0,4.971-4.847,9-10.827,9H10.827C4.847,37,0,32.971,0,28V9C0,4.029,4.847,0,10.827,0Z" transform="translate(326.378 9912.544)" fill="#5b5088"/>
      <path id="Trazado_912487" data-name="Trazado 912487" d="M60.472,10.5a5.141,5.141,0,0,1-.237,1.633A3.876,3.876,0,0,1,59.41,13.4l-.855.881a2.467,2.467,0,0,0-.747,1.687,1.539,1.539,0,0,0,.407,1.168,1.6,1.6,0,0,0,1.146.387,1.634,1.634,0,0,0,1.17-.416A1.451,1.451,0,0,0,60.97,16h2.017a2.986,2.986,0,0,1-1.009,2.335,4.48,4.48,0,0,1-5.25.029A3,3,0,0,1,55.791,16a4,4,0,0,1,1.287-2.725l.764-.773a2.306,2.306,0,0,0,.73-1.554l.017-.44Zm.166-2.577a1.079,1.079,0,0,1-.295.773,1.107,1.107,0,0,1-.843.31,1.121,1.121,0,0,1-.847-.31,1.139,1.139,0,0,1,0-1.538,1.121,1.121,0,0,1,.847-.31,1.107,1.107,0,0,1,.843.31A1.068,1.068,0,0,1,60.638,7.927Zm13.323,4.138a4.364,4.364,0,0,1-1.428,3.017,4.867,4.867,0,0,1-3.312,1.083,4.713,4.713,0,0,1-2.544-.685,4.5,4.5,0,0,1-1.7-1.947,7.024,7.024,0,0,1-.623-2.93V9.476a7.075,7.075,0,0,1,.606-3.013A4.567,4.567,0,0,1,66.7,4.454a4.851,4.851,0,0,1,2.619-.706,4.672,4.672,0,0,1,3.221,1.083A4.527,4.527,0,0,1,73.961,7.9H71.869a2.985,2.985,0,0,0-.76-1.88,2.51,2.51,0,0,0-1.789-.577,2.452,2.452,0,0,0-2.1,1,5,5,0,0,0-.751,2.937v1.072a5.308,5.308,0,0,0,.7,2.991,2.328,2.328,0,0,0,2.054,1.03,2.715,2.715,0,0,0,1.859-.556,2.9,2.9,0,0,0,.789-1.851Zm7.122,3.055a3.128,3.128,0,0,1-2.523,1.046,2.788,2.788,0,0,1-2.212-.855,3.637,3.637,0,0,1-.751-2.474V7.019h2.017v5.794q0,1.71,1.419,1.71a1.993,1.993,0,0,0,1.984-1.054V7.019h2.017V16h-1.9Zm9.372.88a3.113,3.113,0,0,1-.232-.838,3.393,3.393,0,0,1-4.565.232,2.47,2.47,0,0,1-.855-1.909,2.55,2.55,0,0,1,1.067-2.2,5.169,5.169,0,0,1,3.051-.768h1.237V9.924a1.573,1.573,0,0,0-.39-1.116,1.547,1.547,0,0,0-1.187-.419,1.777,1.777,0,0,0-1.129.344,1.066,1.066,0,0,0-.44.876H84.993a2.239,2.239,0,0,1,.49-1.382,3.263,3.263,0,0,1,1.332-1.009,4.68,4.68,0,0,1,1.88-.365,3.769,3.769,0,0,1,2.515.793,2.827,2.827,0,0,1,.963,2.229v4.051a4.591,4.591,0,0,0,.34,1.934V16Zm-2.216-1.453a2.294,2.294,0,0,0,1.125-.291,1.941,1.941,0,0,0,.793-.78V11.783H89.068a2.973,2.973,0,0,0-1.685.39,1.264,1.264,0,0,0-.564,1.1,1.179,1.179,0,0,0,.386.926A1.5,1.5,0,0,0,88.238,14.547Zm1.121-11.3h2.3l-2.3,2.515-1.619,0ZM96.431,16H94.414V3.25h2.017Zm6.151.166a4.173,4.173,0,0,1-3.109-1.208,4.381,4.381,0,0,1-1.191-3.217v-.249a5.389,5.389,0,0,1,.519-2.4,3.949,3.949,0,0,1,1.457-1.648,3.851,3.851,0,0,1,2.092-.589,3.525,3.525,0,0,1,2.835,1.17,4.949,4.949,0,0,1,1,3.312v.813h-5.869a2.7,2.7,0,0,0,.743,1.76,2.23,2.23,0,0,0,1.639.647,2.731,2.731,0,0,0,2.258-1.121l1.087,1.038a3.631,3.631,0,0,1-1.44,1.249A4.509,4.509,0,0,1,102.582,16.166Zm-.241-7.695A1.7,1.7,0,0,0,101,9.052a3.012,3.012,0,0,0-.652,1.619h3.843v-.149a2.452,2.452,0,0,0-.54-1.531A1.686,1.686,0,0,0,102.341,8.471Zm10.442,5.088a.914.914,0,0,0-.444-.822,4.723,4.723,0,0,0-1.473-.5,7.574,7.574,0,0,1-1.718-.548,2.293,2.293,0,0,1-1.511-2.117,2.391,2.391,0,0,1,.979-1.942,3.872,3.872,0,0,1,2.49-.78,4.029,4.029,0,0,1,2.6.8,2.529,2.529,0,0,1,.992,2.067h-2.017a1.243,1.243,0,0,0-.432-.967,1.654,1.654,0,0,0-1.146-.386,1.787,1.787,0,0,0-1.083.307.968.968,0,0,0-.419.822.818.818,0,0,0,.39.722,5.365,5.365,0,0,0,1.577.519,7.466,7.466,0,0,1,1.864.623,2.639,2.639,0,0,1,1,.867,2.212,2.212,0,0,1,.328,1.229,2.34,2.34,0,0,1-1,1.963,4.283,4.283,0,0,1-2.631.751,4.644,4.644,0,0,1-1.967-.4,3.238,3.238,0,0,1-1.345-1.1,2.594,2.594,0,0,1-.481-1.5H109.3a1.421,1.421,0,0,0,.54,1.1,2.1,2.1,0,0,0,1.32.386,2.04,2.04,0,0,0,1.212-.3A.938.938,0,0,0,112.784,13.56Zm5.611-1.1a4.663,4.663,0,0,1,.274-1.761,4.617,4.617,0,0,1,1.083-1.442,8.269,8.269,0,0,0,1.025-1.117,1.955,1.955,0,0,0,.332-1.094,1.672,1.672,0,0,0-.386-1.189,1.482,1.482,0,0,0-1.133-.41,1.631,1.631,0,0,0-1.15.4A1.406,1.406,0,0,0,118,6.93h-2.017a2.972,2.972,0,0,1,1-2.326,3.824,3.824,0,0,1,2.6-.856,3.732,3.732,0,0,1,2.6.847,3.035,3.035,0,0,1,.934,2.368,3.877,3.877,0,0,1-1.262,2.667l-1.021,1.005a2.738,2.738,0,0,0-.564,1.82Zm-.141,2.577a1.058,1.058,0,0,1,.307-.79,1.29,1.29,0,0,1,1.668.008,1.065,1.065,0,0,1,.307.781,1.046,1.046,0,0,1-.3.761,1.13,1.13,0,0,1-.847.306,1.115,1.115,0,0,1-.843-.306A1.054,1.054,0,0,1,118.254,15.033Z" transform="translate(389.379 9919.544)" fill="#fff"/>
      <rect id="Rectángulo_410197" data-name="Rectángulo 410197" width="304.353" height="114" rx="9" transform="translate(326.379 10063.785)" fill="#f3f9ff"/>
      <path id="Trazado_912491" data-name="Trazado 912491" d="M4.594,9.688a4.58,4.58,0,0,1-.168,1.324,2.959,2.959,0,0,1-.535.957q-.375.461-1.094,1.215a2.674,2.674,0,0,0-.8,1.527L1.977,15a1.752,1.752,0,0,0,.453,1.3,1.775,1.775,0,0,0,1.3.449A1.821,1.821,0,0,0,5,16.309a1.48,1.48,0,0,0,.488-1.152H6.938a2.7,2.7,0,0,1-.895,2.055,3.3,3.3,0,0,1-2.309.8,3.326,3.326,0,0,1-2.367-.785,2.85,2.85,0,0,1-.836-2.184,4.076,4.076,0,0,1,1.25-2.719l.852-.883a2.638,2.638,0,0,0,.516-1.75Zm.063-2.473a.869.869,0,0,1-.215.6.8.8,0,0,1-.637.243.817.817,0,0,1-.641-.243.86.86,0,0,1-.219-.6.821.821,0,0,1,.219-.581A.832.832,0,0,1,3.8,6.4a.819.819,0,0,1,.637.235A.83.83,0,0,1,4.656,7.215Zm12.6,4.176a4.185,4.185,0,0,1-1.332,2.785,4.365,4.365,0,0,1-2.98.98,4.008,4.008,0,0,1-3.23-1.445A5.815,5.815,0,0,1,8.5,9.844V8.75a6.481,6.481,0,0,1,.566-2.789,4.231,4.231,0,0,1,1.605-1.848,4.47,4.47,0,0,1,2.406-.645A4.11,4.11,0,0,1,15.984,4.48a4.235,4.235,0,0,1,1.273,2.8H15.75A3.268,3.268,0,0,0,14.9,5.307,2.565,2.565,0,0,0,13.078,4.7a2.684,2.684,0,0,0-2.254,1.063,4.882,4.882,0,0,0-.816,3.026v1.1a5.018,5.018,0,0,0,.773,2.948,2.5,2.5,0,0,0,2.164,1.095,2.886,2.886,0,0,0,1.918-.566,3.143,3.143,0,0,0,.887-1.973Zm1.438-.7a4.993,4.993,0,0,1,.488-2.234A3.643,3.643,0,0,1,20.543,6.93a3.7,3.7,0,0,1,1.988-.539,3.565,3.565,0,0,1,2.793,1.2,4.6,4.6,0,0,1,1.066,3.18v.1a5.036,5.036,0,0,1-.473,2.215,3.589,3.589,0,0,1-1.352,1.527,3.743,3.743,0,0,1-2.02.547,3.556,3.556,0,0,1-2.785-1.2A4.575,4.575,0,0,1,18.7,10.8Zm1.453.172a3.616,3.616,0,0,0,.652,2.258,2.211,2.211,0,0,0,3.5-.012,3.955,3.955,0,0,0,.648-2.418,3.61,3.61,0,0,0-.66-2.254,2.1,2.1,0,0,0-1.754-.863A2.075,2.075,0,0,0,20.8,8.43,3.925,3.925,0,0,0,20.148,10.867ZM23.188,3h1.75L22.844,5.3l-1.164,0Zm6.375,3.547.039.938a3.122,3.122,0,0,1,2.508-1.094A2.417,2.417,0,0,1,34.523,7.75a3.2,3.2,0,0,1,1.1-.984,3.242,3.242,0,0,1,1.6-.375q2.781,0,2.828,2.945V15H38.6V9.422a1.941,1.941,0,0,0-.414-1.355A1.823,1.823,0,0,0,36.8,7.617a1.917,1.917,0,0,0-1.336.48,1.949,1.949,0,0,0-.617,1.293V15H33.391V9.461a1.613,1.613,0,0,0-1.8-1.844,1.934,1.934,0,0,0-1.945,1.211V15H28.2V6.547ZM41.844,10.7a4.993,4.993,0,0,1,.488-2.234A3.643,3.643,0,0,1,43.691,6.93a3.7,3.7,0,0,1,1.988-.539,3.565,3.565,0,0,1,2.793,1.2,4.6,4.6,0,0,1,1.066,3.18v.1a5.036,5.036,0,0,1-.473,2.215,3.589,3.589,0,0,1-1.352,1.527,3.743,3.743,0,0,1-2.02.547,3.556,3.556,0,0,1-2.785-1.2A4.575,4.575,0,0,1,41.844,10.8Zm1.453.172a3.616,3.616,0,0,0,.652,2.258,2.211,2.211,0,0,0,3.5-.012,3.955,3.955,0,0,0,.648-2.418,3.61,3.61,0,0,0-.66-2.254,2.1,2.1,0,0,0-1.754-.863,2.075,2.075,0,0,0-1.727.852A3.925,3.925,0,0,0,43.3,10.867Zm19.156,0a5.062,5.062,0,0,1-.883,3.109,2.829,2.829,0,0,1-2.391,1.18,3.1,3.1,0,0,1-2.422-.977v4.07H55.313V6.547h1.32l.07.938a2.977,2.977,0,0,1,2.453-1.094,2.882,2.882,0,0,1,2.41,1.148,5.117,5.117,0,0,1,.887,3.2ZM61.008,10.7A3.735,3.735,0,0,0,60.4,8.445a1.963,1.963,0,0,0-1.672-.828,2.125,2.125,0,0,0-1.969,1.164V12.82a2.129,2.129,0,0,0,1.984,1.156,1.954,1.954,0,0,0,1.652-.824A4.077,4.077,0,0,0,61.008,10.7Zm8.5,3.461a3.07,3.07,0,0,1-2.477.992,2.628,2.628,0,0,1-2.059-.785,3.4,3.4,0,0,1-.715-2.324v-5.5H65.7v5.461q0,1.922,1.563,1.922a2.163,2.163,0,0,0,2.2-1.234V6.547h1.445V15H69.539Zm7.109.992a3.693,3.693,0,0,1-2.8-1.129,4.19,4.19,0,0,1-1.078-3.02v-.266a5.073,5.073,0,0,1,.48-2.246,3.748,3.748,0,0,1,1.344-1.547,3.378,3.378,0,0,1,1.871-.559A3.166,3.166,0,0,1,79,7.477a4.7,4.7,0,0,1,.914,3.109v.6H74.188a3,3,0,0,0,.73,2.02,2.3,2.3,0,0,0,1.777.77,2.517,2.517,0,0,0,1.3-.312,3.259,3.259,0,0,0,.93-.828l.883.688A3.55,3.55,0,0,1,76.617,15.156Zm-.18-7.578a1.928,1.928,0,0,0-1.469.637A3.1,3.1,0,0,0,74.234,10h4.234V9.891a2.753,2.753,0,0,0-.594-1.707A1.815,1.815,0,0,0,76.438,7.578Zm4.8,3.125a4.952,4.952,0,0,1,.922-3.129,3.137,3.137,0,0,1,4.766-.168V3h1.445V15H87.039l-.07-.906a2.943,2.943,0,0,1-2.414,1.063,2.887,2.887,0,0,1-2.395-1.2,5.008,5.008,0,0,1-.926-3.141Zm1.445.164a3.749,3.749,0,0,0,.594,2.25,1.92,1.92,0,0,0,1.641.813A2.108,2.108,0,0,0,86.922,12.7V8.813a2.125,2.125,0,0,0-1.992-1.2,1.929,1.929,0,0,0-1.656.82A4.128,4.128,0,0,0,82.68,10.867Zm7.547-.172a4.993,4.993,0,0,1,.488-2.234A3.643,3.643,0,0,1,92.074,6.93a3.7,3.7,0,0,1,1.988-.539,3.565,3.565,0,0,1,2.793,1.2,4.6,4.6,0,0,1,1.066,3.18v.1a5.036,5.036,0,0,1-.473,2.215A3.589,3.589,0,0,1,96.1,14.609a3.743,3.743,0,0,1-2.02.547,3.556,3.556,0,0,1-2.785-1.2A4.575,4.575,0,0,1,90.227,10.8Zm1.453.172a3.616,3.616,0,0,0,.652,2.258,2.211,2.211,0,0,0,3.5-.012,3.955,3.955,0,0,0,.648-2.418,3.61,3.61,0,0,0-.66-2.254,2.1,2.1,0,0,0-1.754-.863,2.075,2.075,0,0,0-1.727.852A3.925,3.925,0,0,0,91.68,10.867ZM108.914,15a3.036,3.036,0,0,1-.2-.891,3.225,3.225,0,0,1-2.406,1.047,2.984,2.984,0,0,1-2.051-.707,2.288,2.288,0,0,1-.8-1.793,2.39,2.39,0,0,1,1-2.051,4.733,4.733,0,0,1,2.824-.73h1.406V9.211A1.623,1.623,0,0,0,108.234,8a1.821,1.821,0,0,0-1.336-.449,2.108,2.108,0,0,0-1.3.391,1.151,1.151,0,0,0-.523.945h-1.453a2,2,0,0,1,.449-1.223,3.066,3.066,0,0,1,1.219-.934,4.1,4.1,0,0,1,1.691-.344,3.342,3.342,0,0,1,2.289.73,2.635,2.635,0,0,1,.859,2.012v3.891a4.757,4.757,0,0,0,.3,1.852V15Zm-2.4-1.1a2.54,2.54,0,0,0,1.289-.352,2.127,2.127,0,0,0,.883-.914V10.9h-1.133q-2.656,0-2.656,1.555a1.316,1.316,0,0,0,.453,1.063A1.742,1.742,0,0,0,106.516,13.9Zm9.273.078a2.082,2.082,0,0,0,1.352-.469,1.649,1.649,0,0,0,.641-1.172h1.367a2.621,2.621,0,0,1-.5,1.383,3.293,3.293,0,0,1-1.23,1.047,3.55,3.55,0,0,1-1.629.391A3.482,3.482,0,0,1,113.043,14a4.59,4.59,0,0,1-1.02-3.152v-.242a5.089,5.089,0,0,1,.453-2.2,3.451,3.451,0,0,1,1.3-1.492,3.7,3.7,0,0,1,2-.531,3.39,3.39,0,0,1,2.363.852,3.043,3.043,0,0,1,1,2.211h-1.367a1.992,1.992,0,0,0-.621-1.348,1.932,1.932,0,0,0-1.379-.527,2.023,2.023,0,0,0-1.707.793,3.724,3.724,0,0,0-.605,2.293v.273a3.65,3.65,0,0,0,.6,2.25A2.033,2.033,0,0,0,115.789,13.977Zm8.375,0a2.082,2.082,0,0,0,1.352-.469,1.649,1.649,0,0,0,.641-1.172h1.367a2.621,2.621,0,0,1-.5,1.383,3.293,3.293,0,0,1-1.23,1.047,3.55,3.55,0,0,1-1.629.391A3.482,3.482,0,0,1,121.418,14a4.59,4.59,0,0,1-1.02-3.152v-.242a5.089,5.089,0,0,1,.453-2.2,3.451,3.451,0,0,1,1.3-1.492,3.7,3.7,0,0,1,2-.531,3.39,3.39,0,0,1,2.363.852,3.043,3.043,0,0,1,1,2.211h-1.367a1.992,1.992,0,0,0-.621-1.348,1.932,1.932,0,0,0-1.379-.527,2.023,2.023,0,0,0-1.707.793,3.724,3.724,0,0,0-.605,2.293v.273a3.65,3.65,0,0,0,.6,2.25A2.033,2.033,0,0,0,124.164,13.977Zm8.492,1.18a3.693,3.693,0,0,1-2.8-1.129,4.19,4.19,0,0,1-1.078-3.02v-.266a5.073,5.073,0,0,1,.48-2.246,3.748,3.748,0,0,1,1.344-1.547,3.378,3.378,0,0,1,1.871-.559,3.166,3.166,0,0,1,2.563,1.086,4.7,4.7,0,0,1,.914,3.109v.6h-5.727a3,3,0,0,0,.73,2.02,2.3,2.3,0,0,0,1.777.77,2.517,2.517,0,0,0,1.3-.312,3.258,3.258,0,0,0,.93-.828l.883.688A3.55,3.55,0,0,1,132.656,15.156Zm-.18-7.578a1.928,1.928,0,0,0-1.469.637A3.1,3.1,0,0,0,130.273,10h4.234V9.891a2.753,2.753,0,0,0-.594-1.707A1.815,1.815,0,0,0,132.477,7.578Zm4.8,3.125a4.952,4.952,0,0,1,.922-3.129,3.137,3.137,0,0,1,4.766-.168V3h1.445V15h-1.328l-.07-.906a2.943,2.943,0,0,1-2.414,1.063,2.887,2.887,0,0,1-2.395-1.2,5.008,5.008,0,0,1-.926-3.141Zm1.445.164a3.749,3.749,0,0,0,.594,2.25,1.919,1.919,0,0,0,1.641.813,2.108,2.108,0,0,0,2.008-1.234V8.813a2.125,2.125,0,0,0-1.992-1.2,1.929,1.929,0,0,0-1.656.82A4.128,4.128,0,0,0,138.719,10.867Zm11.438,4.289a3.693,3.693,0,0,1-2.8-1.129,4.19,4.19,0,0,1-1.078-3.02v-.266a5.073,5.073,0,0,1,.48-2.246,3.748,3.748,0,0,1,1.344-1.547,3.378,3.378,0,0,1,1.871-.559,3.166,3.166,0,0,1,2.563,1.086,4.7,4.7,0,0,1,.914,3.109v.6h-5.727a3,3,0,0,0,.73,2.02,2.3,2.3,0,0,0,1.777.77,2.517,2.517,0,0,0,1.3-.312,3.258,3.258,0,0,0,.93-.828l.883.688A3.55,3.55,0,0,1,150.156,15.156Zm-.18-7.578a1.928,1.928,0,0,0-1.469.637A3.1,3.1,0,0,0,147.773,10h4.234V9.891a2.753,2.753,0,0,0-.594-1.707A1.815,1.815,0,0,0,149.977,7.578Zm9.234.266a4.331,4.331,0,0,0-.711-.055A1.9,1.9,0,0,0,156.57,9v6h-1.445V6.547h1.406l.023.977a2.251,2.251,0,0,1,2.016-1.133,1.477,1.477,0,0,1,.641.109ZM169.719,15a3.036,3.036,0,0,1-.2-.891,3.225,3.225,0,0,1-2.406,1.047,2.984,2.984,0,0,1-2.051-.707,2.287,2.287,0,0,1-.8-1.793,2.39,2.39,0,0,1,1-2.051,4.733,4.733,0,0,1,2.824-.73h1.406V9.211A1.623,1.623,0,0,0,169.039,8a1.821,1.821,0,0,0-1.336-.449,2.107,2.107,0,0,0-1.3.391,1.151,1.151,0,0,0-.523.945H164.43a2,2,0,0,1,.449-1.223,3.066,3.066,0,0,1,1.219-.934,4.1,4.1,0,0,1,1.691-.344,3.342,3.342,0,0,1,2.289.73,2.635,2.635,0,0,1,.859,2.012v3.891a4.757,4.757,0,0,0,.3,1.852V15Zm-2.4-1.1a2.54,2.54,0,0,0,1.289-.352,2.127,2.127,0,0,0,.883-.914V10.9h-1.133q-2.656,0-2.656,1.555a1.316,1.316,0,0,0,.453,1.063A1.742,1.742,0,0,0,167.32,13.9ZM178.734,15h-1.445V3h1.445Zm1.93-4.3a4.993,4.993,0,0,1,.488-2.234,3.642,3.642,0,0,1,1.359-1.531,3.7,3.7,0,0,1,1.988-.539,3.565,3.565,0,0,1,2.793,1.2,4.6,4.6,0,0,1,1.066,3.18v.1a5.036,5.036,0,0,1-.473,2.215,3.589,3.589,0,0,1-1.352,1.527,3.743,3.743,0,0,1-2.02.547,3.556,3.556,0,0,1-2.785-1.2,4.575,4.575,0,0,1-1.066-3.164Zm1.453.172a3.616,3.616,0,0,0,.652,2.258,2.211,2.211,0,0,0,3.5-.012,3.954,3.954,0,0,0,.648-2.418,3.61,3.61,0,0,0-.66-2.254,2.1,2.1,0,0,0-1.754-.863,2.075,2.075,0,0,0-1.727.852A3.925,3.925,0,0,0,182.117,10.867Zm12.977,1.891a1.064,1.064,0,0,0-.441-.91,4.249,4.249,0,0,0-1.539-.559,7.277,7.277,0,0,1-1.742-.562,2.479,2.479,0,0,1-.953-.781,1.869,1.869,0,0,1-.309-1.078,2.193,2.193,0,0,1,.879-1.758,3.432,3.432,0,0,1,2.246-.719,3.532,3.532,0,0,1,2.332.742,2.357,2.357,0,0,1,.895,1.9h-1.453a1.3,1.3,0,0,0-.5-1.023,1.888,1.888,0,0,0-1.27-.43A1.976,1.976,0,0,0,192,7.922a1.082,1.082,0,0,0-.445.9.877.877,0,0,0,.414.789,5.1,5.1,0,0,0,1.5.508,7.8,7.8,0,0,1,1.754.578,2.558,2.558,0,0,1,1,.809,1.988,1.988,0,0,1,.324,1.152,2.163,2.163,0,0,1-.906,1.816,3.8,3.8,0,0,1-2.352.684,4.257,4.257,0,0,1-1.8-.359,2.922,2.922,0,0,1-1.223-1,2.42,2.42,0,0,1-.441-1.395h1.445a1.5,1.5,0,0,0,.582,1.152,2.258,2.258,0,0,0,1.434.426,2.331,2.331,0,0,0,1.316-.332A1.02,1.02,0,0,0,195.094,12.758Zm-189.078,22a1.064,1.064,0,0,0-.441-.91,4.249,4.249,0,0,0-1.539-.559,7.277,7.277,0,0,1-1.742-.562,2.479,2.479,0,0,1-.953-.781,1.869,1.869,0,0,1-.309-1.078,2.193,2.193,0,0,1,.879-1.758,3.432,3.432,0,0,1,2.246-.719,3.532,3.532,0,0,1,2.332.742,2.357,2.357,0,0,1,.895,1.9H5.93a1.3,1.3,0,0,0-.5-1.023,1.888,1.888,0,0,0-1.27-.43,1.976,1.976,0,0,0-1.234.344,1.082,1.082,0,0,0-.445.9.877.877,0,0,0,.414.789,5.1,5.1,0,0,0,1.5.508,7.8,7.8,0,0,1,1.754.578,2.558,2.558,0,0,1,1,.809,1.988,1.988,0,0,1,.324,1.152,2.163,2.163,0,0,1-.906,1.816,3.8,3.8,0,0,1-2.352.684,4.257,4.257,0,0,1-1.8-.359,2.922,2.922,0,0,1-1.223-1A2.42,2.42,0,0,1,.742,34.4H2.188a1.5,1.5,0,0,0,.582,1.152,2.258,2.258,0,0,0,1.434.426,2.331,2.331,0,0,0,1.316-.332A1.02,1.02,0,0,0,6.016,34.758Zm6.836,2.4a3.693,3.693,0,0,1-2.8-1.129,4.19,4.19,0,0,1-1.078-3.02v-.266a5.073,5.073,0,0,1,.48-2.246A3.748,3.748,0,0,1,10.8,28.949a3.378,3.378,0,0,1,1.871-.559,3.166,3.166,0,0,1,2.563,1.086,4.7,4.7,0,0,1,.914,3.109v.6H10.422a3,3,0,0,0,.73,2.02,2.3,2.3,0,0,0,1.777.77,2.517,2.517,0,0,0,1.3-.312,3.258,3.258,0,0,0,.93-.828l.883.688A3.55,3.55,0,0,1,12.852,37.156Zm-.18-7.578a1.928,1.928,0,0,0-1.469.637A3.1,3.1,0,0,0,10.469,32H14.7v-.109a2.753,2.753,0,0,0-.594-1.707A1.815,1.815,0,0,0,12.672,29.578Zm9.234.266a4.331,4.331,0,0,0-.711-.055A1.9,1.9,0,0,0,19.266,31v6H17.82V28.547h1.406l.023.977a2.251,2.251,0,0,1,2.016-1.133,1.477,1.477,0,0,1,.641.109Zm4.258,5.2,2.094-6.492h1.477L26.7,37H25.6l-3.062-8.453h1.477ZM32.7,37H31.25V28.547H32.7ZM31.133,26.3a.863.863,0,0,1,.215-.594.807.807,0,0,1,.637-.242.819.819,0,0,1,.641.242.854.854,0,0,1,.219.594.826.826,0,0,1-.219.586.834.834,0,0,1-.641.234.821.821,0,0,1-.637-.234A.834.834,0,0,1,31.133,26.3ZM38.4,35.977a2.082,2.082,0,0,0,1.352-.469,1.649,1.649,0,0,0,.641-1.172h1.367a2.621,2.621,0,0,1-.5,1.383,3.293,3.293,0,0,1-1.23,1.047,3.55,3.55,0,0,1-1.629.391A3.482,3.482,0,0,1,35.652,36a4.59,4.59,0,0,1-1.02-3.152v-.242a5.089,5.089,0,0,1,.453-2.2,3.451,3.451,0,0,1,1.3-1.492,3.7,3.7,0,0,1,2-.531,3.39,3.39,0,0,1,2.363.852,3.043,3.043,0,0,1,1,2.211H40.391a1.992,1.992,0,0,0-.621-1.348,1.932,1.932,0,0,0-1.379-.527,2.023,2.023,0,0,0-1.707.793,3.724,3.724,0,0,0-.605,2.293v.273a3.65,3.65,0,0,0,.6,2.25A2.033,2.033,0,0,0,38.4,35.977ZM44.953,37H43.508V28.547h1.445ZM43.391,26.3a.863.863,0,0,1,.215-.594.807.807,0,0,1,.637-.242.819.819,0,0,1,.641.242.854.854,0,0,1,.219.594.826.826,0,0,1-.219.586.834.834,0,0,1-.641.234.821.821,0,0,1-.637-.234A.834.834,0,0,1,43.391,26.3ZM46.883,32.7a4.993,4.993,0,0,1,.488-2.234A3.643,3.643,0,0,1,48.73,28.93a3.7,3.7,0,0,1,1.988-.539,3.565,3.565,0,0,1,2.793,1.2,4.6,4.6,0,0,1,1.066,3.18v.1a5.036,5.036,0,0,1-.473,2.215,3.589,3.589,0,0,1-1.352,1.527,3.743,3.743,0,0,1-2.02.547,3.556,3.556,0,0,1-2.785-1.2A4.575,4.575,0,0,1,46.883,32.8Zm1.453.172a3.616,3.616,0,0,0,.652,2.258,2.211,2.211,0,0,0,3.5-.012,3.955,3.955,0,0,0,.648-2.418,3.61,3.61,0,0,0-.66-2.254,2.1,2.1,0,0,0-1.754-.863,2.075,2.075,0,0,0-1.727.852A3.925,3.925,0,0,0,48.336,32.867Zm12.977,1.891a1.064,1.064,0,0,0-.441-.91,4.249,4.249,0,0,0-1.539-.559,7.277,7.277,0,0,1-1.742-.562,2.479,2.479,0,0,1-.953-.781,1.869,1.869,0,0,1-.309-1.078,2.193,2.193,0,0,1,.879-1.758,3.432,3.432,0,0,1,2.246-.719,3.532,3.532,0,0,1,2.332.742,2.357,2.357,0,0,1,.895,1.9H61.227a1.3,1.3,0,0,0-.5-1.023,1.888,1.888,0,0,0-1.27-.43,1.976,1.976,0,0,0-1.234.344,1.082,1.082,0,0,0-.445.9.877.877,0,0,0,.414.789,5.1,5.1,0,0,0,1.5.508,7.8,7.8,0,0,1,1.754.578,2.558,2.558,0,0,1,1,.809,1.988,1.988,0,0,1,.324,1.152,2.163,2.163,0,0,1-.906,1.816,3.8,3.8,0,0,1-2.352.684,4.257,4.257,0,0,1-1.8-.359,2.922,2.922,0,0,1-1.223-1,2.42,2.42,0,0,1-.441-1.395h1.445a1.5,1.5,0,0,0,.582,1.152,2.258,2.258,0,0,0,1.434.426,2.331,2.331,0,0,0,1.316-.332A1.02,1.02,0,0,0,61.313,34.758ZM68.25,32.7a4.952,4.952,0,0,1,.922-3.129,3.137,3.137,0,0,1,4.766-.168V25h1.445V37H74.055l-.07-.906a2.943,2.943,0,0,1-2.414,1.063,2.887,2.887,0,0,1-2.395-1.2,5.008,5.008,0,0,1-.926-3.141Zm1.445.164a3.749,3.749,0,0,0,.594,2.25,1.92,1.92,0,0,0,1.641.813A2.108,2.108,0,0,0,73.938,34.7V30.813a2.125,2.125,0,0,0-1.992-1.2,1.929,1.929,0,0,0-1.656.82A4.128,4.128,0,0,0,69.7,32.867Zm11.438,4.289a3.693,3.693,0,0,1-2.8-1.129,4.19,4.19,0,0,1-1.078-3.02v-.266a5.073,5.073,0,0,1,.48-2.246,3.748,3.748,0,0,1,1.344-1.547,3.378,3.378,0,0,1,1.871-.559,3.166,3.166,0,0,1,2.563,1.086,4.7,4.7,0,0,1,.914,3.109v.6H78.7a3,3,0,0,0,.73,2.02,2.3,2.3,0,0,0,1.777.77,2.517,2.517,0,0,0,1.3-.312,3.259,3.259,0,0,0,.93-.828l.883.688A3.55,3.55,0,0,1,81.133,37.156Zm-.18-7.578a1.928,1.928,0,0,0-1.469.637A3.1,3.1,0,0,0,78.75,32h4.234v-.109a2.753,2.753,0,0,0-.594-1.707A1.815,1.815,0,0,0,80.953,29.578Zm14.031,5.18a1.064,1.064,0,0,0-.441-.91A4.249,4.249,0,0,0,93,33.289a7.277,7.277,0,0,1-1.742-.562,2.479,2.479,0,0,1-.953-.781A1.869,1.869,0,0,1,90,30.867a2.193,2.193,0,0,1,.879-1.758,3.432,3.432,0,0,1,2.246-.719,3.532,3.532,0,0,1,2.332.742,2.357,2.357,0,0,1,.895,1.9H94.9a1.3,1.3,0,0,0-.5-1.023,1.888,1.888,0,0,0-1.27-.43,1.976,1.976,0,0,0-1.234.344,1.082,1.082,0,0,0-.445.9.877.877,0,0,0,.414.789,5.1,5.1,0,0,0,1.5.508,7.8,7.8,0,0,1,1.754.578,2.558,2.558,0,0,1,1,.809,1.988,1.988,0,0,1,.324,1.152,2.163,2.163,0,0,1-.906,1.816,3.8,3.8,0,0,1-2.352.684,4.257,4.257,0,0,1-1.8-.359,2.922,2.922,0,0,1-1.223-1,2.42,2.42,0,0,1-.441-1.395h1.445a1.5,1.5,0,0,0,.582,1.152,2.258,2.258,0,0,0,1.434.426,2.331,2.331,0,0,0,1.316-.332A1.02,1.02,0,0,0,94.984,34.758ZM103.531,37a3.036,3.036,0,0,1-.2-.891,3.225,3.225,0,0,1-2.406,1.047,2.984,2.984,0,0,1-2.051-.707,2.288,2.288,0,0,1-.8-1.793,2.39,2.39,0,0,1,1-2.051,4.733,4.733,0,0,1,2.824-.73H103.3v-.664A1.623,1.623,0,0,0,102.852,30a1.821,1.821,0,0,0-1.336-.449,2.108,2.108,0,0,0-1.3.391,1.151,1.151,0,0,0-.523.945H98.242a2,2,0,0,1,.449-1.223,3.066,3.066,0,0,1,1.219-.934,4.1,4.1,0,0,1,1.691-.344,3.342,3.342,0,0,1,2.289.73,2.635,2.635,0,0,1,.859,2.012v3.891a4.757,4.757,0,0,0,.3,1.852V37Zm-2.4-1.1a2.54,2.54,0,0,0,1.289-.352,2.127,2.127,0,0,0,.883-.914V32.9h-1.133q-2.656,0-2.656,1.555a1.316,1.316,0,0,0,.453,1.063A1.742,1.742,0,0,0,101.133,35.9Zm7.453,1.1h-1.445V25h1.445Zm7.531-.836a3.07,3.07,0,0,1-2.477.992,2.628,2.628,0,0,1-2.059-.785,3.4,3.4,0,0,1-.715-2.324v-5.5h1.445v5.461q0,1.922,1.563,1.922a2.163,2.163,0,0,0,2.2-1.234V28.547h1.445V37h-1.375Zm3.25-3.461a4.952,4.952,0,0,1,.922-3.129,3.137,3.137,0,0,1,4.766-.168V25H126.5V37h-1.328l-.07-.906a2.943,2.943,0,0,1-2.414,1.063,2.887,2.887,0,0,1-2.395-1.2,5.008,5.008,0,0,1-.926-3.141Zm1.445.164a3.749,3.749,0,0,0,.594,2.25,1.92,1.92,0,0,0,1.641.813,2.108,2.108,0,0,0,2.008-1.234V30.813a2.125,2.125,0,0,0-1.992-1.2,1.929,1.929,0,0,0-1.656.82A4.128,4.128,0,0,0,120.813,32.867Zm9.625.917a4.663,4.663,0,0,1,.211-1.466,3.761,3.761,0,0,1,.8-1.193l1.023-1.053a2.36,2.36,0,0,0,.656-1.59,1.815,1.815,0,0,0-.43-1.282,1.62,1.62,0,0,0-1.25-.464,1.881,1.881,0,0,0-1.281.422,1.426,1.426,0,0,0-.484,1.133h-1.445a2.632,2.632,0,0,1,.9-2.043,3.374,3.374,0,0,1,2.309-.777,3.185,3.185,0,0,1,2.3.792,2.87,2.87,0,0,1,.824,2.172,3.926,3.926,0,0,1-1.266,2.691l-.852.842a2.623,2.623,0,0,0-.57,1.818Zm-.062,2.482a.861.861,0,0,1,.215-.6.81.81,0,0,1,.637-.241.822.822,0,0,1,.641.241.852.852,0,0,1,.219.6.824.824,0,0,1-.219.588.837.837,0,0,1-.641.233.774.774,0,0,1-.852-.82Z" transform="translate(356.379 10105.965)" fill="#12263f"/>
      <path id="Trazado_910397" data-name="Trazado 910397" d="M10.827,0h282.7c5.979,0,10.827,4.029,10.827,9V28c0,4.971-4.847,9-10.827,9H10.827C4.847,37,0,32.971,0,28V9C0,4.029,4.847,0,10.827,0Z" transform="translate(326.379 10056.785)" fill="#5b5088"/>
      <path id="Trazado_912488" data-name="Trazado 912488" d="M63.838,10.5a5.141,5.141,0,0,1-.237,1.633,3.876,3.876,0,0,1-.826,1.259l-.855.881a2.467,2.467,0,0,0-.747,1.687,1.539,1.539,0,0,0,.407,1.168,1.6,1.6,0,0,0,1.146.387A1.634,1.634,0,0,0,63.9,17.1,1.451,1.451,0,0,0,64.336,16h2.017a2.986,2.986,0,0,1-1.009,2.335,4.48,4.48,0,0,1-5.25.029A3,3,0,0,1,59.156,16a4,4,0,0,1,1.287-2.725l.764-.773a2.306,2.306,0,0,0,.73-1.554l.017-.44ZM64,7.927a1.079,1.079,0,0,1-.295.773,1.107,1.107,0,0,1-.843.31,1.121,1.121,0,0,1-.847-.31,1.139,1.139,0,0,1,0-1.538,1.121,1.121,0,0,1,.847-.31,1.107,1.107,0,0,1,.843.31A1.068,1.068,0,0,1,64,7.927Zm13.323,4.138A4.364,4.364,0,0,1,75.9,15.083a4.867,4.867,0,0,1-3.312,1.083,4.713,4.713,0,0,1-2.544-.685,4.5,4.5,0,0,1-1.7-1.947,7.024,7.024,0,0,1-.623-2.93V9.476a7.075,7.075,0,0,1,.606-3.013,4.567,4.567,0,0,1,1.739-2.009,4.851,4.851,0,0,1,2.619-.706,4.672,4.672,0,0,1,3.221,1.083A4.527,4.527,0,0,1,77.327,7.9H75.235a2.985,2.985,0,0,0-.76-1.88,2.51,2.51,0,0,0-1.789-.577,2.452,2.452,0,0,0-2.1,1,5,5,0,0,0-.751,2.937v1.072a5.308,5.308,0,0,0,.7,2.991,2.328,2.328,0,0,0,2.054,1.03,2.715,2.715,0,0,0,1.859-.556,2.9,2.9,0,0,0,.789-1.851Zm1.3-.639a5.3,5.3,0,0,1,.523-2.378,3.819,3.819,0,0,1,1.469-1.627A4.14,4.14,0,0,1,82.8,6.853a3.923,3.923,0,0,1,2.951,1.17,4.6,4.6,0,0,1,1.224,3.1l.008.473a5.343,5.343,0,0,1-.51,2.374,3.773,3.773,0,0,1-1.461,1.619,4.17,4.17,0,0,1-2.2.573A3.9,3.9,0,0,1,79.771,14.9a4.848,4.848,0,0,1-1.141-3.374Zm2.017.174a3.619,3.619,0,0,0,.573,2.171,1.862,1.862,0,0,0,1.594.784,1.842,1.842,0,0,0,1.59-.8,4,4,0,0,0,.569-2.333,3.572,3.572,0,0,0-.585-2.158,1.973,1.973,0,0,0-3.158-.012A3.922,3.922,0,0,0,80.647,11.6ZM83.353,3.25h2.3l-2.3,2.515-1.619,0Zm7.23,3.769.058.938a3.232,3.232,0,0,1,2.59-1.1A2.483,2.483,0,0,1,95.7,8.23a3.186,3.186,0,0,1,2.756-1.378,2.8,2.8,0,0,1,2.212.822,3.618,3.618,0,0,1,.743,2.424V16H99.39V10.156A1.786,1.786,0,0,0,99.017,8.9a1.635,1.635,0,0,0-1.237-.4,1.679,1.679,0,0,0-1.125.369,1.948,1.948,0,0,0-.61.967L96.053,16H94.036V10.09A1.439,1.439,0,0,0,92.418,8.5a1.776,1.776,0,0,0-1.718.988V16H88.682V7.019ZM103.1,11.426a5.3,5.3,0,0,1,.523-2.378,3.819,3.819,0,0,1,1.469-1.627,4.14,4.14,0,0,1,2.175-.569,3.923,3.923,0,0,1,2.951,1.17,4.6,4.6,0,0,1,1.224,3.1l.008.473a5.343,5.343,0,0,1-.51,2.374,3.773,3.773,0,0,1-1.461,1.619,4.17,4.17,0,0,1-2.2.573,3.9,3.9,0,0,1-3.042-1.266,4.848,4.848,0,0,1-1.141-3.374Zm2.017.174a3.619,3.619,0,0,0,.573,2.171,1.862,1.862,0,0,0,1.594.784,1.842,1.842,0,0,0,1.59-.8,4,4,0,0,0,.569-2.333,3.572,3.572,0,0,0-.585-2.158,1.973,1.973,0,0,0-3.158-.012A3.922,3.922,0,0,0,105.118,11.6Zm9.911.855a4.663,4.663,0,0,1,.274-1.761,4.617,4.617,0,0,1,1.083-1.442,8.269,8.269,0,0,0,1.025-1.117,1.955,1.955,0,0,0,.332-1.094,1.672,1.672,0,0,0-.386-1.189,1.482,1.482,0,0,0-1.133-.41,1.631,1.631,0,0,0-1.15.4,1.406,1.406,0,0,0-.436,1.088h-2.017a2.972,2.972,0,0,1,1-2.326,3.824,3.824,0,0,1,2.6-.856,3.732,3.732,0,0,1,2.6.847,3.035,3.035,0,0,1,.934,2.368A3.877,3.877,0,0,1,118.5,9.631l-1.021,1.005a2.738,2.738,0,0,0-.564,1.82Zm-.141,2.577a1.058,1.058,0,0,1,.307-.79,1.29,1.29,0,0,1,1.668.008,1.065,1.065,0,0,1,.307.781,1.046,1.046,0,0,1-.3.761,1.13,1.13,0,0,1-.847.306,1.115,1.115,0,0,1-.843-.306A1.054,1.054,0,0,1,114.888,15.033Z" transform="translate(389.379 10063.785)" fill="#fff"/>
      <g id="Grupo_1121798" data-name="Grupo 1121798" transform="translate(389.379 10207.709)">
        <g id="Grupo_1121797" data-name="Grupo 1121797" clip-path="url(#clip-path-3)">
          <path id="Trazado_911361" data-name="Trazado 911361" d="M23.034,0H148.17A23.018,23.018,0,0,1,171.2,22.912V320.085A23.018,23.018,0,0,1,148.17,343H23.034A23.019,23.019,0,0,1,0,320.085V22.912A23.018,23.018,0,0,1,23.034,0" fill="#748493" fill-rule="evenodd"/>
          <path id="Trazado_911362" data-name="Trazado 911362" d="M23.759,4.005H148.895a20.633,20.633,0,0,1,20.627,20.518V320.329a20.633,20.633,0,0,1-20.627,20.519H23.759A20.634,20.634,0,0,1,3.132,320.329V24.523A20.633,20.633,0,0,1,23.759,4.005" transform="translate(-0.725 -0.927)" fill="#fff" fill-rule="evenodd"/>
          <path id="Trazado_911363" data-name="Trazado 911363" d="M93.782,413.716h23.182a8.362,8.362,0,1,1,0,16.723H93.782a8.362,8.362,0,1,1,0-16.723" transform="translate(-19.771 -95.805)" fill="#dbdbdb" fill-rule="evenodd"/>
          <path id="Trazado_911364" data-name="Trazado 911364" d="M125.35,425.7a8.42,8.42,0,0,1-6.992,7.4c-.807.074-1.634.112-2.478.112H94.9c-.838,0-1.659-.038-2.461-.111a8.424,8.424,0,0,1-6.968-7.121,242.469,242.469,0,0,0,39.874-.284" transform="translate(-19.794 -98.58)" fill="#ccc" fill-rule="evenodd"/>
          <rect id="Rectángulo_410422" data-name="Rectángulo 410422" width="147.788" height="298.671" transform="translate(11.708 17.063)" fill="#8ce2e5"/>
          <path id="Trazado_911365" data-name="Trazado 911365" d="M110.967,214.36s-2.668,15.453,6.436,18.475c5.623,1.867,27.129,6.869,45.622,14.146V365.374H15.236V250.8c22.439-8.9,45.866-18.441,48.535-22.748,4.809-7.755,47.2-13.7,47.2-13.7" transform="translate(-3.528 -49.64)" fill="#ededed" fill-rule="evenodd"/>
          <path id="Trazado_911366" data-name="Trazado 911366" d="M83.1,191.6c-.168,29.342-9.356,33.943-13.185,36.6L106.7,260.892l28.363-37.064a16.484,16.484,0,0,1-10.789-10.54c-2.956-8.631-2.956-24.633-2.956-24.633S100.438,202.223,83.1,191.6" transform="translate(-16.189 -43.688)" fill="#d7ad95" fill-rule="evenodd"/>
          <path id="Trazado_911367" data-name="Trazado 911367" d="M84.922,193.945c-.337,16.431-3.619,24.65-7.008,29.157,7.262,6.713,12.966,9.754,25.278,12.046,0,0,12.549,2.642,25.148-11.507.894-1.005,1.749-1.939,2.567-2.816a16.514,16.514,0,0,1-4.777-7.182c-2.475-7.229-2.878-19.628-2.943-23.465a77.434,77.434,0,0,1-9.521,3.307,39.035,39.035,0,0,1-18.308,2.207,44.256,44.256,0,0,1-10.438-1.747" transform="translate(-18.043 -44.04)" fill="#b8886c" fill-rule="evenodd"/>
          <path id="Trazado_911368" data-name="Trazado 911368" d="M162.212,134.548c10.4-5.324,14.828,29.533-7.513,29.631Z" transform="translate(-35.824 -31.03)" fill="#b8886c" fill-rule="evenodd"/>
          <path id="Trazado_911369" data-name="Trazado 911369" d="M58.426,139.689c-10.77-3.61-11.367,32.041,10.547,28.439Z" transform="translate(-11.846 -32.289)" fill="#b8886c" fill-rule="evenodd"/>
          <path id="Trazado_911370" data-name="Trazado 911370" d="M146.323,100.444c.889,6.675.457,15.415-6.167,33.039-21.806,58-73.23,41.414-76.77,15.254-3.353-8.156-10.732-39.574-10.732-39.574C40.4,66.9,100.894,50.646,125.96,67.757c0,0,8.894-.194,14.35,8.986,4.195,7.058,5.591,18.7,6.013,23.7" transform="translate(-11.818 -14.137)" fill="#35174d" fill-rule="evenodd"/>
          <path id="Trazado_911371" data-name="Trazado 911371" d="M138.578,114.375c1.785,12.647,3.818,57.263-20,74.627s-48.042-4.551-51.85-21.555c-1.326-5.922-4.448-44.839-3.17-55.486,32.423-1.988,44.775-7.1,61.591-14.025,2.708,6.857,7.375,10.646,13.426,16.439" transform="translate(-14.649 -22.679)" fill="#d7ad95" fill-rule="evenodd"/>
          <path id="Trazado_911372" data-name="Trazado 911372" d="M139.227,160.177c-1.833,16.107-7.127,33.745-20.146,43.239-23.814,17.365-48.043-4.551-51.85-21.554-.471-2.1-1.168-8.365-1.813-16.042a45.236,45.236,0,0,1,5.428,9.011c1.015,2.969,6.241,13.31,8.343,10.895s4.012-7.344,10.074-10.282,22.53-4.551,29.095,1.249,5.532,11.071,8.981,7.524,11.871-23.995,11.889-24.039M116.5,177.782a106.746,106.746,0,0,0-18.391-.368c-8.077.783-10.9,1.8-10.655,2.3s6.42,8.61,9.486,9.209,2.808-1.474,5.029-1.75,4.946-.2,5.723.828,1.947,1.611,3.99-.23,9.2-10.038,4.817-9.992" transform="translate(-15.149 -37.093)" fill="#35174d" fill-rule="evenodd"/>
          <path id="Trazado_911373" data-name="Trazado 911373" d="M122.987,185.077l-24.171.231c5.47,9.856,17.977,6.811,24.171-.231" transform="translate(-22.883 -42.859)" fill="#fff" fill-rule="evenodd"/>
          <path id="Trazado_911374" data-name="Trazado 911374" d="M131.718,141.192c-2.132.121-3.741,2.374-3.591,5.032s2,4.713,4.133,4.592,3.741-2.374,3.592-5.032-2-4.714-4.133-4.593" transform="translate(-29.668 -32.695)" fill="#35174d" fill-rule="evenodd"/>
          <path id="Trazado_911375" data-name="Trazado 911375" d="M88.254,141.192c-2.132.121-3.741,2.374-3.592,5.032s2,4.714,4.133,4.593,3.741-2.374,3.592-5.032-2-4.714-4.133-4.593" transform="translate(-19.603 -32.695)" fill="#35174d" fill-rule="evenodd"/>
          <path id="Trazado_911376" data-name="Trazado 911376" d="M110.168,136.383l3.124,26.738-12.239.666.147,2.5,14.983-.815L112.75,136.1Z" transform="translate(-23.401 -31.518)" fill="#b8886c"/>
          <path id="Trazado_911377" data-name="Trazado 911377" d="M121.258,128.392a1.485,1.485,0,0,0,.46,2.039,1.466,1.466,0,0,0,2.028-.462c.014-.023,4.959-8.389,15.594.278a1.465,1.465,0,0,0,2.069-.217,1.487,1.487,0,0,0-.214-2.082c-13.258-10.8-19.918.413-19.937.444" transform="translate(-28.028 -28.542)" fill="#1b0a52"/>
          <path id="Trazado_911378" data-name="Trazado 911378" d="M95.557,127.4a1.485,1.485,0,0,1-.229,2.079,1.464,1.464,0,0,1-2.066-.231c-.016-.019-5.869-7.771-15.465,2.046a1.465,1.465,0,0,1-2.08.019,1.486,1.486,0,0,1-.019-2.093c11.963-12.24,19.836-1.847,19.858-1.819" transform="translate(-17.432 -28.542)" fill="#1b0a52"/>
          <path id="Trazado_911379" data-name="Trazado 911379" d="M87.333,143.641a1.075,1.075,0,1,1-1.014,1.073,1.044,1.044,0,0,1,1.014-1.073" transform="translate(-19.989 -33.263)" fill="#fff" fill-rule="evenodd"/>
          <path id="Trazado_911380" data-name="Trazado 911380" d="M131.286,143.641a1.075,1.075,0,1,1-1.015,1.073,1.045,1.045,0,0,1,1.015-1.073" transform="translate(-30.167 -33.263)" fill="#fff" fill-rule="evenodd"/>
          <path id="Trazado_911381" data-name="Trazado 911381" d="M158.61,367.051v-2.659l-2.8.711s-2.736-16.147,7.772-16.147,15.535,11.6,25.312,5.8c2.434-1.445,4.644-2.767,6.606-3.961v17.731c-14.354-.684-34.4-1.595-36.895-1.475" transform="translate(-36.008 -80.809)" fill="#d2d3d4" fill-rule="evenodd"/>
          <path id="Trazado_911382" data-name="Trazado 911382" d="M15.236,363.716a16.693,16.693,0,0,0,2.752.171c8.954,0,27.563,3.048,36.932,10.047a51.4,51.4,0,0,1,8.888,8.663l-48.572,13.14Z" transform="translate(-3.528 -84.227)" fill="#d2d3d4" fill-rule="evenodd"/>
          <path id="Trazado_911383" data-name="Trazado 911383" d="M129.27,238.62c4.694,1.359,10.66,2.741,20.774,5.825L106.87,345.573,57.713,242.439a124.861,124.861,0,0,0,11.513-5.778l37.522,47.709Z" transform="translate(-13.365 -54.804)" fill="#bfdbeb" fill-rule="evenodd"/>
          <path id="Trazado_911384" data-name="Trazado 911384" d="M119.916,278.318c.043.994-9.3,0-9.3,0L98.882,291.09s9.7,19.073,10.98,19.019l11.366-.484c1.345-.058,6.6-22.936,6.6-22.936s-7.672-8.381-7.916-8.371" transform="translate(-22.898 -64.451)" fill="#71a4f0" fill-rule="evenodd"/>
          <path id="Trazado_911385" data-name="Trazado 911385" d="M120.934,318.826l8.306,42.336-31.232,7.8s7.791-39.658,10.473-50.924c.558.805.974,1.282,1.179,1.273Z" transform="translate(-22.696 -73.648)" fill="#608dd1" fill-rule="evenodd"/>
          <path id="Trazado_911386" data-name="Trazado 911386" d="M159.548,370.522l9.745,29.491h27.149V364.281a26.876,26.876,0,0,0-10.985.494c-12.829,3.469-25.426,5.634-25.91,5.746" transform="translate(-36.947 -84.279)" fill="#d7ad95" fill-rule="evenodd"/>
          <path id="Trazado_911387" data-name="Trazado 911387" d="M40.157,375.541s-17.8-4.018-23.426-3.778a6.919,6.919,0,0,0-1.495.238v25.765l43.7-11.7S47.49,375.229,40.157,375.541" transform="translate(-3.528 -86.088)" fill="#d7ad95" fill-rule="evenodd"/>
          <path id="Trazado_911388" data-name="Trazado 911388" d="M139.059,403.424a7.307,7.307,0,0,0-2.172.957H139.1Zm2.932-20.618a215.833,215.833,0,0,1-30.072,21.575h4.2a213.993,213.993,0,0,0,27.349-19.938Z" transform="translate(-25.917 -88.647)" fill="#b2babb"/>
          <path id="Trazado_911389" data-name="Trazado 911389" d="M145.705,233.649l-26.1,34.727,18.322,15.3,16.308-42.818Z" transform="translate(-27.697 -54.107)" fill="#d1e5f0" fill-rule="evenodd"/>
          <path id="Trazado_911390" data-name="Trazado 911390" d="M73.716,233.793l33.678,34.616-16.941,16.8L66.879,238.425Z" transform="translate(-15.487 -54.14)" fill="#d1e5f0" fill-rule="evenodd"/>
          <path id="Trazado_911391" data-name="Trazado 911391" d="M158.207,240.461l-34.16,105.855,25.374-6.569,10.3-20.976L154.591,309s28.714,1.458,28.417.252c-.231-.941-10.063-47.047-16.268-65.183a84.781,84.781,0,0,0-8.534-3.612" transform="translate(-28.726 -55.684)" fill="#f8f9f9" fill-rule="evenodd"/>
          <path id="Trazado_911392" data-name="Trazado 911392" d="M58.1,237.4,99.262,346.243l-18.3,4.558L53.027,306.124,58.095,293,33.5,291.124l15.234-50.585Z" transform="translate(-7.758 -54.975)" fill="#f8f9f9" fill-rule="evenodd"/>
          <path id="Trazado_911393" data-name="Trazado 911393" d="M199.747,332.819c-2.115,5.344-4.716,12.548-5.46,17.353l2.192.329a69.066,69.066,0,0,1,3.267-11.446Zm-10.836,16.944c-.028-.02-9.565-7.186-15.092-6.95l.095,2.205c4.739-.2,13.633,6.482,13.659,6.5Z" transform="translate(-40.252 -77.072)" fill="#b2babb"/>
          <path id="Trazado_911394" data-name="Trazado 911394" d="M44.842,354.72a15.491,15.491,0,1,1-15.573,15.491A15.531,15.531,0,0,1,44.842,354.72" transform="translate(-6.778 -82.144)" fill="#3eb5b3" fill-rule="evenodd"/>
          <path id="Trazado_911395" data-name="Trazado 911395" d="M106.443,354.721a15.491,15.491,0,1,1-15.572,15.491,15.532,15.532,0,0,1,15.572-15.491" transform="translate(-21.043 -82.144)" fill="#3eb5b3" fill-rule="evenodd"/>
          <path id="Trazado_911396" data-name="Trazado 911396" d="M98.244,368.031h7.032v-1.34H98.244v-1.413h8.4v2.753h3.6v9.25h-12Zm19.813-2.753-6.866,2.753v9.25l6.866,2.753Z" transform="translate(-22.751 -84.588)" fill="#fff" fill-rule="evenodd"/>
          <path id="Trazado_911397" data-name="Trazado 911397" d="M168.57,354.721A15.491,15.491,0,1,1,153,370.212a15.531,15.531,0,0,1,15.573-15.491" transform="translate(-35.43 -82.144)" fill="#cf6557" fill-rule="evenodd"/>
          <path id="Trazado_911398" data-name="Trazado 911398" d="M39.772,364.278H52.258A2.737,2.737,0,0,1,54.993,367v7.418a2.735,2.735,0,0,1-2.66,2.72l1.258,4.327-4.4-4.326H39.772a2.736,2.736,0,0,1-2.736-2.721V367a2.737,2.737,0,0,1,2.736-2.722m.926,5.988a1.079,1.079,0,1,1-1.085,1.079,1.083,1.083,0,0,1,1.085-1.079m10.635,0a1.079,1.079,0,1,1-1.085,1.079,1.082,1.082,0,0,1,1.085-1.079m-3.545,0a1.079,1.079,0,1,1-1.085,1.079,1.082,1.082,0,0,1,1.085-1.079m-3.546,0a1.079,1.079,0,1,1-1.085,1.079,1.082,1.082,0,0,1,1.085-1.079" transform="translate(-8.577 -84.357)" fill="#fff" fill-rule="evenodd"/>
          <path id="Trazado_911399" data-name="Trazado 911399" d="M173.372,381.5c4.2,1.439,6.1-3.1,6.1-3.1L175,374.35c-2.271,5.965-12.207-6.137-5.892-7.167l-3.1-5.168s-4.853.952-4.268,5.339c.521,3.9,7.9,12.869,11.636,14.149" transform="translate(-37.442 -83.833)" fill="#fff" fill-rule="evenodd"/>
          <rect id="Rectángulo_410423" data-name="Rectángulo 410423" width="41.017" height="48.988" transform="translate(111.666 22.725)" fill="#e8a597"/>
          <path id="Trazado_911400" data-name="Trazado 911400" d="M171.192,33.247c-5.819-2.57-12.3,2.232-12.721,8.482a14.421,14.421,0,0,0-.651,4.345,19.608,19.608,0,0,1-.751,5.213c-1.037,1.551-2.673,4.283-2.626,7a6.787,6.787,0,0,0-.126,1.843,5.774,5.774,0,0,0,2,3.98l.182-.215a5.492,5.492,0,0,1-1.9-3.785,5.691,5.691,0,0,1-.014-.609,5.829,5.829,0,0,0,2.075,3.254c4.8,3.987,22.781,2.841,24.576-.947a9.175,9.175,0,0,0,.461-1.185,8.4,8.4,0,0,0,1.121-5.259,12.842,12.842,0,0,0-2.072-6.5,9.727,9.727,0,0,1-1.488-3.955c.518-5.107-1.671-12.5-8.066-11.656M181.948,59.6c.589-3.164-.5-6.508-1.908-9.807a9.276,9.276,0,0,1-.843-3.851,8.652,8.652,0,0,0,1.324,3.084,12.533,12.533,0,0,1,2.016,6.35,9.412,9.412,0,0,1-.589,4.224M158.456,42.863q.017.46.075.925c.52,4.2.352,4.85-.99,6.807a19.4,19.4,0,0,0,.563-4.522,14.457,14.457,0,0,1,.353-3.21" transform="translate(-35.732 -7.535)" fill="#1d0e83" fill-rule="evenodd"/>
          <path id="Trazado_911401" data-name="Trazado 911401" d="M170.679,33.921c-.02,0-7.023.752-9.29,5.444a14.187,14.187,0,0,0-1.243,7.184,8.081,8.081,0,0,1-.334,3.378,10.837,10.837,0,0,1-.931,1.559c-1.607,2.415-4.058,6.1-.357,11.838l-.158.1c-3.768-5.84-1.275-9.588.359-12.044a10.83,10.83,0,0,0,.914-1.53,7.947,7.947,0,0,0,.32-3.3,14.35,14.35,0,0,1,1.26-7.272c2.313-4.787,9.417-5.547,9.438-5.549Zm-6.4,17.048c-.013.01-4.725,3.338-2.041,10.557l-.176.065c-2.734-7.355,2.093-10.765,2.106-10.775Zm8.228-15.74c.009,0,3.271-.13,4.586,6.086l-.184.038c-1.282-6.061-4.39-5.938-4.4-5.937Zm-2.017-.158c-.018.005-6.515,1.609-8.387,5.927l-.173-.075c1.912-4.4,8.495-6.03,8.513-6.034Zm6.682,29.485.259-.066A7.482,7.482,0,0,0,179.91,55.6c-1.825-4.978-1.69-6.036-1.361-8.6.058-.452.122-.95.181-1.514a15.63,15.63,0,0,0-.277-5.062,13.454,13.454,0,0,0-1.857-4.462,4.939,4.939,0,0,0-4.545-1.926l.025.187a4.742,4.742,0,0,1,4.365,1.843,13.28,13.28,0,0,1,1.83,4.4,15.459,15.459,0,0,1,.273,5c-.06.572-.123,1.064-.181,1.509-.333,2.6-.47,3.671,1.37,8.692a7.32,7.32,0,0,1-2.612,8.816ZM172.594,36.23a25.642,25.642,0,0,0,3.735,5.995c1.786,1.908,1.21,5.685.709,8.966-.092.6-.182,1.191-.251,1.727-.459,3.536.75,9.766.753,9.784l-.184.036c0-.018-1.217-6.277-.755-9.844.073-.565.161-1.14.251-1.73.495-3.24,1.063-6.969-.659-8.81a25.858,25.858,0,0,1-3.77-6.047Zm-1.926.124s.021,1.685-4.609,3.864a9.936,9.936,0,0,0-4.086,3.184,5.6,5.6,0,0,0-.971,4.11c.363,2.387-.619,4-1.594,5.6-1.506,2.472-2.994,4.913.738,10.212l-.153.108c-3.8-5.4-2.285-7.893-.745-10.418.957-1.57,1.921-3.152,1.568-5.473a5.785,5.785,0,0,1,1-4.243,10.113,10.113,0,0,1,4.16-3.247c4.525-2.129,4.5-3.694,4.5-3.7Z" transform="translate(-36.216 -7.812)" fill="#5848c2"/>
          <path id="Trazado_911402" data-name="Trazado 911402" d="M163.05,71.614s0,5.233,6.816,5.233,9.694-4.438,9.694-4.438l2.235,4.438s.571,5.527.983,11.45H161.16Z" transform="translate(-37.32 -16.584)" fill="#fff" fill-rule="evenodd"/>
          <path id="Trazado_911403" data-name="Trazado 911403" d="M163.486,72.308c.213,1.332,1.292,4.7,6.763,4.7a11.965,11.965,0,0,0,9.268-3.891,7.535,7.535,0,0,1,.846.286l.946,1.88a5.363,5.363,0,0,1-1.483,1.292c-9.033,5.882-16.524.971-17.008.64l.556-4.9Z" transform="translate(-37.704 -16.745)" fill="#e6e6e6" fill-rule="evenodd"/>
          <path id="Trazado_911404" data-name="Trazado 911404" d="M166.931,59.727s.025,6.23-1,7.849-3.664,2.318-3.664,2.318a5.758,5.758,0,0,0,5.109,5.258A15.675,15.675,0,0,0,178,73.583a3.7,3.7,0,0,0,1.82-2.915s-4.76-1.456-5.308-4.222a51.768,51.768,0,0,1-.723-6.27,6.476,6.476,0,0,1-6.854-.449" transform="translate(-37.577 -13.831)" fill="#f9bfb3" fill-rule="evenodd"/>
          <path id="Trazado_911405" data-name="Trazado 911405" d="M168.32,59.727s0,.932-.051,2.169a5.2,5.2,0,0,0,1.932,1.044,7.429,7.429,0,0,0,1.484.263,5.424,5.424,0,0,0,3.575-.978c-.075-1.2-.086-2.049-.086-2.049a6.476,6.476,0,0,1-6.854-.449" transform="translate(-38.967 -13.831)" fill="#e8a597" fill-rule="evenodd"/>
          <path id="Trazado_911406" data-name="Trazado 911406" d="M169.327,56.756a7.366,7.366,0,0,0,1.484.263c2.885.2,4.868-1.622,6.148-4.122a14.252,14.252,0,0,0,1.084-6.452,13.907,13.907,0,0,1-4.757-6.528v0a2.485,2.485,0,0,1-.84,1.808,6.191,6.191,0,0,1-3.516,2.3,14.067,14.067,0,0,0-4.06,1.543c-.074.052-.143.106-.208.16l-.013.03c-1.457,3.436.454,9.813,4.679,10.993m1.881-14.144a7.428,7.428,0,0,1-.7.318c-2.271.9-4.186,1.316-5.2,2.056a20.3,20.3,0,0,1,3.548-1.227,6.666,6.666,0,0,0,2.354-1.147" transform="translate(-38.016 -9.244)" fill="#f9bfb3" fill-rule="evenodd"/>
          <path id="Trazado_911407" data-name="Trazado 911407" d="M170.7,73.925a4.358,4.358,0,0,0-2.437-1l.055-.277a4.621,4.621,0,0,1,2.6,1.094Zm2.318-.182a4.62,4.62,0,0,1,2.6-1.094l.056.277a4.364,4.364,0,0,0-2.437,1Z" transform="translate(-38.966 -16.824)" fill="#e8a597"/>
          <path id="Trazado_911408" data-name="Trazado 911408" d="M193.931,77.875c-1.044-2.8-2.457-5.918-3.491-6.844-1.685-1.511-8.931-2.105-12.32-2.955.21.358,1.831,1.433,2.025,2.719s-.81,9.313-.4,11.649c.137.787.234,2.761.3,5.034h13.889Z" transform="translate(-41.248 -15.764)" fill="#1f6fd9" fill-rule="evenodd"/>
          <path id="Trazado_911409" data-name="Trazado 911409" d="M184.192,92.325c1.239-2.447,2.713-4.256,2.567-2.792-.078.773-.446,1.849-.638,2.792Zm4.617,0c.4-.552.747-.9,1-.518a3.147,3.147,0,0,1,.27.518Z" transform="translate(-42.654 -20.612)" fill="#1860bd" fill-rule="evenodd"/>
          <path id="Trazado_911410" data-name="Trazado 911410" d="M181.115,87.452c-.051-3.17-.118-5.562-.211-6.155a37.382,37.382,0,0,1-.413-7.057c.048-3.523-.489-5.5-.986-6.041a13.329,13.329,0,0,1-1.405-.235c0,.711.642,2.314.835,3.6s.395,8.518.8,10.854c.137.787.234,2.762.3,5.034Z" transform="translate(-41.243 -15.739)" fill="#1860bd" fill-rule="evenodd"/>
          <path id="Trazado_911411" data-name="Trazado 911411" d="M162.413,68.578a42.362,42.362,0,0,0-9.128,3.128,10.484,10.484,0,0,0-5.633,5.772c-.947,2.142-.8,4.121-1.845,6.769-.144.365-.31.742-.49,1.127V87.6h16.62c.468-3.084-.579-5.633-1.425-8.971-.887-3.5,1.648-8.888,1.9-10.046" transform="translate(-33.652 -15.881)" fill="#1f6fd9" fill-rule="evenodd"/>
          <path id="Trazado_911412" data-name="Trazado 911412" d="M153.786,90.524s.29.78.811,1.829h-3.01c.267-2.519,1.1-4.777,2.2-1.829" transform="translate(-35.103 -20.64)" fill="#1860bd" fill-rule="evenodd"/>
          <path id="Trazado_911413" data-name="Trazado 911413" d="M166.458,68.578a13.014,13.014,0,0,0-1.624.356c-.815,1.307-2.405,4.321-1.977,7.366a38.9,38.9,0,0,0,1.683,6.822,17.933,17.933,0,0,1,.372,4.473h1.071c.468-3.084-.579-5.633-1.425-8.971-.887-3.5,1.533-8.716,1.9-10.046" transform="translate(-37.696 -15.881)" fill="#1860bd" fill-rule="evenodd"/>
          <path id="Trazado_911414" data-name="Trazado 911414" d="M151.033,83.711c0,.015-.355,2.673-.548,5.825h-.28c.192-3.175.547-5.846.549-5.862Zm5.838,5.825c-2.113-4.976-2.069-12.544-2.068-12.571h.281c0,.028-.045,7.68,2.086,12.571Z" transform="translate(-34.783 -17.823)" fill="#1860bd"/>
          <path id="Trazado_911415" data-name="Trazado 911415" d="M190.758,84.182h.017c.234.035.543,1.112.769,2.765.081.589.155,1.253.217,1.972h-.284c-.061-.7-.134-1.356-.213-1.934a8.376,8.376,0,0,0-.531-2.523l.008-.054Zm-2.89-9.867c0,.023-.443,7.945-2.682,11.336l-.235-.156c2.2-3.327,2.634-11.173,2.636-11.2Zm2.847,3.173c0,.024-1.082,8.059-3.068,11.431h-.329c2.01-3.214,3.114-11.444,3.118-11.469Z" transform="translate(-42.83 -17.206)" fill="#1860bd"/>
          <path id="Trazado_911416" data-name="Trazado 911416" d="M170.587,56.911a3.136,3.136,0,0,0,3.931-.085l.217.307a3.511,3.511,0,0,1-4.393.065Z" transform="translate(-39.447 -13.159)" fill="#b36d5f"/>
          <path id="Trazado_911417" data-name="Trazado 911417" d="M176.127,82.245c0,.005-.642,1.882-3.834,4.368-3.207,2.5-4.345,2.293-4.348,2.292l.038-.279s1.026.187,4.136-2.236,3.739-4.235,3.741-4.239Z" transform="translate(-38.892 -19.024)" fill="#e6e6e6" fill-rule="evenodd"/>
          <path id="Trazado_911418" data-name="Trazado 911418" d="M178.311,84.109c0,.007-.071,1.988-2.409,5.289a20.905,20.905,0,0,1-1.4,1.79h-.373a20.263,20.263,0,0,0,1.547-1.953c2.289-3.233,2.357-5.134,2.357-5.139Z" transform="translate(-40.323 -19.474)" fill="#e6e6e6" fill-rule="evenodd"/>
          <path id="Trazado_911419" data-name="Trazado 911419" d="M166.3,48.51a3.3,3.3,0,0,1,3.869-.27l-.131.249a3.014,3.014,0,0,0-3.546.228Z" transform="translate(-38.512 -11.058)" fill="#b36d5f"/>
          <path id="Trazado_911420" data-name="Trazado 911420" d="M178.525,48.716a3.014,3.014,0,0,0-3.546-.227l-.131-.25a3.3,3.3,0,0,1,3.869.27Z" transform="translate(-40.49 -11.058)" fill="#b36d5f"/>
          <path id="Trazado_911421" data-name="Trazado 911421" d="M169.228,49.568c.324,0,.585.449.585,1s-.261,1-.585,1-.584-.449-.584-1,.261-1,.584-1" transform="translate(-39.053 -11.479)" fill="#342d6e"/>
          <path id="Trazado_911422" data-name="Trazado 911422" d="M176.124,49.427c.323,0,.585.449.585,1s-.262,1-.585,1-.585-.449-.585-1,.262-1,.585-1" transform="translate(-40.65 -11.446)" fill="#342d6e"/>
          <path id="Trazado_911423" data-name="Trazado 911423" d="M171.937,50.216c0,.008.22,2.789-.614,3.406-.452.334,1.351.53,1.356.53l-.033.3c-.007,0-2.585-.273-1.5-1.074.7-.518.493-3.134.493-3.141Z" transform="translate(-39.571 -11.629)" fill="#b36d5f"/>
          <path id="Trazado_911424" data-name="Trazado 911424" d="M169.159,50.188a.209.209,0,1,1-.209.208.208.208,0,0,1,.209-.208" transform="translate(-39.124 -11.622)" fill="#fff" fill-rule="evenodd"/>
          <path id="Trazado_911425" data-name="Trazado 911425" d="M176.008,49.916a.209.209,0,1,1-.208.209.209.209,0,0,1,.208-.209" transform="translate(-40.711 -11.559)" fill="#fff" fill-rule="evenodd"/>
          <path id="Trazado_911426" data-name="Trazado 911426" d="M109.912,6.868a4.908,4.908,0,1,1-4.933,4.908,4.92,4.92,0,0,1,4.933-4.908" transform="translate(-24.31 -1.59)" fill="#748493" fill-rule="evenodd"/>
        </g>
      </g>
    </g>
  </g>
</svg>
