<svg xmlns="http://www.w3.org/2000/svg" xmlns:xlink="http://www.w3.org/1999/xlink" width="123.001" height="123" viewBox="0 0 123.001 123">
  <defs>
    <linearGradient id="linear-gradient" x1="0.5" x2="0.5" y2="1" gradientUnits="objectBoundingBox">
      <stop offset="0" stop-color="#ddf1ff"/>
      <stop offset="1" stop-color="#fff"/>
    </linearGradient>
    <clipPath id="clip-path">
      <rect id="Rectángulo_410578" data-name="Rectángulo 410578" width="67" height="72" transform="translate(-0.101 0.136)" fill="#445866"/>
    </clipPath>
  </defs>
  <g id="img7" transform="translate(-264.668 -6026)">
    <g id="Grupo_1099808" data-name="Grupo 1099808" transform="translate(264.668 6026)">
      <g id="Grupo_1099775" data-name="Grupo 1099775" transform="translate(0 0)">
        <g id="Grupo_1099770" data-name="Grupo 1099770" transform="translate(0 0)">
          <rect id="Rectángulo_401345" data-name="Rectángulo 401345" width="104.839" height="104.839" transform="translate(9 9.16)" fill="url(#linear-gradient)"/>
          <path id="Sustracción_141" data-name="Sustracción 141" d="M106.183,123,0,106.181,16.822,0,123,16.819,106.183,123v0h0v0ZM23.2,8.788,8.783,99.8,99.8,114.212,114.214,23.2,23.2,8.788Z" transform="translate(0 0)" fill="#8ce2e5"/>
        </g>
      </g>
      <g id="Grupo_1099776" data-name="Grupo 1099776" transform="translate(25 24.995)">
        <g id="Grupo_1099618" data-name="Grupo 1099618" transform="translate(0 0)">
          <rect id="Rectángulo_401104" data-name="Rectángulo 401104" width="72.141" height="73.01" transform="translate(0)" fill="none"/>
        </g>
        <g id="Grupo_1122011" data-name="Grupo 1122011" transform="translate(2.845 1.154)">
          <g id="Grupo_1122010" data-name="Grupo 1122010" transform="translate(0.256 -0.285)" clip-path="url(#clip-path)">
            <path id="Trazado_911906" data-name="Trazado 911906" d="M1.05,276.669A1.05,1.05,0,0,1,0,275.619v-5.25a6.912,6.912,0,0,1,4.781-6.587l13-4.095,0-4.716a1.05,1.05,0,0,1,1.049-1.051h0a1.05,1.05,0,0,1,1.05,1.049l0,5.487a1.05,1.05,0,0,1-.718,1l-.021.007L5.421,265.782A4.814,4.814,0,0,0,2.1,270.369v5.25a1.05,1.05,0,0,1-1.05,1.05" transform="translate(-0.272 -218.075)" fill="#445866"/>
            <path id="Trazado_911907" data-name="Trazado 911907" d="M48.887,290.047H1.05A1.05,1.05,0,0,1,0,289v-8.8a1.05,1.05,0,1,1,2.1,0v7.752H47.837V270.369a4.811,4.811,0,0,0-3.379-4.607L30.8,261.46a1.055,1.055,0,0,1-.739-1l0-5.487a1.05,1.05,0,0,1,1.05-1.049h0a1.05,1.05,0,0,1,1.049,1.051l0,4.716,12.931,4.072a6.9,6.9,0,0,1,4.848,6.61V289a1.05,1.05,0,0,1-1.05,1.05" transform="translate(-0.272 -218.075)" fill="#445866"/>
            <path id="Trazado_911908" data-name="Trazado 911908" d="M63.172,459.03a1.05,1.05,0,0,1-1.05-1.05v-6.523a1.05,1.05,0,0,1,2.1,0v6.523a1.05,1.05,0,0,1-1.05,1.05" transform="translate(-53.697 -387.053)" fill="#445866"/>
            <path id="Trazado_911909" data-name="Trazado 911909" d="M280.61,459.03a1.05,1.05,0,0,1-1.05-1.05v-6.523a1.05,1.05,0,0,1,2.1,0v6.523a1.05,1.05,0,0,1-1.05,1.05" transform="translate(-240.692 -387.053)" fill="#445866"/>
            <path id="Trazado_911910" data-name="Trazado 911910" d="M135.4,266.4h-2.485a5.958,5.958,0,0,1-5.951-5.951v-5.488a1.05,1.05,0,1,1,2.1,0v5.488a3.855,3.855,0,0,0,3.851,3.851H135.4a3.856,3.856,0,0,0,3.851-3.851v-5.488a1.05,1.05,0,1,1,2.1,0v5.488A5.958,5.958,0,0,1,135.4,266.4" transform="translate(-109.458 -218.071)" fill="#445866"/>
            <path id="Trazado_911911" data-name="Trazado 911911" d="M109.086,312.788H106.6a10.386,10.386,0,0,1-10.223-8.831,1.05,1.05,0,1,1,2.078-.3,8.275,8.275,0,0,0,8.146,7.035h2.485a8.272,8.272,0,0,0,8.144-7.036,1.05,1.05,0,0,1,2.078.3,10.384,10.384,0,0,1-10.222,8.833" transform="translate(-83.146 -260.072)" fill="#445866"/>
            <path id="Trazado_911912" data-name="Trazado 911912" d="M249.249,134.4H247.14a1.05,1.05,0,0,1-1.05-1.05v-8.044a1.05,1.05,0,0,1,1.05-1.05h2.109a3.98,3.98,0,0,1,3.976,3.976v2.192a3.98,3.98,0,0,1-3.976,3.976m-1.059-2.1h1.059a1.878,1.878,0,0,0,1.876-1.876v-2.192a1.878,1.878,0,0,0-1.876-1.876H248.19Z" transform="translate(-211.908 -106.564)" fill="#445866"/>
            <path id="Trazado_911913" data-name="Trazado 911913" d="M65.719,134.4H63.611a3.98,3.98,0,0,1-3.976-3.976v-2.192a3.98,3.98,0,0,1,3.976-3.976h2.109a1.05,1.05,0,0,1,1.05,1.05v8.044a1.05,1.05,0,0,1-1.05,1.05m-2.109-8.044a1.878,1.878,0,0,0-1.876,1.876v2.192a1.878,1.878,0,0,0,1.876,1.876h1.059v-5.944Z" transform="translate(-51.558 -106.564)" fill="#445866"/>
            <path id="Trazado_911914" data-name="Trazado 911914" d="M135.963,158.623h-1.378a1.05,1.05,0,1,1,0-2.1h1.378a1.05,1.05,0,1,1,0,2.1" transform="translate(-115.112 -134.314)" fill="#445866"/>
            <path id="Trazado_911915" data-name="Trazado 911915" d="M200.58,158.623H199.2a1.05,1.05,0,0,1,0-2.1h1.378a1.05,1.05,0,1,1,0,2.1" transform="translate(-170.682 -134.314)" fill="#445866"/>
            <path id="Trazado_911916" data-name="Trazado 911916" d="M107.981,146.105h-1.607a10.794,10.794,0,0,1-10.782-10.782V125.306a1.05,1.05,0,0,1,1.05-1.05h21.071a1.05,1.05,0,0,1,1.05,1.05v10.017a10.794,10.794,0,0,1-10.782,10.782M97.692,126.356v8.967A8.691,8.691,0,0,0,106.374,144h1.607a8.691,8.691,0,0,0,8.682-8.682v-8.967Z" transform="translate(-82.481 -106.564)" fill="#445866"/>
            <path id="Trazado_911917" data-name="Trazado 911917" d="M159.3,213.732H154.43a1.05,1.05,0,0,1,0-2.1H159.3a1.05,1.05,0,1,1,0,2.1" transform="translate(-132.178 -181.707)" fill="#445866"/>
            <path id="Trazado_911918" data-name="Trazado 911918" d="M104.805,19.5H78.659a1.05,1.05,0,0,1-1.05-1.05V13.948a13.84,13.84,0,0,1,1-5.19,1.05,1.05,0,0,1,1.948.784,11.748,11.748,0,0,0-.848,4.406V17.4h24.046V13.948A11.852,11.852,0,0,0,91.916,2.11h-.368A11.861,11.861,0,0,0,82.794,5.98a1.05,1.05,0,0,1-1.553-1.413A13.966,13.966,0,0,1,91.548.01h.368a13.954,13.954,0,0,1,13.939,13.938v4.505a1.05,1.05,0,0,1-1.05,1.05" transform="translate(-67.016 0.286)" fill="#445866"/>
            <path id="Trazado_911919" data-name="Trazado 911919" d="M378.133,254.946h-4.349a1.05,1.05,0,0,1-1.05-1.05v-4.349a1.05,1.05,0,0,1,1.05-1.05h4.349a1.05,1.05,0,0,1,1.05,1.05V253.9a1.05,1.05,0,0,1-1.05,1.05m-3.3-2.1h2.249V250.6h-2.249Z" transform="translate(-320.821 -213.411)" fill="#445866"/>
            <path id="Trazado_911920" data-name="Trazado 911920" d="M389.393,68.573a1.05,1.05,0,0,1-1.05-1.05V63.174a1.05,1.05,0,0,1,2.1,0v4.349a1.05,1.05,0,0,1-1.05,1.05" transform="translate(-334.245 -53.131)" fill="#445866"/>
            <path id="Trazado_911921" data-name="Trazado 911921" d="M378.21,79.755h-4.349a1.05,1.05,0,0,1,0-2.1h4.349a1.05,1.05,0,0,1,0,2.1" transform="translate(-320.888 -66.488)" fill="#445866"/>
            <path id="Trazado_911922" data-name="Trazado 911922" d="M342.8,307.754a1.05,1.05,0,1,1,0-2.1,5.479,5.479,0,0,0,5.473-5.473V280.61a1.05,1.05,0,1,1,2.1,0v19.57a7.582,7.582,0,0,1-7.573,7.573" transform="translate(-294.175 -240.125)" fill="#445866"/>
            <path id="Trazado_911923" data-name="Trazado 911923" d="M330.658,36.891H314.321a3.767,3.767,0,0,1-3.762-3.763V20.018a1.05,1.05,0,0,1,2.1,0v13.11a1.665,1.665,0,0,0,1.662,1.663h16.337a1.665,1.665,0,0,0,1.663-1.663V9.2a1.665,1.665,0,0,0-1.663-1.662h-2.723a2.411,2.411,0,0,1-2.408-2.409,3.027,3.027,0,0,0-6.054,0,2.412,2.412,0,0,1-2.41,2.409h-2.743A1.664,1.664,0,0,0,312.659,9.2v6.243a1.05,1.05,0,0,1-2.1,0V9.2a3.766,3.766,0,0,1,3.762-3.762h2.743a.312.312,0,0,0,.309-.309,5.127,5.127,0,0,1,10.254,0,.309.309,0,0,0,.308.309h2.723A3.767,3.767,0,0,1,334.422,9.2v23.93a3.768,3.768,0,0,1-3.763,3.763" transform="translate(-267.351 0.295)" fill="#445866"/>
            <path id="Trazado_911924" data-name="Trazado 911924" d="M352.089,130.717h-14.5a1.05,1.05,0,0,1-1.05-1.05V116.259a1.05,1.05,0,0,1,.58-.939c4.531-2.266,6.567-.733,8.2.5,1.509,1.136,2.6,1.957,6.185-.432a1.05,1.05,0,0,1,1.632.874v13.407a1.05,1.05,0,0,1-1.05,1.05m-13.45-2.1h12.4V118.1c-3.693,1.874-5.5.516-6.98-.6-1.383-1.041-2.492-1.876-5.42-.573Z" transform="translate(-289.694 -97.88)" fill="#445866"/>
            <path id="Trazado_911925" data-name="Trazado 911925" d="M389.4,28.6a1.029,1.029,0,0,1-.206-.021,1.058,1.058,0,0,1-.2-.06,1.139,1.139,0,0,1-.182-.1,1.016,1.016,0,0,1-.158-.13,1.107,1.107,0,0,1-.131-.16,1.134,1.134,0,0,1-.1-.182,1.048,1.048,0,0,1-.06-.2,1.127,1.127,0,0,1-.02-.206,1.056,1.056,0,0,1,.308-.742,1.015,1.015,0,0,1,.158-.13,1.139,1.139,0,0,1,.182-.1,1.05,1.05,0,0,1,1.452.969,1.037,1.037,0,0,1-.021.206,1.067,1.067,0,0,1-.06.2,1.031,1.031,0,0,1-.1.182,1.015,1.015,0,0,1-.13.16,1.062,1.062,0,0,1-.742.308" transform="translate(-334.249 -22.498)" fill="#445866"/>
            <path id="Trazado_911926" data-name="Trazado 911926" d="M223.39,401.734a1.048,1.048,0,0,1-.835-.412l-1.336-1.746-1.336,1.746a1.05,1.05,0,0,1-1.668-1.276l1.682-2.2-.557-.727A5.671,5.671,0,0,1,218.2,394.4a3.568,3.568,0,0,1,1.463-3.6,3,3,0,0,1,3.2-.006,3.478,3.478,0,0,1,1.391,3.567,5.9,5.9,0,0,1-1.184,2.8l-.529.691,1.682,2.2a1.05,1.05,0,0,1-.833,1.688m-2.115-9.306a.925.925,0,0,0-.493.144,1.535,1.535,0,0,0-.5,1.563,3.57,3.57,0,0,0,.727,1.71l.211.276.183-.239a3.8,3.8,0,0,0,.769-1.8,1.505,1.505,0,0,0-.44-1.524.845.845,0,0,0-.457-.131" transform="translate(-187.75 -335.387)" fill="#445866"/>
          </g>
        </g>
      </g>
    </g>
  </g>
</svg>
