<svg xmlns="http://www.w3.org/2000/svg" width="139" height="138.999" viewBox="0 0 139 138.999">
  <g id="img8" transform="translate(-173 -7366)">
    <g id="Grupo_1099775" data-name="Grupo 1099775" transform="translate(-407 1749.16)">
      <g id="Grupo_1099770" data-name="Grupo 1099770" transform="translate(580 5616.839)">
        <rect id="Rectángulo_401345" data-name="Rectángulo 401345" width="120.838" height="120.838" transform="translate(9 9.161)" fill="#fff"/>
        <path id="Sustracción_141" data-name="Sustracción 141" d="M119.994,139,0,119.993,19.01,0,139,19.008,119.994,139v0h0v0ZM26.221,9.932,9.926,112.779l102.854,16.29L129.07,26.218,26.219,9.932Z" fill="#b5aae8"/>
      </g>
    </g>
    <g id="Grupo_1099776" data-name="Grupo 1099776" transform="translate(201.414 7393.395)">
      <g id="Grupo_1099618" data-name="Grupo 1099618" transform="translate(0 0)">
        <rect id="Rectángulo_401104" data-name="Rectángulo 401104" width="81.642" height="82.626" fill="none"/>
      </g>
      <path id="Trazado_912300" data-name="Trazado 912300" d="M96.87,38.436a1.118,1.118,0,0,0-1.138-.962h0l-8.711-.019a9.59,9.59,0,0,0,.064-1.345A9.249,9.249,0,0,0,78.9,26.864V23.1c0-7.747-6.443-11.8-12.839-11.8a13.833,13.833,0,0,0-8.736,2.916,10.966,10.966,0,0,0-4.065,8.858l.009,21.485H36.039A14.67,14.67,0,0,0,45.76,33.395a4.119,4.119,0,0,0-.687-3.563c-.056-.07-.115-.13-.176-.2l1.131-9.822a5.382,5.382,0,0,0-3.762-5.857L41.238,13.6l.169-.631a1.147,1.147,0,0,0-.812-1.4L38.84,11.1a2.871,2.871,0,0,0-1.486,5.546l1.755.471a1.188,1.188,0,0,0,.3.039,1.146,1.146,0,0,0,1.108-.851l.127-.476.937.323a3.132,3.132,0,0,1,2.168,3.406l-1.031,8.959a3.816,3.816,0,0,0-.527-.038A3.7,3.7,0,0,0,38.633,31.2a1.084,1.084,0,0,0-.038.168,7.619,7.619,0,0,1-15.068,0,1.1,1.1,0,0,0-.038-.168,3.705,3.705,0,0,0-3.556-2.724,3.814,3.814,0,0,0-.527.038l-1.031-8.958a3.153,3.153,0,0,1,2.23-3.427l.875-.3.127.475a1.145,1.145,0,0,0,1.108.851,1.189,1.189,0,0,0,.3-.039l1.754-.471A2.871,2.871,0,0,0,24.022,11a2.9,2.9,0,0,0-.74.1l-1.755.471a1.148,1.148,0,0,0-.812,1.4l.169.632-.966.334A5.4,5.4,0,0,0,16.1,19.817l1.131,9.826c-.06.065-.119.132-.175.2a4.059,4.059,0,0,0-.7,3.507,14.7,14.7,0,0,0,9.732,11.205h-5a3.29,3.29,0,0,0-3.235,3.335V84.015h-.647A1.273,1.273,0,0,0,16,85.244v3.564c0,3.062,2.273,4.819,6.13,4.819H74.265c3.857,0,6.15-1.757,6.15-4.819V85.244a1.29,1.29,0,0,0-1.227-1.229H78.56V82.2l9.623-.018c4.15-.007,6.647-2.187,7.207-6.308.763-5.622-.205-10.972-1.145-16.145a57.575,57.575,0,0,1-1.351-13.079c.14-2.844.8-6.35,3.135-6.976a1.129,1.129,0,0,0,.842-1.242ZM38.6,14.6l-.647-.174A.575.575,0,0,1,38.1,13.3a.6.6,0,0,1,.146.019l.646.173Zm-14.72-1.285a.593.593,0,0,1,.705.407.579.579,0,0,1-.408.7l-.646.174-.3-1.111ZM84.82,36.093a7.006,7.006,0,1,1-7.006-7.007A7.014,7.014,0,0,1,84.82,36.093ZM55.561,23.072a8.776,8.776,0,0,1,3.223-7.089,11.641,11.641,0,0,1,7.327-2.4c5.094,0,10.6,2.982,10.6,9.512v3.766a9.363,9.363,0,0,0-8.082,10.59h-.287c-4.151.007-6.643,2.162-7.2,6.282-.038.283-.074.651-.1.82h-5.47Zm5.4,27.724h-5.6a16.717,16.717,0,0,0,.266-2.581v-1.3h5.247A37.365,37.365,0,0,0,60.965,50.8Zm-7.7-2.581a14.587,14.587,0,0,1-.228,2.581H32.389a14.627,14.627,0,0,1-.2-2.581v-1.3H53.266Zm-.893,4.942a10.561,10.561,0,0,1-19.319,0ZM18.6,32.918a1.9,1.9,0,0,1,.241-1.64,1.405,1.405,0,0,1,1.091-.507A1.38,1.38,0,0,1,21.273,31.8a9.914,9.914,0,0,0,19.579,0,1.379,1.379,0,0,1,1.339-1.031,1.4,1.4,0,0,1,1.091.507,1.937,1.937,0,0,1,.232,1.681,12.7,12.7,0,0,1-24.91-.041Zm2.488,14h8.737v1.3a16.726,16.726,0,0,0,.238,2.581H20.047v-2.9A1.025,1.025,0,0,1,21.09,46.917ZM78.055,88.808c0,.691-.015,2.458-3.789,2.458H22.13c-3.775,0-3.77-1.767-3.77-2.458V86.376H33.706v.636a2.864,2.864,0,0,0,2.848,2.905H59.842a2.88,2.88,0,0,0,2.868-2.905v-.636H78.055v2.432ZM60.349,86.376v.636a.485.485,0,0,1-.507.544H36.554a.61.61,0,0,1-.656-.544v-.636Zm16.019-2.361H20.047V53.157H30.621a12.809,12.809,0,0,0,24.186,0h6.38c.276,2.192.688,4.55,1.094,6.787.332,1.827.668,3.668.927,5.523H58.423a2.394,2.394,0,0,0-1.716.767c-1.154,1.151-1.871,3.627-1.871,6.462,0,5.882,2.282,9.5,5.955,9.5,0,0,0-.038.006-.038h0l15.568.047ZM60.645,79.963c-2.586-.141-3.514-3.819-3.514-7.254,0-3.091.93-4.77,1.283-4.936.393.2,1.306,1.889,1.306,4.954A1.169,1.169,0,0,0,60.868,73.9h2.708C63.354,76.427,62.641,79.3,60.645,79.963Zm1.329-8.426a11.137,11.137,0,0,0-.845-3.71h2.35c.121,1.18.192,2.529.189,3.71Zm31.149,4.032c-.405,2.985-1.926,4.316-4.929,4.321l-24.041.044A13.671,13.671,0,0,0,65.926,73.1a59.308,59.308,0,0,0-1.387-13.6c-.95-5.227-1.846-10.165-1.133-15.427.4-2.983,1.925-4.316,4.986-4.321h.87a9.3,9.3,0,0,0,17.118-.032l6-.011A13.675,13.675,0,0,0,90.6,46.541a59.3,59.3,0,0,0,1.387,13.6C92.94,65.37,93.837,70.307,93.123,75.569Z" transform="translate(-15.619 -11)" fill="#445866"/>
    </g>
  </g>
</svg>
